<svg width="163" height="130" viewBox="0 0 163 130" fill="none" xmlns="http://www.w3.org/2000/svg">
<g clip-path="url(#clip0_2915_6479)">
<path d="M47.7411 126.194C47.7411 126.194 44.6511 129.206 40.2632 129.206C32.7235 129.206 24.1641 119.033 24.1641 119.033C24.1641 119.033 33.7741 118.48 38.3783 119.555C42.9825 120.631 47.7411 126.194 47.7411 126.194Z" fill="white"/>
<path d="M51.3882 121.648C51.3882 121.648 42.2107 119.005 42.6124 110.799C43.0141 102.593 43.6012 102.746 43.6012 102.746C43.6012 102.746 53.1495 110.03 52.6242 115.563C52.1916 120.603 51.3882 121.648 51.3882 121.648Z" fill="white"/>
<path d="M13.6582 104.926C13.6582 104.926 17.4899 112.517 22.8974 115.929C28.305 119.34 34.5469 115.929 34.5469 115.929C34.5469 115.929 30.7771 109.813 26.7909 107.999C22.8047 106.186 13.6582 104.926 13.6582 104.926Z" fill="white"/>
<path d="M38.9962 111.904C38.9962 111.904 32.7852 108.216 32.7852 103.513C32.7852 98.8109 35.9061 92.6641 35.9061 92.6641C35.9061 92.6641 41.2828 100.225 41.4991 104.189C41.5918 106.986 40.7266 109.691 38.9962 111.904Z" fill="white"/>
<path d="M5.53125 88.6992C5.53125 88.6992 9.42471 97.8581 12.2367 100.962C16.1919 105.327 24.1024 103.851 24.1024 103.851C24.1024 103.851 22.1557 96.936 18.2313 94.2621C15.7902 92.6025 12.8856 91.496 5.53125 88.6992Z" fill="white"/>
<path d="M29.8179 81.2617C29.8179 81.2617 24.503 88.7609 24.7193 92.2646C24.9356 95.7683 27.8712 99.4872 29.2308 100.379C30.5904 101.27 33.6805 94.3238 33.526 91.3733C33.3715 88.4228 29.8179 81.2617 29.8179 81.2617Z" fill="white"/>
<path d="M1.17383 71.6133C1.17383 71.6133 3.05876 81.6327 5.53079 85.2286C9.39335 90.853 16.6859 89.7466 16.6859 89.7466C16.6859 89.7466 16.4078 84.6754 12.0199 79.3276C10.3822 77.2991 1.17383 71.6133 1.17383 71.6133Z" fill="white"/>
<path d="M26.6684 68.5039C26.6684 68.5039 19.1905 75.2347 19.2523 79.5068C19.3141 83.7789 22.0025 87.4978 22.0025 87.4978C22.0025 87.4978 28.0899 83.533 28.1517 79.6605C28.2135 75.788 26.6684 68.5039 26.6684 68.5039Z" fill="white"/>
<path d="M11.4951 73.5491C11.4951 73.5491 3.39922 72.6886 1.45249 66.9105C-0.494235 61.1325 0.0928737 52.4961 0.0928737 52.4961C0.0928737 52.4961 8.6523 60.7329 9.79562 63.6834C10.9389 66.6339 11.8042 68.6009 11.4951 73.5491Z" fill="white"/>
<path d="M25.6472 54.8906C25.6472 54.8906 15.4809 61.1604 15.8208 66.3545C16.1607 71.5487 17.3041 72.9317 17.3041 72.9317C17.3041 72.9317 23.9168 70.2578 24.9365 66.2009C25.8326 62.5127 26.0489 58.671 25.6472 54.8906Z" fill="white"/>
<path d="M3.12014 35.4648C3.12014 35.4648 0.957105 43.9475 1.17341 47.5127C1.79142 56.856 10.3508 57.9317 10.3508 57.9317C10.3508 57.9317 11.6178 50.0022 10.289 46.6829C8.96033 43.3636 5.40677 38.5383 5.40677 38.5383L3.12014 35.4648Z" fill="white"/>
<path d="M15.7907 58.5202C15.7907 58.5202 14.6164 50.7444 18.4481 47.3328C21.1055 45.0278 24.2265 43.2759 27.5946 42.2309C27.8727 42.1695 27.2856 48.2549 24.69 53.2338C22.8669 56.799 16.2542 58.1821 15.7907 58.5202Z" fill="white"/>
<path d="M11.558 42.2277C11.558 42.2277 5.5015 38.5396 5.09979 33.0996C4.69809 27.6596 9.54946 18.3471 9.79667 18.5623C10.0439 18.7774 14.4626 28.5509 14.4626 32.7001C14.4626 36.8492 13.0412 39.4002 11.558 42.2277Z" fill="white"/>
<path d="M32.5372 29.8125C32.5372 29.8125 24.6267 30.0276 20.4551 34.3305C18.014 36.7892 16.8707 40.2315 17.3651 43.643C17.3651 43.643 24.3486 43.7044 27.6549 39.4016C30.9613 35.0988 32.5372 29.8125 32.5372 29.8125Z" fill="white"/>
<path d="M20.3941 2.61328L15.6354 9.31338C13.7814 11.9258 11.2166 17.4273 12.2981 20.5622C13.3796 23.6971 16.686 26.4632 16.686 26.4632C16.686 26.4632 21.2902 21.2998 21.661 17.0277C22.0318 12.7556 20.3941 2.61328 20.3941 2.61328Z" fill="white"/>
<path d="M22 29.4138C22 29.4138 23.1433 22.4371 28.1492 19.9783C33.1551 17.5196 39.9532 18.1035 39.9532 18.1035C39.9532 18.1035 36.3378 25.2954 31.5791 28.0307C27.4076 30.3973 22 29.4138 22 29.4138Z" fill="white"/>
<path d="M115.289 126.194C115.289 126.194 118.379 129.206 122.767 129.206C130.307 129.206 138.835 119.033 138.835 119.033C138.835 119.033 129.225 118.48 124.652 119.555C120.079 120.631 115.289 126.194 115.289 126.194Z" fill="white"/>
<path d="M111.643 121.648C111.643 121.648 120.789 119.005 120.388 110.799C119.986 102.593 119.43 102.746 119.43 102.746C119.43 102.746 109.882 110.03 110.376 115.563C110.839 120.603 111.643 121.648 111.643 121.648Z" fill="white"/>
<path d="M149.373 104.926C149.373 104.926 145.51 112.517 140.133 115.929C134.757 119.34 128.453 115.929 128.453 115.929C128.453 115.929 132.254 109.813 136.209 107.999C140.164 106.186 149.373 104.926 149.373 104.926Z" fill="white"/>
<path d="M124.003 111.904C124.003 111.904 130.214 108.216 130.214 103.513C130.214 98.8109 127.124 92.6641 127.124 92.6641C127.124 92.6641 121.716 100.225 121.531 104.189C121.407 106.956 122.303 109.691 124.003 111.904Z" fill="white"/>
<path d="M157.501 88.6992C157.501 88.6992 153.607 97.8581 150.795 100.962C146.84 105.327 138.93 103.851 138.93 103.851C138.93 103.851 140.876 96.936 144.77 94.2621C147.242 92.6025 150.147 91.496 157.501 88.6992Z" fill="white"/>
<path d="M133.18 81.2617C133.18 81.2617 138.495 88.7609 138.31 92.2646C138.124 95.7683 135.127 99.4872 133.798 100.379C132.47 101.27 129.349 94.3238 129.472 91.3733C129.596 88.4228 133.18 81.2617 133.18 81.2617Z" fill="white"/>
<path d="M161.825 71.6133C161.825 71.6133 159.971 81.6327 157.499 85.2286C153.605 90.853 146.344 89.7466 146.344 89.7466C146.344 89.7466 146.591 84.6754 150.979 79.3276C152.647 77.2991 161.825 71.6133 161.825 71.6133Z" fill="white"/>
<path d="M136.364 68.5039C136.364 68.5039 143.842 75.2347 143.78 79.5068C143.718 83.7789 140.999 87.4978 140.999 87.4978C140.999 87.4978 134.943 83.533 134.881 79.6605C134.819 75.788 136.364 68.5039 136.364 68.5039Z" fill="white"/>
<path d="M151.536 73.5491C151.536 73.5491 159.601 72.6886 161.578 66.9105C163.556 61.1325 162.907 52.4961 162.907 52.4961C162.907 52.4961 154.348 60.7329 153.204 63.6834C152.061 66.6339 151.227 68.6009 151.536 73.5491Z" fill="white"/>
<path d="M137.352 54.8906C137.352 54.8906 147.549 61.1604 147.209 66.3545C146.869 71.5487 145.726 72.9317 145.726 72.9317C145.726 72.9317 139.082 70.2578 138.063 66.2009C137.167 62.5127 136.95 58.671 137.352 54.8906Z" fill="white"/>
<path d="M159.88 35.4648C159.88 35.4648 162.074 43.9475 161.827 47.5127C161.239 56.856 152.68 57.9317 152.68 57.9317C152.68 57.9317 151.382 50.0022 152.742 46.6829C154.101 43.3636 157.624 38.5383 157.624 38.5383L159.88 35.4648Z" fill="white"/>
<path d="M147.209 58.5202C147.209 58.5202 148.383 50.7444 144.582 47.3328C141.925 44.997 138.804 43.2759 135.405 42.2309C135.127 42.1695 135.745 48.2549 138.31 53.2338C140.164 56.799 146.745 58.1821 147.209 58.5202Z" fill="white"/>
<path d="M151.473 42.2277C151.473 42.2277 157.53 38.5396 157.931 33.0996C158.333 27.6596 153.482 18.3471 153.203 18.5623C152.925 18.7774 148.568 28.5509 148.568 32.7001C148.568 36.8492 149.99 39.4002 151.473 42.2277Z" fill="white"/>
<path d="M130.492 29.8125C130.492 29.8125 138.372 30.0276 142.543 34.3305C145.015 36.7585 146.159 40.2315 145.664 43.643C145.664 43.643 138.65 43.7044 135.344 39.4016C132.037 35.0988 130.492 29.8125 130.492 29.8125Z" fill="white"/>
<path d="M142.636 2.61328L147.395 9.31338C149.218 11.9258 151.783 17.4273 150.701 20.5622C149.62 23.6971 146.344 26.4632 146.344 26.4632C146.344 26.4632 141.74 21.2998 141.369 17.0277C140.998 12.7556 142.636 2.61328 142.636 2.61328Z" fill="white"/>
<path d="M140.998 29.4138C140.998 29.4138 139.855 22.4371 134.88 19.9783C129.905 17.5196 123.076 18.1035 123.076 18.1035C123.076 18.1035 126.661 25.2954 131.419 28.0307C135.622 30.3973 140.998 29.4138 140.998 29.4138Z" fill="white"/>
<path d="M47.7411 126.194C47.7411 126.194 44.6511 129.206 40.2632 129.206C32.7235 129.206 24.1641 119.033 24.1641 119.033C24.1641 119.033 33.7741 118.48 38.3783 119.555C42.9825 120.631 47.7411 126.194 47.7411 126.194Z" fill="white"/>
<path d="M51.3882 121.648C51.3882 121.648 42.2107 119.005 42.6124 110.799C43.0141 102.593 43.6012 102.746 43.6012 102.746C43.6012 102.746 53.1495 110.03 52.6242 115.563C52.1916 120.603 51.3882 121.648 51.3882 121.648Z" fill="white"/>
<path d="M13.6582 104.926C13.6582 104.926 17.4899 112.517 22.8974 115.929C28.305 119.34 34.5469 115.929 34.5469 115.929C34.5469 115.929 30.7771 109.813 26.7909 107.999C22.8047 106.186 13.6582 104.926 13.6582 104.926Z" fill="white"/>
<path d="M38.9962 111.904C38.9962 111.904 32.7852 108.216 32.7852 103.513C32.7852 98.8109 35.9061 92.6641 35.9061 92.6641C35.9061 92.6641 41.2828 100.225 41.4991 104.189C41.5918 106.986 40.7266 109.691 38.9962 111.904Z" fill="white"/>
<path d="M5.53125 88.6992C5.53125 88.6992 9.42471 97.8581 12.2367 100.962C16.1919 105.327 24.1024 103.851 24.1024 103.851C24.1024 103.851 22.1557 96.936 18.2313 94.2621C15.7902 92.6025 12.8856 91.496 5.53125 88.6992Z" fill="white"/>
<path d="M29.8179 81.2617C29.8179 81.2617 24.503 88.7609 24.7193 92.2646C24.9356 95.7683 27.8712 99.4872 29.2308 100.379C30.5904 101.27 33.6805 94.3238 33.526 91.3733C33.3715 88.4228 29.8179 81.2617 29.8179 81.2617Z" fill="white"/>
<path d="M1.17383 71.6133C1.17383 71.6133 3.05876 81.6327 5.53079 85.2286C9.39335 90.853 16.6859 89.7466 16.6859 89.7466C16.6859 89.7466 16.4078 84.6754 12.0199 79.3276C10.3822 77.2991 1.17383 71.6133 1.17383 71.6133Z" fill="white"/>
<path d="M26.6684 68.5039C26.6684 68.5039 19.1905 75.2347 19.2523 79.5068C19.3141 83.7789 22.0025 87.4978 22.0025 87.4978C22.0025 87.4978 28.0899 83.533 28.1517 79.6605C28.2135 75.788 26.6684 68.5039 26.6684 68.5039Z" fill="white"/>
<path d="M11.4951 73.5491C11.4951 73.5491 3.39922 72.6886 1.45249 66.9105C-0.494235 61.1325 0.0928737 52.4961 0.0928737 52.4961C0.0928737 52.4961 8.6523 60.7329 9.79562 63.6834C10.9389 66.6339 11.8042 68.6009 11.4951 73.5491Z" fill="white"/>
<path d="M25.6472 54.8906C25.6472 54.8906 15.4809 61.1604 15.8208 66.3545C16.1607 71.5487 17.3041 72.9317 17.3041 72.9317C17.3041 72.9317 23.9168 70.2578 24.9365 66.2009C25.8326 62.5127 26.0489 58.671 25.6472 54.8906Z" fill="white"/>
<path d="M3.12014 35.4648C3.12014 35.4648 0.957105 43.9475 1.17341 47.5127C1.79142 56.856 10.3508 57.9317 10.3508 57.9317C10.3508 57.9317 11.6178 50.0022 10.289 46.6829C8.96033 43.3636 5.40677 38.5383 5.40677 38.5383L3.12014 35.4648Z" fill="white"/>
<path d="M15.7907 58.5202C15.7907 58.5202 14.6164 50.7444 18.4481 47.3328C21.1055 45.0278 24.2265 43.2759 27.5946 42.2309C27.8727 42.1695 27.2856 48.2549 24.69 53.2338C22.8669 56.799 16.2542 58.1821 15.7907 58.5202Z" fill="white"/>
<path d="M11.558 42.2277C11.558 42.2277 5.5015 38.5396 5.09979 33.0996C4.69809 27.6596 9.54946 18.3471 9.79667 18.5623C10.0439 18.7774 14.4626 28.5509 14.4626 32.7001C14.4626 36.8492 13.0412 39.4002 11.558 42.2277Z" fill="white"/>
<path d="M32.5372 29.8125C32.5372 29.8125 24.6267 30.0276 20.4551 34.3305C18.014 36.7892 16.8707 40.2315 17.3651 43.643C17.3651 43.643 24.3486 43.7044 27.6549 39.4016C30.9613 35.0988 32.5372 29.8125 32.5372 29.8125Z" fill="white"/>
<path d="M20.3941 2.61328L15.6354 9.31338C13.7814 11.9258 11.2166 17.4273 12.2981 20.5622C13.3796 23.6971 16.686 26.4632 16.686 26.4632C16.686 26.4632 21.2902 21.2998 21.661 17.0277C22.0318 12.7556 20.3941 2.61328 20.3941 2.61328Z" fill="white"/>
<path d="M22 29.4138C22 29.4138 23.1433 22.4371 28.1492 19.9783C33.1551 17.5196 39.9532 18.1035 39.9532 18.1035C39.9532 18.1035 36.3378 25.2954 31.5791 28.0307C27.4076 30.3973 22 29.4138 22 29.4138Z" fill="white"/>
<path d="M115.289 126.194C115.289 126.194 118.379 129.206 122.767 129.206C130.307 129.206 138.835 119.033 138.835 119.033C138.835 119.033 129.225 118.48 124.652 119.555C120.079 120.631 115.289 126.194 115.289 126.194Z" fill="white"/>
<path d="M111.643 121.648C111.643 121.648 120.789 119.005 120.388 110.799C119.986 102.593 119.43 102.746 119.43 102.746C119.43 102.746 109.882 110.03 110.376 115.563C110.839 120.603 111.643 121.648 111.643 121.648Z" fill="white"/>
<path d="M149.373 104.926C149.373 104.926 145.51 112.517 140.133 115.929C134.757 119.34 128.453 115.929 128.453 115.929C128.453 115.929 132.254 109.813 136.209 107.999C140.164 106.186 149.373 104.926 149.373 104.926Z" fill="white"/>
<path d="M124.003 111.904C124.003 111.904 130.214 108.216 130.214 103.513C130.214 98.8109 127.124 92.6641 127.124 92.6641C127.124 92.6641 121.716 100.225 121.531 104.189C121.407 106.956 122.303 109.691 124.003 111.904Z" fill="white"/>
<path d="M157.501 88.6992C157.501 88.6992 153.607 97.8581 150.795 100.962C146.84 105.327 138.93 103.851 138.93 103.851C138.93 103.851 140.876 96.936 144.77 94.2621C147.242 92.6025 150.147 91.496 157.501 88.6992Z" fill="white"/>
<path d="M133.18 81.2617C133.18 81.2617 138.495 88.7609 138.31 92.2646C138.124 95.7683 135.127 99.4872 133.798 100.379C132.47 101.27 129.349 94.3238 129.472 91.3733C129.596 88.4228 133.18 81.2617 133.18 81.2617Z" fill="white"/>
<path d="M161.825 71.6133C161.825 71.6133 159.971 81.6327 157.499 85.2286C153.605 90.853 146.344 89.7466 146.344 89.7466C146.344 89.7466 146.591 84.6754 150.979 79.3276C152.647 77.2991 161.825 71.6133 161.825 71.6133Z" fill="white"/>
<path d="M136.364 68.5039C136.364 68.5039 143.842 75.2347 143.78 79.5068C143.718 83.7789 140.999 87.4978 140.999 87.4978C140.999 87.4978 134.943 83.533 134.881 79.6605C134.819 75.788 136.364 68.5039 136.364 68.5039Z" fill="white"/>
<path d="M151.536 73.5491C151.536 73.5491 159.601 72.6886 161.578 66.9105C163.556 61.1325 162.907 52.4961 162.907 52.4961C162.907 52.4961 154.348 60.7329 153.204 63.6834C152.061 66.6339 151.227 68.6009 151.536 73.5491Z" fill="white"/>
<path d="M137.352 54.8906C137.352 54.8906 147.549 61.1604 147.209 66.3545C146.869 71.5487 145.726 72.9317 145.726 72.9317C145.726 72.9317 139.082 70.2578 138.063 66.2009C137.167 62.5127 136.95 58.671 137.352 54.8906Z" fill="white"/>
<path d="M159.88 35.4648C159.88 35.4648 162.074 43.9475 161.827 47.5127C161.239 56.856 152.68 57.9317 152.68 57.9317C152.68 57.9317 151.382 50.0022 152.742 46.6829C154.101 43.3636 157.624 38.5383 157.624 38.5383L159.88 35.4648Z" fill="white"/>
<path d="M147.209 58.5202C147.209 58.5202 148.383 50.7444 144.582 47.3328C141.925 44.997 138.804 43.2759 135.405 42.2309C135.127 42.1695 135.745 48.2549 138.31 53.2338C140.164 56.799 146.745 58.1821 147.209 58.5202Z" fill="white"/>
<path d="M151.473 42.2277C151.473 42.2277 157.53 38.5396 157.931 33.0996C158.333 27.6596 153.482 18.3471 153.203 18.5623C152.925 18.7774 148.568 28.5509 148.568 32.7001C148.568 36.8492 149.99 39.4002 151.473 42.2277Z" fill="white"/>
<path d="M130.492 29.8125C130.492 29.8125 138.372 30.0276 142.543 34.3305C145.015 36.7585 146.159 40.2315 145.664 43.643C145.664 43.643 138.65 43.7044 135.344 39.4016C132.037 35.0988 130.492 29.8125 130.492 29.8125Z" fill="white"/>
<path d="M142.636 2.61328L147.395 9.31338C149.218 11.9258 151.783 17.4273 150.701 20.5622C149.62 23.6971 146.344 26.4632 146.344 26.4632C146.344 26.4632 141.74 21.2998 141.369 17.0277C140.998 12.7556 142.636 2.61328 142.636 2.61328Z" fill="white"/>
<path d="M140.998 29.4138C140.998 29.4138 139.855 22.4371 134.88 19.9783C129.905 17.5196 123.076 18.1035 123.076 18.1035C123.076 18.1035 126.661 25.2954 131.419 28.0307C135.622 30.3973 140.998 29.4138 140.998 29.4138Z" fill="white"/>
<path d="M47.7411 126.194C47.7411 126.194 44.6511 129.206 40.2632 129.206C32.7235 129.206 24.1641 119.033 24.1641 119.033C24.1641 119.033 33.7741 118.48 38.3783 119.555C42.9825 120.631 47.7411 126.194 47.7411 126.194Z" fill="white"/>
<path d="M51.3882 121.648C51.3882 121.648 42.2107 119.005 42.6124 110.799C43.0141 102.593 43.6012 102.746 43.6012 102.746C43.6012 102.746 53.1495 110.03 52.6242 115.563C52.1916 120.603 51.3882 121.648 51.3882 121.648Z" fill="white"/>
<path d="M13.6582 104.926C13.6582 104.926 17.4899 112.517 22.8974 115.929C28.305 119.34 34.5469 115.929 34.5469 115.929C34.5469 115.929 30.7771 109.813 26.7909 107.999C22.8047 106.186 13.6582 104.926 13.6582 104.926Z" fill="white"/>
<path d="M38.9962 111.904C38.9962 111.904 32.7852 108.216 32.7852 103.513C32.7852 98.8109 35.9061 92.6641 35.9061 92.6641C35.9061 92.6641 41.2828 100.225 41.4991 104.189C41.5918 106.986 40.7266 109.691 38.9962 111.904Z" fill="white"/>
<path d="M5.53125 88.6992C5.53125 88.6992 9.42471 97.8581 12.2367 100.962C16.1919 105.327 24.1024 103.851 24.1024 103.851C24.1024 103.851 22.1557 96.936 18.2313 94.2621C15.7902 92.6025 12.8856 91.496 5.53125 88.6992Z" fill="white"/>
<path d="M29.8179 81.2617C29.8179 81.2617 24.503 88.7609 24.7193 92.2646C24.9356 95.7683 27.8712 99.4872 29.2308 100.379C30.5904 101.27 33.6805 94.3238 33.526 91.3733C33.3715 88.4228 29.8179 81.2617 29.8179 81.2617Z" fill="white"/>
<path d="M1.17383 71.6133C1.17383 71.6133 3.05876 81.6327 5.53079 85.2286C9.39335 90.853 16.6859 89.7466 16.6859 89.7466C16.6859 89.7466 16.4078 84.6754 12.0199 79.3276C10.3822 77.2991 1.17383 71.6133 1.17383 71.6133Z" fill="white"/>
<path d="M26.6684 68.5039C26.6684 68.5039 19.1905 75.2347 19.2523 79.5068C19.3141 83.7789 22.0025 87.4978 22.0025 87.4978C22.0025 87.4978 28.0899 83.533 28.1517 79.6605C28.2135 75.788 26.6684 68.5039 26.6684 68.5039Z" fill="white"/>
<path d="M11.4951 73.5491C11.4951 73.5491 3.39922 72.6886 1.45249 66.9105C-0.494235 61.1325 0.0928737 52.4961 0.0928737 52.4961C0.0928737 52.4961 8.6523 60.7329 9.79562 63.6834C10.9389 66.6339 11.8042 68.6009 11.4951 73.5491Z" fill="white"/>
<path d="M25.6472 54.8906C25.6472 54.8906 15.4809 61.1604 15.8208 66.3545C16.1607 71.5487 17.3041 72.9317 17.3041 72.9317C17.3041 72.9317 23.9168 70.2578 24.9365 66.2009C25.8326 62.5127 26.0489 58.671 25.6472 54.8906Z" fill="white"/>
<path d="M3.12014 35.4648C3.12014 35.4648 0.957105 43.9475 1.17341 47.5127C1.79142 56.856 10.3508 57.9317 10.3508 57.9317C10.3508 57.9317 11.6178 50.0022 10.289 46.6829C8.96033 43.3636 5.40677 38.5383 5.40677 38.5383L3.12014 35.4648Z" fill="white"/>
<path d="M15.7907 58.5202C15.7907 58.5202 14.6164 50.7444 18.4481 47.3328C21.1055 45.0278 24.2265 43.2759 27.5946 42.2309C27.8727 42.1695 27.2856 48.2549 24.69 53.2338C22.8669 56.799 16.2542 58.1821 15.7907 58.5202Z" fill="white"/>
<path d="M11.558 42.2277C11.558 42.2277 5.5015 38.5396 5.09979 33.0996C4.69809 27.6596 9.54946 18.3471 9.79667 18.5623C10.0439 18.7774 14.4626 28.5509 14.4626 32.7001C14.4626 36.8492 13.0412 39.4002 11.558 42.2277Z" fill="white"/>
<path d="M32.5372 29.8125C32.5372 29.8125 24.6267 30.0276 20.4551 34.3305C18.014 36.7892 16.8707 40.2315 17.3651 43.643C17.3651 43.643 24.3486 43.7044 27.6549 39.4016C30.9613 35.0988 32.5372 29.8125 32.5372 29.8125Z" fill="white"/>
<path d="M20.3941 2.61328L15.6354 9.31338C13.7814 11.9258 11.2166 17.4273 12.2981 20.5622C13.3796 23.6971 16.686 26.4632 16.686 26.4632C16.686 26.4632 21.2902 21.2998 21.661 17.0277C22.0318 12.7556 20.3941 2.61328 20.3941 2.61328Z" fill="white"/>
<path d="M22 29.4138C22 29.4138 23.1433 22.4371 28.1492 19.9783C33.1551 17.5196 39.9532 18.1035 39.9532 18.1035C39.9532 18.1035 36.3378 25.2954 31.5791 28.0307C27.4076 30.3973 22 29.4138 22 29.4138Z" fill="white"/>
<path d="M115.289 126.194C115.289 126.194 118.379 129.206 122.767 129.206C130.307 129.206 138.835 119.033 138.835 119.033C138.835 119.033 129.225 118.48 124.652 119.555C120.079 120.631 115.289 126.194 115.289 126.194Z" fill="white"/>
<path d="M111.643 121.648C111.643 121.648 120.789 119.005 120.388 110.799C119.986 102.593 119.43 102.746 119.43 102.746C119.43 102.746 109.882 110.03 110.376 115.563C110.839 120.603 111.643 121.648 111.643 121.648Z" fill="white"/>
<path d="M149.373 104.926C149.373 104.926 145.51 112.517 140.133 115.929C134.757 119.34 128.453 115.929 128.453 115.929C128.453 115.929 132.254 109.813 136.209 107.999C140.164 106.186 149.373 104.926 149.373 104.926Z" fill="white"/>
<path d="M124.003 111.904C124.003 111.904 130.214 108.216 130.214 103.513C130.214 98.8109 127.124 92.6641 127.124 92.6641C127.124 92.6641 121.716 100.225 121.531 104.189C121.407 106.956 122.303 109.691 124.003 111.904Z" fill="white"/>
<path d="M157.501 88.6992C157.501 88.6992 153.607 97.8581 150.795 100.962C146.84 105.327 138.93 103.851 138.93 103.851C138.93 103.851 140.876 96.936 144.77 94.2621C147.242 92.6025 150.147 91.496 157.501 88.6992Z" fill="white"/>
<path d="M133.18 81.2617C133.18 81.2617 138.495 88.7609 138.31 92.2646C138.124 95.7683 135.127 99.4872 133.798 100.379C132.47 101.27 129.349 94.3238 129.472 91.3733C129.596 88.4228 133.18 81.2617 133.18 81.2617Z" fill="white"/>
<path d="M161.825 71.6133C161.825 71.6133 159.971 81.6327 157.499 85.2286C153.605 90.853 146.344 89.7466 146.344 89.7466C146.344 89.7466 146.591 84.6754 150.979 79.3276C152.647 77.2991 161.825 71.6133 161.825 71.6133Z" fill="white"/>
<path d="M136.364 68.5039C136.364 68.5039 143.842 75.2347 143.78 79.5068C143.718 83.7789 140.999 87.4978 140.999 87.4978C140.999 87.4978 134.943 83.533 134.881 79.6605C134.819 75.788 136.364 68.5039 136.364 68.5039Z" fill="white"/>
<path d="M151.536 73.5491C151.536 73.5491 159.601 72.6886 161.578 66.9105C163.556 61.1325 162.907 52.4961 162.907 52.4961C162.907 52.4961 154.348 60.7329 153.204 63.6834C152.061 66.6339 151.227 68.6009 151.536 73.5491Z" fill="white"/>
<path d="M137.352 54.8906C137.352 54.8906 147.549 61.1604 147.209 66.3545C146.869 71.5487 145.726 72.9317 145.726 72.9317C145.726 72.9317 139.082 70.2578 138.063 66.2009C137.167 62.5127 136.95 58.671 137.352 54.8906Z" fill="white"/>
<path d="M159.88 35.4648C159.88 35.4648 162.074 43.9475 161.827 47.5127C161.239 56.856 152.68 57.9317 152.68 57.9317C152.68 57.9317 151.382 50.0022 152.742 46.6829C154.101 43.3636 157.624 38.5383 157.624 38.5383L159.88 35.4648Z" fill="white"/>
<path d="M147.209 58.5202C147.209 58.5202 148.383 50.7444 144.582 47.3328C141.925 44.997 138.804 43.2759 135.405 42.2309C135.127 42.1695 135.745 48.2549 138.31 53.2338C140.164 56.799 146.745 58.1821 147.209 58.5202Z" fill="white"/>
<path d="M151.473 42.2277C151.473 42.2277 157.53 38.5396 157.931 33.0996C158.333 27.6596 153.482 18.3471 153.203 18.5623C152.925 18.7774 148.568 28.5509 148.568 32.7001C148.568 36.8492 149.99 39.4002 151.473 42.2277Z" fill="white"/>
<path d="M130.492 29.8125C130.492 29.8125 138.372 30.0276 142.543 34.3305C145.015 36.7585 146.159 40.2315 145.664 43.643C145.664 43.643 138.65 43.7044 135.344 39.4016C132.037 35.0988 130.492 29.8125 130.492 29.8125Z" fill="white"/>
<path d="M142.636 2.61328L147.395 9.31338C149.218 11.9258 151.783 17.4273 150.701 20.5622C149.62 23.6971 146.344 26.4632 146.344 26.4632C146.344 26.4632 141.74 21.2998 141.369 17.0277C140.998 12.7556 142.636 2.61328 142.636 2.61328Z" fill="white"/>
<path d="M140.998 29.4138C140.998 29.4138 139.855 22.4371 134.88 19.9783C129.905 17.5196 123.076 18.1035 123.076 18.1035C123.076 18.1035 126.661 25.2954 131.419 28.0307C135.622 30.3973 140.998 29.4138 140.998 29.4138Z" fill="white"/>
<path d="M47.7411 126.194C47.7411 126.194 44.6511 129.206 40.2632 129.206C32.7235 129.206 24.1641 119.033 24.1641 119.033C24.1641 119.033 33.7741 118.48 38.3783 119.555C42.9825 120.631 47.7411 126.194 47.7411 126.194Z" fill="white"/>
<path d="M51.3882 121.648C51.3882 121.648 42.2107 119.005 42.6124 110.799C43.0141 102.593 43.6012 102.746 43.6012 102.746C43.6012 102.746 53.1495 110.03 52.6242 115.563C52.1916 120.603 51.3882 121.648 51.3882 121.648Z" fill="white"/>
<path d="M13.6582 104.926C13.6582 104.926 17.4899 112.517 22.8974 115.929C28.305 119.34 34.5469 115.929 34.5469 115.929C34.5469 115.929 30.7771 109.813 26.7909 107.999C22.8047 106.186 13.6582 104.926 13.6582 104.926Z" fill="white"/>
<path d="M38.9962 111.904C38.9962 111.904 32.7852 108.216 32.7852 103.513C32.7852 98.8109 35.9061 92.6641 35.9061 92.6641C35.9061 92.6641 41.2828 100.225 41.4991 104.189C41.5918 106.986 40.7266 109.691 38.9962 111.904Z" fill="white"/>
<path d="M5.53125 88.6992C5.53125 88.6992 9.42471 97.8581 12.2367 100.962C16.1919 105.327 24.1024 103.851 24.1024 103.851C24.1024 103.851 22.1557 96.936 18.2313 94.2621C15.7902 92.6025 12.8856 91.496 5.53125 88.6992Z" fill="white"/>
<path d="M29.8179 81.2617C29.8179 81.2617 24.503 88.7609 24.7193 92.2646C24.9356 95.7683 27.8712 99.4872 29.2308 100.379C30.5904 101.27 33.6805 94.3238 33.526 91.3733C33.3715 88.4228 29.8179 81.2617 29.8179 81.2617Z" fill="white"/>
<path d="M1.17383 71.6133C1.17383 71.6133 3.05876 81.6327 5.53079 85.2286C9.39335 90.853 16.6859 89.7466 16.6859 89.7466C16.6859 89.7466 16.4078 84.6754 12.0199 79.3276C10.3822 77.2991 1.17383 71.6133 1.17383 71.6133Z" fill="white"/>
<path d="M26.6684 68.5039C26.6684 68.5039 19.1905 75.2347 19.2523 79.5068C19.3141 83.7789 22.0025 87.4978 22.0025 87.4978C22.0025 87.4978 28.0899 83.533 28.1517 79.6605C28.2135 75.788 26.6684 68.5039 26.6684 68.5039Z" fill="white"/>
<path d="M11.4951 73.5491C11.4951 73.5491 3.39922 72.6886 1.45249 66.9105C-0.494235 61.1325 0.0928737 52.4961 0.0928737 52.4961C0.0928737 52.4961 8.6523 60.7329 9.79562 63.6834C10.9389 66.6339 11.8042 68.6009 11.4951 73.5491Z" fill="white"/>
<path d="M25.6472 54.8906C25.6472 54.8906 15.4809 61.1604 15.8208 66.3545C16.1607 71.5487 17.3041 72.9317 17.3041 72.9317C17.3041 72.9317 23.9168 70.2578 24.9365 66.2009C25.8326 62.5127 26.0489 58.671 25.6472 54.8906Z" fill="white"/>
<path d="M3.12014 35.4648C3.12014 35.4648 0.957105 43.9475 1.17341 47.5127C1.79142 56.856 10.3508 57.9317 10.3508 57.9317C10.3508 57.9317 11.6178 50.0022 10.289 46.6829C8.96033 43.3636 5.40677 38.5383 5.40677 38.5383L3.12014 35.4648Z" fill="white"/>
<path d="M15.7907 58.5202C15.7907 58.5202 14.6164 50.7444 18.4481 47.3328C21.1055 45.0278 24.2265 43.2759 27.5946 42.2309C27.8727 42.1695 27.2856 48.2549 24.69 53.2338C22.8669 56.799 16.2542 58.1821 15.7907 58.5202Z" fill="white"/>
<path d="M11.558 42.2277C11.558 42.2277 5.5015 38.5396 5.09979 33.0996C4.69809 27.6596 9.54946 18.3471 9.79667 18.5623C10.0439 18.7774 14.4626 28.5509 14.4626 32.7001C14.4626 36.8492 13.0412 39.4002 11.558 42.2277Z" fill="white"/>
<path d="M32.5372 29.8125C32.5372 29.8125 24.6267 30.0276 20.4551 34.3305C18.014 36.7892 16.8707 40.2315 17.3651 43.643C17.3651 43.643 24.3486 43.7044 27.6549 39.4016C30.9613 35.0988 32.5372 29.8125 32.5372 29.8125Z" fill="white"/>
<path d="M20.3941 2.61328L15.6354 9.31338C13.7814 11.9258 11.2166 17.4273 12.2981 20.5622C13.3796 23.6971 16.686 26.4632 16.686 26.4632C16.686 26.4632 21.2902 21.2998 21.661 17.0277C22.0318 12.7556 20.3941 2.61328 20.3941 2.61328Z" fill="white"/>
<path d="M22 29.4138C22 29.4138 23.1433 22.4371 28.1492 19.9783C33.1551 17.5196 39.9532 18.1035 39.9532 18.1035C39.9532 18.1035 36.3378 25.2954 31.5791 28.0307C27.4076 30.3973 22 29.4138 22 29.4138Z" fill="white"/>
<path d="M115.289 126.194C115.289 126.194 118.379 129.206 122.767 129.206C130.307 129.206 138.835 119.033 138.835 119.033C138.835 119.033 129.225 118.48 124.652 119.555C120.079 120.631 115.289 126.194 115.289 126.194Z" fill="white"/>
<path d="M111.643 121.648C111.643 121.648 120.789 119.005 120.388 110.799C119.986 102.593 119.43 102.746 119.43 102.746C119.43 102.746 109.882 110.03 110.376 115.563C110.839 120.603 111.643 121.648 111.643 121.648Z" fill="white"/>
<path d="M149.373 104.926C149.373 104.926 145.51 112.517 140.133 115.929C134.757 119.34 128.453 115.929 128.453 115.929C128.453 115.929 132.254 109.813 136.209 107.999C140.164 106.186 149.373 104.926 149.373 104.926Z" fill="white"/>
<path d="M124.003 111.904C124.003 111.904 130.214 108.216 130.214 103.513C130.214 98.8109 127.124 92.6641 127.124 92.6641C127.124 92.6641 121.716 100.225 121.531 104.189C121.407 106.956 122.303 109.691 124.003 111.904Z" fill="white"/>
<path d="M157.501 88.6992C157.501 88.6992 153.607 97.8581 150.795 100.962C146.84 105.327 138.93 103.851 138.93 103.851C138.93 103.851 140.876 96.936 144.77 94.2621C147.242 92.6025 150.147 91.496 157.501 88.6992Z" fill="white"/>
<path d="M133.18 81.2617C133.18 81.2617 138.495 88.7609 138.31 92.2646C138.124 95.7683 135.127 99.4872 133.798 100.379C132.47 101.27 129.349 94.3238 129.472 91.3733C129.596 88.4228 133.18 81.2617 133.18 81.2617Z" fill="white"/>
<path d="M161.825 71.6133C161.825 71.6133 159.971 81.6327 157.499 85.2286C153.605 90.853 146.344 89.7466 146.344 89.7466C146.344 89.7466 146.591 84.6754 150.979 79.3276C152.647 77.2991 161.825 71.6133 161.825 71.6133Z" fill="white"/>
<path d="M136.364 68.5039C136.364 68.5039 143.842 75.2347 143.78 79.5068C143.718 83.7789 140.999 87.4978 140.999 87.4978C140.999 87.4978 134.943 83.533 134.881 79.6605C134.819 75.788 136.364 68.5039 136.364 68.5039Z" fill="white"/>
<path d="M151.536 73.5491C151.536 73.5491 159.601 72.6886 161.578 66.9105C163.556 61.1325 162.907 52.4961 162.907 52.4961C162.907 52.4961 154.348 60.7329 153.204 63.6834C152.061 66.6339 151.227 68.6009 151.536 73.5491Z" fill="white"/>
<path d="M137.352 54.8906C137.352 54.8906 147.549 61.1604 147.209 66.3545C146.869 71.5487 145.726 72.9317 145.726 72.9317C145.726 72.9317 139.082 70.2578 138.063 66.2009C137.167 62.5127 136.95 58.671 137.352 54.8906Z" fill="white"/>
<path d="M159.88 35.4648C159.88 35.4648 162.074 43.9475 161.827 47.5127C161.239 56.856 152.68 57.9317 152.68 57.9317C152.68 57.9317 151.382 50.0022 152.742 46.6829C154.101 43.3636 157.624 38.5383 157.624 38.5383L159.88 35.4648Z" fill="white"/>
<path d="M147.209 58.5202C147.209 58.5202 148.383 50.7444 144.582 47.3328C141.925 44.997 138.804 43.2759 135.405 42.2309C135.127 42.1695 135.745 48.2549 138.31 53.2338C140.164 56.799 146.745 58.1821 147.209 58.5202Z" fill="white"/>
<path d="M151.473 42.2277C151.473 42.2277 157.53 38.5396 157.931 33.0996C158.333 27.6596 153.482 18.3471 153.203 18.5623C152.925 18.7774 148.568 28.5509 148.568 32.7001C148.568 36.8492 149.99 39.4002 151.473 42.2277Z" fill="white"/>
<path d="M130.492 29.8125C130.492 29.8125 138.372 30.0276 142.543 34.3305C145.015 36.7585 146.159 40.2315 145.664 43.643C145.664 43.643 138.65 43.7044 135.344 39.4016C132.037 35.0988 130.492 29.8125 130.492 29.8125Z" fill="white"/>
<path d="M142.636 2.61328L147.395 9.31338C149.218 11.9258 151.783 17.4273 150.701 20.5622C149.62 23.6971 146.344 26.4632 146.344 26.4632C146.344 26.4632 141.74 21.2998 141.369 17.0277C140.998 12.7556 142.636 2.61328 142.636 2.61328Z" fill="white"/>
<path d="M140.998 29.4138C140.998 29.4138 139.855 22.4371 134.88 19.9783C129.905 17.5196 123.076 18.1035 123.076 18.1035C123.076 18.1035 126.661 25.2954 131.419 28.0307C135.622 30.3973 140.998 29.4138 140.998 29.4138Z" fill="white"/>
<path d="M62.3269 100.658C62.3269 98.3226 64.2119 97.001 65.8805 95.8331C67.2092 94.8804 68.4452 94.1427 68.4452 93.1285C68.4452 92.1143 67.7963 91.5303 66.5912 91.5303C65.3861 91.5303 64.6754 92.3294 64.2119 93.4358L62.0488 92.3601C62.8831 90.5161 64.3973 89.3789 66.6221 89.3789C68.8469 89.3789 71.01 91.0386 71.01 93.1592C71.01 95.2799 69.2795 96.4785 67.6418 97.5543C66.2513 98.507 64.8608 99.3368 64.8608 100.628H70.9482V103.025H62.3269V100.658Z" fill="white"/>
<path d="M72.2461 98.8144V93.8661C72.2461 91.3152 74.131 89.3789 76.8503 89.3789C79.5695 89.3789 81.4544 91.3766 81.4544 93.8661V98.8144C81.4544 101.458 79.7549 103.209 76.8503 103.209C73.9147 103.209 72.2461 101.396 72.2461 98.8144ZM78.9206 98.7222V93.9583C78.9206 92.6982 78.2099 91.8684 76.8503 91.8684C75.4906 91.8684 74.749 92.7904 74.749 93.9583V98.7222C74.749 99.8901 75.4597 100.72 76.8194 100.72C78.179 100.72 78.9206 99.8286 78.9206 98.7222Z" fill="white"/>
<path d="M82.784 100.658C82.784 98.3226 84.6689 97.001 86.3375 95.8331C87.6662 94.8804 88.9023 94.1427 88.9023 93.1285C88.9023 92.1143 88.2534 91.5303 87.0482 91.5303C85.8431 91.5303 85.1324 92.3294 84.6689 93.4358L82.5059 92.3601C83.3402 90.5161 84.8543 89.3789 87.0791 89.3789C89.304 89.3789 91.467 91.0386 91.467 93.1592C91.467 95.2799 89.7366 96.4785 88.0988 97.5543C86.7083 98.507 85.3178 99.3368 85.3178 100.628H91.4052V103.025H82.784V100.658Z" fill="white"/>
<path d="M91.9297 101.335L94.1236 99.7057C94.7107 100.566 95.4214 100.935 96.2558 100.935C97.0901 100.935 98.2643 100.259 98.2643 99.1524C98.2643 98.046 97.3373 97.2776 95.9467 97.2776H94.5562V94.9726H95.9467C97.43 94.9726 98.1098 94.1427 98.1098 93.19C98.1098 92.2372 97.3682 91.561 96.1939 91.561C95.0197 91.561 94.5562 92.0528 94.1236 92.8519L91.9606 91.7455C92.764 90.2702 94.3399 89.3789 96.1322 89.3789C98.7587 89.3789 100.52 90.8542 100.52 93.1592C100.52 95.4643 99.9329 95.3721 98.975 96.0483C100.087 96.6937 100.767 97.7387 100.767 99.1217C100.767 101.427 99.1604 103.209 96.2558 103.209C93.3511 103.209 93.073 102.687 91.9297 101.335Z" fill="white"/>
<path d="M35.0723 71.9211C35.0723 67.5261 38.5949 63.9609 43.0137 63.9609C47.4325 63.9609 50.986 67.5261 50.986 71.9211C50.986 76.3162 47.4634 79.8813 43.0137 79.8813C38.564 79.8813 35.0723 76.3469 35.0723 71.9211ZM48.1123 71.9211C48.1123 69.0936 45.8565 66.8192 43.0137 66.8192C40.1708 66.8192 37.946 69.1243 37.946 71.9211C37.946 74.718 40.1708 77.023 43.0137 77.023C45.8565 77.023 48.1123 74.718 48.1123 71.9211Z" fill="white"/>
<path d="M52.1289 64.207H60.9355V66.9731H55.0336V70.5383H60.9355V73.3044H55.0336V79.6972H52.1289V64.207Z" fill="white"/>
<path d="M66.9609 71.9211C66.9609 67.5261 70.4836 63.9609 74.9024 63.9609C79.3211 63.9609 82.8747 67.5261 82.8747 71.9211C82.8747 76.3162 79.3211 79.8813 74.9024 79.8813C70.4836 79.8813 66.9609 76.3469 66.9609 71.9211ZM80.0009 71.9211C80.0009 69.0936 77.7452 66.8192 74.9024 66.8192C72.0595 66.8192 69.8347 69.1243 69.8347 71.9211C69.8347 74.718 72.0595 77.023 74.9024 77.023C77.7452 77.023 80.0009 74.718 80.0009 71.9211Z" fill="white"/>
<path d="M84.0195 64.207H86.9242V76.9311H92.6099V79.6972H84.0195V64.207Z" fill="white"/>
<path d="M94.0605 64.207H103.3V66.9731H96.9652V70.5383H103.3V73.3044H96.9652V76.9618H103.3V79.7279H94.0605V64.2378V64.207Z" fill="white"/>
<path d="M104.723 64.207H108.956C114.209 64.207 117.176 67.5571 117.176 71.9521C117.176 76.3471 113.807 79.6972 109.08 79.6972H104.723V64.207ZM107.627 66.8809V77.0233H108.771C112.17 77.0233 114.302 74.8411 114.302 71.9521C114.302 69.0631 112.479 66.8809 108.616 66.8809H107.627Z" fill="white"/>
<path d="M117.607 76.9321L120.265 75.672C120.852 76.8399 121.902 77.4854 123.262 77.4854C124.621 77.4854 125.394 76.8092 125.394 75.9794C125.394 75.1495 124.003 74.9037 122.458 74.5656C120.326 74.1046 118.101 73.4284 118.101 70.8467C118.101 68.265 120.048 67.0664 123.015 67.0664C125.981 67.0664 127.155 68.0499 128.113 69.6174L125.672 70.8467C125.147 69.9862 124.22 69.433 123.015 69.433C121.81 69.433 121.006 70.0784 121.006 70.7545C121.006 71.4307 121.995 71.7995 123.849 72.199C125.888 72.5986 128.237 73.3362 128.237 75.9179C128.237 78.4996 126.692 79.9748 123.107 79.9748C120.326 79.9748 118.565 78.9299 117.576 76.9629L117.607 76.9321Z" fill="white"/>
<path d="M32.2598 36.0195H35.5352L42.2715 46.5614V36.0195H45.1762V51.5097H42.0861L35.1644 40.6297V51.5097H32.2598V36.0195Z" fill="white"/>
<path d="M46.7832 36.0195H56.0224V38.7856H49.6879V42.3508H56.0224V45.1169H49.6879V48.7743H56.0224V51.5404H46.7832V36.0503V36.0195Z" fill="white"/>
<path d="M56.8255 36.0195H59.8537L62.7893 46.8688L66.0647 36.0195H68.9076L72.1521 46.8073L75.0568 36.0195H77.9614L73.5735 51.5097H70.6998L67.4243 40.599L64.1489 51.5097H61.2133L56.7637 36.0195H56.8255Z" fill="white"/>
<path d="M88.5925 44.0412L86.8929 46.1311V51.5097H83.9883V36.0195H86.8929V42.3508L92.0224 36.0195H95.5451L90.6319 42.0435L96.0086 51.5097H92.7022L88.5925 44.0719V44.0412Z" fill="white"/>
<path d="M97.0879 36.0195H99.9925V51.5097H97.0879V36.0195Z" fill="white"/>
<path d="M101.662 36.0195H104.938L111.674 46.5614V36.0195H114.579V51.5097H111.488L104.567 40.6297V51.5097H101.662V36.0195Z" fill="white"/>
<path d="M115.753 43.7649C115.753 39.3699 119.09 35.8047 123.695 35.8047C128.299 35.8047 129.442 37.4336 130.771 39.7694L128.206 41.3061C127.217 39.4928 125.734 38.6015 123.695 38.6015C120.79 38.6015 118.596 40.9681 118.596 43.7649C118.596 46.5617 120.759 48.9283 123.787 48.9283C126.816 48.9283 127.712 47.6067 128.299 45.5782H123.324V42.8121H131.389V43.9493C131.389 48.1292 128.453 51.6944 123.787 51.6944C118.936 51.6944 115.691 48.037 115.691 43.7342L115.753 43.7649Z" fill="white"/>
<path d="M69.1543 0H93.8747V29.6279H69.1543V0ZM83.9247 3.0427C83.4921 3.22711 83.0595 3.47298 82.7505 3.81106C82.3488 4.21061 82.0707 4.76383 81.978 5.31705C81.9162 5.65512 81.8853 6.02394 81.8853 6.39275V18.6558C81.8853 19.209 81.9471 19.7315 82.1634 20.254C82.3179 20.6228 82.5651 20.9916 82.8432 21.2682C83.3067 21.7292 83.9247 22.0058 84.5736 22.1595C85.2534 22.3439 85.9642 22.4054 86.644 22.4054C87.3238 22.4054 88.0036 22.3746 88.6525 22.1902C89.1778 22.0673 89.6722 21.8521 90.0739 21.5141C90.4756 21.2067 90.7846 20.7457 90.9391 20.2847C91.1245 19.7622 91.1863 19.2397 91.1863 18.6865C91.1863 17.0883 91.1863 15.5209 91.1863 13.9227H87.2929V18.7172C87.2929 18.9016 87.2929 19.1168 87.2311 19.3012C87.1384 19.4856 86.953 19.5778 86.7676 19.6085C86.5822 19.6085 86.3659 19.6085 86.2114 19.4549C86.0569 19.3319 86.026 19.1168 86.026 18.9324V6.05467C86.026 5.901 86.026 5.74733 86.1496 5.59366C86.2423 5.43998 86.4277 5.34778 86.6131 5.34778C86.7985 5.34778 87.0457 5.34778 87.1693 5.53219C87.3238 5.71659 87.3238 5.93173 87.3238 6.14688V8.60563C87.3238 9.22031 87.3238 9.86573 87.3238 10.4804C88.6216 10.4804 89.9194 10.4804 91.2172 10.4804C91.2172 9.03591 91.2172 7.59139 91.2172 6.11614C91.2172 5.56292 91.1245 4.97897 90.9082 4.45648C90.7228 4.05694 90.4447 3.68813 90.1048 3.41152C89.7031 3.07344 89.2087 2.8583 88.7143 2.73536C88.0963 2.58169 87.4474 2.52022 86.7985 2.52022C85.8406 2.52022 84.8517 2.64316 83.9556 2.98123M71.9044 2.67389V22.2517C73.2641 22.2517 74.6546 22.2517 76.0142 22.2517V15.7975C76.0142 15.4287 76.0142 15.0598 76.0142 14.6603C76.1996 14.6603 76.385 14.6603 76.5704 14.6603C77.0339 14.6603 77.4665 14.6603 77.93 14.6296C78.3935 14.5681 78.8879 14.4759 79.3206 14.2915C79.6296 14.1378 79.9077 13.9841 80.124 13.7383C80.4948 13.3695 80.742 12.8777 80.8965 12.3552C81.0201 11.8327 81.051 11.3102 81.051 10.7878V6.48495C81.051 6.08541 81.051 5.71659 80.9892 5.31705C80.8965 4.70236 80.6493 4.08767 80.2167 3.65739C79.8768 3.31931 79.4751 3.07344 79.0115 2.91977C78.3626 2.70463 77.6828 2.64316 77.0339 2.67389C75.3344 2.67389 73.6349 2.67389 71.9353 2.67389C71.9353 2.67389 71.9353 2.70462 71.9353 2.73536M74.4383 23.604C74.222 23.7577 74.1293 24.0035 74.0675 24.2494C74.0057 24.6182 73.9748 25.0178 73.9748 25.4173C73.9748 25.7861 73.9748 26.155 74.0984 26.493C74.1602 26.7082 74.2838 26.8926 74.4692 26.9848C74.7473 27.1077 75.0563 27.1077 75.3344 27.0463C75.3653 26.9848 75.458 27.0463 75.4889 26.9848C75.7052 26.8926 75.8288 26.6467 75.8597 26.4316C75.9215 26.155 75.9215 25.8783 75.8597 25.6017C75.6743 25.6017 75.458 25.6017 75.2726 25.6017C75.2726 25.7861 75.2726 26.0013 75.2726 26.1857C75.2726 26.3086 75.2726 26.4316 75.1799 26.5545C75.1181 26.6774 74.9636 26.6774 74.84 26.6467C74.7473 26.616 74.6855 26.493 74.6855 26.4008C74.6237 26.155 74.6546 25.9091 74.6237 25.6632C74.6237 25.3866 74.6237 25.11 74.6237 24.8641C74.6237 24.6182 74.6237 24.3724 74.6855 24.1265C74.6855 24.065 74.7164 24.0343 74.7473 23.9728C74.8091 23.9113 74.9327 23.8806 75.0254 23.9421C75.0872 23.9421 75.1181 24.065 75.149 24.1265C75.2108 24.3724 75.1799 24.6182 75.149 24.8334C75.3653 24.8334 75.5507 24.8334 75.767 24.8334C75.767 24.526 75.7979 24.188 75.6743 23.8806C75.5816 23.6655 75.3344 23.5118 75.1181 23.5118C74.84 23.5118 74.5619 23.5118 74.3456 23.6347M81.5763 23.5733C81.36 23.6655 81.2055 23.8806 81.1437 24.0958C81.0201 24.4338 81.0201 24.7719 80.9892 25.1407C80.9892 25.571 80.9892 26.032 81.0819 26.4316C81.1437 26.6467 81.2364 26.8926 81.4527 26.9848C81.6381 27.1077 81.8853 27.1385 82.1325 27.077C82.3179 27.077 82.4415 26.8926 82.5342 26.7696C82.596 26.8618 82.6269 26.954 82.6887 27.0155C82.7505 27.0463 82.8432 27.0155 82.9359 27.0155C82.9359 27.0155 82.9359 26.954 82.9359 26.9233C82.9359 26.3394 82.9359 25.7554 82.9359 25.1715C82.6269 25.1715 82.3179 25.1715 82.0089 25.1715C82.0089 25.3251 82.0089 25.5095 82.0089 25.6632C82.1325 25.6632 82.2252 25.6632 82.3488 25.6632C82.3488 25.9398 82.3797 26.2164 82.2561 26.4623C82.1943 26.616 81.978 26.6467 81.8544 26.5852C81.7926 26.5852 81.7308 26.493 81.7308 26.4008C81.669 26.2472 81.669 26.0627 81.669 25.8783C81.669 25.5095 81.669 25.1407 81.669 24.8026C81.669 24.526 81.669 24.2494 81.7617 24.0035C81.8235 23.8191 82.1325 23.7884 82.1943 24.0035C82.287 24.2187 82.2561 24.4953 82.2561 24.7104C82.4724 24.7104 82.6578 24.7104 82.8741 24.7104C82.8741 24.4031 82.8741 24.065 82.7505 23.7884C82.6578 23.604 82.4724 23.4811 82.287 23.4503C82.0707 23.4196 81.7926 23.4196 81.5763 23.5118M84.6972 23.5118C84.5118 23.604 84.3882 23.8191 84.3264 24.0343C84.2337 24.3416 84.2028 24.649 84.2028 24.987C84.2028 25.3866 84.2028 25.8169 84.2646 26.2164C84.2955 26.4316 84.3882 26.6774 84.5427 26.8311C84.6972 26.9848 84.9135 27.0463 85.1607 27.0463C85.4079 27.0463 85.6551 27.0463 85.8405 26.8618C86.0569 26.6774 86.1187 26.3701 86.1496 26.0935C86.1496 25.9091 86.1496 25.7247 86.1496 25.5403C85.9642 25.5403 85.7478 25.5403 85.5624 25.5403C85.5624 25.6939 85.5624 25.8783 85.5624 26.0628C85.5624 26.2164 85.5625 26.3701 85.4697 26.493C85.377 26.616 85.1916 26.616 85.0989 26.5545C84.9753 26.4623 84.9753 26.3086 84.9444 26.155C84.9135 25.8476 84.9444 25.571 84.9444 25.2637C84.9444 24.9563 84.9444 24.5568 84.9753 24.2187C84.9753 24.0958 85.0062 24.0035 85.0989 23.9113C85.2225 23.8191 85.4389 23.8191 85.5007 23.9728C85.5934 24.2187 85.5624 24.4953 85.5624 24.7719C85.7787 24.7719 85.9642 24.7719 86.1805 24.7719C86.2114 24.4646 86.2114 24.1265 86.0878 23.8499C85.9951 23.604 85.7479 23.4811 85.5007 23.4503C85.2534 23.4503 85.0062 23.4503 84.7899 23.5425M87.3547 23.4503C87.1693 23.4503 86.9839 23.5118 86.8294 23.604C86.644 23.7577 86.5513 23.9728 86.5204 24.188C86.4277 24.5875 86.4277 25.0178 86.4277 25.4173C86.4277 25.7554 86.4277 26.0935 86.5513 26.4316C86.6131 26.616 86.7058 26.8311 86.8912 26.9233C87.0766 27.0462 87.2929 27.0463 87.5092 27.0463C87.7255 27.0463 87.9727 26.9848 88.1272 26.8311C88.3126 26.6774 88.3744 26.4316 88.4362 26.1857C88.498 25.8783 88.498 25.5403 88.498 25.2329C88.498 24.8948 88.498 24.5568 88.4362 24.2494C88.3744 24.0035 88.3126 23.7577 88.1272 23.604C87.9418 23.4503 87.6637 23.4196 87.4165 23.4196M71.9662 23.4811C71.9662 24.649 71.9662 25.8169 71.9662 26.954C72.028 26.954 72.0898 26.954 72.1825 26.954C72.337 26.954 72.4915 26.954 72.6151 26.954V26.8926C72.6151 26.4623 72.6151 26.0628 72.6151 25.6325C72.8006 25.6325 72.986 25.6325 73.1405 25.6017C73.3568 25.571 73.5422 25.4481 73.6349 25.2329C73.7585 24.9563 73.7894 24.649 73.7585 24.3724C73.7585 24.1265 73.6658 23.8499 73.4495 23.6655C73.2641 23.5118 73.0478 23.4811 72.8315 23.4503C72.5224 23.4503 72.2443 23.4503 71.9353 23.4503M76.1996 23.4503C76.1996 24.6182 76.1996 25.7861 76.1996 26.954C76.3541 26.954 76.4777 26.954 76.6322 26.954C76.694 26.954 76.7558 26.954 76.7867 26.954C76.7867 26.4623 76.7867 26.0013 76.7867 25.5095C76.7867 25.1715 76.7867 24.8334 76.7867 24.4953C76.7867 24.6182 76.7867 24.7412 76.8176 24.8641C76.9103 25.571 77.0648 26.2779 77.1575 26.9848C77.3429 26.9848 77.5283 26.9848 77.7137 26.9848C77.8064 26.4316 77.8991 25.8783 77.9918 25.3251C78.0227 25.0485 78.0536 24.7412 78.0845 24.4646C78.0845 25.2944 78.0845 26.155 78.0845 26.9848H78.6716C78.6716 25.8169 78.6716 24.649 78.6716 23.4811C78.3935 23.4811 78.1154 23.4811 77.8373 23.4811C77.8064 23.5733 77.8064 23.6655 77.7755 23.7577C77.6519 24.4646 77.5283 25.1715 77.4047 25.8783C77.2502 25.0792 77.1266 24.2802 77.003 23.4811C76.7249 23.4811 76.4468 23.4811 76.1378 23.4811M79.5369 23.4811C79.3515 24.4338 79.1661 25.3559 78.9806 26.3086C78.9497 26.5238 78.8879 26.7696 78.857 26.9848C79.0424 26.9848 79.2588 26.9848 79.4751 26.9848C79.5369 26.7696 79.5369 26.5545 79.5987 26.3394C79.7841 26.3394 79.9386 26.3394 80.124 26.3394C80.1549 26.5545 80.1858 26.7696 80.2476 26.9848C80.4639 26.9848 80.7111 26.9848 80.9274 26.9848C80.9274 26.8004 80.8656 26.616 80.8038 26.4008C80.6184 25.4481 80.4021 24.4953 80.2167 23.5118C80.2167 23.4503 80.124 23.4503 80.0931 23.4503C79.9077 23.4503 79.7223 23.4503 79.5369 23.4503M88.6525 23.4503C88.6525 24.6182 88.6525 25.7861 88.6525 26.954C88.8379 26.954 89.0542 26.954 89.2705 26.954C89.2705 26.1242 89.2705 25.2637 89.2705 24.4338C89.2705 24.7412 89.3323 25.0178 89.3941 25.3251C89.4868 25.8783 89.5795 26.4008 89.6722 26.9233C89.6722 26.954 89.734 26.9233 89.7649 26.9233C89.9194 26.9233 90.0739 26.9233 90.2284 26.9233C90.3211 26.3394 90.4447 25.7554 90.5374 25.1407C90.5683 24.8948 90.5683 24.649 90.6301 24.3724C90.6301 24.6182 90.6301 24.8334 90.6301 25.0792C90.6301 25.6939 90.6301 26.3086 90.6301 26.9233C90.8155 26.9233 91.0318 26.9233 91.2172 26.9233C91.2172 25.7554 91.2172 24.5875 91.2172 23.4196H90.3829C90.3211 23.7577 90.2593 24.0958 90.1975 24.4338C90.1975 24.526 90.1666 24.649 90.1666 24.7412C90.1048 25.0793 90.043 25.4481 89.9812 25.7861C89.8267 24.987 89.7031 24.188 89.5795 23.3889C89.3014 23.3889 89.0233 23.3889 88.7452 23.3889M83.3685 26.1242V26.8926C83.5539 26.8926 83.7702 26.8926 83.9556 26.8926C83.9865 26.8926 84.0483 26.8926 84.0792 26.8926C84.0792 26.6467 84.0792 26.4008 84.0792 26.155C83.832 26.155 83.6157 26.155 83.3685 26.155V26.1242Z" fill="white"/>
<path d="M75.9844 5.46823C76.2934 5.46823 76.6642 5.46823 76.9423 5.65264C77.1277 5.74484 77.2204 5.95998 77.2822 6.14439C77.344 6.35953 77.3131 6.54394 77.3131 6.75908V10.6316C77.3131 10.9082 77.3131 11.2156 77.1586 11.4614C77.035 11.6766 76.7569 11.7995 76.5097 11.8303C76.3552 11.8303 76.1698 11.861 76.0153 11.8303C76.0153 10.3243 76.0153 8.84902 76.0153 7.34303C76.0153 6.69761 76.0153 6.08292 76.0153 5.4375L75.9844 5.46823Z" fill="white"/>
<path d="M87.1998 23.9438C87.2616 23.8823 87.3543 23.8823 87.447 23.8516C87.4779 23.913 87.5706 23.913 87.6015 23.9745C87.6633 24.0667 87.6942 24.1589 87.6942 24.2511C87.7251 24.5892 87.7251 24.9273 87.7251 25.2653C87.7251 25.6034 87.7251 25.9415 87.6942 26.2796C87.6942 26.4025 87.6633 26.5255 87.5397 26.5869C87.447 26.6484 87.3543 26.6484 87.2616 26.5869C87.138 26.5255 87.1071 26.341 87.1071 26.2181C87.0762 25.8186 87.0762 25.419 87.0762 25.0195C87.0762 24.7736 87.0762 24.5277 87.1071 24.2818C87.1071 24.1589 87.138 24.0052 87.2307 23.913L87.1998 23.9438Z" fill="white"/>
<path d="M72.5234 23.9727C72.647 23.9727 72.8324 23.9727 72.9251 24.0956C73.0178 24.2493 73.0178 24.4337 73.0178 24.6181C73.0178 24.8025 73.0178 24.9869 72.8633 25.1098C72.7706 25.202 72.647 25.1713 72.5234 25.1713C72.5234 24.7718 72.5234 24.3722 72.5234 23.9727Z" fill="white"/>
<path d="M79.7227 25.8781C79.7536 25.3864 79.8463 24.9253 79.8772 24.4336C79.939 24.9253 80.0008 25.3864 80.0626 25.8781C79.939 25.8781 79.8463 25.8781 79.7227 25.8781Z" fill="white"/>
</g>
<defs>
<clipPath id="clip0_2915_6479">
<rect width="163" height="129.207" fill="white"/>
</clipPath>
</defs>
</svg>
