<svg width="163" height="128" viewBox="0 0 163 128" fill="none" xmlns="http://www.w3.org/2000/svg">
<g clip-path="url(#clip0_2915_6252)">
<path d="M75.9231 11.3637H73.6673V2.22144H70.3301V0.460938H79.2294V2.22144H75.8922V11.3946L75.9231 11.3637Z" fill="white"/>
<path d="M85.5027 11.3637H83.2779L79.3535 0.460938H81.7329L84.4212 8.7075L87.1095 0.460938H89.4271L85.5027 11.3637Z" fill="white"/>
<path d="M43.5078 34.043H48.421C51.8818 34.043 53.8286 35.5255 53.8286 38.3979C53.8286 41.2703 53.2415 40.7761 52.129 41.4247C53.5814 42.0733 54.3848 43.2779 54.3848 45.0075C54.3848 48.0652 52.2217 49.6095 48.7918 49.6095H43.5078V34.043ZM46.4125 36.6992V40.2511H48.421C50.275 40.2511 50.9239 39.5098 50.9239 38.3979C50.9239 37.286 50.2132 36.6992 48.421 36.6992H46.4125ZM46.4125 42.9381V46.9224H48.7918C50.5531 46.9224 51.4492 46.2121 51.4492 44.9148C51.4492 43.6176 50.8003 42.9381 48.6682 42.9381H46.4125Z" fill="white"/>
<path d="M55.4961 34.043H64.7353V36.8227H58.4007V40.4055H64.7353V43.1852H58.4007V46.8607H64.7353V49.6404H55.4961V34.0739V34.043Z" fill="white"/>
<path d="M65.293 47.0125L67.9504 44.9123C68.7229 46.2713 69.928 47.0125 71.3495 47.0125C72.7709 47.0125 73.7288 46.0242 73.7288 44.9123C73.7288 43.8004 72.122 43.1827 70.4842 42.6885C68.383 42.009 66.0655 41.206 66.0655 38.2718C66.0655 35.3376 68.2285 33.8242 71.2259 33.8242C74.2232 33.8242 75.1811 34.7817 76.448 36.0789L74.0687 37.9012C73.4198 36.9128 72.4619 36.4186 71.2568 36.4186C70.0516 36.4186 69.0937 37.1908 69.0937 38.1791C69.0937 39.1675 70.5769 39.7852 72.2765 40.3721C74.3777 41.0515 76.7879 41.9781 76.7879 44.9741C76.7879 47.97 74.8412 49.8232 71.4113 49.8232C68.6302 49.8232 66.7762 48.6186 65.3239 47.0434L65.293 47.0125Z" fill="white"/>
<path d="M81.2067 36.7915H77.0352V34.0117H88.2829V36.7915H84.1114V49.5783H81.2067V36.7915Z" fill="white"/>
<path d="M94.123 41.7924C94.123 37.3757 97.6457 33.793 102.064 33.793C106.483 33.793 110.037 37.3757 110.037 41.7924C110.037 46.2091 106.483 49.7919 102.064 49.7919C97.6148 49.7919 94.123 46.24 94.123 41.7924ZM107.163 41.7924C107.163 38.9509 104.907 36.6654 102.064 36.6654C99.2216 36.6654 96.9968 38.9818 96.9968 41.7924C96.9968 44.6031 99.2216 46.9195 102.064 46.9195C104.907 46.9195 107.163 44.6031 107.163 41.7924Z" fill="white"/>
<path d="M111.18 34.043H119.986V36.8227H114.084V40.4055H119.986V43.1852H114.084V49.6095H111.18V34.043Z" fill="white"/>
<path d="M39.2402 69.9777C39.2402 65.4999 42.615 62.2461 46.9754 62.2461C51.3358 62.2461 52.2616 63.7387 53.5757 65.9775L51.1267 67.5298C50.2308 65.9775 48.9465 64.9924 46.9754 64.9924C44.1083 64.9924 42.0177 67.1418 42.0177 69.9478C42.0177 72.7539 44.1083 74.8733 46.8858 74.8733C49.6633 74.8733 50.41 73.7091 51.2163 72.0374L53.7848 73.3807C52.4707 75.948 49.9321 77.6495 46.9754 77.6495C42.3463 77.6495 39.2402 74.2166 39.2402 69.918V69.9777Z" fill="white"/>
<path d="M54.6504 62.457H63.5802V65.1437H57.4578V68.6065H63.5802V71.2931H57.4578V74.8454H63.5802V77.5321H54.6504V62.4869V62.457Z" fill="white"/>
<path d="M64.1484 75.024L66.7169 72.9941C67.4635 74.3075 68.6283 75.024 70.0021 75.024C71.3759 75.024 72.3017 74.0687 72.3017 72.9941C72.3017 71.9194 70.7487 71.3224 69.1658 70.8448C67.135 70.188 64.8951 69.4119 64.8951 66.576C64.8951 63.7401 66.9857 62.2773 69.8826 62.2773C72.7796 62.2773 73.7054 63.2027 74.9299 64.4565L72.6303 66.2178C72.0031 65.2625 71.0772 64.7849 69.9125 64.7849C68.7477 64.7849 67.8219 65.5312 67.8219 66.4864C67.8219 67.4417 69.2554 68.0387 70.8981 68.6059C72.9289 69.2626 75.2584 70.1582 75.2584 73.0538C75.2584 75.9494 73.3769 77.7405 70.0618 77.7405C66.7467 77.7405 65.582 76.5763 64.1783 75.0538L64.1484 75.024Z" fill="white"/>
<path d="M81.0512 74.8747C81.0512 72.2776 83.1418 70.7851 84.9934 69.5014C86.4867 68.4566 87.8307 67.6208 87.8307 66.4864C87.8307 65.3521 87.1139 64.6953 85.7699 64.6953C84.426 64.6953 83.6495 65.5909 83.1418 66.8446L80.7227 65.6207C81.6485 63.561 83.321 62.2773 85.7998 62.2773C88.2786 62.2773 90.6679 64.1281 90.6679 66.5163C90.6679 68.9044 88.7266 70.2179 86.9048 71.4418C85.3518 72.4866 83.8287 73.4418 83.8287 74.8747H90.6082V77.5614H81.0213V74.9344L81.0512 74.8747Z" fill="white"/>
<path d="M92.1016 72.815V67.2924C92.1016 64.4267 94.1921 62.2773 97.2086 62.2773C100.225 62.2773 102.316 64.5162 102.316 67.2924V72.8448C102.316 75.8001 100.434 77.7405 97.2086 77.7405C93.9831 77.7405 92.1016 75.7106 92.1016 72.8448V72.815ZM99.5082 72.7254V67.382C99.5082 65.9491 98.7018 65.0237 97.2086 65.0237C95.7153 65.0237 94.8791 66.0685 94.8791 67.382V72.6956C94.8791 74.009 95.6556 74.9344 97.1787 74.9344C98.7019 74.9344 99.5082 73.9493 99.5082 72.6956V72.7254Z" fill="white"/>
<path d="M103.809 74.8747C103.809 72.2776 105.9 70.7851 107.751 69.5014C109.245 68.4566 110.588 67.6208 110.588 66.4864C110.588 65.3521 109.872 64.6953 108.528 64.6953C107.184 64.6953 106.407 65.5909 105.9 66.8446L103.48 65.6207C104.406 63.561 106.079 62.2773 108.558 62.2773C111.036 62.2773 113.426 64.1281 113.426 66.5163C113.426 68.9044 111.484 70.2179 109.663 71.4418C108.11 72.4866 106.586 73.4418 106.586 74.8747H113.366V77.5614H103.779V74.9344L103.809 74.8747Z" fill="white"/>
<path d="M113.963 75.6196L116.383 73.7987C117.01 74.7539 117.816 75.142 118.742 75.142C119.668 75.142 120.982 74.3957 120.982 73.1419C120.982 71.8882 119.937 71.0523 118.413 71.0523H116.86V68.4851H118.413C120.056 68.4851 120.803 67.5597 120.803 66.485C120.803 65.4104 119.966 64.6641 118.682 64.6641C117.398 64.6641 116.86 65.2313 116.383 66.0969L113.993 64.873C114.889 63.2312 116.651 62.2461 118.622 62.2461C121.549 62.2461 123.491 63.8879 123.491 66.485C123.491 69.0821 122.863 68.9627 121.788 69.709C123.013 70.4254 123.759 71.5896 123.759 73.1419C123.759 75.7092 121.997 77.6794 118.742 77.6794C116.831 77.6794 115.218 77.0823 113.934 75.5599L113.963 75.6196Z" fill="white"/>
<path d="M56.5165 11.3637H54.2608L55.3114 6.79257H50.9235L49.8729 11.3637H47.6172L50.151 0.460938H52.4068L51.3561 5.03207H55.744L56.7946 0.460938H59.0504L56.5165 11.3637Z" fill="white"/>
<path d="M58.7422 11.3637L61.276 0.460938H65.3858C66.1583 0.460938 66.8381 0.584482 67.4252 0.862456C68.0123 1.14043 68.4449 1.51106 68.8157 1.97435C69.1556 2.43764 69.372 3.02448 69.4647 3.70397C69.5574 4.38346 69.4956 5.12473 69.3101 5.92776C69.1247 6.7308 68.8466 7.47206 68.4449 8.15156C68.0432 8.83105 67.5797 9.387 66.9926 9.88117C66.4364 10.3445 65.7875 10.746 65.1077 10.9931C64.4279 11.2402 63.6554 11.3946 62.8828 11.3946H58.7731L58.7422 11.3637ZM63.0992 9.6032C63.5627 9.6032 63.9953 9.51054 64.4279 9.35611C64.8605 9.17079 65.2313 8.92371 65.5712 8.61485C65.9111 8.30599 66.1892 7.90447 66.4364 7.44118C66.6836 6.97789 66.869 6.48371 66.9926 5.89688C67.1162 5.34093 67.178 4.84675 67.1162 4.38346C67.0544 3.92017 66.9617 3.54954 66.7763 3.20979C66.5909 2.90093 66.3128 2.65384 65.9729 2.46853C65.633 2.28321 65.2313 2.22144 64.7678 2.22144H63.0683L61.3687 9.63409H63.0683L63.0992 9.6032Z" fill="white"/>
<path d="M95.142 11.145C94.5858 11.3921 93.9987 11.5156 93.4116 11.5156C92.5155 11.5156 91.8666 11.2685 91.434 10.7435C91.0014 10.2184 90.816 9.47713 90.816 8.48878V5.18398H89.3945V3.60879H90.816V1.75563L92.9172 1.57031V3.5779H94.833V5.15309H92.9172V8.14904C92.9172 8.6741 92.979 9.07562 93.1335 9.38448C93.2571 9.69334 93.5352 9.84777 93.9369 9.84777C94.3386 9.84777 94.4622 9.78599 94.7712 9.69334L95.142 11.145Z" fill="white"/>
<path d="M102.558 10.7117C102.064 11.0206 101.569 11.2368 101.044 11.3603C100.519 11.4839 100.055 11.5147 99.6536 11.5147C99.2519 11.5147 98.5721 11.4221 98.1086 11.2368C97.645 11.0514 97.2433 10.8044 96.8725 10.4646C96.5017 10.1249 96.2545 9.69246 96.0691 9.1674C95.8837 8.64234 95.791 8.05551 95.791 7.4069C95.791 6.75829 95.8528 6.295 96.0073 5.83171C96.1618 5.36842 96.3781 4.93602 96.6562 4.59627C96.9343 4.25653 97.3051 3.97855 97.7377 3.79324C98.1703 3.60792 98.6648 3.48438 99.221 3.48438C99.7772 3.48438 100.241 3.57703 100.673 3.76235C101.106 3.94767 101.446 4.19475 101.755 4.50361C102.064 4.81247 102.249 5.18311 102.404 5.61551C102.558 6.04791 102.62 6.48032 102.62 6.97449C102.62 7.46867 102.62 7.37601 102.62 7.59222C102.62 7.80842 102.558 7.99373 102.527 8.17905H97.8304C97.9541 8.76588 98.1703 9.1674 98.5103 9.47626C98.8502 9.75424 99.2828 9.90867 99.8081 9.90867C100.333 9.90867 100.488 9.84689 100.828 9.75424C101.168 9.66158 101.508 9.50715 101.848 9.29095L102.496 10.7117H102.558ZM100.704 6.82006C100.704 6.295 100.55 5.89348 100.333 5.58462C100.117 5.27576 99.7463 5.12133 99.2828 5.12133C98.8193 5.12133 98.4485 5.27576 98.2012 5.61551C97.9849 5.92437 97.8304 6.35677 97.7995 6.85095H100.704V6.82006Z" fill="white"/>
<path d="M108.924 5.73869C108.522 5.52249 108.12 5.33717 107.781 5.24451C107.441 5.15186 107.101 5.09008 106.823 5.09008C106.545 5.09008 106.297 5.15186 106.081 5.24451C105.865 5.33717 105.772 5.52249 105.772 5.73869C105.772 5.95489 105.896 6.17109 106.174 6.29464C106.452 6.44907 106.761 6.57261 107.163 6.69616C107.441 6.78882 107.719 6.88147 108.028 7.00502C108.337 7.12856 108.615 7.28299 108.862 7.46831C109.109 7.65362 109.326 7.90071 109.48 8.17869C109.635 8.45666 109.727 8.79641 109.727 9.22881C109.727 9.66121 109.635 10.0318 109.48 10.3098C109.295 10.5878 109.078 10.8349 108.769 11.0202C108.491 11.2055 108.151 11.3291 107.75 11.4217C107.379 11.5144 106.977 11.5453 106.575 11.5453C105.494 11.5453 104.474 11.2982 103.578 10.7731L104.165 9.29058C104.536 9.4759 104.938 9.63033 105.339 9.75387C105.741 9.84653 106.112 9.9083 106.483 9.9083C106.854 9.9083 107.039 9.84653 107.286 9.75387C107.533 9.66122 107.657 9.50678 107.657 9.2597C107.657 9.01261 107.533 8.82729 107.255 8.70375C106.977 8.5802 106.668 8.42577 106.266 8.27134C105.988 8.17869 105.71 8.08603 105.401 7.96248C105.092 7.83894 104.814 7.68451 104.567 7.49919C104.32 7.31388 104.103 7.06679 103.918 6.78882C103.733 6.51084 103.671 6.17109 103.671 5.76958C103.671 5.36806 103.764 5.0592 103.918 4.75034C104.073 4.47236 104.289 4.22528 104.567 4.03996C104.845 3.85464 105.154 3.70021 105.494 3.60756C105.834 3.5149 106.205 3.45312 106.606 3.45312C107.008 3.45312 107.564 3.5149 108.09 3.66933C108.615 3.79287 109.048 4.00907 109.48 4.25616L108.893 5.73869H108.924Z" fill="white"/>
<path d="M116.031 11.145C115.474 11.3921 114.887 11.5156 114.3 11.5156C113.404 11.5156 112.755 11.2685 112.323 10.7435C111.89 10.2184 111.705 9.47713 111.705 8.48878V5.18398H110.283V3.60879H111.705V1.75563L113.806 1.57031V3.5779H115.722V5.15309H113.806V8.14904C113.806 8.6741 113.868 9.07562 114.022 9.38448C114.146 9.69334 114.424 9.84777 114.826 9.84777C115.227 9.84777 115.351 9.78599 115.66 9.69334L116.031 11.145Z" fill="white"/>
<path d="M47.7102 124.192C47.7102 124.192 44.6202 127.218 40.2323 127.218C32.6926 127.218 24.1641 117.026 24.1641 117.026C24.1641 117.026 33.7741 116.47 38.3783 117.52C42.9825 118.57 47.7411 124.192 47.7411 124.192H47.7102Z" fill="white"/>
<path d="M51.3573 119.651C51.3573 119.651 42.2108 116.964 42.6125 108.748C43.0142 100.533 43.5704 100.656 43.5704 100.656C43.5704 100.656 53.1186 107.976 52.6242 113.536C52.1607 118.601 51.3573 119.651 51.3573 119.651Z" fill="white"/>
<path d="M13.627 102.82C13.627 102.82 17.4586 110.449 22.8662 113.878C28.2738 117.306 34.5466 113.878 34.5466 113.878C34.5466 113.878 30.7767 107.762 26.7906 105.909C22.8044 104.087 13.6579 102.82 13.6579 102.82H13.627Z" fill="white"/>
<path d="M38.9962 109.831C38.9962 109.831 32.7852 106.124 32.7852 101.399C32.7852 96.6733 35.8752 90.4961 35.8752 90.4961C35.8752 90.4961 41.2828 98.1249 41.4682 102.078C41.6536 106.032 39.6451 109.028 38.9653 109.831H38.9962Z" fill="white"/>
<path d="M5.49965 86.5117C5.49965 86.5117 9.39311 95.7158 12.2051 98.8352C16.1603 103.221 24.0708 101.739 24.0708 101.739C24.0708 101.739 22.1241 94.7892 18.1997 92.1021C15.7586 90.4342 12.8231 89.3223 5.46875 86.5117H5.49965Z" fill="white"/>
<path d="M29.8178 79.0391C29.8178 79.0391 24.5029 86.5753 24.6883 90.0963C24.9046 93.5864 27.8402 97.3854 29.1998 98.2502C30.5594 99.115 33.6495 92.1965 33.5259 89.2314C33.4023 86.2664 29.8178 79.07 29.8178 79.07V79.0391Z" fill="white"/>
<path d="M1.17383 69.3398C1.17383 69.3398 3.02786 79.4087 5.49989 83.0223C9.39335 88.6745 16.655 87.5935 16.655 87.5935C16.655 87.5935 16.3769 82.4973 12.0199 77.0922C10.3513 75.0538 1.17383 69.3398 1.17383 69.3398Z" fill="white"/>
<path d="M26.6372 66.25C26.6372 66.25 19.1593 72.9832 19.2211 77.3072C19.2829 81.6312 22.0021 85.3376 22.0021 85.3376C22.0021 85.3376 28.0586 81.3533 28.1204 77.4616C28.1822 73.57 26.6372 66.2809 26.6372 66.2809V66.25Z" fill="white"/>
<path d="M11.4951 71.2819C11.4951 71.2819 3.39922 70.4171 1.45249 64.6105C-0.494235 58.804 0.0928737 50.125 0.0928737 50.125C0.0928737 50.125 8.6523 58.4025 9.79562 61.3675C10.9389 64.3326 11.7733 66.3093 11.4951 71.2819Z" fill="white"/>
<path d="M25.6468 52.5699C25.6468 52.5699 15.4496 58.8707 15.8204 64.0595C16.1603 69.2793 17.3036 70.6692 17.3036 70.6692C17.3036 70.6692 23.9472 67.9512 24.967 63.9051C24.967 63.9051 26.4193 58.4692 25.6777 52.5391L25.6468 52.5699Z" fill="white"/>
<path d="M3.12045 33.0156C3.12045 33.0156 0.926518 41.5402 1.17372 45.1538C1.79173 54.5123 10.3512 55.5933 10.3512 55.5933C10.3512 55.5933 11.649 47.6247 10.2894 44.3199C8.92974 40.9842 5.40709 36.1351 5.40709 36.1351L3.15135 33.0156H3.12045Z" fill="white"/>
<path d="M15.7904 56.2099C15.7904 56.2099 14.6162 48.3957 18.4169 44.9674C22.4649 41.3228 27.3163 39.9021 27.5944 39.8403C27.8725 39.7785 27.2545 45.894 24.6897 50.8975C22.8357 54.5112 16.2539 55.901 15.7904 56.2099Z" fill="white"/>
<path d="M11.558 39.8133C11.558 39.8133 5.5015 36.1069 5.09979 30.6401C4.69809 25.1733 9.54946 15.8148 9.82756 16.031C10.1057 16.2472 14.4626 26.069 14.4626 30.2386C14.4626 34.4082 13.0412 36.9717 11.558 39.8133Z" fill="white"/>
<path d="M32.5076 27.3629C32.5076 27.3629 24.6279 27.5791 20.4564 31.8723C16.2848 36.1963 17.3663 41.2307 17.3663 41.2307C17.3663 41.2307 24.3498 41.2925 27.6562 36.9685C30.9625 32.6444 32.5076 27.332 32.5076 27.332V27.3629Z" fill="white"/>
<path d="M20.3941 0C20.3941 0 17.4585 4.10784 15.6354 6.73315C13.7814 9.35846 11.2166 14.8871 12.2981 18.0683C13.3796 21.2496 16.686 23.9984 16.686 23.9984C16.686 23.9984 21.2902 18.8096 21.661 14.4855C22.0318 10.1615 20.3941 0 20.3941 0Z" fill="white"/>
<path d="M22.002 26.9347C22.002 26.9347 23.1453 19.9236 28.1511 17.4527C33.0643 14.9818 39.9551 15.5687 39.9551 15.5687C39.9551 15.5687 36.3398 22.8269 31.612 25.5449C27.4404 27.9231 22.0329 26.9656 22.0329 26.9656L22.002 26.9347Z" fill="white"/>
<path d="M115.257 124.192C115.257 124.192 118.348 127.218 122.735 127.218C130.275 127.218 138.804 117.026 138.804 117.026C138.804 117.026 129.194 116.47 124.589 117.52C119.985 118.57 115.227 124.192 115.227 124.192H115.257Z" fill="white"/>
<path d="M111.643 119.651C111.643 119.651 120.789 116.964 120.388 108.748C119.986 100.533 119.43 100.656 119.43 100.656C119.43 100.656 109.882 107.976 110.376 113.536C110.839 118.601 111.643 119.651 111.643 119.651Z" fill="white"/>
<path d="M149.341 102.82C149.341 102.82 145.51 110.449 140.102 113.878C134.726 117.306 128.422 113.878 128.422 113.878C128.422 113.878 132.192 107.762 136.178 105.909C140.164 104.087 149.341 102.82 149.341 102.82Z" fill="white"/>
<path d="M124.004 109.831C124.004 109.831 130.215 106.124 130.215 101.399C130.215 96.6733 127.125 90.4961 127.125 90.4961C127.125 90.4961 121.717 98.1249 121.532 102.078C121.346 106.032 123.355 109.028 124.035 109.831H124.004Z" fill="white"/>
<path d="M157.468 86.5117C157.468 86.5117 153.574 95.7158 150.762 98.8352C146.807 103.221 138.896 101.739 138.896 101.739C138.896 101.739 140.843 94.7892 144.768 92.1021C147.209 90.4342 150.144 89.3223 157.499 86.5117H157.468Z" fill="white"/>
<path d="M133.18 79.0391C133.18 79.0391 138.495 86.5753 138.31 90.0963C138.094 93.5864 135.158 97.3854 133.798 98.2502C132.439 99.115 129.349 92.1965 129.472 89.2314C129.596 86.2664 133.18 79.07 133.18 79.07V79.0391Z" fill="white"/>
<path d="M161.826 69.3398C161.826 69.3398 159.942 79.4087 157.47 83.0223C153.576 88.6745 146.314 87.5935 146.314 87.5935C146.314 87.5935 146.593 82.4973 150.98 77.0922C152.649 75.0538 161.826 69.3398 161.826 69.3398Z" fill="white"/>
<path d="M136.331 66.25C136.331 66.25 143.809 72.9832 143.747 77.3072C143.685 81.6312 140.997 85.3376 140.997 85.3376C140.997 85.3376 134.941 81.3533 134.879 77.4616C134.817 73.57 136.362 66.2809 136.362 66.2809L136.331 66.25Z" fill="white"/>
<path d="M151.505 71.2819C151.505 71.2819 159.601 70.4171 161.547 64.6105C163.494 58.804 162.907 50.125 162.907 50.125C162.907 50.125 154.348 58.4025 153.204 61.3675C152.061 64.3326 151.227 66.3093 151.536 71.2819H151.505Z" fill="white"/>
<path d="M137.351 52.5699C137.351 52.5699 147.517 58.8707 147.178 64.0595C146.838 69.2793 145.694 70.6692 145.694 70.6692C145.694 70.6692 139.051 67.9512 138.031 63.9051C138.031 63.9051 136.579 58.4692 137.32 52.5391L137.351 52.5699Z" fill="white"/>
<path d="M159.878 33.0156C159.878 33.0156 162.071 41.5402 161.824 45.1538C161.206 54.5123 152.647 55.5933 152.647 55.5933C152.647 55.5933 151.349 47.6247 152.709 44.3199C154.068 41.0151 157.591 36.1351 157.591 36.1351L159.847 33.0156H159.878Z" fill="white"/>
<path d="M147.209 56.2099C147.209 56.2099 148.383 48.3957 144.582 44.9674C140.534 41.3228 135.683 39.9021 135.405 39.8403C135.127 39.7785 135.745 45.894 138.31 50.8975C140.164 54.5112 146.745 55.901 147.209 56.2099Z" fill="white"/>
<path d="M151.443 39.8133C151.443 39.8133 157.5 36.1069 157.902 30.6401C158.303 25.1733 153.452 15.8148 153.174 16.031C152.896 16.2472 148.508 26.069 148.508 30.2386C148.508 34.4082 149.929 36.9717 151.412 39.8133H151.443Z" fill="white"/>
<path d="M130.461 27.3629C130.461 27.3629 138.341 27.5791 142.543 31.8723C146.715 36.1963 145.633 41.2307 145.633 41.2307C145.633 41.2307 138.65 41.2925 135.343 36.9685C132.037 32.6444 130.492 27.332 130.492 27.332L130.461 27.3629Z" fill="white"/>
<path d="M142.605 0C142.605 0 145.509 4.10784 147.363 6.73315C149.217 9.35846 151.782 14.8871 150.701 18.0683C149.619 21.2496 146.313 23.9984 146.313 23.9984C146.313 23.9984 141.709 18.8096 141.338 14.4855C140.967 10.1615 142.605 0 142.605 0Z" fill="white"/>
<path d="M140.998 26.9347C140.998 26.9347 139.855 19.9236 134.849 17.4527C129.936 14.9818 123.045 15.5687 123.045 15.5687C123.045 15.5687 126.66 22.8269 131.388 25.5449C135.56 27.9231 140.967 26.9656 140.967 26.9656L140.998 26.9347Z" fill="white"/>
</g>
<defs>
<clipPath id="clip0_2915_6252">
<rect width="163" height="127.22" fill="white"/>
</clipPath>
</defs>
</svg>
