<svg width="163" height="129" viewBox="0 0 163 129" fill="none" xmlns="http://www.w3.org/2000/svg">
<g clip-path="url(#clip0_2915_6397)">
<path d="M115.349 125.834C115.349 125.834 118.439 128.838 122.827 128.838C130.367 128.838 138.895 118.72 138.895 118.72C138.895 118.72 129.285 118.168 124.681 119.211C120.077 120.253 115.318 125.834 115.318 125.834H115.349Z" fill="white"/>
<path d="M111.643 121.294C111.643 121.294 120.789 118.627 120.388 110.471C119.986 102.315 119.43 102.438 119.43 102.438C119.43 102.438 109.882 109.704 110.376 115.223C110.839 120.252 111.643 121.294 111.643 121.294Z" fill="white"/>
<path d="M149.341 104.617C149.341 104.617 145.51 112.19 140.102 115.594C134.695 118.997 128.422 115.594 128.422 115.594C128.422 115.594 132.192 109.523 136.178 107.683C140.164 105.874 149.311 104.617 149.311 104.617H149.341Z" fill="white"/>
<path d="M124.002 111.573C124.002 111.573 130.213 107.893 130.213 103.202C130.213 98.5111 127.123 92.3789 127.123 92.3789C127.123 92.3789 121.746 99.9522 121.53 103.877C121.344 107.832 123.353 110.776 124.033 111.573H124.002Z" fill="white"/>
<path d="M157.468 88.4258C157.468 88.4258 153.574 97.5628 150.762 100.66C146.807 105.013 138.896 103.542 138.896 103.542C138.896 103.542 140.874 96.643 144.768 93.9755C147.209 92.3198 150.144 91.2159 157.468 88.4258Z" fill="white"/>
<path d="M133.18 81.0039C133.18 81.0039 138.495 88.4852 138.31 91.9806C138.124 95.476 135.158 99.2166 133.798 100.075C132.439 100.934 129.349 94.0656 129.472 91.1221C129.596 88.1786 133.18 81.0346 133.18 81.0346V81.0039Z" fill="white"/>
<path d="M161.825 71.3789C161.825 71.3789 159.94 81.3745 157.468 84.9618C153.574 90.5728 146.312 89.4997 146.312 89.4997C146.312 89.4997 146.591 84.4406 150.978 79.0749C152.647 77.0512 161.825 71.3789 161.825 71.3789Z" fill="white"/>
<path d="M136.331 68.2812C136.331 68.2812 143.809 74.9654 143.747 79.258C143.685 83.5505 140.997 87.2299 140.997 87.2299C140.997 87.2299 134.94 83.2746 134.848 79.4113C134.786 75.5173 136.331 68.3119 136.331 68.3119V68.2812Z" fill="white"/>
<path d="M151.503 73.3115C151.503 73.3115 159.599 72.453 161.546 66.6887C163.492 60.9244 162.905 52.3086 162.905 52.3086C162.905 52.3086 154.346 60.5258 153.203 63.4693C152.059 66.4127 151.225 68.3751 151.503 73.3115Z" fill="white"/>
<path d="M137.352 54.6986C137.352 54.6986 147.518 60.9535 147.209 66.1046C146.9 71.2557 145.726 72.6661 145.726 72.6661C145.726 72.6661 139.082 69.9679 138.062 65.9513C138.062 65.9513 136.61 60.5856 137.352 54.668V54.6986Z" fill="white"/>
<path d="M159.877 35.3203C159.877 35.3203 162.071 43.7828 161.824 47.3702C161.206 56.6605 152.647 57.7336 152.647 57.7336C152.647 57.7336 151.38 49.8231 152.709 46.5423C154.068 43.2309 157.591 38.4171 157.591 38.4171L159.847 35.3203H159.877Z" fill="white"/>
<path d="M147.209 58.3173C147.209 58.3173 148.383 50.56 144.582 47.1566C140.534 43.5386 135.683 42.1282 135.405 42.0669C135.127 42.0055 135.745 48.0765 138.31 53.0436C140.164 56.6003 146.745 57.98 147.209 58.3173Z" fill="white"/>
<path d="M151.441 42.0659C151.441 42.0659 157.498 38.3866 157.9 32.9595C158.301 27.5325 153.45 18.2422 153.172 18.4568C152.894 18.6714 148.506 28.4217 148.506 32.5609C148.506 36.7002 149.927 39.2451 151.411 42.0659H151.441Z" fill="white"/>
<path d="M130.461 29.6752C130.461 29.6752 138.341 29.8898 142.543 34.1517C146.715 38.4443 145.633 43.4421 145.633 43.4421C145.633 43.4421 138.65 43.5034 135.312 39.2108C132.006 34.9183 130.461 29.6445 130.461 29.6445V29.6752Z" fill="white"/>
<path d="M142.605 2.54297C142.605 2.54297 145.509 6.62091 147.363 9.22711C149.217 11.8333 151.782 17.3217 150.701 20.4798C149.619 23.6379 146.313 26.3667 146.313 26.3667C146.313 26.3667 141.709 21.2156 141.338 16.9231C140.967 12.6305 142.605 2.54297 142.605 2.54297Z" fill="white"/>
<path d="M140.998 29.2812C140.998 29.2812 139.855 22.3211 134.849 19.8682C129.936 17.4154 123.045 17.9979 123.045 17.9979C123.045 17.9979 126.66 25.2033 131.419 27.9015C135.591 30.2624 140.998 29.3119 140.998 29.3119V29.2812Z" fill="white"/>
<path d="M47.7102 125.834C47.7102 125.834 44.6202 128.838 40.2323 128.838C32.6926 128.838 24.1641 118.72 24.1641 118.72C24.1641 118.72 33.7741 118.168 38.3783 119.211C42.9825 120.253 47.7411 125.834 47.7411 125.834H47.7102Z" fill="white"/>
<path d="M51.3553 121.294C51.3553 121.294 42.2088 118.627 42.6105 110.471C43.0122 102.315 43.5684 102.438 43.5684 102.438C43.5684 102.438 53.1167 109.704 52.6223 115.223C52.1588 120.252 51.3553 121.294 51.3553 121.294Z" fill="white"/>
<path d="M13.625 104.617C13.625 104.617 17.4567 112.19 22.8642 115.594C28.2718 118.997 34.5446 115.594 34.5446 115.594C34.5446 115.594 30.7748 109.523 26.7886 107.683C22.8024 105.874 13.625 104.617 13.625 104.617Z" fill="white"/>
<path d="M38.9962 111.573C38.9962 111.573 32.7852 107.893 32.7852 103.202C32.7852 98.5111 35.8752 92.3789 35.8752 92.3789C35.8752 92.3789 41.2519 99.9522 41.4682 103.877C41.6536 107.832 39.6451 110.776 38.9653 111.573H38.9962Z" fill="white"/>
<path d="M5.49965 88.4258C5.49965 88.4258 9.39311 97.5628 12.2051 100.66C16.1603 105.013 24.0708 103.542 24.0708 103.542C24.0708 103.542 22.1241 96.643 18.1997 93.9755C15.7586 92.3198 12.8231 91.2159 5.46875 88.4258H5.49965Z" fill="white"/>
<path d="M29.8178 81.0039C29.8178 81.0039 24.5029 88.4852 24.6883 91.9806C24.8737 95.476 27.8711 99.2166 29.1998 100.075C30.5594 100.934 33.6495 94.0656 33.5259 91.1221C33.4023 88.1786 29.8178 81.0346 29.8178 81.0346V81.0039Z" fill="white"/>
<path d="M1.17188 71.3789C1.17188 71.3789 3.0568 81.3745 5.52884 84.9618C9.4223 90.5728 16.6839 89.4997 16.6839 89.4997C16.6839 89.4997 16.4058 84.4406 12.0179 79.0749C10.3493 77.0512 1.17188 71.3789 1.17188 71.3789Z" fill="white"/>
<path d="M26.6665 68.2812C26.6665 68.2812 19.1886 74.9654 19.2504 79.258C19.3122 83.5505 22.0005 87.2299 22.0005 87.2299C22.0005 87.2299 28.057 83.2746 28.1497 79.4113C28.2115 75.5173 26.6665 68.3119 26.6665 68.3119V68.2812Z" fill="white"/>
<path d="M11.4937 73.3115C11.4937 73.3115 3.39777 72.453 1.45104 66.6887C-0.526588 60.9244 0.0914216 52.3086 0.0914216 52.3086C0.0914216 52.3086 8.65085 60.5258 9.79417 63.4693C10.9375 66.4127 11.7718 68.3751 11.4628 73.3115H11.4937Z" fill="white"/>
<path d="M25.6452 54.6986C25.6452 54.6986 15.479 60.9535 15.8189 66.1046C16.1588 71.2557 17.3021 72.6661 17.3021 72.6661C17.3021 72.6661 23.9457 69.9679 24.9654 65.9513C24.9654 65.9513 26.4177 60.5856 25.6761 54.668L25.6452 54.6986Z" fill="white"/>
<path d="M3.1185 35.3203C3.1185 35.3203 0.924565 43.7828 1.17177 47.3702C1.78978 56.6605 10.3492 57.7336 10.3492 57.7336C10.3492 57.7336 11.647 49.8231 10.2874 46.5423C8.92779 43.2309 5.40513 38.4171 5.40513 38.4171L3.1494 35.3203H3.1185Z" fill="white"/>
<path d="M15.7885 58.3173C15.7885 58.3173 14.6142 50.56 18.415 47.1566C22.463 43.5386 27.3143 42.1282 27.5924 42.0669C27.8705 42.0055 27.2525 48.0765 24.6878 53.0436C22.8338 56.6003 16.252 57.98 15.7885 58.3173Z" fill="white"/>
<path d="M11.5248 42.0659C11.5248 42.0659 5.46829 38.3866 5.06659 32.9595C4.66488 27.5325 9.51626 18.2422 9.79436 18.4568C10.0725 18.6714 14.4603 28.4217 14.4603 32.5609C14.4603 36.7002 13.0389 39.2451 11.5557 42.0659H11.5248Z" fill="white"/>
<path d="M32.5053 29.6752C32.5053 29.6752 24.6256 29.8898 20.4232 34.1517C16.2516 38.4443 17.3331 43.4421 17.3331 43.4421C17.3331 43.4421 24.3166 43.5034 27.6539 39.2108C30.9602 34.9183 32.5053 29.6445 32.5053 29.6445V29.6752Z" fill="white"/>
<path d="M20.3941 2.54297C20.3941 2.54297 17.4894 6.62091 15.6354 9.22711C13.7814 11.8333 11.2166 17.3217 12.2981 20.4798C13.3796 23.6379 16.686 26.3667 16.686 26.3667C16.686 26.3667 21.2902 21.2156 21.661 16.9231C22.0318 12.6305 20.3941 2.54297 20.3941 2.54297Z" fill="white"/>
<path d="M22 29.2812C22 29.2812 23.1433 22.3211 28.1492 19.8682C33.0624 17.4154 39.9532 17.9979 39.9532 17.9979C39.9532 17.9979 36.3378 25.2033 31.5791 27.9015C27.4076 30.2624 22 29.3119 22 29.3119V29.2812Z" fill="white"/>
<path d="M60.0707 6.46648L59.9471 6.34384C59.4836 5.8226 58.8038 5.54665 58.0931 5.57731C56.27 5.76127 54.9412 7.38632 55.1266 9.19533C55.2811 10.759 56.5172 11.9855 58.0931 12.1388C58.8038 12.1695 59.4836 11.8935 59.9471 11.3723L60.0707 11.2496V11.9548H61.8629V3.09375L60.0707 3.73763V6.46648ZM58.4948 10.4831C57.5987 10.4831 56.8571 9.80855 56.8262 8.91938C56.7953 8.0302 57.506 7.29433 58.4021 7.26367C59.2982 7.26367 60.0398 7.93822 60.0707 8.82739C60.1325 9.6859 59.4836 10.4218 58.6802 10.4831C58.6184 10.4831 58.5566 10.4831 58.4948 10.4831Z" fill="white"/>
<path d="M63.7475 2.91016C63.1604 2.91016 62.666 3.40074 62.666 3.9833C62.666 4.56586 63.1604 5.05644 63.7475 5.05644C64.3346 5.05644 64.829 4.56586 64.829 3.9833C64.829 3.40074 64.3346 2.91016 63.7475 2.91016Z" fill="white"/>
<path d="M64.6438 5.75781H62.8516V11.9514H64.6438V5.75781Z" fill="white"/>
<path d="M75.1497 5.75781H73.3574V11.9514H75.1497V5.75781Z" fill="white"/>
<path d="M77.9934 9.74536V7.44577H79.044L79.7238 5.75941H77.9934V4.01172L76.2012 4.71693V9.74536C76.2012 11.3091 77.0355 12.0143 78.7968 12.0143C79.1367 12.0143 79.4766 12.0143 79.8165 11.953L78.9822 10.3586C78.3642 10.3586 77.9934 10.3586 77.9934 9.74536Z" fill="white"/>
<path d="M84.6977 6.46851L84.5741 6.34586C84.1106 5.82462 83.4308 5.54867 82.72 5.61C80.8969 5.79396 79.5682 7.41901 79.7536 9.22802C79.9081 10.7917 81.1441 12.0182 82.72 12.1715C83.4308 12.2022 84.1106 11.9262 84.5741 11.405L84.6977 11.2823V11.9875H86.4899V5.79396H84.6977V6.49917V6.46851ZM83.1217 10.4851C82.2256 10.4851 81.484 9.81058 81.4531 8.9214C81.4222 8.03223 82.1329 7.29636 83.029 7.2657C83.9252 7.2657 84.6668 7.94025 84.6977 8.82942C84.7595 9.68793 84.1106 10.4238 83.2762 10.4545C83.2144 10.4545 83.1526 10.4545 83.0908 10.4545L83.1217 10.4851Z" fill="white"/>
<path d="M87.4785 11.9546H89.2707V2.87891L87.4785 3.52279V11.9853V11.9546Z" fill="white"/>
<path d="M92.6407 3.94922L90.8485 4.5931V5.75823H90.2305V7.44459H90.8485V9.74418C90.7867 10.3574 90.9721 10.9706 91.3429 11.4305C91.8373 11.8598 92.4862 12.0744 93.166 11.9825C93.4132 11.9825 93.6604 11.9825 93.9694 11.9518V10.3574C93.8149 10.3574 93.6913 10.3574 93.5986 10.3574C93.3514 10.3574 93.1351 10.3574 92.9188 10.2348C92.7334 10.1428 92.6407 9.92815 92.6407 9.74418V7.44459H93.9694V5.75823H92.6407V3.94922Z" fill="white"/>
<path d="M101.879 5.57754C100.117 5.51621 98.6033 6.86531 98.5415 8.64365C98.5415 8.70498 98.5415 8.79696 98.5415 8.85828C98.5106 10.6366 99.932 12.1084 101.724 12.139C101.817 12.139 101.91 12.139 102.033 12.139C103.084 12.2004 104.073 11.7404 104.722 10.9126L103.3 10.0847C102.96 10.3913 102.528 10.5446 102.064 10.5446C101.384 10.6366 100.735 10.238 100.488 9.62481V9.53283C100.457 9.53283 105.031 9.53283 105.031 9.53283C105.062 9.28754 105.092 9.07291 105.092 8.82762C105.154 7.07993 103.795 5.63886 102.064 5.54688C102.033 5.54688 101.971 5.54688 101.91 5.54688L101.879 5.57754ZM100.396 8.24506V8.18374C100.674 7.38655 101.508 6.95729 102.28 7.20258C102.744 7.35588 103.115 7.72382 103.269 8.18374V8.24506H100.396Z" fill="white"/>
<path d="M109.697 5.57809C109.017 5.51677 108.368 5.82338 107.935 6.31396L107.812 6.46726V5.76205L106.02 6.40594V11.9556H107.812V8.55222C107.812 7.69371 108.275 7.17247 109.079 7.17247C109.697 7.14181 110.222 7.60173 110.253 8.21495C110.253 8.27627 110.253 8.33759 110.253 8.39892V11.9556H112.045V8.12297C112.045 6.34462 110.871 5.57809 109.728 5.57809H109.697Z" fill="white"/>
<path d="M117.979 6.46552L117.855 6.34287C117.392 5.82163 116.712 5.54568 116.001 5.57634C114.178 5.76031 112.849 7.38535 113.035 9.19436C113.189 10.7581 114.425 11.9845 116.001 12.1378C116.712 12.1685 117.392 11.8925 117.855 11.3713L117.979 11.2487V11.9539H119.771V3.24609L117.979 3.88998V6.46552ZM116.403 10.4821C115.507 10.4821 114.765 9.80759 114.734 8.91841C114.703 8.02924 115.414 7.29337 116.31 7.26271C117.206 7.26271 117.948 7.93726 117.979 8.82643C118.041 9.68494 117.392 10.4208 116.588 10.4821C116.527 10.4821 116.465 10.4821 116.403 10.4821Z" fill="white"/>
<path d="M99.1595 5.6381C99.005 5.60744 98.8196 5.57678 98.6651 5.57678H98.6342C97.9853 5.54612 97.3364 5.79141 96.9038 6.28199L96.7802 6.43529V5.79141H96.7493L94.957 5.85273V11.985H96.7802V8.58158C96.7802 7.72306 97.2128 7.23248 97.9853 7.20182C98.2325 6.5886 98.6651 6.0367 99.1904 5.6381H99.1595Z" fill="white"/>
<path d="M70.5766 6.46851L70.453 6.34586C69.9895 5.82462 69.3097 5.54867 68.5989 5.61C66.7758 5.79396 65.4471 7.41901 65.6325 9.22802C65.787 10.7917 67.023 12.0182 68.5989 12.1715C69.2788 12.2022 69.9586 11.9569 70.4221 11.4663L70.5457 11.3436V12.5088C70.5457 13.3366 69.835 14.0112 69.0007 14.0112H68.9698C68.2899 14.0418 67.6719 13.6739 67.3938 13.0607V12.938C67.3629 12.938 65.7252 13.5206 65.7252 13.5206V13.6432C66.2814 14.931 67.5483 15.7895 68.9698 15.7282C70.762 15.8202 72.2761 14.4404 72.3688 12.6621C72.3688 12.6007 72.3688 12.5701 72.3688 12.5088V5.79396H70.5766V6.49917V6.46851ZM69.0007 10.4851C68.1045 10.4851 67.3629 9.81058 67.332 8.9214C67.3011 8.03223 68.0118 7.29636 68.908 7.2657C69.8041 7.2657 70.5457 7.94025 70.5766 8.82942C70.6384 9.68793 69.9895 10.4238 69.1552 10.4545C69.0934 10.4545 69.0316 10.4545 68.9698 10.4545L69.0007 10.4851Z" fill="white"/>
<path d="M74.2846 2.91016C73.6975 2.91016 73.2031 3.40074 73.2031 3.9833C73.2031 4.56586 73.6975 5.05644 74.2846 5.05644C74.8718 5.05644 75.3662 4.56586 75.3662 3.9833C75.3662 3.40074 74.8718 2.91016 74.2846 2.91016Z" fill="white"/>
<path d="M123.572 8.09311C123.047 7.9398 122.614 7.84782 122.614 7.54121C122.614 7.2346 122.831 7.11195 123.201 7.11195C123.479 7.11195 123.758 7.20394 123.912 7.41856L125.55 6.836H125.581C125.055 6.00815 124.159 5.51757 123.17 5.54823C121.965 5.54823 120.729 6.16146 120.729 7.57187C120.729 8.98229 121.996 9.25824 122.892 9.53419C123.449 9.68749 123.85 9.81014 123.85 10.0861C123.85 10.362 123.727 10.546 123.109 10.546C122.738 10.546 122.367 10.3927 122.151 10.0861L120.451 10.6687C120.976 11.6191 122.027 12.2017 123.109 12.0791C124.376 12.0791 125.704 11.5578 125.704 10.0554C125.704 8.58369 124.468 8.27708 123.541 8.03179L123.572 8.09311Z" fill="white"/>
<path d="M52.5625 15.5759H37.174C37.0813 15.5759 37.0195 15.5146 37.0195 15.4226V0.153306C37.0195 0.0613224 37.0813 0 37.174 0H52.5625C52.6552 0 52.717 0.0613224 52.717 0.153306V15.4226C52.717 15.5146 52.6552 15.5759 52.5625 15.5759ZM39.8006 6.74546C39.7388 6.74546 39.677 6.80678 39.677 6.83744V8.67712C39.677 8.73844 39.7388 8.7691 39.8006 8.7691H43.8485V12.7857C43.8485 12.847 43.9103 12.8777 43.9721 12.8777H45.8262C45.888 12.8777 45.9498 12.8164 45.9498 12.7857V8.7691H49.9977C50.0595 8.7691 50.1213 8.70778 50.1213 8.67712V6.83744C50.1213 6.77612 50.0595 6.74546 49.9977 6.74546H45.9498V2.72885C45.9498 2.66752 45.888 2.63686 45.8262 2.63686H43.9721C43.9103 2.63686 43.8485 2.69818 43.8485 2.72885V6.74546H39.8006ZM40.2641 11.3753C39.9551 11.3753 39.677 11.6206 39.677 11.9579V12.3565C39.677 12.6631 39.9242 12.939 40.2641 12.939H42.7361C43.0451 12.939 43.3232 12.6937 43.3232 12.3565V11.9579C43.3232 11.6513 43.076 11.3753 42.7361 11.3753H40.2641ZM40.2641 9.38232C39.9551 9.38232 39.677 9.62761 39.677 9.96489V10.3635C39.677 10.6701 39.9242 10.946 40.2641 10.946H41.1911C41.5001 10.946 41.7782 10.7008 41.7782 10.3635V9.96489C41.7782 9.65827 41.531 9.38232 41.1911 9.38232H40.2641Z" fill="white"/>
<path d="M124.066 3.71114C124.066 3.1899 124.499 2.79131 125.024 2.82197C125.519 2.82197 125.92 3.25123 125.92 3.7418C125.92 4.23238 125.488 4.63098 124.993 4.63098C124.499 4.63098 124.066 4.23238 124.066 3.71114ZM125.766 3.71114C125.766 3.28189 125.395 2.94461 124.963 2.97528C124.53 2.97528 124.19 3.34321 124.221 3.77247C124.221 4.20172 124.561 4.50833 124.993 4.50833C125.426 4.50833 125.766 4.17106 125.766 3.7418C125.766 3.7418 125.766 3.74181 125.766 3.71114ZM124.654 3.1899H124.993C125.179 3.1899 125.333 3.28189 125.333 3.46585C125.333 3.46585 125.333 3.49652 125.333 3.52718C125.333 3.68048 125.241 3.80313 125.086 3.83379L125.364 4.23238H125.21L124.932 3.86445H124.715V4.23238H124.592V3.22056L124.654 3.1899ZM124.993 3.71114C125.148 3.71114 125.241 3.64982 125.241 3.52718C125.241 3.40453 125.179 3.31255 125.055 3.31255C125.055 3.31255 125.024 3.31255 124.993 3.31255H124.777V3.7418H124.993V3.71114Z" fill="white"/>
<path d="M62.4812 100.448C62.4812 98.1177 64.3662 96.7993 66.0348 95.6342C67.3635 94.6837 68.5995 93.9478 68.5995 92.936C68.5995 91.9242 67.9506 91.3416 66.7455 91.3416C65.5404 91.3416 64.8297 92.1388 64.3662 93.2426L62.2031 92.1695C63.0374 90.3298 64.5516 89.1953 66.7764 89.1953C69.0012 89.1953 71.1643 90.851 71.1643 92.9666C71.1643 95.0823 69.4338 96.278 67.7961 97.3512C66.4056 98.3017 65.0151 99.1295 65.0151 100.417H71.1025V102.809H62.4812V100.448Z" fill="white"/>
<path d="M72.4316 98.6083V93.6718C72.4316 91.127 74.3166 89.1953 77.0358 89.1953C79.7551 89.1953 81.64 91.1883 81.64 93.6718V98.6083C81.64 101.245 79.9405 102.993 77.0358 102.993C74.1003 102.993 72.4316 101.184 72.4316 98.6083ZM79.1061 98.5163V93.7638C79.1061 92.5067 78.3954 91.6789 77.0358 91.6789C75.6762 91.6789 74.9346 92.5987 74.9346 93.7638V98.5163C74.9346 99.6814 75.6453 100.509 77.0049 100.509C78.3645 100.509 79.1061 99.6201 79.1061 98.5163Z" fill="white"/>
<path d="M82.9676 100.448C82.9676 98.1177 84.8525 96.7993 86.5211 95.6342C87.8498 94.6837 89.0858 93.9478 89.0858 92.936C89.0858 91.9242 88.4369 91.3416 87.2318 91.3416C86.0267 91.3416 85.316 92.1388 84.8525 93.2426L82.6895 92.1695C83.5238 90.3298 85.0379 89.1953 87.2627 89.1953C89.4876 89.1953 91.6506 90.851 91.6506 92.9666C91.6506 95.0823 89.9202 96.278 88.2824 97.3512C86.8919 98.3017 85.5014 99.1295 85.5014 100.417H91.5888V102.809H82.9676V100.448Z" fill="white"/>
<path d="M92.1152 101.123L94.3092 99.4975C94.8963 100.356 95.607 100.724 96.4413 100.724C97.2756 100.724 98.4498 100.049 98.4498 98.9456C98.4498 97.8418 97.5228 97.0752 96.1323 97.0752H94.7418V94.7757H96.1323C97.6155 94.7757 98.2953 93.9478 98.2953 92.9973C98.2953 92.0468 97.5537 91.3723 96.3795 91.3723C95.2053 91.3723 94.7418 91.8628 94.3092 92.66L92.1461 91.5562C92.9495 90.0845 94.5255 89.1953 96.3177 89.1953C98.9442 89.1953 100.706 90.6671 100.706 92.9666C100.706 95.2662 100.118 95.1742 99.1605 95.8488C100.273 96.4927 100.953 97.5352 100.953 98.9149C100.953 101.215 99.3459 102.993 96.4413 102.993C93.5367 102.993 93.2586 102.472 92.1152 101.123Z" fill="white"/>
<path d="M54.0153 24.5H56.889L61.5859 31.0002L66.4991 24.5H69.2492V39.9532H66.3446V29.1298L61.555 35.5074L56.889 29.2218V39.9532H53.9844V24.5H54.0153Z" fill="white"/>
<path d="M70.3906 32.2264C70.3906 27.8419 73.9133 24.2852 78.332 24.2852C82.7508 24.2852 86.3044 27.8419 86.3044 32.2264C86.3044 36.611 82.7817 40.1677 78.332 40.1677C73.8824 40.1677 70.3906 36.6416 70.3906 32.2264ZM83.4306 32.2264C83.4306 29.4056 81.1749 27.1366 78.332 27.1366C75.4892 27.1366 73.2644 29.4362 73.2644 32.2264C73.2644 35.0166 75.4892 37.3162 78.332 37.3162C81.1749 37.3162 83.4306 35.0166 83.4306 32.2264Z" fill="white"/>
<path d="M86.5215 37.4087L89.1789 35.3238C89.9823 36.6729 91.1566 37.4087 92.578 37.4087C93.9994 37.4087 94.9573 36.4276 94.9573 35.3238C94.9573 34.22 93.3505 33.6067 91.7128 33.1162C89.6115 32.4416 87.294 31.6444 87.294 28.7316C87.294 25.8188 89.457 24.3164 92.4544 24.3164C95.4517 24.3164 96.4096 25.2669 97.6766 26.5547L95.2972 28.3637C94.6483 27.3825 93.6904 26.8919 92.4853 26.8919C91.2802 26.8919 90.3222 27.6585 90.3222 28.6396C90.3222 29.6208 91.8055 30.234 93.505 30.8166C95.6062 31.4911 98.0165 32.411 98.0165 35.3851C98.0165 38.3592 96.0388 40.1989 92.6398 40.1989C89.8278 40.1989 87.9738 39.0031 86.5524 37.4394L86.5215 37.4087Z" fill="white"/>
<path d="M102.435 27.2595H98.2637V24.5H109.511V27.2595H105.34V39.9532H102.435V27.2595Z" fill="white"/>
<path d="M30.7461 47.0039H33.4035V61.1081H30.7461V47.0039Z" fill="white"/>
<path d="M34.918 47.0039H37.9153L44.0645 56.6009V47.0039H46.7219V61.1081H43.91L37.5754 51.2045V61.1081H34.918V47.0039Z" fill="white"/>
<path d="M48.1426 47.0039H51.1399L57.2891 56.6009V47.0039H59.9466V61.1081H57.1346L50.8 51.2045V61.1081H48.1426V47.0039Z" fill="white"/>
<path d="M60.998 54.0603C60.998 50.0743 64.2117 46.8242 68.2597 46.8242C72.3076 46.8242 75.5522 50.0743 75.5522 54.0603C75.5522 58.0462 72.3076 61.2963 68.2597 61.2963C64.2117 61.2963 60.998 58.0769 60.998 54.0603ZM72.9256 54.0603C72.9256 51.4847 70.8553 49.3998 68.2597 49.3998C65.664 49.3998 63.6246 51.4847 63.6246 54.0603C63.6246 56.6358 65.664 58.7208 68.2597 58.7208C70.8553 58.7208 72.9256 56.6358 72.9256 54.0603Z" fill="white"/>
<path d="M75.1797 47.0039H77.9298L81.298 57.0914L84.6352 47.0039H87.3854L82.6267 61.1081H79.9693L75.2106 47.0039H75.1797Z" fill="white"/>
<path d="M90.1973 47.0039H92.8547L97.9224 61.1081H95.1723L94.307 58.5938H88.8068L87.9415 61.1081H85.1914L90.2591 47.0039H90.1973ZM89.672 56.0796H93.4109L91.526 50.7139L89.6411 56.0796H89.672Z" fill="white"/>
<path d="M99.8086 49.5181H96.0078V47.0039H106.267V49.5181H102.435V61.1081H99.7777V49.5181H99.8086Z" fill="white"/>
<path d="M107.502 47.0039H110.159V61.1081H107.502V47.0039Z" fill="white"/>
<path d="M111.148 47.0039H113.899L117.267 57.0914L120.604 47.0039H123.354L118.595 61.1081H115.938L111.179 47.0039H111.148Z" fill="white"/>
<path d="M124.281 47.0039H132.717V49.5181H126.939V52.7682H132.717V55.2824H126.939V58.5938H132.717V61.1081H124.281V47.0039Z" fill="white"/>
<path d="M44.8063 69.572H40.6348V66.8125H51.8825V69.572H47.711V82.2657H44.8063V69.572Z" fill="white"/>
<path d="M52.7461 66.8125H55.7434L59.4206 77.8505L63.0978 66.8125H66.0951L60.8729 82.2657H57.9683L52.7461 66.8125Z" fill="white"/>
<path d="M75.9528 69.572H71.7812V66.8125H83.029V69.572H78.8575V82.2657H75.9528V69.572Z" fill="white"/>
<path d="M84.2656 66.8125H93.5049V69.572H87.1703V73.1287H93.5049V75.8882H87.1703V79.5369H93.5049V82.2964H84.2656V66.8432V66.8125Z" fill="white"/>
<path d="M94.4941 74.5389C94.4941 69.9397 97.9859 66.5977 102.497 66.5977C107.009 66.5977 107.967 68.1307 109.326 70.4303L106.793 72.0247C105.866 70.4303 104.537 69.4185 102.497 69.4185C99.5309 69.4185 97.3679 71.6261 97.3679 74.5082C97.3679 77.3904 99.5309 79.5673 102.436 79.5673C105.34 79.5673 106.082 78.3716 106.916 76.6545L109.574 78.0343C108.214 80.6711 105.587 82.4188 102.528 82.4188C97.7387 82.4188 94.525 78.8928 94.525 74.4776L94.4941 74.5389Z" fill="white"/>
<path d="M119.308 75.8882H113.344V82.2657H110.439V66.8125H113.344V73.1287H119.308V66.8125H122.213V82.2657H119.308V75.8882Z" fill="white"/>
</g>
<defs>
<clipPath id="clip0_2915_6397">
<rect width="163" height="128.838" fill="white"/>
</clipPath>
</defs>
</svg>
