<svg width="163" height="129" viewBox="0 0 163 129" fill="none" xmlns="http://www.w3.org/2000/svg">
<g clip-path="url(#clip0_2915_6318)">
<path d="M55.5585 0.203083C55.5585 0.32604 55.5585 0.571954 56.1456 0.694911C56.949 0.848607 58.525 2.23187 58.6486 2.57C59.2357 3.33849 55.9293 6.35093 55.2804 6.07428C54.7242 5.8591 54.1062 6.22798 54.5079 6.41241C54.9096 6.56611 55.5585 6.75054 55.8366 7.05794C56.6709 8.10307 55.8675 8.41046 55.7439 9.02525C55.7439 9.1482 56.0838 9.05599 56.0529 9.36338C56.0529 9.70151 55.4658 9.36338 55.7439 10.0704C56.331 10.9003 55.2186 11.6381 55.5585 12.1607C56.022 12.3758 55.9911 12.8369 55.8057 12.9599C55.6821 13.0828 55.3422 13.0521 55.3422 13.2365C55.3422 13.421 55.1877 13.5747 55.5585 13.5747C55.9293 13.5747 55.8984 14.2202 55.4658 14.2202C54.5079 14.4046 55.8057 14.5583 55.6821 15.1731C55.6821 15.419 55.6821 15.8494 55.4658 15.9416C55.2495 16.0338 55.0332 16.0338 55.0332 16.2797C54.9405 16.956 55.9293 16.6486 55.8984 17.0482C55.7748 17.663 55.6512 17.3248 55.7439 18.0318C55.6512 18.2778 55.4349 18.0933 55.2804 18.4315C54.6933 19.2614 56.3619 19.1077 55.5894 19.7532C55.2495 19.8147 54.8787 19.6918 54.8169 20.1529C54.786 20.3988 54.8169 20.5832 55.0023 20.5832C55.1877 20.5832 55.2804 20.5832 55.404 20.7676C55.8057 21.0136 55.7439 21.075 55.3731 21.1365C55.0332 21.1365 55.095 21.5361 55.4967 21.5361C55.8675 21.5361 55.8984 22.028 55.713 22.0587C55.5894 22.0587 55.2495 22.0587 55.2186 22.0587C55.0332 22.1202 54.9405 22.6735 55.2186 22.7042C55.404 22.7042 55.4658 22.7042 55.5585 22.735C55.6821 22.7657 55.8366 22.735 55.8057 23.0423C55.7439 23.442 55.2804 23.2883 55.2186 23.5649C54.8787 24.149 56.0529 24.4871 55.713 25.1326C55.3731 25.9626 57.3508 27.8377 55.7748 27.9299C55.3731 27.9914 55.3731 28.8521 55.8984 28.8828C56.4237 29.0058 56.7327 29.3746 56.331 29.7435C56.022 29.7435 55.9911 30.5427 56.331 30.4812C56.4546 30.4505 56.5782 30.5427 56.5782 30.6657C56.8254 31.3419 56.1456 30.9731 56.1456 31.4342C56.2074 31.6801 56.2074 31.7416 56.3928 31.8338C56.5782 31.926 56.5782 31.9567 56.5164 32.0489C56.4546 32.3256 56.2383 32.4178 56.1147 32.633C55.8057 33.0326 56.3619 33.2785 56.4237 33.6166C56.4237 33.7703 56.3619 33.8626 56.2074 33.8626C55.8984 34.2007 56.7327 33.9548 56.64 34.5696C56.7018 35.2458 56.8564 35.9528 55.9602 35.9528C55.7439 36.1373 55.8984 36.3832 56.1147 36.4754C56.3619 36.6291 56.5782 36.3524 56.7018 36.5676C56.8254 36.7828 56.7018 37.1824 56.7018 37.3976C56.7018 37.705 57.598 37.705 57.5671 37.6128C57.9379 37.5513 57.7216 36.5984 57.7525 36.5984C57.6907 36.4139 57.7525 35.8299 57.907 36.291C58.0615 37.2439 58.0306 37.705 57.8452 37.8894C57.5671 38.0431 53.4264 38.0124 52.6539 37.8894C51.7269 37.582 53.0247 26.0548 53.1483 18.954C53.4264 12.6832 54.2607 6.96572 54.0444 5.79763C51.387 4.90619 52.3758 -0.565399 55.4349 0.0801256L55.5585 0.203083Z" fill="white"/>
<path d="M76.1378 8.84018C76.076 8.87092 76.0142 8.9324 76.0142 9.02462C76.0142 9.17831 75.8597 9.42423 75.7052 9.48571C75.6125 9.51645 75.4271 9.57792 75.2417 9.51645C74.9636 9.45497 74.9327 9.42423 74.7782 9.48571C74.6237 9.54718 74.6546 9.7931 74.8709 10.0083C75.0563 10.1927 75.149 10.3157 75.1799 10.5616C75.1799 10.5616 75.1799 10.6845 74.9945 10.8382C74.84 10.9919 74.7164 11.1456 74.7473 11.2378C74.8091 11.3301 74.8091 11.453 75.0563 11.3608C75.2726 11.2993 75.4889 11.2378 75.7979 11.2378C76.1069 11.2378 76.0451 11.3608 76.076 11.5145C76.076 11.6375 76.3232 11.7297 76.4159 11.6989C76.6013 11.6682 76.7249 11.576 76.7249 11.3915C76.7249 11.0841 76.6631 10.9305 76.8485 10.7153C76.9103 10.6231 77.0957 10.5923 77.2502 10.5308C77.4665 10.4694 77.5283 10.3771 77.5283 10.1927C77.5283 10.0083 77.4356 9.88532 77.2193 9.82384C76.8485 9.76236 76.8176 9.73162 76.7558 9.70088C76.694 9.67014 76.6631 9.57792 76.6322 9.33201C76.6013 9.0861 76.6631 8.90166 76.4468 8.84018C76.3232 8.80944 76.1996 8.7787 76.076 8.84018H76.1378Z" fill="#E8B602"/>
<path d="M65.9113 6.34689C65.8495 6.37763 65.7877 6.43911 65.7877 6.53133C65.7877 6.68502 65.6332 6.93094 65.4787 6.99241C65.386 7.02315 65.2006 7.08463 65.0151 7.02315C64.737 6.96167 64.7061 6.93094 64.5516 6.99241C64.3971 7.05389 64.428 7.29981 64.6443 7.51498C64.8606 7.73016 64.9224 7.82237 64.9533 8.06829C64.9533 8.06829 64.9534 8.19125 64.7679 8.34494C64.6134 8.49864 64.4898 8.65233 64.5207 8.74455C64.5516 8.83677 64.5825 8.95973 64.8297 8.86751C65.0461 8.80603 65.2624 8.74455 65.5714 8.74455C65.8804 8.74455 65.8186 8.86751 65.8495 9.0212C65.8495 9.14416 66.0967 9.23638 66.1894 9.20564C66.3748 9.1749 66.4984 9.08268 66.4984 8.89825C66.4984 8.59086 66.4366 8.43716 66.622 8.22198C66.6838 8.12977 66.8692 8.09903 67.0237 8.03755C67.24 7.97607 67.3018 7.88385 67.3018 7.69942C67.3018 7.51498 67.2091 7.39202 66.9928 7.33055C66.622 7.26907 66.5911 7.23833 66.5293 7.20759C66.4675 7.17685 66.4366 7.08463 66.4057 6.83872C66.3748 6.5928 66.4366 6.40837 66.2203 6.34689C66.0658 6.28541 65.9731 6.28541 65.8495 6.34689H65.9113Z" fill="#E8B602"/>
<path d="M88.1281 8.62423C88.0663 8.65497 88.0045 8.71645 88.0045 8.80867C88.0045 8.96237 87.85 9.20828 87.6955 9.26976C87.6027 9.3005 87.4173 9.36198 87.2319 9.3005C86.9538 9.23902 86.9229 9.20828 86.7684 9.26976C86.6139 9.33124 86.6448 9.57715 86.8611 9.79233C87.0774 10.0075 87.1392 10.0997 87.1701 10.3456C87.1701 10.3456 87.1701 10.4686 86.9847 10.6223C86.8302 10.776 86.7066 10.9297 86.7375 11.0219C86.7684 11.1141 86.7993 11.2371 87.0465 11.1449C87.2629 11.0834 87.4792 11.0219 87.7882 11.0219C88.0972 11.0219 88.0354 11.1449 88.0663 11.2985C88.0663 11.4215 88.3135 11.5137 88.4062 11.483C88.5916 11.4522 88.7152 11.36 88.7152 11.1756C88.7152 10.8682 88.6534 10.7145 88.8388 10.4993C88.9006 10.4071 89.086 10.3764 89.2405 10.3149C89.4568 10.2534 89.5186 10.1612 89.5186 9.97676C89.5186 9.79233 89.4259 9.66937 89.2096 9.60789C88.8388 9.54641 88.8079 9.51567 88.7461 9.48493C88.6843 9.45419 88.6534 9.36198 88.6225 9.11606C88.5916 8.87015 88.6534 8.68571 88.4371 8.62423C88.3135 8.56276 88.1899 8.56276 88.0663 8.62423H88.1281Z" fill="#E8B602"/>
<path d="M98.0167 27.7453C97.9549 27.7761 97.8931 27.8375 97.8931 27.9298C97.8931 28.0835 97.7386 28.3294 97.5841 28.3909C97.4914 28.4216 97.306 28.4831 97.1206 28.4216C96.8425 28.3601 96.8116 28.3294 96.6571 28.3909C96.5026 28.4523 96.5335 28.6982 96.7498 28.9134C96.9352 29.0979 97.0279 29.2208 97.0588 29.4667C97.0588 29.4667 97.0588 29.5897 96.8734 29.7434C96.7189 29.8971 96.5953 30.0508 96.6262 30.143C96.6571 30.2352 96.688 30.3582 96.9352 30.2659C97.1515 30.2045 97.3678 30.143 97.6768 30.143C97.9858 30.143 97.924 30.2659 97.9549 30.4196C97.9549 30.5426 98.2021 30.6348 98.2948 30.6041C98.4802 30.5733 98.6038 30.4811 98.6038 30.2967C98.6038 29.9893 98.542 29.8356 98.7274 29.6204C98.7892 29.5282 98.9746 29.4975 99.1291 29.436C99.3455 29.3745 99.4073 29.2823 99.4073 29.0979C99.4073 28.9134 99.3146 28.7905 99.0983 28.729C98.7274 28.6675 98.6965 28.6368 98.6347 28.606C98.5729 28.5753 98.542 28.4831 98.5111 28.2372C98.4802 27.9912 98.542 27.8068 98.3257 27.7453C98.2021 27.6838 98.0785 27.6838 97.9549 27.7453H98.0167Z" fill="#E8B602"/>
<path d="M87.2316 28.1125C87.1698 28.1433 87.108 28.2047 87.108 28.297C87.108 28.4506 86.9535 28.6966 86.799 28.758C86.7063 28.7888 86.5209 28.8503 86.3355 28.7888C86.0574 28.7273 86.0265 28.6966 85.872 28.758C85.7175 28.8195 85.7484 29.0654 85.9647 29.2806C86.1501 29.465 86.2428 29.588 86.2737 29.8339C86.2737 29.8339 86.2737 29.9569 86.0883 30.1106C85.9338 30.2643 85.8101 30.418 85.8411 30.5102C85.872 30.6024 85.9029 30.7254 86.1501 30.6331C86.3664 30.5717 86.5827 30.5102 86.8917 30.5102C87.2007 30.5102 87.1389 30.6331 87.1698 30.7868C87.1698 30.9098 87.417 31.002 87.5097 30.9713C87.6951 30.9405 87.8187 30.8483 87.8187 30.6639C87.8187 30.3565 87.7569 30.2028 87.9423 29.9876C88.0041 29.8954 88.1895 29.8647 88.344 29.8032C88.5603 29.7417 88.6221 29.6495 88.6221 29.465C88.6221 29.2806 88.5294 29.1576 88.3131 29.0962C87.9423 29.0347 87.9114 29.004 87.8496 28.9732C87.7878 28.9425 87.7569 28.8503 87.726 28.6043C87.6951 28.3584 87.7569 28.174 87.5406 28.1125C87.417 28.051 87.2934 28.051 87.1698 28.1125H87.2316Z" fill="#E8B602"/>
<path d="M77.714 29.218C77.6522 29.2487 77.5904 29.3102 77.5904 29.4024C77.5904 29.5561 77.4359 29.802 77.2814 29.8635C77.1887 29.8942 77.0033 29.9557 76.8179 29.8942C76.5398 29.8328 76.5089 29.802 76.3544 29.8635C76.1999 29.925 76.2308 30.1709 76.4471 30.3861C76.6325 30.5705 76.7252 30.6935 76.7561 30.9394C76.7561 30.9394 76.7561 31.0623 76.5707 31.216C76.4162 31.3697 76.2926 31.5234 76.3235 31.6156C76.3544 31.7079 76.3853 31.8308 76.6325 31.7386C76.8488 31.6771 77.0651 31.6156 77.3741 31.6156C77.6831 31.6156 77.6213 31.7386 77.6522 31.8923C77.6522 32.0153 77.8994 32.1075 77.9921 32.0767C78.1775 32.046 78.3011 31.9538 78.3011 31.7693C78.3011 31.462 78.2393 31.3083 78.4247 31.0931C78.4865 31.0009 78.6719 30.9701 78.8264 30.9086C79.0427 30.8472 79.1045 30.7549 79.1045 30.5705C79.1045 30.3861 79.0118 30.2631 78.7955 30.2016C78.4247 30.1402 78.3938 30.1094 78.332 30.0787C78.2702 30.0479 78.2393 29.9557 78.2084 29.7098C78.1775 29.4639 78.2393 29.2795 78.023 29.218C77.8994 29.1565 77.7758 29.1565 77.6522 29.218H77.714Z" fill="#E8B602"/>
<path d="M67.3019 27.6516C67.2401 27.6823 67.1783 27.7438 67.1783 27.836C67.1783 27.9897 67.0238 28.2356 66.8693 28.2971C66.7766 28.3278 66.5912 28.3893 66.4058 28.3278C66.1277 28.2664 66.0968 28.2356 65.9423 28.2971C65.7878 28.3586 65.8187 28.6045 66.035 28.8197C66.2204 29.0041 66.3131 29.1271 66.344 29.373C66.344 29.373 66.344 29.4959 66.1586 29.6496C66.0041 29.8033 65.8805 29.957 65.9114 30.0492C65.9732 30.1415 65.9732 30.2644 66.2204 30.1722C66.4367 30.1107 66.653 30.0492 66.962 30.0492C67.271 30.0492 67.2092 30.1722 67.2401 30.3259C67.2401 30.4488 67.4873 30.5411 67.58 30.5103C67.7654 30.4796 67.889 30.3874 67.889 30.2029C67.889 29.8955 67.8272 29.7418 68.0126 29.5267C68.0744 29.4345 68.2598 29.4037 68.4143 29.3422C68.6306 29.2808 68.6924 29.1885 68.6924 29.0041C68.6924 28.8197 68.5997 28.6967 68.3834 28.6352C68.0126 28.5738 67.9817 28.543 67.9199 28.5123C67.8581 28.4815 67.8272 28.3893 67.7963 28.1434C67.7654 27.8975 67.8272 27.7131 67.6109 27.6516C67.4564 27.5901 67.3637 27.5901 67.2401 27.6516H67.3019Z" fill="#E8B602"/>
<path d="M97.2446 13.6328C97.0592 13.6328 96.9047 13.6943 96.7811 13.8172C96.6575 13.9402 96.5957 14.1246 96.5957 14.3706C96.5957 14.6165 96.6575 14.8009 96.7811 14.9239C96.9047 15.0468 97.0592 15.1083 97.2446 15.1083C97.43 15.1083 97.5845 15.0468 97.7081 14.9239C97.8317 14.8009 97.8935 14.6165 97.8935 14.3706C97.8935 14.1246 97.8317 13.9402 97.7081 13.8172C97.5845 13.6943 97.43 13.6328 97.2446 13.6328Z" fill="white"/>
<path d="M88.2516 13.7279C88.1589 13.6357 88.0353 13.5742 87.8808 13.5742C87.7263 13.5742 87.6027 13.6357 87.51 13.7279C87.4173 13.8201 87.3555 13.9738 87.3555 14.1583H88.3752C88.3752 13.9738 88.3134 13.8201 88.2207 13.7279H88.2516Z" fill="white"/>
<path d="M67.0533 25.4389C66.9915 25.5003 66.9297 25.5618 66.9297 25.6233C66.9297 25.6848 66.9297 25.777 67.0224 25.8077C67.0842 25.8692 67.146 25.8999 67.2387 25.8999C67.3314 25.8999 67.455 25.8999 67.5168 25.8077C67.5786 25.7462 67.6404 25.7155 67.6404 25.6233C67.6404 25.5618 67.6404 25.5003 67.6404 25.3774V25.2852C67.5786 25.2852 67.455 25.3466 67.3005 25.3774C67.146 25.3774 67.0533 25.4389 66.9915 25.4696L67.0533 25.4389Z" fill="white"/>
<path d="M75.6455 24.5776C75.5219 24.5776 75.4292 24.6084 75.3365 24.7006C75.2438 24.7928 75.2129 24.9157 75.2129 25.0387H76.0472C76.0472 24.885 75.9854 24.7621 75.9236 24.6698C75.8309 24.5776 75.7382 24.5469 75.6455 24.5469V24.5776Z" fill="white"/>
<path d="M86.8007 24.6094C86.6462 24.6094 86.5226 24.6709 86.4299 24.7631C86.3372 24.8553 86.2754 25.009 86.2754 25.2242C86.2754 25.4393 86.3372 25.593 86.4299 25.6852C86.5226 25.7775 86.6462 25.8389 86.8007 25.8389C86.9552 25.8389 87.0788 25.7775 87.1715 25.6852C87.2642 25.593 87.326 25.4393 87.326 25.2242C87.326 25.009 87.2642 24.8553 87.1715 24.7631C87.0788 24.6709 86.9552 24.6094 86.8007 24.6094Z" fill="white"/>
<path d="M78.9823 13.6055C78.8278 13.6055 78.7042 13.6669 78.6115 13.7592C78.5188 13.8514 78.457 14.0051 78.457 14.1895H79.4768C79.4768 14.0051 79.415 13.8514 79.3223 13.7592C79.2295 13.6669 79.1059 13.6055 78.9514 13.6055H78.9823Z" fill="white"/>
<path d="M79.1064 24.5776C78.9828 24.5776 78.8901 24.6084 78.7974 24.7006C78.7047 24.7928 78.6738 24.9157 78.6738 25.0387H79.5081C79.5081 24.885 79.4463 24.7621 79.3845 24.6698C79.3227 24.5776 79.1991 24.5469 79.1064 24.5469V24.5776Z" fill="white"/>
<path d="M73.3584 24.5776C73.2348 24.5776 73.1421 24.6084 73.0494 24.7006C72.9567 24.7928 72.9258 24.9157 72.9258 25.0387H73.7601C73.7601 24.885 73.6983 24.7621 73.6365 24.6698C73.5438 24.5776 73.4511 24.5469 73.3275 24.5469L73.3584 24.5776Z" fill="white"/>
<path d="M71.3502 14.6493C71.2575 14.7108 71.2266 14.803 71.2266 14.8952C71.2266 14.9874 71.2575 15.0489 71.3193 15.1411C71.3811 15.2333 71.4738 15.2333 71.5974 15.2333C71.721 15.2333 71.8446 15.2026 71.9682 15.1104C72.0609 15.0489 72.0918 14.9874 72.1227 14.8952C72.1227 14.8337 72.1227 14.7415 72.1227 14.5878V14.4648C72.03 14.4648 71.9064 14.5263 71.721 14.5571C71.5356 14.5878 71.412 14.6185 71.3502 14.68V14.6493Z" fill="white"/>
<path d="M101.045 24.6094C100.89 24.6094 100.767 24.6709 100.674 24.7631C100.581 24.8553 100.52 25.009 100.52 25.2242C100.52 25.4393 100.581 25.593 100.674 25.6852C100.767 25.7775 100.89 25.8389 101.045 25.8389C101.199 25.8389 101.323 25.7775 101.416 25.6852C101.508 25.593 101.57 25.4393 101.57 25.2242C101.57 25.009 101.508 24.8553 101.416 24.7631C101.323 24.6709 101.199 24.6094 101.045 24.6094Z" fill="white"/>
<path d="M108.09 9.91624C105.371 8.68667 103.702 8.77888 101.725 8.50223C99.7472 8.22558 98.7584 8.84036 96.8735 8.50223C94.9886 8.1641 94.1851 8.44075 92.362 7.70301C90.5389 6.96527 88.9012 6.62714 87.1398 6.62714C85.3785 6.62714 84.5751 6.68862 81.9486 7.08823C79.322 7.48784 77.0972 7.61079 75.1813 7.02675C73.2346 6.47344 70.2373 4.875 67.0545 4.875C63.8718 4.875 61.3688 5.67422 60.5654 5.95087C59.762 6.22753 58.9586 6.35048 58.3406 6.35048C57.7226 6.35048 56.9501 6.28901 57.0428 6.62714C57.0428 6.62714 57.0428 7.42636 58.3406 8.77888C59.6384 10.1314 61.5233 15.3878 62.1104 19.5376C62.6976 23.6874 62.234 34.5999 62.1104 35.6757C61.9868 36.7516 62.3885 34.4769 63.9336 33.6469C65.4786 32.817 66.4983 32.4481 68.0433 32.4174C69.5884 32.3866 70.3918 32.2022 71.9059 32.6325C73.4509 33.0936 73.7908 33.0936 79.1984 33.1858C84.606 33.3088 86.4909 32.9092 87.7887 32.2637C89.0866 31.6489 91.8367 32.11 94.8031 32.11C97.7696 32.11 97.7696 32.3251 98.7275 31.2493C99.6854 30.1734 100.149 29.6201 102.374 29.2205C104.599 28.8209 106.236 29.6201 106.175 27.2532C106.113 24.8862 106.422 24.6403 106.175 23.2263C105.958 21.8123 105.433 20.7057 106.731 19.1073C108.029 17.5088 108.276 15.9411 109.172 14.4656C110.068 12.9902 110.81 11.1765 108.09 9.94698V9.91624ZM102.188 12.2217H102.868V12.8365H102.188V12.2217ZM92.1457 13.1439H92.4547V12.652L93.1345 12.2832V13.1439H93.598V13.6664H93.1345V14.6501C93.1345 14.8653 93.1345 14.9575 93.1345 14.9882C93.1345 15.019 93.1345 15.0497 93.1963 15.0804C93.1963 15.0804 93.2581 15.1112 93.3199 15.1112C93.3817 15.1112 93.4744 15.1112 93.598 15.0497L93.6598 15.5723C93.5053 15.6337 93.3199 15.6645 93.1036 15.6645C92.8873 15.6645 92.8564 15.6645 92.7637 15.603C92.671 15.5415 92.5783 15.5108 92.5474 15.4493C92.4856 15.3878 92.4856 15.2956 92.4547 15.2034C92.4547 15.1419 92.4547 14.9882 92.4547 14.7423V13.6664H92.1457V13.1439ZM85.4712 12.2217H86.151V15.6337H85.4712V12.2217ZM82.134 12.2217H84.7914V12.8057H82.8447V13.5742H84.6369V14.1583H82.8447V15.0804H84.8532V15.6645H82.134V12.2832V12.2217ZM74.8723 13.1439H75.5522V14.2812C75.5522 14.6193 75.5522 14.8345 75.5831 14.9267C75.614 15.019 75.6449 15.0804 75.7067 15.1112C75.7685 15.1726 75.8612 15.1726 75.9539 15.1726C76.0466 15.1726 76.1702 15.1726 76.2629 15.0804C76.3556 14.9882 76.4174 14.9267 76.4483 14.8653C76.4792 14.8038 76.5101 14.5579 76.5101 14.189V13.1439H77.1899V15.603H76.541V15.2341C76.4483 15.3571 76.3247 15.48 76.1702 15.5415C76.0157 15.603 75.8612 15.6645 75.6758 15.6645C75.4903 15.6645 75.3358 15.6337 75.2122 15.5723C75.0886 15.5108 74.965 15.3878 74.9032 15.2649C74.8414 15.1419 74.8105 14.9575 74.8105 14.7116V13.1439H74.8723ZM73.4818 12.2217H74.1616V15.6337H73.4818V12.2217ZM65.3241 26.2388H64.7988L63.9336 24.21H64.5207L64.9224 25.2551L65.046 25.5933C65.046 25.501 65.1078 25.4396 65.1078 25.4088C65.1078 25.3473 65.1387 25.2859 65.1696 25.2244L65.5713 24.1792H66.1584L65.2932 26.208L65.3241 26.2388ZM67.827 26.2388C67.827 26.208 67.7961 26.1466 67.7652 26.0851V26.0236C67.6725 26.1158 67.5489 26.1773 67.4562 26.2388C67.3326 26.3003 67.2399 26.3003 67.1163 26.3003C66.9 26.3003 66.7146 26.2388 66.591 26.1466C66.4674 26.0236 66.4056 25.9006 66.4056 25.7162C66.4056 25.5318 66.4056 25.501 66.4983 25.4088C66.591 25.3166 66.6219 25.2551 66.7455 25.1936C66.8691 25.1322 66.9927 25.1014 67.209 25.0707C67.4871 25.0092 67.6416 24.9785 67.7652 24.9477V24.8862C67.7652 24.794 67.7652 24.7018 67.6725 24.6711C67.6107 24.6403 67.518 24.6096 67.3635 24.6096C67.209 24.6096 67.1781 24.6096 67.1163 24.6711C67.0545 24.7326 67.0236 24.7633 66.9927 24.8555L66.4674 24.7633C66.5292 24.5789 66.6219 24.4252 66.7764 24.3329C66.9309 24.2407 67.1163 24.1792 67.3944 24.1792C67.6725 24.1792 67.827 24.1792 67.9506 24.2715C68.0742 24.3637 68.1669 24.3944 68.1978 24.4866C68.2287 24.5789 68.2596 24.7326 68.2596 24.9785V25.5933C68.2596 25.7777 68.2596 25.9006 68.2596 25.9929C68.2596 26.0851 68.3214 26.1773 68.3523 26.2695H67.7961L67.827 26.2388ZM69.403 26.2388H68.8468V23.4415H69.403V26.2388ZM68.6613 15.1726C68.0124 16.1256 67.3635 17.0785 66.7146 18.0314C65.9112 19.1995 65.0769 20.3676 64.2735 21.5664C64.2735 21.5664 64.2735 21.5664 64.2735 21.5972C64.119 21.8123 63.9954 21.8738 63.8718 21.8123C63.6555 21.7201 63.7173 21.5357 63.7482 21.3512C63.81 20.7057 63.8718 20.0294 63.9336 19.3839C64.0263 18.3695 64.0881 17.3859 64.1808 16.3715C64.2117 15.9104 64.2426 15.4186 64.2735 14.9575C64.3353 14.2505 64.3662 13.5127 64.428 12.8057C64.428 12.7135 64.428 12.6213 64.428 12.5598C64.4898 12.0065 64.3662 11.5454 63.81 11.2688C63.7791 11.2688 63.7482 11.2073 63.7173 11.1765C63.7173 11.1765 63.7173 11.1765 63.7173 11.1151C63.81 10.8999 63.9954 10.8999 64.1808 10.8999C64.5516 10.8999 64.9224 10.8999 65.3241 10.8999C65.5713 10.8999 65.8185 10.8999 66.0657 10.8384C66.282 10.8384 66.4983 10.8384 66.6837 10.9306C66.6837 11.1151 66.5292 11.1765 66.4056 11.238C66.0039 11.4532 65.7876 11.7913 65.7567 12.2524C65.7567 12.4983 65.7258 12.7135 65.6949 12.9287C65.6022 14.0046 65.5404 15.0497 65.4477 16.1256C65.3859 16.8018 65.3241 17.5088 65.2623 18.1851C65.2623 18.431 65.2005 18.6769 65.5095 18.7999C65.7876 18.554 65.973 18.2773 66.1584 18.0007C67.0236 16.7403 67.8888 15.48 68.754 14.2197C69.2176 13.5435 69.6811 12.8365 70.1137 12.1602C70.3918 11.7299 70.3609 11.5454 70.021 11.1765C69.9283 11.0843 69.8665 10.9921 69.8047 10.8999C69.8665 10.6847 70.021 10.6847 70.1446 10.6847C70.7317 10.8077 71.3188 10.6847 71.9059 10.6847C72.0604 10.6847 72.2767 10.654 72.3694 10.8692C72.3076 10.9306 72.2458 11.0228 72.1531 11.0536C71.3806 11.4225 70.8862 12.0372 70.4227 12.7135C69.8665 13.5435 69.2794 14.3427 68.7231 15.1726H68.6613ZM71.9059 26.2388H71.3806V25.9314C71.3188 26.0236 71.1952 26.1158 71.0716 26.1773C70.948 26.2388 70.8244 26.2695 70.6699 26.2695C70.5154 26.2695 70.3918 26.2695 70.2991 26.1773C70.2064 26.0851 70.1137 26.0236 70.0519 25.9314C69.9901 25.8392 69.9901 25.6855 69.9901 25.4703V24.1792H70.5463V25.1014C70.5463 25.3781 70.5463 25.5625 70.5463 25.624C70.5463 25.6855 70.6081 25.7469 70.6699 25.7777C70.7317 25.8084 70.7935 25.8392 70.8862 25.8392C70.9789 25.8392 71.0716 25.8392 71.1334 25.7777C71.1952 25.7162 71.257 25.6547 71.2879 25.5933C71.3188 25.5318 71.3188 25.3473 71.3188 25.0399V24.1792H71.875V26.208L71.9059 26.2388ZM72.2149 15.4186C72.2149 15.3878 72.2149 15.3571 72.2149 15.3571C72.0913 15.4493 71.9677 15.5415 71.8441 15.603C71.7205 15.6645 71.566 15.6952 71.4115 15.6952C71.1334 15.6952 70.9171 15.6337 70.7626 15.48C70.6081 15.3263 70.5154 15.1726 70.5154 14.9575C70.5154 14.7423 70.5463 14.6808 70.6081 14.5886C70.6699 14.4964 70.7626 14.4042 70.8862 14.3427C71.0098 14.2812 71.1952 14.2505 71.4424 14.189C71.7514 14.1275 71.9986 14.066 72.1222 14.0353V13.9738C72.1222 13.8509 72.0913 13.7586 72.0295 13.6972C71.9677 13.6357 71.8441 13.6049 71.6587 13.6049C71.4733 13.6049 71.4424 13.6049 71.3806 13.6664C71.3188 13.7279 71.257 13.7894 71.2261 13.9123L70.6081 13.8201C70.6699 13.5742 70.7935 13.4205 70.9789 13.2976C71.1643 13.1746 71.4115 13.1131 71.7514 13.1131C72.0913 13.1131 72.2767 13.1439 72.4312 13.2053C72.5857 13.2668 72.6784 13.359 72.7402 13.4513C72.802 13.5435 72.8329 13.7586 72.8329 14.0353V14.8038C72.8329 15.019 72.8329 15.1726 72.8329 15.2956C72.8329 15.3878 72.8947 15.5108 72.9565 15.6337H72.2767C72.2767 15.5723 72.2458 15.5108 72.2149 15.4493V15.4186ZM73.0492 25.7469C73.1419 25.8392 73.2346 25.8699 73.3891 25.8699C73.5436 25.8699 73.5436 25.8699 73.6054 25.8084C73.6672 25.7469 73.6981 25.6855 73.729 25.5933L74.2852 25.6855C74.2234 25.8699 74.0998 26.0236 73.9453 26.1466C73.7908 26.2388 73.6054 26.3003 73.3582 26.3003C72.9874 26.3003 72.7093 26.1773 72.5239 25.9621C72.3694 25.7777 72.3076 25.5318 72.3076 25.2551C72.3076 24.9785 72.4003 24.6403 72.5857 24.4559C72.7711 24.2715 73.0183 24.1792 73.2964 24.1792C73.5745 24.1792 73.8526 24.2715 74.038 24.4866C74.2234 24.7018 74.3161 24.9785 74.3161 25.4088H72.8947C72.8947 25.5625 72.9565 25.6855 73.0492 25.7777V25.7469ZM75.3359 25.7469C75.4286 25.8392 75.5213 25.8699 75.6758 25.8699C75.8303 25.8699 75.8303 25.8699 75.8921 25.8084C75.9539 25.7469 75.9848 25.6855 76.0157 25.5933L76.5719 25.6855C76.5101 25.8699 76.3865 26.0236 76.232 26.1466C76.0775 26.2388 75.8921 26.3003 75.6449 26.3003C75.274 26.3003 74.9959 26.1773 74.8105 25.9621C74.656 25.7777 74.5942 25.5318 74.5942 25.2551C74.5942 24.9785 74.6869 24.6403 74.8723 24.4559C75.0577 24.2715 75.305 24.1792 75.5831 24.1792C75.8612 24.1792 76.1393 24.2715 76.3247 24.4866C76.5101 24.7018 76.6028 24.9785 76.6028 25.4088H75.1813C75.1813 25.5625 75.2431 25.6855 75.3049 25.7777L75.3359 25.7469ZM77.6534 26.2388H77.0972V23.4415H77.6534V26.2388ZM78.7967 25.7469C78.8894 25.8392 78.9821 25.8699 79.1366 25.8699C79.2911 25.8699 79.2911 25.8699 79.3529 25.8084C79.4147 25.7469 79.4456 25.6855 79.4765 25.5933L80.0327 25.6855C79.9709 25.8699 79.8473 26.0236 79.6928 26.1466C79.5383 26.2388 79.3529 26.3003 79.1057 26.3003C78.7349 26.3003 78.4568 26.1773 78.2714 25.9621C78.1169 25.7777 78.0551 25.5318 78.0551 25.2551C78.0551 24.9785 78.1478 24.6403 78.3332 24.4559C78.5186 24.2715 78.7658 24.1792 79.0439 24.1792C79.322 24.1792 79.6001 24.2715 79.7855 24.4866C79.9709 24.7018 80.0636 24.9785 80.0636 25.4088H78.6422C78.6422 25.5625 78.704 25.6855 78.7658 25.7777L78.7967 25.7469ZM78.6113 15.019C78.704 15.1112 78.8585 15.1726 79.013 15.1726C79.1675 15.1726 79.1984 15.1726 79.2911 15.0804C79.3838 14.9882 79.4147 14.9267 79.4456 14.8038L80.1254 14.896C80.0327 15.1419 79.9091 15.3263 79.7237 15.4493C79.5383 15.5723 79.2911 15.6337 79.013 15.6337C78.5495 15.6337 78.2096 15.48 78.0242 15.2034C77.8388 14.9882 77.777 14.6808 77.777 14.3427C77.777 14.0046 77.9006 13.6049 78.1169 13.3898C78.3332 13.1439 78.6422 13.0516 78.9821 13.0516C79.322 13.0516 79.6619 13.1746 79.9091 13.4205C80.1563 13.6664 80.249 14.0353 80.2181 14.5271H78.4877C78.4877 14.7116 78.5495 14.8653 78.6422 14.9882L78.6113 15.019ZM82.1031 26.1158C81.9486 26.2388 81.7323 26.3003 81.4541 26.3003C81.176 26.3003 80.8979 26.208 80.7125 26.0236C80.5271 25.8392 80.4344 25.5625 80.4344 25.2551C80.4344 24.9477 80.5271 24.6711 80.7125 24.4866C80.8979 24.3022 81.1451 24.21 81.485 24.21C81.825 24.21 81.9486 24.2715 82.1031 24.3637C82.2576 24.4559 82.3812 24.6403 82.443 24.8555L81.8868 24.9477C81.8868 24.8555 81.825 24.7633 81.7632 24.7018C81.7014 24.6403 81.6086 24.6096 81.5159 24.6096C81.4232 24.6096 81.2687 24.6711 81.176 24.7633C81.0833 24.8555 81.0524 25.0092 81.0524 25.2244C81.0524 25.4396 81.0833 25.624 81.176 25.7469C81.2687 25.8392 81.3923 25.9006 81.5159 25.9006C81.6395 25.9006 81.7014 25.9006 81.7941 25.8084C81.8559 25.7469 81.9177 25.6547 81.9486 25.501L82.5048 25.5933C82.443 25.8392 82.3503 26.0236 82.1649 26.1466L82.1031 26.1158ZM83.4318 26.3003C83.3391 26.3003 83.2464 26.3003 83.1537 26.2388C83.061 26.1773 82.9992 26.1773 82.9683 26.1158C82.9374 26.0543 82.9065 25.9929 82.8756 25.9006C82.8756 25.8392 82.8756 25.7162 82.8756 25.5318V24.6403H82.6284V24.21H82.8756V23.8104L83.4318 23.503V24.21H83.8026V24.6403H83.4318V25.4703C83.4318 25.624 83.4318 25.7162 83.4318 25.7469C83.4318 25.7469 83.4318 25.8084 83.4936 25.8084C83.5554 25.8084 83.5554 25.8084 83.5863 25.8084C83.6481 25.8084 83.7099 25.8084 83.8026 25.7469L83.8644 26.1773C83.7408 26.2388 83.5863 26.2695 83.4009 26.2695L83.4318 26.3003ZM85.4094 24.7633C85.3167 24.7018 85.224 24.6711 85.1313 24.6711C85.0386 24.6711 84.9768 24.6711 84.915 24.7326C84.8532 24.794 84.8223 24.8555 84.7914 24.9477C84.7914 25.0399 84.7296 25.2859 84.7296 25.624V26.2388H84.1734V24.21H84.6987V24.4866C84.7914 24.3637 84.8841 24.2715 84.9459 24.21C85.0077 24.1792 85.1004 24.1485 85.1931 24.1485C85.3167 24.1485 85.4403 24.1792 85.5639 24.2407L85.3785 24.7018L85.4094 24.7633ZM87.6033 26.0236C87.387 26.2388 87.1398 26.331 86.7999 26.331C86.46 26.331 86.4291 26.3003 86.2437 26.208C86.0583 26.1158 85.9347 25.9929 85.842 25.8392C85.7493 25.6855 85.7184 25.4703 85.7184 25.2551C85.7184 25.0399 85.7802 24.917 85.842 24.7326C85.9347 24.5789 86.0583 24.4252 86.2437 24.3637C86.4291 24.2715 86.6145 24.2407 86.7999 24.2407C87.1398 24.2407 87.387 24.3329 87.6033 24.5481C87.8196 24.7633 87.9123 25.0092 87.9123 25.3166C87.9123 25.624 87.8196 25.8699 87.6033 26.0851V26.0236ZM86.9235 15.2956C86.7381 15.0804 86.6763 14.773 86.6763 14.4349C86.6763 14.0968 86.7999 13.6972 87.0162 13.482C87.2325 13.2668 87.5415 13.1439 87.8814 13.1439C88.2213 13.1439 88.5613 13.2668 88.8085 13.5127C89.0557 13.7586 89.1484 14.1275 89.1175 14.6193H87.387C87.387 14.8038 87.4488 14.9575 87.5415 15.0804C87.6342 15.1726 87.7887 15.2341 87.9432 15.2341C88.0977 15.2341 88.1286 15.2341 88.2213 15.1419C88.3141 15.0497 88.345 14.9882 88.3759 14.8653L89.0557 14.9575C88.963 15.2034 88.8394 15.3878 88.654 15.5108C88.4686 15.6337 88.2214 15.6952 87.9432 15.6952C87.4797 15.6952 87.1707 15.5723 86.9544 15.2649L86.9235 15.2956ZM90.3226 26.3003H89.7664V25.2551C89.7664 25.0399 89.7664 24.8863 89.7355 24.8248C89.7046 24.7633 89.6737 24.7018 89.6119 24.6711C89.5501 24.6403 89.4883 24.6096 89.4265 24.6096C89.3647 24.6096 89.2411 24.6096 89.1484 24.6711C89.0866 24.7326 89.0248 24.794 88.9939 24.8862C88.963 24.9785 88.963 25.1322 88.963 25.3473V26.2695H88.4068V24.2407H88.9321V24.5481C89.1175 24.3022 89.3647 24.21 89.6428 24.21C89.9209 24.21 89.89 24.21 89.9827 24.2715C90.0754 24.3022 90.1681 24.3637 90.2299 24.4252C90.2917 24.4866 90.3226 24.5789 90.3535 24.6403C90.3535 24.7326 90.3535 24.8555 90.3535 25.0092V26.2695L90.3226 26.3003ZM91.4659 26.3003H90.9097V24.2715H91.4659V26.3003ZM91.4659 23.9948H90.9097V23.503H91.4659V23.9948ZM91.5586 15.5108C91.3732 15.6645 91.0951 15.726 90.7552 15.726C90.4153 15.726 90.0754 15.603 89.8591 15.3878C89.6428 15.1726 89.5192 14.8345 89.5192 14.4349C89.5192 14.0353 89.6428 13.7279 89.8591 13.482C90.0754 13.2668 90.3844 13.1439 90.7861 13.1439C91.1878 13.1439 91.3423 13.2053 91.5277 13.3283C91.7131 13.4513 91.8367 13.6664 91.9294 13.9123L91.2496 14.0353C91.2496 13.9123 91.1878 13.8201 91.0951 13.7586C91.0024 13.6972 90.9097 13.6664 90.7861 13.6664C90.6625 13.6664 90.4771 13.7279 90.3844 13.8201C90.2917 13.9431 90.2299 14.1275 90.2299 14.3734C90.2299 14.6193 90.2917 14.8653 90.3844 14.9882C90.4771 15.1112 90.6316 15.1726 90.7861 15.1726C90.9406 15.1726 91.0333 15.1419 91.0951 15.0804C91.1878 15.019 91.2496 14.896 91.2805 14.7116L91.9603 14.8038C91.8985 15.1112 91.744 15.3263 91.5586 15.48V15.5108ZM93.6289 26.1773C93.4744 26.3003 93.2581 26.3617 92.98 26.3617C92.7019 26.3617 92.4238 26.2695 92.2384 26.0851C92.053 25.9006 91.9603 25.624 91.9603 25.3166C91.9603 25.0092 92.053 24.7326 92.2384 24.5481C92.4238 24.3637 92.671 24.2715 93.0109 24.2715C93.3508 24.2715 93.4744 24.3329 93.6289 24.4252C93.7834 24.5174 93.907 24.7018 93.9688 24.917L93.4126 25.0092C93.4126 24.917 93.3508 24.8248 93.289 24.7633C93.2272 24.7018 93.1345 24.6711 93.0418 24.6711C92.9491 24.6711 92.7946 24.7326 92.7019 24.8248C92.6092 24.917 92.5783 25.0707 92.5783 25.2859C92.5783 25.501 92.6092 25.6855 92.7019 25.8084C92.7946 25.9314 92.9182 25.9621 93.0418 25.9621C93.1654 25.9621 93.2272 25.9621 93.3199 25.8699C93.3817 25.8084 93.4435 25.7162 93.4744 25.5625L94.0306 25.6547C93.9688 25.9006 93.8761 26.0851 93.6907 26.208L93.6289 26.1773ZM94.0924 13.2361H94.7414V13.5742C94.8341 13.4205 94.9577 13.2976 95.0195 13.2361C95.1122 13.1746 95.2049 13.1439 95.3285 13.1439C95.483 13.1439 95.6375 13.1746 95.792 13.2668L95.5757 13.8201C95.4521 13.7586 95.3594 13.7279 95.2358 13.7279C95.1122 13.7279 95.0504 13.7279 94.9886 13.7894C94.9268 13.8509 94.8649 13.9431 94.834 14.066C94.8031 14.189 94.7723 14.4656 94.7723 14.896V15.6645H94.0924V13.2053V13.2361ZM95.9156 26.1773C95.7611 26.3003 95.5139 26.3925 95.174 26.3925C94.8341 26.3925 94.6486 26.331 94.4941 26.2388C94.3087 26.1158 94.216 25.9621 94.1542 25.7777L94.7104 25.6855C94.7104 25.7777 94.7722 25.8699 94.865 25.9314C94.9268 25.9929 95.0504 26.0236 95.174 26.0236C95.2976 26.0236 95.4212 26.0236 95.5139 25.9621C95.5757 25.9314 95.5757 25.8699 95.5757 25.8084C95.5757 25.7469 95.5757 25.7469 95.5448 25.7162C95.5448 25.7162 95.4521 25.6547 95.3594 25.6547C94.8959 25.5625 94.6177 25.4703 94.4941 25.4088C94.3087 25.2859 94.2469 25.1629 94.2469 24.9477C94.2469 24.7326 94.3087 24.6403 94.4632 24.5174C94.6178 24.3944 94.834 24.3329 95.1431 24.3329C95.4521 24.3329 95.6684 24.3944 95.792 24.4559C95.9465 24.5481 96.0392 24.6711 96.0701 24.8555L95.5448 24.9477C95.5448 24.8555 95.483 24.794 95.4212 24.7633C95.3594 24.7326 95.2667 24.7018 95.1431 24.7018C95.0195 24.7018 94.8958 24.7018 94.834 24.7633C94.8031 24.7633 94.7723 24.8248 94.7723 24.8555C94.7723 24.8863 94.7722 24.917 94.834 24.9477C94.8958 24.9785 95.0504 25.0399 95.3594 25.1014C95.6684 25.1629 95.8847 25.2551 96.0083 25.3473C96.1319 25.4396 96.1937 25.5625 96.1937 25.7469C96.1937 25.9314 96.101 26.0851 95.9465 26.2388L95.9156 26.1773ZM97.2134 26.331H96.6572V25.7777H97.2134V26.331ZM96.5645 15.603C96.3482 15.5108 96.1937 15.3571 96.0701 15.1419C95.9465 14.9267 95.8847 14.7116 95.8847 14.4349C95.8847 14.1583 95.9465 14.0046 96.0701 13.8201C96.1937 13.6049 96.3482 13.4513 96.5645 13.359C96.7808 13.2668 96.9971 13.2053 97.2443 13.2053C97.646 13.2053 97.955 13.3283 98.2022 13.5742C98.4494 13.8201 98.573 14.1275 98.573 14.4964C98.573 14.8653 98.4494 15.1726 98.2022 15.4186C97.955 15.6645 97.6151 15.7874 97.2443 15.7874C96.9971 15.7874 96.7808 15.7567 96.5645 15.6337V15.603ZM99.3455 26.1773C99.191 26.3003 98.9747 26.3617 98.6966 26.3617C98.4185 26.3617 98.1404 26.2695 97.955 26.0851C97.7696 25.9006 97.6769 25.624 97.6769 25.3166C97.6769 25.0092 97.7696 24.7326 97.955 24.5481C98.1404 24.3637 98.3876 24.2715 98.7275 24.2715C99.0674 24.2715 99.191 24.3329 99.3455 24.4252C99.5 24.5174 99.6236 24.7018 99.6854 24.917L99.1292 25.0092C99.1292 24.917 99.0674 24.8248 99.0056 24.7633C98.9438 24.7018 98.8511 24.6711 98.7584 24.6711C98.6657 24.6711 98.5112 24.7326 98.4185 24.8248C98.3258 24.917 98.2949 25.0707 98.2949 25.2859C98.2949 25.501 98.3258 25.6855 98.4185 25.8084C98.5112 25.9314 98.6348 25.9621 98.7584 25.9621C98.882 25.9621 98.9438 25.9621 99.0365 25.8699C99.0983 25.8084 99.1601 25.7162 99.191 25.5625L99.7472 25.6547C99.6854 25.9006 99.5927 26.0851 99.4073 26.208L99.3455 26.1773ZM99.8708 14.0046C99.8399 14.0968 99.809 14.3119 99.809 14.5579V15.6645H99.1292V13.2053H99.7781V13.5742C99.9944 13.2976 100.303 13.1439 100.643 13.1439C100.983 13.1439 100.921 13.1439 101.045 13.2053C101.169 13.2668 101.261 13.3283 101.323 13.4205C101.385 13.5127 101.416 13.6049 101.447 13.6972C101.478 13.7894 101.478 13.9431 101.478 14.1275V15.6645H100.798V14.4042C100.798 14.1275 100.798 13.9738 100.767 13.8816C100.767 13.8201 100.705 13.7279 100.612 13.6972C100.52 13.6664 100.458 13.6357 100.365 13.6357C100.273 13.6357 100.149 13.6357 100.056 13.7279C99.9635 13.7894 99.9017 13.8816 99.8708 13.9738V14.0046ZM101.848 26.0543C101.632 26.2695 101.385 26.3617 101.045 26.3617C100.705 26.3617 100.674 26.331 100.489 26.2388C100.303 26.1466 100.18 26.0236 100.087 25.8699C99.9944 25.7162 99.9635 25.501 99.9635 25.2859C99.9635 25.0707 100.025 24.9477 100.087 24.7633C100.18 24.6096 100.303 24.4559 100.489 24.3944C100.674 24.3022 100.86 24.2715 101.045 24.2715C101.385 24.2715 101.632 24.3637 101.848 24.5789C102.065 24.794 102.157 25.0399 102.157 25.3473C102.157 25.6547 102.065 25.9006 101.848 26.1158V26.0543ZM102.188 15.6952V13.2361H102.868V15.6952H102.188ZM105.711 26.331H105.155V25.1629C105.155 24.9477 105.155 24.8248 105.093 24.7633C105.031 24.7018 104.969 24.6403 104.846 24.6403C104.722 24.6403 104.691 24.6403 104.63 24.7018C104.568 24.7633 104.506 24.8248 104.475 24.917C104.444 25.0092 104.413 25.1322 104.413 25.3473V26.331H103.857V25.2244C103.857 25.0399 103.857 24.8863 103.857 24.8555C103.857 24.794 103.795 24.7633 103.764 24.7326C103.733 24.7326 103.672 24.7018 103.579 24.7018C103.486 24.7018 103.424 24.7018 103.332 24.7633C103.27 24.8248 103.208 24.8555 103.177 24.9477C103.177 25.0399 103.115 25.1629 103.115 25.3781V26.3617H102.559V24.3329H103.084V24.6096C103.27 24.3944 103.486 24.3022 103.764 24.3022C104.042 24.3022 104.011 24.3022 104.135 24.3944C104.228 24.4559 104.32 24.5174 104.382 24.6403C104.475 24.5481 104.568 24.4559 104.691 24.3944C104.784 24.3329 104.908 24.3022 105.031 24.3022C105.155 24.3022 105.309 24.3022 105.433 24.3944C105.526 24.4559 105.618 24.5481 105.68 24.6711C105.711 24.7633 105.742 24.8862 105.742 25.1014V26.3925L105.711 26.331ZM105.464 15.5415C105.278 15.6952 105 15.7567 104.66 15.7567C104.321 15.7567 103.981 15.6337 103.764 15.4186C103.548 15.2034 103.424 14.8653 103.424 14.4656C103.424 14.066 103.548 13.7586 103.764 13.5127C103.981 13.2976 104.29 13.1746 104.691 13.1746C105.093 13.1746 105.248 13.2361 105.433 13.359C105.618 13.482 105.742 13.6972 105.835 13.9431L105.155 14.066C105.155 13.9431 105.093 13.8509 105 13.7894C104.908 13.7279 104.815 13.6972 104.691 13.6972C104.568 13.6972 104.382 13.7586 104.29 13.8509C104.197 13.9738 104.135 14.1583 104.135 14.4042C104.135 14.6501 104.197 14.896 104.29 15.019C104.382 15.1419 104.537 15.2034 104.691 15.2034C104.846 15.2034 104.939 15.1726 105 15.1112C105.093 15.0497 105.155 14.9267 105.186 14.7423L105.866 14.8345C105.804 15.1419 105.649 15.3571 105.464 15.5108V15.5415ZM108.245 15.5415C108.059 15.6952 107.75 15.7874 107.349 15.7874C106.947 15.7874 106.7 15.726 106.514 15.5723C106.329 15.4186 106.175 15.2649 106.113 15.019L106.793 14.9267C106.793 15.0497 106.885 15.1419 106.978 15.2034C107.071 15.2649 107.194 15.2956 107.349 15.2956C107.503 15.2956 107.658 15.2956 107.75 15.2034C107.812 15.1726 107.843 15.1112 107.843 15.019C107.843 14.9267 107.843 14.9267 107.781 14.896C107.75 14.896 107.658 14.8345 107.565 14.8038C107.009 14.6808 106.669 14.5886 106.514 14.4964C106.298 14.3734 106.205 14.189 106.205 13.9431C106.205 13.6972 106.298 13.5435 106.484 13.3898C106.669 13.2361 106.947 13.1746 107.318 13.1746C107.689 13.1746 107.936 13.2361 108.121 13.3283C108.307 13.4513 108.399 13.6049 108.492 13.8201L107.843 13.9431C107.843 13.8509 107.75 13.7894 107.689 13.7279C107.627 13.6664 107.503 13.6664 107.349 13.6664C107.194 13.6664 107.04 13.6664 106.947 13.7279C106.885 13.7586 106.885 13.7894 106.885 13.8509C106.885 13.9123 106.885 13.9431 106.947 13.9738C107.009 14.0046 107.225 14.066 107.596 14.1583C107.967 14.2505 108.214 14.3427 108.368 14.4349C108.523 14.5579 108.585 14.7116 108.585 14.9267C108.585 15.1419 108.492 15.3571 108.276 15.5108L108.245 15.5415Z" fill="white"/>
<path d="M36.1215 51.169L34.6074 53.0441V57.8702H32.0117V43.9453H34.6074V49.6321L39.2115 43.9453H42.3634L37.9446 49.3554L42.7651 57.8702H39.7986L36.0906 51.169H36.1215Z" fill="white"/>
<path d="M43.7227 43.9453H46.3183V57.8702H43.7227V43.9453Z" fill="white"/>
<path d="M47.8633 43.9453H50.8297L56.8862 53.413V43.9453H59.4819V57.8702H56.7008L50.4589 48.0951V57.8702H47.8633V43.9453Z" fill="white"/>
<path d="M60.502 50.9206C60.502 46.9552 63.4993 43.7891 67.64 43.7891C71.7806 43.7891 72.8003 45.2645 74.0055 47.3548L71.7188 48.7381C70.8536 47.1089 69.494 46.3097 67.6709 46.3097C65.0752 46.3097 63.0976 48.4307 63.0976 50.9513C63.0976 53.4719 65.0443 55.5929 67.7636 55.5929C70.4828 55.5929 71.2862 54.4248 71.8115 52.5805H67.3619V50.0906H74.6235V51.105C74.6235 54.8552 71.966 58.0828 67.7945 58.0828C63.4375 58.0828 60.5329 54.7937 60.5329 50.9206H60.502Z" fill="white"/>
<path d="M79.7539 50.9206C79.7539 46.9859 82.9058 43.7891 86.8919 43.7891C90.8781 43.7891 94.0608 46.9859 94.0608 50.9206C94.0608 54.8552 90.8781 58.0521 86.8919 58.0521C82.9058 58.0521 79.7539 54.8859 79.7539 50.9206ZM91.4652 50.9206C91.4652 48.3999 89.4258 46.3404 86.8919 46.3404C84.3581 46.3404 82.3186 48.3999 82.3186 50.9206C82.3186 53.4412 84.3272 55.5007 86.8919 55.5007C89.4567 55.5007 91.4652 53.4412 91.4652 50.9206Z" fill="white"/>
<path d="M95.0801 43.9453H102.991V46.4352H97.6757V49.6321H102.991V52.122H97.6757V57.8702H95.0801V43.9453Z" fill="white"/>
<path d="M112.229 46.4352H108.49V43.9453H118.595V46.4352H114.825V57.8702H112.229V46.4352Z" fill="white"/>
<path d="M119.367 43.9453H122.055L125.362 53.9048L128.668 43.9453H131.356L126.659 57.8702H124.033L119.336 43.9453H119.367Z" fill="white"/>
<path d="M32.6311 69.5517H29.541V67.4922H37.8532V69.5517H34.7632V78.9887H32.6002V69.5517H32.6311Z" fill="white"/>
<path d="M38.5332 67.4922H40.758L43.4773 75.6996L46.1965 67.4922H48.4214L44.5588 78.9579H42.3958L38.5332 67.4922Z" fill="white"/>
<path d="M52.2848 77.0808L54.2315 75.5438C54.8186 76.5582 55.7148 77.1115 56.7654 77.1115C57.816 77.1115 58.5267 76.3738 58.5267 75.5746C58.5267 74.7753 57.3525 74.3143 56.1165 73.9146C54.5405 73.4228 52.841 72.8388 52.841 70.6563C52.841 68.4738 54.4478 67.3672 56.6727 67.3672C58.8975 67.3672 59.6082 68.0742 60.5352 69.0271L58.7739 70.3489C58.2795 69.6112 57.5997 69.2423 56.6727 69.2423C55.7457 69.2423 55.0658 69.7956 55.0658 70.5333C55.0658 71.2711 56.1474 71.7322 57.4143 72.1625C58.9902 72.6543 60.7515 73.3613 60.7515 75.5438C60.7515 77.7263 59.2992 79.1096 56.7654 79.1096C54.695 79.1096 53.3354 78.2181 52.2539 77.0501L52.2848 77.0808Z" fill="white"/>
<path d="M68.197 74.2553H63.7783V78.9892H61.6152V67.5234H63.7783V72.2265H68.197V67.5234H70.3601V78.9892H68.197V74.2553Z" fill="white"/>
<path d="M71.1953 73.2379C71.1953 69.9795 73.791 67.3359 77.0973 67.3359C80.4037 67.3359 82.9993 69.9795 82.9993 73.2379C82.9993 76.4962 80.3728 79.1398 77.0973 79.1398C73.8219 79.1398 71.1953 76.527 71.1953 73.2379ZM80.8672 73.2379C80.8672 71.1476 79.1985 69.4569 77.0973 69.4569C74.9961 69.4569 73.3274 71.1476 73.3274 73.2379C73.3274 75.3281 74.9961 77.0188 77.0973 77.0188C79.1985 77.0188 80.8672 75.3281 80.8672 73.2379Z" fill="white"/>
<path d="M83.6777 73.2379C83.6777 69.9795 86.2734 67.3359 89.5797 67.3359C92.8861 67.3359 95.4817 69.9795 95.4817 73.2379C95.4817 76.4962 92.8552 79.1398 89.5797 79.1398C86.3043 79.1398 83.6777 76.527 83.6777 73.2379ZM93.3496 73.2379C93.3496 71.1476 91.681 69.4569 89.5797 69.4569C87.4785 69.4569 85.8099 71.1476 85.8099 73.2379C85.8099 75.3281 87.4785 77.0188 89.5797 77.0188C91.681 77.0188 93.3496 75.3281 93.3496 73.2379Z" fill="white"/>
<path d="M98.2014 69.5517H95.1113V67.4922H103.424V69.5517H100.334V78.9887H98.1705V69.5517H98.2014Z" fill="white"/>
<path d="M103.115 73.2379C103.115 69.9795 105.711 67.3359 109.017 67.3359C112.324 67.3359 114.919 69.9795 114.919 73.2379C114.919 76.4962 112.293 79.1398 109.017 79.1398C105.742 79.1398 103.115 76.527 103.115 73.2379ZM112.787 73.2379C112.787 71.1476 111.118 69.4569 109.017 69.4569C106.916 69.4569 105.247 71.1476 105.247 73.2379C105.247 75.3281 106.916 77.0188 109.017 77.0188C111.118 77.0188 112.787 75.3281 112.787 73.2379Z" fill="white"/>
<path d="M115.754 75.0233V67.4922H117.917V75.1463C117.917 76.2836 118.782 77.1443 119.895 77.1443C121.007 77.1443 121.934 76.2529 121.934 75.1463V67.4922H124.097V75.0233C124.097 77.7284 122.336 79.1424 119.956 79.1424C117.546 79.1424 115.785 77.6976 115.785 75.0233H115.754Z" fill="white"/>
<path d="M128.02 69.5517H124.93V67.4922H133.242V69.5517H130.152V78.9887H127.989V69.5517H128.02Z" fill="white"/>
<path d="M47.7102 125.34C47.7102 125.34 44.6202 128.353 40.2323 128.353C32.6926 128.353 24.1641 118.209 24.1641 118.209C24.1641 118.209 33.7741 117.656 38.3783 118.701C42.9825 119.746 47.7411 125.34 47.7411 125.34H47.7102Z" fill="white"/>
<path d="M51.3573 120.791C51.3573 120.791 42.2108 118.117 42.6125 109.941C43.0142 101.764 43.5704 101.887 43.5704 101.887C43.5704 101.887 53.1186 109.172 52.6242 114.705C52.1607 119.746 51.3573 120.791 51.3573 120.791Z" fill="white"/>
<path d="M13.627 104.066C13.627 104.066 17.4586 111.659 22.8662 115.071C28.2429 118.483 34.5466 115.071 34.5466 115.071C34.5466 115.071 30.7767 108.985 26.7906 107.14C22.8044 105.327 13.627 104.066 13.627 104.066Z" fill="white"/>
<path d="M38.9962 111.047C38.9962 111.047 32.7852 107.359 32.7852 102.656C32.7852 97.9525 35.8752 91.8047 35.8752 91.8047C35.8752 91.8047 41.2519 99.3973 41.4682 103.332C41.6536 107.297 39.6451 110.248 38.9653 111.047H38.9962Z" fill="white"/>
<path d="M5.49965 87.8398C5.49965 87.8398 9.39311 97.0001 12.2051 100.105C16.1603 104.47 24.0708 102.994 24.0708 102.994C24.0708 102.994 22.1241 96.078 18.1997 93.4036C15.7586 91.7437 12.8231 90.6371 5.46875 87.8398H5.49965Z" fill="white"/>
<path d="M29.8178 80.3984C29.8178 80.3984 24.5029 87.8988 24.6883 91.4031C24.9046 94.8766 27.8402 98.6575 29.1998 99.5182C30.5594 100.379 33.6495 93.4934 33.5259 90.5424C33.4023 87.5914 29.8178 80.4292 29.8178 80.4292V80.3984Z" fill="white"/>
<path d="M1.17383 70.75C1.17383 70.75 3.05876 80.771 5.53079 84.3675C9.42425 89.9928 16.6859 88.9169 16.6859 88.9169C16.6859 88.9169 16.4078 83.8449 12.0199 78.4656C10.3513 76.4368 1.17383 70.75 1.17383 70.75Z" fill="white"/>
<path d="M26.6372 67.6406C26.6372 67.6406 19.1593 74.3418 19.2211 78.6453C19.2829 82.9488 21.9712 86.6375 21.9712 86.6375C21.9712 86.6375 28.0277 82.6721 28.0895 78.799C28.1513 74.9258 26.6063 67.6714 26.6063 67.6714L26.6372 67.6406Z" fill="white"/>
<path d="M11.4951 72.6853C11.4951 72.6853 3.39922 71.8246 1.45249 66.0456C-0.494235 60.2666 0.0928737 51.6289 0.0928737 51.6289C0.0928737 51.6289 8.65231 59.867 9.79562 62.818C10.9389 65.769 11.7733 67.7363 11.4642 72.6853H11.4951Z" fill="white"/>
<path d="M25.6472 54.0268C25.6472 54.0268 15.4809 60.2976 15.8208 65.4618C16.1607 70.6568 17.3041 72.04 17.3041 72.04C17.3041 72.04 23.9477 69.335 24.9674 65.3081C24.9674 65.3081 26.4197 59.9288 25.6781 53.9961L25.6472 54.0268Z" fill="white"/>
<path d="M3.12045 34.5977C3.12045 34.5977 0.926518 43.0817 1.17372 46.6782C1.79173 55.9922 10.3512 57.068 10.3512 57.068C10.3512 57.068 11.649 49.1373 10.2894 45.8482C8.92974 42.5284 5.40709 37.7023 5.40709 37.7023L3.15135 34.5977H3.12045Z" fill="white"/>
<path d="M15.7904 57.6555C15.7904 57.6555 14.6162 49.8785 18.4169 46.4665C22.4649 42.8392 27.3163 41.4252 27.5944 41.3637C27.8725 41.3023 27.2545 47.3886 24.6897 52.3684C22.8357 55.9341 16.2539 57.3174 15.7904 57.6555Z" fill="white"/>
<path d="M11.558 41.3604C11.558 41.3604 5.5015 37.6717 5.09979 32.2308C4.69809 26.79 9.54946 17.476 9.82756 17.6912C10.1057 17.9063 14.4935 27.6814 14.4935 31.8312C14.4935 35.981 13.0721 38.5324 11.5889 41.3604H11.558Z" fill="white"/>
<path d="M32.5066 28.9721C32.5066 28.9721 24.627 29.1873 20.4245 33.4601C16.222 37.7328 17.3345 42.7741 17.3345 42.7741C17.3345 42.7741 24.318 42.8355 27.6243 38.5321C30.9307 34.2286 32.4757 28.9414 32.4757 28.9414L32.5066 28.9721Z" fill="white"/>
<path d="M20.3941 1.73828C20.3941 1.73828 17.4894 5.8266 15.6354 8.43944C13.7814 11.0523 11.2166 16.5546 12.2981 19.7207C13.3796 22.8869 16.686 25.6227 16.686 25.6227C16.686 25.6227 21.2902 20.4585 21.661 16.155C22.0318 11.8515 20.3941 1.73828 20.3941 1.73828Z" fill="white"/>
<path d="M22 28.5445C22 28.5445 23.1433 21.5667 28.1492 19.1075C33.0624 16.6484 39.9532 17.2324 39.9532 17.2324C39.9532 17.2324 36.3378 24.4562 31.5791 27.1612C27.4076 29.5281 22 28.5752 22 28.5752V28.5445Z" fill="white"/>
<path d="M115.259 125.34C115.259 125.34 118.349 128.353 122.737 128.353C130.277 128.353 138.806 118.209 138.806 118.209C138.806 118.209 129.196 117.656 124.591 118.701C119.987 119.746 115.229 125.34 115.229 125.34H115.259Z" fill="white"/>
<path d="M111.643 120.791C111.643 120.791 120.789 118.117 120.388 109.941C119.986 101.764 119.43 101.887 119.43 101.887C119.43 101.887 109.882 109.172 110.376 114.705C110.839 119.746 111.643 120.791 111.643 120.791Z" fill="white"/>
<path d="M149.341 104.066C149.341 104.066 145.51 111.659 140.102 115.071C134.726 118.483 128.422 115.071 128.422 115.071C128.422 115.071 132.192 108.985 136.178 107.14C140.164 105.327 149.341 104.066 149.341 104.066Z" fill="white"/>
<path d="M124.004 111.047C124.004 111.047 130.215 107.359 130.215 102.656C130.215 97.9525 127.125 91.8047 127.125 91.8047C127.125 91.8047 121.748 99.3973 121.532 103.332C121.346 107.297 123.355 110.248 124.035 111.047H124.004Z" fill="white"/>
<path d="M157.47 87.8398C157.47 87.8398 153.576 97.0001 150.764 100.105C146.809 104.47 138.898 102.994 138.898 102.994C138.898 102.994 140.845 96.078 144.77 93.4036C147.211 91.7437 150.146 90.6371 157.501 87.8398H157.47Z" fill="white"/>
<path d="M133.18 80.3984C133.18 80.3984 138.495 87.8988 138.31 91.4031C138.094 94.8766 135.158 98.6575 133.798 99.5182C132.439 100.379 129.349 93.4934 129.472 90.5424C129.596 87.5914 133.18 80.4292 133.18 80.4292V80.3984Z" fill="white"/>
<path d="M161.826 70.75C161.826 70.75 159.942 80.771 157.47 84.3675C153.576 89.9928 146.314 88.9169 146.314 88.9169C146.314 88.9169 146.593 83.8449 150.98 78.4656C152.649 76.4368 161.826 70.75 161.826 70.75Z" fill="white"/>
<path d="M136.333 67.6406C136.333 67.6406 143.811 74.3418 143.749 78.6453C143.687 82.9488 140.999 86.6375 140.999 86.6375C140.999 86.6375 134.943 82.6721 134.881 78.799C134.819 74.8951 136.364 67.6714 136.364 67.6714L136.333 67.6406Z" fill="white"/>
<path d="M151.505 72.6853C151.505 72.6853 159.601 71.8246 161.547 66.0456C163.494 60.2666 162.907 51.6289 162.907 51.6289C162.907 51.6289 154.348 59.867 153.204 62.818C152.061 65.769 151.227 67.7363 151.536 72.6853H151.505Z" fill="white"/>
<path d="M137.353 54.0268C137.353 54.0268 147.519 60.2976 147.179 65.4618C146.84 70.6568 145.696 72.04 145.696 72.04C145.696 72.04 139.053 69.335 138.033 65.3081C138.033 65.3081 136.581 59.9288 137.322 53.9961L137.353 54.0268Z" fill="white"/>
<path d="M159.879 34.5977C159.879 34.5977 162.073 43.0817 161.826 46.6782C161.208 55.9922 152.649 57.068 152.649 57.068C152.649 57.068 151.351 49.1373 152.711 45.8482C154.07 42.5591 157.593 37.7023 157.593 37.7023L159.849 34.5977H159.879Z" fill="white"/>
<path d="M147.209 57.6555C147.209 57.6555 148.383 49.8785 144.582 46.4665C140.534 42.8392 135.683 41.4252 135.405 41.3637C135.127 41.3023 135.745 47.3886 138.31 52.3684C140.164 55.9341 146.745 57.3174 147.209 57.6555Z" fill="white"/>
<path d="M151.443 41.3604C151.443 41.3604 157.5 37.6717 157.902 32.2308C158.303 26.79 153.452 17.476 153.174 17.6912C152.896 17.9063 148.508 27.6814 148.508 31.8312C148.508 35.981 149.929 38.5324 151.412 41.3604H151.443Z" fill="white"/>
<path d="M130.463 28.9721C130.463 28.9721 138.343 29.1873 142.545 33.4601C146.717 37.7636 145.635 42.7741 145.635 42.7741C145.635 42.7741 138.652 42.8355 135.345 38.5321C132.039 34.2286 130.494 28.9414 130.494 28.9414L130.463 28.9721Z" fill="white"/>
<path d="M142.607 1.73828C142.607 1.73828 145.511 5.8266 147.365 8.43944C149.219 11.0523 151.784 16.5546 150.703 19.7207C149.621 22.8869 146.315 25.6227 146.315 25.6227C146.315 25.6227 141.711 20.4585 141.34 16.155C140.969 11.8515 142.607 1.73828 142.607 1.73828Z" fill="white"/>
<path d="M141 28.5445C141 28.5445 139.857 21.5667 134.851 19.1075C129.938 16.6484 123.047 17.2324 123.047 17.2324C123.047 17.2324 126.662 24.4562 131.421 27.1612C135.592 29.5281 141 28.5752 141 28.5752V28.5445Z" fill="white"/>
<path d="M62.0183 99.8594C62.0183 97.5232 63.9033 96.2015 65.5719 95.0334C66.9006 94.0805 68.1366 93.3427 68.1366 92.3283C68.1366 91.3139 67.4877 90.7299 66.2826 90.7299C65.0775 90.7299 64.3668 91.5291 63.9033 92.6357L61.7402 91.5598C62.5745 89.7155 64.0887 88.5781 66.3135 88.5781C68.5383 88.5781 70.7014 90.238 70.7014 92.359C70.7014 94.4801 68.9709 95.6789 67.3332 96.7548C65.9427 97.7077 64.5522 98.5376 64.5522 99.8287H70.6396V102.226H62.0183V99.8594Z" fill="white"/>
<path d="M71.9688 98.0151V93.066C71.9688 90.5147 73.8537 88.5781 76.5729 88.5781C79.2922 88.5781 81.1771 90.5762 81.1771 93.066V98.0151C81.1771 100.659 79.4776 102.411 76.5729 102.411C73.6374 102.411 71.9688 100.597 71.9688 98.0151ZM78.6433 97.9229V93.1583C78.6433 91.898 77.9325 91.068 76.5729 91.068C75.2133 91.068 74.4717 91.9902 74.4717 93.1583V97.9229C74.4717 99.0909 75.1824 99.9209 76.542 99.9209C77.9016 99.9209 78.6433 99.0295 78.6433 97.9229Z" fill="white"/>
<path d="M82.4754 99.8594C82.4754 97.5232 84.3603 96.2015 86.0289 95.0334C87.3576 94.0805 88.5937 93.3427 88.5937 92.3283C88.5937 91.3139 87.9448 90.7299 86.7396 90.7299C85.5345 90.7299 84.8238 91.5291 84.3603 92.6357L82.1973 91.5598C83.0316 89.7155 84.5457 88.5781 86.7705 88.5781C88.9954 88.5781 91.1584 90.238 91.1584 92.359C91.1584 94.4801 89.428 95.6789 87.7903 96.7548C86.3997 97.7077 85.0092 98.5376 85.0092 99.8287H91.0966V102.226H82.4754V99.8594Z" fill="white"/>
<path d="M92.239 99.8594C92.239 97.5232 94.124 96.2015 95.7926 95.0334C97.1213 94.0805 98.3573 93.3427 98.3573 92.3283C98.3573 91.3139 97.7084 90.7299 96.5033 90.7299C95.2982 90.7299 94.5875 91.5291 94.124 92.6357L91.9609 91.5598C92.7953 89.7155 94.3094 88.5781 96.5342 88.5781C98.759 88.5781 100.922 90.238 100.922 92.359C100.922 94.4801 99.1916 95.6789 97.5539 96.7548C96.1634 97.7077 94.7729 98.5376 94.7729 99.8287H100.86V102.226H92.239V99.8594Z" fill="white"/>
</g>
<defs>
<clipPath id="clip0_2915_6318">
<rect width="163" height="128.213" fill="white" transform="translate(0 0.140625)"/>
</clipPath>
</defs>
</svg>
