<svg xmlns="http://www.w3.org/2000/svg" width="100" height="300" viewBox="0 0 100 300">
    <g transform="translate(0 0)">
        <path d="M468.865 178.845h-3.92a6.04 6.04 0 0 0 0 12.08h.4l1.558 2.67 1.558-2.67h.4a6.04 6.04 0 0 0 0-12.08zm-5.857 7.53a1.511 1.511 0 1 1 1.261-1.49 1.39 1.39 0 0 1-1.261 1.49zm3.9-.277a1.328 1.328 0 0 1-1.328-1.328h2.655a1.328 1.328 0 0 1-1.33 1.33zm3.9.277a1.511 1.511 0 1 1 1.261-1.49 1.39 1.39 0 0 1-1.269 1.49z" fill="#737881" transform="translate(-456.905 -175.845)"/>
    </g>
    <g transform="translate(50 0)">
        <path d="M468.865 178.845h-3.92a6.04 6.04 0 0 0 0 12.08h.4l1.558 2.67 1.558-2.67h.4a6.04 6.04 0 0 0 0-12.08zm-5.857 7.53a1.511 1.511 0 1 1 1.261-1.49 1.39 1.39 0 0 1-1.261 1.49zm3.9-.277a1.328 1.328 0 0 1-1.328-1.328h2.655a1.328 1.328 0 0 1-1.33 1.33zm3.9.277a1.511 1.511 0 1 1 1.261-1.49 1.39 1.39 0 0 1-1.269 1.49z" fill="#0477ff" transform="translate(-456.905 -175.845)"/>
    </g>
    <g transform="translate(0 50)">
        <path d="M1825.077 3600.614c-2.4-.157-7.754-.156-10.153 0-2.6.169-2.9 1.67-2.923 5.622.019 3.944.323 5.451 2.923 5.622 2.4.156 7.751.157 10.153 0 2.6-.17 2.9-1.671 2.923-5.622-.019-3.944-.323-5.452-2.923-5.622zm-7.076 8.172v-5.1l5.333 2.546z" fill="#737881" transform="translate(-1810 -3596.296)"/>
    </g>
    <g transform="translate(50 50)">
        <path d="M1825.077 3600.614c-2.4-.157-7.754-.156-10.153 0-2.6.169-2.9 1.67-2.923 5.622.019 3.944.323 5.451 2.923 5.622 2.4.156 7.751.157 10.153 0 2.6-.17 2.9-1.671 2.923-5.622-.019-3.944-.323-5.452-2.923-5.622zm-7.076 8.172v-5.1l5.333 2.546z" fill="#0477ff" transform="translate(-1810 -3596.296)"/>
    </g>
    <g transform="translate(0 100)">
        <path d="M7.343 14H1a1 1 0 0 1-1-1V1a1 1 0 0 1 1-1h12a1 1 0 0 1 1 1v12a1 1 0 0 1-1 1H9.527V8.572h1.823l.273-2.115h-2.1V5.106c0-.618.178-1.03 1.049-1.03H11.7V2.183a15.148 15.148 0 0 0-1.636-.083 2.721 2.721 0 0 0-1.966.72 2.839 2.839 0 0 0-.755 2.08v1.56H5.516v2.112h1.827V14z" fill="#737881" transform="translate(3 3)"/>
    </g>
    <g transform="translate(50 100)">
        <path d="M7.343 14H1a1 1 0 0 1-1-1V1a1 1 0 0 1 1-1h12a1 1 0 0 1 1 1v12a1 1 0 0 1-1 1H9.527V8.572h1.823l.273-2.115h-2.1V5.106c0-.618.178-1.03 1.049-1.03H11.7V2.183a15.148 15.148 0 0 0-1.636-.083 2.721 2.721 0 0 0-1.966.72 2.839 2.839 0 0 0-.755 2.08v1.56H5.516v2.112h1.827V14z" fill="#0477ff" transform="translate(3 3)"/>
    </g>
    <g transform="translate(0 150)">
        <path d="M16 1.533a6 6 0 0 1-1.867.533A3.549 3.549 0 0 0 15.6.267a6.052 6.052 0 0 1-2.067.8A3.489 3.489 0 0 0 11.067 0a3.282 3.282 0 0 0-3.2 4A9.117 9.117 0 0 1 1.133.6a3.3 3.3 0 0 0 1 4.4 4.726 4.726 0 0 1-1.466-.4 3.281 3.281 0 0 0 2.6 3.267 3.634 3.634 0 0 1-1.467.066A3.161 3.161 0 0 0 4.867 10.2 6.726 6.726 0 0 1 0 11.533 9.332 9.332 0 0 0 5 13a9.293 9.293 0 0 0 9.333-9.733A6.869 6.869 0 0 0 16 1.533z" fill="#737881" transform="translate(2 4)"/>
    </g>
    <g transform="translate(50 150)">
        <path d="M16 1.533a6 6 0 0 1-1.867.533A3.549 3.549 0 0 0 15.6.267a6.052 6.052 0 0 1-2.067.8A3.489 3.489 0 0 0 11.067 0a3.282 3.282 0 0 0-3.2 4A9.117 9.117 0 0 1 1.133.6a3.3 3.3 0 0 0 1 4.4 4.726 4.726 0 0 1-1.466-.4 3.281 3.281 0 0 0 2.6 3.267 3.634 3.634 0 0 1-1.467.066A3.161 3.161 0 0 0 4.867 10.2 6.726 6.726 0 0 1 0 11.533 9.332 9.332 0 0 0 5 13a9.293 9.293 0 0 0 9.333-9.733A6.869 6.869 0 0 0 16 1.533z" fill="#0477ff" transform="translate(2 4)"/>
    </g>
    <g transform="translate(0 200)">
        <path d="M-5272.9-2926.29v-3.575h12.346a2.828 2.828 0 0 1 2.825 2.825 2.828 2.828 0 0 1-2.825 2.825h-.823a5.949 5.949 0 0 1-5.575 3.873 5.948 5.948 0 0 1-5.948-5.948zm11.9 0a6.053 6.053 0 0 1-.08.97h.53a1.722 1.722 0 0 0 1.719-1.72 1.72 1.72 0 0 0-1.719-1.719h-.45zm-8.983-5.276a3.777 3.777 0 0 1 3.777-3.776h3.776a3.776 3.776 0 0 1-3.776 3.776z" fill="#737881" transform="translate(5275.904 2937.842)"/>
    </g>
    <g transform="translate(50 200)">
        <path d="M-5272.9-2926.29v-3.575h12.346a2.828 2.828 0 0 1 2.825 2.825 2.828 2.828 0 0 1-2.825 2.825h-.823a5.949 5.949 0 0 1-5.575 3.873 5.948 5.948 0 0 1-5.948-5.948zm11.9 0a6.053 6.053 0 0 1-.08.97h.53a1.722 1.722 0 0 0 1.719-1.72 1.72 1.72 0 0 0-1.719-1.719h-.45zm-8.983-5.276a3.777 3.777 0 0 1 3.777-3.776h3.776a3.776 3.776 0 0 1-3.776 3.776z" fill="#0477ff" transform="translate(5275.904 2937.842)"/>
    </g>
    <g transform="translate(0 250)">
        <g transform="translate(-606.801 -1004.801)">
            <path d="M469.723 178.845h-4.257a6.56 6.56 0 0 0 0 13.12h.437l1.692 2.9 1.692-2.9h.437a6.56 6.56 0 0 0 0-13.12zm-6.361 8.178a1.641 1.641 0 1 1 1.369-1.618 1.509 1.509 0 0 1-1.37 1.618zm4.233-.3a1.442 1.442 0 0 1-1.442-1.442h2.884a1.442 1.442 0 0 1-1.443 1.442zm4.232.3a1.641 1.641 0 1 1 1.369-1.618 1.51 1.51 0 0 1-1.37 1.618z" transform="translate(148.095 827.045)" fill="#17191d"/>
        </g>
    </g>
    <g transform="translate(50 250)">
        <g transform="translate(-606.801 -1004.801)">
            <path d="M469.723 178.845h-4.257a6.56 6.56 0 0 0 0 13.12h.437l1.692 2.9 1.692-2.9h.437a6.56 6.56 0 0 0 0-13.12zm-6.361 8.178a1.641 1.641 0 1 1 1.369-1.618 1.509 1.509 0 0 1-1.37 1.618zm4.233-.3a1.442 1.442 0 0 1-1.442-1.442h2.884a1.442 1.442 0 0 1-1.443 1.442zm4.232.3a1.641 1.641 0 1 1 1.369-1.618 1.51 1.51 0 0 1-1.37 1.618z" transform="translate(148.095 827.045)" fill="#0477ff"/>
        </g>
    </g>
</svg>
