<?xml version="1.0" encoding="utf-8"?>
<!-- Generator: Adobe Illustrator 23.1.0, SVG Export Plug-In . SVG Version: 6.00 Build 0)  -->
<svg version="1.1" xmlns="http://www.w3.org/2000/svg" xmlns:xlink="http://www.w3.org/1999/xlink" x="0px" y="0px"
	 viewBox="0 0 1475.6 773.7" style="enable-background:new 0 0 1475.6 773.7;" xml:space="preserve">
<style type="text/css">
	.st0{clip-path:url(#SVGID_2_);}
	.st1{fill:#121212;}
	.st2{fill:#0077FF;}
	.st3{fill:#0077FF;fill-opacity:0.6;}
	.st4{fill:#FFFFFF;}

	g[id^="c_"] {
		cursor: pointer;
	}

	g[id^="c_"] :not([id^="point"]) {
		<!-- display:none; -->
		opacity: 0;
		transition: .3s;
	}

	g[id^="c_"] [id^="gCircle"] {
		transform-origin: center center;
		width: 0; height: 0;
		position: relative;
	}

	g[id^="c_"] [id^="gCircle"]:after {
		content: '';
		position: absolute;
		left:0; top:0;
		width: 100px;
		height: 100px;
		background: red;
		
	}

	g[id^="c_"]:hover :not([id^="point"]) {
		opacity: 1;
	}
</style>
<g id="map">
	<g>
		<defs>
			<rect id="SVGID_1_" x="27.8" y="21.3" width="1420" height="731"/>
		</defs>
		<clipPath id="SVGID_2_">
			<use xlink:href="#SVGID_1_"  style="overflow:visible;"/>
		</clipPath>
		<g class="st0">
			<path class="st1" d="M289.1,583.3c0,0,2.9-1.2,0.7-6.3c-2.2-5.1-0.1-5.7,0.9-7.6c0.9-1.8,0.9-2,3.6-2.7c2.6-0.8,4.6-0.4,7-2.1
				c2.4-1.7,4.5-1.8,5.4-3.7c0.9-1.8,0.1-1.8,2.1-3.4c1.8-1.6,2-0.8,2.5-2.1c0.5-1.3-0.5-4.2,1.2-3.9c1.7,0.1,2.2-0.3,3.4,2.5
				c1.2,2.9,0.7,7.3,2,8.7c1.3,1.4-0.1,3.8-1.5,3.4c-1.3-0.4-2,3.3-2.5,5.9c-0.5,2.6-2.2,8.9-4,11.9c-1.8,3-4,7.7-5.1,10.4
				c-1.2,2.9-3.3,9.3-6.9,8.7c-3.7-0.5-2.8,2.2-5.3,1.3c-2.5-0.8-6.7-3.3-6.9-6.7s-0.7-2.5-1.1-6c-0.4-3.5,2.4-5.1,3.4-6.5
				C289.1,584,289.1,583.3,289.1,583.3z"/>
			<path class="st1" d="M136.2,273.6c-0.5-0.3-0.8-0.5-0.9-1C135.7,272.8,136.1,273.2,136.2,273.6z"/>
			<path class="st1" d="M135.1,272.5c-2.1-1.4-6.6-3.1-7.7-5.7c-1.7-4.6,5.5-7.2,10.7-6.1c5.1,1,0.1,3.7-2.4,8.9
				C135.3,270.9,135,271.8,135.1,272.5z"/>
			<path class="st1" d="M141.5,213.3c-0.1,0.1-0.1,0.1-0.3,0.1C138.2,215.3,141.9,212.5,141.5,213.3z"/>
			<path class="st1" d="M768,101.4c-3.8-0.1-6.1-1.8-5.3-2.9c0.8-1,2.9-1.3,0.1-2.9c-2.8-1.6-4.9-2.7-3-3.9c1.8-1.2,3.3-0.4,3.8-2.7
				c0.5-2.3-0.1-3.8-2.2-6.1c-2.2-2.3-1.5-4.3-4-2.6c-2.6,1.7-4.5,1.8-5.5,0.7c-1.1-1.2,0.3-3.9-2.5-1.3c-2.8,2.6-5.9,1.3-4.8,3.8
				c1.1,2.5,2,0.3,2.6,3.7c0.7,3.3,2.2,5.2-0.1,4.3c-2.4-0.9-2.8-0.9-3.3-2.7c-0.5-1.7,0.5,0.7-3.2-2.5c-3.7-3-3-4.7-5-4.6
				s-2.5,0.8-6.6,1.3c-4.1,0.5-1.1-0.8-9-1.4s-5.9-0.1-9.4-0.4c-3.4-0.3,2-3.4-4.2-2.6c-6.2,0.8-3.7,2-7.3,0.4
				c-3.6-1.4,0-3.9-5.3-2.3c-5.4,1.7-4.6,1.8-7.5,2.5c-2.8,0.7,0.5-2.5-5-0.4c-5.7,2-6.9,1.7-6.6,2.7c0.4,1,4,0.4,1.5,3.1
				c-2.5,2.7,3.2,3.7,4.2,4.2c1.1,0.5,4.2,3.1,4.2,4.3s0,2.6-1.1,2.6c-1.1,0-3.6-1.8-5.4-2.2c-1.8-0.4,1.5-3.5-3.2-2.9
				c-4.6,0.8-2.9,0.5-3-0.9c-0.3-1.4,1.2-1,0.5-2.7c-0.5-1.6-1.1-2.9-3.2-2.3c-2,0.5-2.2-0.5-2.2,3.3c0,3.8,0.9,4.8-1.2,4.6
				s-0.9-1.4-3.2-1c-2.1,0.4-9,2.1-13.3,3.7c-4.4,1.6-3.7,4.4-7,2.9c-3.3-1.6-2.9,1-5.5-4.2c-2.6-5.2-1.7-8.1-6.6-7.3
				c-4.9,0.8-3.7-1.8-9.6,1.6c-5.9,3.3-5.3,3.7-8.3,5.1c-2.9,1.4-2.2,2.7-4.5,1c-2.2-1.7-0.3-2.2-3.6-2.7c-3.3-0.5-4.1-2.7-5.1-1
				c-1.1,1.7-1.2,2.3-2.9,1c-1.7-1.3-0.1-2.3-3.3-1.7c-3.2,0.5-4,0.8-3.6-0.5s2.2-1.3,2.1-2.3c-0.3-1-1.5-4.6-7.4-3.1
				c-5.9,1.4-4.1,2.6-6.3,2.6c-2.2,0-2.5-0.4-5.9-0.4c-3.3,0-3.7,0-7.1,0.3c-3.4,0.3-7-0.9-8.6-0.8c-1.6,0.1-3.7-0.4-2.9,1
				c0.8,1.4,2.2,0.7,2.9,1.8c0.7,1.2-2.9,1.2-2.5,4.6c0.4,3.4,2.9,2.9,3.3,2.9c0.4,0-0.5,1,1.8,2.3c2.4,1.3,5.3,2.3,5.3,2.3
				s1.5,2.7-1.3,1.8c-2.8-0.9-5.8-1.6-5.8-1.6s-0.8-0.8-2.1,1c-1.3,1.8,0.5,2.1-4,1.3c-4.6-0.8-5-1-5.5,0.9c-0.7,2,0.1,2.3-1.3,2.7
				c-1.6,0.5-2.4-0.3-5.1-0.7c-2.8-0.4-4.1-3-4-1.3c0.1,1.7-0.7,4,1.5,5.1c2,1,3.7,1.8,3.6,3.3c-0.1,1.6-0.5,1.4-0.8,2.6
				c-0.3,1.2-2,0.5-4.1-0.7c-2.1-1.2-4.2-3.9-7-4.3c-2.8-0.4-0.7-1-2.9-2.5c-2.2-1.4-3.7,1.2-3.7,0s1.1-1.4,1.6-1.7
				c0.7-0.3,1.1-0.5,0.4-1.6s-1.2-2.6-2.6-2.6c-1.5,0-2.2,0.9-2.2-0.3c0-1.2,0.3-2.2-0.3-2.6s-9.2-5.4-13.1-4.6
				c-3.8,0.8-4.1-2.2-7.4-0.4c-3.3,1.7-4.6,1.2-3.3,3.3c1.5,2.1,6.9,1.3,2.8,3.7c-4.1,2.2-4,2.5-7.1,2.9c-3.3,0.5-1.8-1.4-4.8-0.7
				c-2.8,0.7-2.1,2.6-4.5,1.3c-2.4-1.3-1.8-2-2.2-2.9c-0.3-0.9,1.7-3.5-1.5-2c-3.2,1.6-8.3,0.5-11.1,1.6c-2.6,1-2.9,2.1-4.8,2.3
				c-1.8,0.3-0.3-1.2-2.5-0.5c-2.2,0.8-2.9,2.7-4.1,2.2c-1.2-0.4-0.5-3-1.6-3.1c-1.2-0.3-4.4-0.4-4.9,1c-0.5,1.4-0.9,3.1,0.7,3.5
				c1.6,0.4,0.9-1.2,2.6-0.8c1.7,0.4,3.4,0.9,1.8,1.4c-1.6,0.5-2.6,0.3-4,2c-1.5,1.6-0.8,0.8-3.2,2.1c-2.4,1.3-4.9,4.4-4.2,1.4
				c0.5-2.9-1.5-2.7,0.5-3.7c2-1,3.8-0.7,3.2-2.1c-0.8-1.3-2.9-0.4-1.3-2.5c1.6-2.1,2.5-0.5,2.2-2.6c-0.3-2.1-2-2.1-0.1-4.3
				c1.8-2.2,2.1-3.3,2.5-4.8c0.4-1.6,2.6-0.8,1.1-4.4c-1.6-3.7-1.1-4.4-2.6-5.9c-1.6-1.4-0.9-0.5-2.9-2.6c-2-2-3.2-3.7-3.4-2.3
				c-0.3,1.4,0.4,2-0.4,1.7c-0.8-0.1,2.1,0-1.8-2c-4-2-5.5-4.4-8.1-3.5c-2.5,0.9-2.9-0.1-4.8,1.3c-1.7,1.6-4.4,0.7-4.6,1.8
				s-0.5,0.9,0.7,1.8c1.2,0.9-0.4,4.2-1.7,2.3s-0.4,0.4-0.8-2.7c-0.5-3,0.1-4-1.6-3.9c-1.7,0.1-2.5,1.4-4.1,0.4
				c-1.7-1-3.2,0.1-3-2.3c0.1-2.6-3.3-2.6-5.3-3c-2-0.3-5-1.8-5.4,3.1s-3.7,6.5,1.2,10.7c2.5,2.2,3.8,2.6,4.2,2.6
				c-0.1,0-0.4,0.1-0.8,0.5c-1.6,1.4-2.2,1.6-3.6,1.6s-3.8-2-3.6,0.3c0.3,2.2,2.6,0.8,0.7,2.3c-2,1.6-2.2,1.4-3.3,2.1
				c-1.1,0.7-2.8,3-2.6,1.4c0-1.7,0.5-1.8,0.5-2.1c0-0.3,0.3-2.6-2-1c-2.2,1.6-0.3,2.1-2.9,2.5c-2.6,0.4-3.6-1.2-4.5,0
				c-0.9,1.2-2.1,1.7,0,3.1c2.1,1.4,4.1,2.6,1.7,2.9c-2.4,0.1-6.7,0.1-9.4,3.4c-2.6,3.3-2.9,4.4-4.1,4.7c-1.2,0.4-2.8,2.3-3.2,2.9
				c-0.4,0.5-3.7,5.9,0.4,7.2c4,1.3,10.6,2.6,8.8,3.9c-1.7,1.3-2,1.2-2,0c0-1-0.1-2.1-1.8-1c-1.7,1-1.6,1-3.2,1.7
				c-1.6,0.7-4.2,1.7-7.9,2.5c-3.8,0.8-9,1.4-5.5,4.2c3.4,2.9,4.2,4.4,4.4,5.5c0.1,1-1.3,0.8,1.1,2.1c2.5,1.3,5.4-0.3,6.6,1.2
				c1.2,1.4,1.1,2.5,0,3.5c-1.1,1-1.6,2-3.8,0.5c-2.2-1.3-4.2-2.3-6.6-3c-2.4-0.8-5.4-2.5-6.7-0.8c-1.5,1.7-3.4,2.6-0.9,3.3
				c2.5,0.8,5.8-0.3,5.7,1.6c-0.1,2-1.1,3.7-2.5,2.5c-1.5-1.2-2.6-3.8-3.8-2.3c-1.3,1.4-4.2,1.6-0.3,3.3c4,1.7,4.1,1.6,7.8,2.2
				c3.7,0.7,2.2,2,0.9,1.6c-1.3-0.4-0.8-0.7-3.3-0.5c-2.4,0-3.6,1-5.7-0.4c-2.1-1.4-2.4-0.7-3.3-3c-0.9-2.5-0.3-3.9-1.1-5.2
				c-0.7-1.3-1.6-3.4-2-3.3c-0.4,0.1-0.9-1.2-0.9,0.9c0,2.1,1.3,2.5,1.2,4.4c-0.1,2-0.9,2-1.6,2.9c-0.7,0.9-0.1-0.4-0.3,2.4
				c-0.1,2.7-1.7,2.7,0.3,3.9c2,1.2,0.5,3.3-1.3,1.4c-1.8-1.8-3-1.8-3.3-5c-0.3-3,0.1-5.1-1.7-7c-1.8-2-4.2-3.5-7.1-3.1
				c-2.9,0.4-3.4-1-4.2,0s-3,3.7-2,6.4c1.2,2.9,4.2,6.1,1.8,6.9c-2.5,0.9-4.1,1-3.4,2.9c0.7,2,3.2,3.5,4.6,4.6
				c1.5,0.9,0.5,3.8-0.1,4.7c-0.7,0.9-0.7,1,0.4,2.9c1.1,2,0.3,2.4,3.3,2.5c3,0,3.6,0.3,5,1.8c1.5,1.6,6.1,3.3,1.5,3.8
				c-4.6,0.5-9.2-4-13.2-4c-4,0-7.5-2.9-12.8-3.7c-5.3-0.8-9.1-2.7-11.1-3.1c-2-0.5-4.4-6.4-3.3-0.8c1.1,5.6,5.1,6.1,9,8.7
				c3.7,2.5,8.1,2.6,3.7,4.6c-4.2,2-4.9-0.1-7.5-0.9c-2.8-0.9-0.5-0.5-6.2,1.4c-5.5,2-5.9,2.1-8.4,2.5c-2.5,0.4-0.8-2-4.2-2.1
				c-3.3-0.1-4.2,0.8-9.2,5.5c-5,4.7-1.6,5.9-5.9,8c-4.4,2.1-4.8,6.5-6.9,2c-2.1-4.6,0.3-4.8-0.4-7.2c-0.7-2.2,4-4.2-2-3.4
				c-5.9,0.8-8.3-4.3-7.9,0.9c0.4,5.2,2.9,2.6,3.8,7.8c0.9,5.2-1.5,8.1-1.5,8.1s-3.6-1.7-7.3,0.9c-3.7,2.6-1.8,5.5-4.5,4.4
				c-2.6-1,5.9,2.9,2.9,4.7c-3,1.7,1.1,4.2-6.2,1c-7.1-3.1-11.2-4.6-10.4-1.7c0.8,2.9-1.1-4.4-5.7-7.2c-4.8-2.7-9-5.9-4.5-5.9
				c4.5-0.1,8.1,3.1,13.9,4c5.8,0.9,13.2,0,13.6-2.5c0.4-2.5,5.5-4-0.3-7.2c-5.8-3.1-5.3-2.9-14.4-5.5c-9-2.7-9.2-4.7-14.9-5.2
				c-5.7-0.7-5.4-1.8-6.9-3.5c-1.5-1.6-2-0.9-4.8-0.1c-2.8,0.8-7.4,2.9-5-1c2.4-3.9,5.5-8.1,0.4-6.4c-5.3,1.7-6.6,2.7-7,4.7
				c-0.4,2,0.9-4.6-7.4-3.9c-8.3,0.7-10,0.5-10.3,3.1c-0.3,2.6-4.5,1.2-6.5,3.5c-1.8,2.5,0.3,3-4,3.3c-4.2,0.4-6.6-3.5-9.2,1.6
				c-2.6,5-1.8,4-3,7.4c-1.2,3.4,0,2.9-2.2,7.2c-2.2,4.3-4.2,2.3-5.9,6.9c-1.7,4.4,3.4,8.2-0.1,10.6c-0.1,0.3-0.9,1-2.9,2.6
				c-7.1,6-9.2,10-12,10.3c-2.8,0.1-5.8-5.4-7.7,3.8c-2,9.1-0.5,9.4,0.5,13.1c1.1,3.8-2.8,4.2-0.5,7.3c2.2,3.1,5,5.6,6.5,5.6
				c1.5,0,3.8-11.1,12-8.6c8.2,2.5,11.5,6.9,10.6,13.8c-0.9,6.9-2,9.3,2.5,8.1c4.5-1.3,6.9,3.8,10.4-3.9c3.6-7.7-3.8-6.4,2.1-11.7
				c6.1-5.4,8.4-3.9,7-7.8c-1.6-4-11.1-7.3-8.8-15.4c2.2-8.2,1.2-7.6,7.3-10.4c5.9-2.9,5.3-8.1,7.9-10.7c2.5-2.6,11.5-10.4,9.4-2.1
				c-2.1,8.4-2.9,4-6.9,12.5c-3.8,8.5-9.2,8-1.3,14.6c7.9,6.7,1.5,6.8,11.4,5c9.9-1.8,18.1-0.5,17.6,2.2c-0.7,2.7-1.5,2.5-6.2,3.9
				c-4.9,1.4-11.2-4.7-14.7,1.8c-3.4,6.5-4,2.7,0.4,7.2c4.4,4.3,8.6,5.7,1.6,5.9c-7,0.1-11.1-5.5-10.4,2s3,8.4-1.6,10
				c-4.6,1.7,0-2.7-11,1.3c-11,4-12.1,3.8-13.9,3.4c-1.7-0.4,1.1-3-6.2-3c-3.8,0-6.7,0.3-8.2-0.4c0.1,0.7-0.4,1.2-2.2,2
				c-7.1,2.6-3.8-4.8-12,4c-8.2,8.9-7,7-12.5,10.4c-5.5,3.4-9.5,1.6-8.3,4.6c1.3,3,1.1,5.2-3.7,5.9c-4.8,0.5-1.1-6.7-6.7-0.7
				c-5.7,6-2.8,5.7-8.3,6.8c-5.5,0.9-21.1,2.5-6.5,5.4c14.7,2.7,19.8-1.8,20.7,3.5c0.9,5.5-4,13.1-9,12.5s2.6,3-8.8,1.8
				c-11.5-1-16.5-7.4-16.6,0.8c-0.1,8.2,0,3.3,0.9,12.1c0.9,8.7-11.7,10.7-0.1,14.5c11.5,3.8,9.4,5.1,22.2,1c12.8-4,17-3.3,15.1-9.8
				c-2-6.7-13.9-8.5,0.3-10c14-1.6,13.5-5,14.1-8c0.7-3-1.5-6.7,5.8-3.1c7.3,3.5,5.8,3.1,11.7-0.3c6.1-3.3,4-12.5,10.8-0.1
				c6.7,12.4,9.5,9,15.2,14c5.7,5,19.9,4.7,6.1,9c-13.9,4.3-18.1,3.8-12.5,5.9c5.5,2.1,3.8,6.8,10.8,4c7-2.9,5.3-2.1,9-8.5
				c3.7-6.3,13.1-4.3,0-9.3c-13.1-5-16.5-4.7-17.8-10.6c-1.2-5.9-7.8-9.9-1.1-9.9c6.9,0,2.2-6,11.1,1.7c8.8,7.7,10.8,3,14.7,8.4
				c3.8,5.5,1.2,2.3,5.1,11.1c4,8.7,1.8,6.9,6.9,12.4c5,5.5,9.1,6.7,9.5,1.7c0.4-5,2.6-6.4-2.8-10.3c-5.4-3.9-13.7-8.6-2.8-7
				c11,1.6,13.2-5.7,14.8-0.7c1.5,5.2-4,3.1-0.4,10.2c3.7,7,6.5,7.6,8.7,9.9c2.2,2.3-4.5,2.6,4.4,2.1c8.8-0.7,5.1-4.4,13.6-2.9
				c8.4,1.6,15.6-3.1,15.3,4c-0.3,7.2,0.5,8.6-3.4,14.4c-4,5.7-12.5,5.7-20.6,4.6c-8.1-1.2-6.9-3.8-11.5-1
				c-4.6,2.7-5.7-2.1-16.5-3.4c-10.8-1.3-15.4-6-15.7-0.5c-0.3,5.5,9,7.4,0.4,8.2c-8.6,0.8,4.1,0.7-13.6-2.7
				c-17.7-3.3-12.1-5.1-18.3-6c-6.2-0.9-13.9,1.3-10.8-4.3s5.3-5.2,6.1-7.2c0.8-2,4.8-4.7-2-6c-6.9-1.3-15.7,0.7-21.8-0.3
				c-6.1-0.8-6.5-5.7-13.5-0.7c-7,5-3,6.8-11.5,7.4c-8.4,0.7-11.7-1.7-14.8-0.8c-3,1-1.1-1.3-5.1-1c-4.1,0.4-5.1-2.2-6.1,2.6
				c-0.9,4.8-10.6,0.9-11.1,11.1c-0.5,10.2,7.1,5.6-0.5,10.7s-5.8,1.8-10.6,5.1c-4.8,3.3-6.6-0.7-7.5,8c-1.1,8.6-3.4,6.9-6.3,9.7
				c-3,2.6-6.9-10.8-5.9,5.2c0.9,16.1,6.2,10.2,0.4,20.5c-5.8,10.3,2.9,9.1-0.5,16.7c-3.4,7.4-2.2,5.6,3.4,11.1
				c5.7,5.5,0.4,3.1,12.5,12.1c12.3,9,18.9,8.6,25.3,7.7c6.3-1-0.5-0.7,15.7,0.9c16.2,1.6,18-0.8,24.2-2.7c6.2-2,4.5-14.4,14.7-1.2
				c10.2,13.2,20.5,4.2,17.2,13.8c-3.3,9.7-11,14.2,0.8,22.2c11.8,8,13.2,10.3,14.3,20.6c1.2,10.3,4.6,15.9-1.2,18.8
				c-5.7,2.9-14,6.7-8.8,17.2c5.1,10.6,8.4,10.7,12,18.7c3.6,8-4.5,10.8,1.8,18.7c6.3,7.8,12.9,6.5,13.1,11.9
				c0.1,5.5-2.9,4.8-0.4,10.3c2.5,5.4-2.6,8.9,4.5,9.8c7.3,0.9,10.2-1.6,11.6-2c1.5-0.4,7.5-0.9,7.5-0.9s4.4,2.5,6.7,0
				c2.4-2.5,0.9,1.3,6.9-2c5.9-3.3,15.2-12.9,19.8-17c4.6-4,9-6,7.7-10.6c-1.5-4.6-2-5.7,3-7.3c5-1.4,8.4-2.3,9.1-6
				c0.7-3.7,1.7-2.3,0-7.7c-1.7-5.4-5.1-6.8,0.9-10s5-6.3,11.1-7.7c6.1-1.4,7-1.4,10-6.1c3-4.6,4.4-3.4,2.9-10s1.6-8.5-0.8-11
				c-2.5-2.5-4.9-9.7-3.3-12.7c1.6-3-2-6-2-6s-0.7-3.3,3.6-5.1c4.2-1.8,4.1-5,9-9.8c4.9-4.8,5.8-8.7,10.4-10.8
				c4.6-2.1,16.8-10.7,22-19.3c5.3-8.6,3.4-7,5.7-9.1c2.4-2.1,3.3-7.7,2.4-9c-0.9-1.3,1.1-4.2-2.9-2.7c-4,1.4-6.9,2.6-9.4,2.3
				c-2.6-0.3-7.1,1.3-8.8,1.3c-1.7,0-2-0.1-4.5,0.8c-2.5,0.9-3.7,1.4-5,0.4c-1.3-1.2-4.6-2.6-4.6-5.2c0-2.6,1.5-0.8-2.5-4.7
				c-4-3.9-6.1-5.6-12.5-9.3c-6.5-3.7-1.5-6.9-5.3-9.8c-3.8-2.9-5,1-6.9-6.3c-1.8-7.3-4.4-10-6.7-13.2c-2.4-3.1-2-2.7-2.4-4.7
				c-0.3-2-1.5-3.7-4.4-7.6c-2.9-3.8-6.5-9.9-4-8.9c2.6,1,2.5,1.2,4,0.1c1.5-1,3.6-0.5,4.2,1.3c0.7,1.8,6.9,9,8.3,13.2
				c1.5,4.2,2.9-0.3,4.8,2.9c1.8,3.3,1.2,7.2,3.3,9.9c2.1,2.7,6.7,2.6,8.6,7.7c1.7,5,9.4,11,9,15.4c-0.4,4.3-0.4,3.9,2.1,7.3
				c2.5,3.4,4.8,5,8.3,2.9c3.4-2.1,7.8,0.7,10.2-1.7c2.4-2.4-0.7-1.7,4.6-3.5c5.3-2,7.7-2,11.4-2.7c3.7-0.9,6.7-2.6,6.6-4.6
				c-0.1-2.1-0.1-1.6,4.6-2.6c4.9-1,9-3.4,9.2-4.6c0.3-1.2,4.9-3,6.3-4.3c1.3-1.3-0.8-3,2.6-5.9c3.4-3,8.6-6.9,4.6-9.5
				c-4-2.6-1.7-3.7-5.9-4.3c-4.2-0.7-7.5-2.7-8.2-6.4c-0.8-3.7,0.1-5.4-3.4-2c-3.4,3.4-4.6,7.7-11,6.8c-6.3-0.9-4.1,3.4-5.8-0.3
				c-1.7-3.8-0.7-9.4-2.9-5.9c-2.1,3.4-0.9,2.6-2,0.8c-1.2-1.8-2.1-0.5-4.1-6c-1.8-5.5-6.2-1.2-6.9-6.3c-0.7-5-1.8-6.5,0.7-6.5
				c2.6-0.1,6.3,0.7,11.1,6.5c4.8,5.9,3.8,2.7,7,4.6c3.2,2,2.9,3.1,7.1,3c4.2-0.1,5.8-5.7,9.8-2.3c4,3.4-0.9,5.1,6.2,6.1
				c7,1,12.5-0.3,18.5,3.5c5.9,3.8,21.7,8.5,25.1,7.3c3.4-1.2,7.5,0.9,10.3,1.2c2.8,0.3,0.1,3.9-2.4,2.9c-2.6-1-6.1-2.5-2.9,0.5
				c3.2,2.9,6.6,4.4,10,3.9c3.6-0.5,5.4-2.4,5.8-3.9c0.3-1.4,1.7,0.3,2.8,10.6c0.9,10.3,5.9,10.4,7.1,14.9c1.2,4.4-1.3,2.3,2,6.1
				c3.3,3.8-0.1,4.8,5.7,8.5c5.8,3.7-0.1,7.7,4.5,11.5s7.8,2.5,7.8,0.5c0-2,5.1-4.8,6.1-5.9c0.9-1,1.1-2.6,0.5-5.6
				c-0.7-3.1,2.2-3.4,1.7-5.1c-0.5-1.8-0.9,1-0.9-4c0-5-1.1-5.6,1.5-6.8c2.5-1.3,3.8,0,5.7-2.7c1.8-2.7-1.1-3.1,2-4.2
				c3-0.9,7.4-4.6,8.6-5.9c1.2-1.3-0.8-4.4,3.3-5c4.1-0.4,4.5-5.1,8.3-6.4c3.8-1.3,2.1,1.6,8.2-0.8s8.4-4.6,8.3-3.7
				c0,0.9-0.9,3.1,2,5.6c2.9,2.5,8.2,3.4,8.2,6.5c0,3.1,0.3,1.2,2.1,4c1.8,2.9,2,2.2,2.2,6.7c0.4,4.3-1.6,5.7,2.5,4.8
				c4.1-0.9,5.9-6.8,9.4-3.5c3.4,3.3,5.8,11.1,6.9,14.1c1.2,3,2.2,2.3,1.7,6.1c-0.5,3.7-1.7,3.9-1.1,6.3c0.5,2.3-1.2,0.7,0,4.3
				c1.1,3.5-0.4,1.4,2.6,4c3,2.6,2.4,1.4,4.6,5.5c2.2,4,2,2.3,2.9,6.5c0.9,4.2,3.8,6.4,4.6,7c0.8,0.7-0.5,0.5,2.9,2.9
				c3.4,2.3,3,0.5,6.5,2.9c3.4,2.3,5,4.4,3.4,0.9c-1.6-3.5-1.3-4.6-3.2-5.5c-1.8-0.9,0.8-5.7-1.3-8.1c-2.1-2.3-8.4-6.3-10.6-8
				c-2.1-1.7-2-4.7-3.8-6.5c-1.8-1.8-1.2-1.8-3.6-3c-2.4-1.2-0.9-0.5-0.7-3.4c0.3-2.9,0.9-11.6,2.6-11.7c1.7-0.1,0.7-0.9,2.8,1
				c2.1,1.8,3.2-1,5.5,1.6c2.4,2.7,2.2,1.4,6.1,5.5c3.8,4,2.8,4.3,3.8,4c1.1-0.3,2.9-1.6,3,2.1c0.1,3.7,1.1,3.5,2,3.4
				c0.8-0.3,3.8-5.4,6.7-5.7c2.9-0.4,7.7-1.7,9-5c1.2-3.3,3.6-9.5,0.8-12.7c-2.8-3.3-3.4-5.6-7.3-8c-3.8-2.3-5.4-2-6.7-5.4
				c-1.3-3.5-2.4-2.9-3.7-4.4c-1.2-1.6-0.8-3.8,0.5-5.1c1.5-1.3,1.2-2.3,3.2-3.5c2-1.2,4.8-4.8,6.6-4.3c1.8,0.5,4.1,0.3,5.4,3.5
				c1.3,3.1,1.3,4.7,3.8,2.3c2.5-2.3-4.8-2.5,0-3.3c4.8-0.8,6.5-1.3,7.5-1.7c1.2-0.4,3.4-2.1,4.2-3.3c0.8-1.2,0.5-1.8,3-1.2
				c2.5,0.7,3.6-0.1,5.7-0.8c2.1-0.7,5.8-3.9,7.9-4c2.2,0,3-2.9,3.8-3.8c0.8-0.9-0.3-3.9,2.6-3.9c2.8,0.1,2.6-2.7,2.8-5.6
				s1.5-2.5,2.6-4.3c1.2-1.8,1.8-2.3,1.3-5c-0.5-2.6,1.6-4.7,1.8-5.2c0.3-0.5-1.3-3.3-3.7-3c-2.4,0.3-3.6-0.7-1.2-1.7
				c2.4-1,3.8-3.5,1.8-3.9c-2.1-0.4-3.4-2.2-2-1.7c1.5,0.5,3.3-2.6,1.3-2c-1.8,0.8-4.5-1.8-5.7-4.4c-1.2-2.6-1.1-4.2-3.2-5.2
				c-2.1-1-5.7-2.6-4.5-3.9c1.1-1.4,2.8-6.5,5-7.6c2.2-1,6.2-1,5.4-3.3c-0.8-2.2-2.5-5-4.9-4.2c-2.4,0.8-2.2-2.2-4.9,0
				c-2.8,2.2-4.1,3.5-4.5,4.2c-0.3,0.7-1.6-1.3-2.6-2.7c-1.1-1.3-3.7,3.8-4.5-0.9c-0.8-4.7-1.7-7.2,0.1-6.4c1.8,0.9,4,2.7,5.1-0.9
				c1.2-3.7,0.1-3.5,2.1-4.2c2-0.7,2.6,1.4,3-2.3c0.5-3.7,0.5-3.4,2.4-2.4c1.8,1.2,1.7,1,1.3,4c-0.3,3,1.2,2.3,0.3,4.3
				c-0.9,2-3.2,2.5-2,2.6c1.3,0.1,0-0.3,6.3-2.9c6.3-2.6,4-2.9,8.6-2.2c2.9,0.4,1.6,3.1,2.8,7.3c1.2,4.2,4.4,2.2,5.8,2.3
				c0,0,4,0.7,3,3.1c-0.8,2.5-0.5,2.9,0.8,4.6c1.3,1.7-1.7,2.2,0.4,5.6c2,3.4,0.4,3.4,4.2,2.2c3.8-1,4.4,0.5,6.7-0.8
				c2.4-1.3,3.4-2,2.1-5.9s-0.3-4.3-2.5-6.9c-2.2-2.5-3.6-3.4-4.6-5.1c0,0-0.8-1.7-1.8-3c-1.1-1.3-4.1-2.2-4.1-2.2
				c-1.3-3.9-0.4-5.2,1.3-6c1.7-0.8,5.3-3.9,3.8-6.8c-1.5-2.9-3.3-5.7,0.5-6.3c3.7-0.5,5.1-3.5,6.6-4.3c1.6-0.8,0.3-1,3.4,0
				c3,1,5.9,0.4,6.6-2.1c0.7-2.4,5-10.2,6.6-13.6c1.6-3.4,3.3-5.6,2.5-9c-0.8-3.4-2.6-6.1,0.1-7.7c2.9-1.6,2.9-1.4,1.8-5.4
				c-1.1-3.9-4.5-4.3-3.3-8.2c1.2-3.9,1.6-3.5,0.5-6.1c-1.1-2.5-2-4-1.6-4.7c0.4-0.7-0.9-2.6,3,2c4,4.6,3.8,3.8,5.1,9
				c1.3,5.2-0.8,5.6,2.1,9.5c2.9,3.9,3.2,2,3.8,5.5c0.7,3.5,1.1,0.4,1.6,4.8c0.5,4.4,0.4,5,1.1,5.6c0.7,0.7,1.5-1.2,1.8-2.2
				s0-3.1,1.8-1.7c1.8,1.4,3.6,1.6,3.4,1c-0.1-0.5,3.7-0.7-0.7-3.1c-4.2-2.5-4.2-4.3-5.4-4.8c-1.2-0.7-3.2-1.4-3.4-4.8
				c-0.3-3.4-1.3-6.8,0.3-5.7c1.6,1,3.3,2.6,4.1,0.9c0.8-1.8-0.7-2.3-2.1-4.6c-1.5-2.2-2.4-3.8-3.8-5.9c-1.5-2-2.9-3.4-4.5-5.7
				c-1.7-2.3-2.1-5.1-2.1-5.5c-0.1-0.4-3.3-7.2-5.4-8c-2.2-0.8-0.8-4.4-2.4-3c-1.6,1.4-0.5,2.9-0.8,4c-0.3,1.2-2.6-1-1.3,2.9
				c1.3,3.8,2.6,4.4,2.4,6.7c-0.3,2.2-0.4,3.8-1.2,1.6c-0.8-2.4,0.5-2.1-1.6-3.8c-2.1-1.8-0.8-3.3-1.5-4.3c-0.5-1-1.7-1.6-4-2.7
				c-2.2-1.3-6.1-3.1-7-1.8c-0.9,1.3,0.9,1.3-2.4,2.9c-3.3,1.6-2.4-0.8-4-1.8c-1.6-1-1.7,0.9-1.8,2c-0.1,1-0.7,1.7-1.8-0.9
				c-1.2-2.6,0.3-3.3-3.3-3.7c-3.6-0.4-5.7-1-4.1-2.2c1.5-1.2,2-1,4.1-8.5c2.2-7.6,6.2-12.3,5.9-14.4c-0.1-2.2-2.6-3.9-0.3-4
				c2.5-0.3,2.6-2.4,1.3-4.4c-1.3-2.2-1.8-1.8,3-3.5c4.9-1.8,5.8-2.5,9-2.1c3,0.4,3.8,0.1,4.5-0.8c0.8-0.9-3.3-1.3,3.6-0.1
				c6.9,1,3.8,0.9,4.4-1.3c0.7-2.2-3-3.1,1.5-3.1s3.7,2,6.1,1.2c2.4-0.8,7.9-2.4,6.2,0c-1.7,2.3-4.5,3.3-2.1,3.1
				c2.5-0.1,3.2-0.3,4.4-1c1.2-0.7-0.9-5.1,2.4-3.4c3.3,1.7,5.9,0.3,5.4-1.4c-0.5-1.7-0.5,0.8-2.6-1.3c-2.1-2.1-4.9-2.5-2.8-4
				c2.1-1.7,3-0.7,2-4.4c-1.1-3.8-4-10.4-0.3-11.4c3.7-0.9,5.5,0.7,8.1-0.9c2.4-1.6,3.7-4.4,4.4-2.6c0.7,1.8-2.2,1.8,0.3,3.7
				c2.4,1.8,2.5,3.1,4.4,4c1.8,1,3.3-2,3.4-5.1c0.1-3.1,2.2-2.3,2.9-3.3c0.5-0.9,1.1-0.7-0.9-2.4c-2-1.7-5.1-2.3-2.8-4.7
				c2.4-2.3,4.2-2.6,4.4-1.8c0,0.9-2.6-1-0.1,2c2.4,3.1,3.3,0.8,4,5.4c0.7,4.6-0.4,3.9-0.1,5.6c0.1,1.7,3.4,1.7,0.9,3.5
				c-2.5,1.8-5.1,2.1-4.5,5.9c0.7,3.8,3.4,3.1,1.1,6.5c-2.5,3.4-3.8,5.7-2.9,8.9c0.8,3.1,3.8,3.4,0.5,6c-3.3,2.6-4.2,2.6-3.4,5.1
				c0.8,2.5,0.4,2.1,0,5.7c-0.5,3.7-1.6,5.5,1.6,8.9c3.2,3.5,12.3,16.4,14.9,19.8c2.6,3.4,2.9,4.6,4.4,7.2c1.6,2.6,5.5,7.7,5.4,3.9
				c-0.1-3.8,2.2-10.4,0-12.4c-2.2-2-1.7-7.4,0.9-6.4c2.6,1,4.5-1.6,3-3.4c-1.5-2-3.7-6-1.7-6.5c2.1-0.5,6.7,1.4,4.8-1.7
				c-2-3-3.8-2.5-4.4-5.7s-1.7-6.5,0.3-6.1c2,0.4,3.8,0.1,1.3-2.1c-2.5-2.2-2.9-0.1-4.5-3.4c-1.6-3.3,1.8-3-0.7-5.2s-0.8-2.3-4.4-2
				c-3.6,0.4-3.7,2.6-4.1-1.8c-0.4-4.4,0.7-3.7-1.1-7.7c-1.7-3.9-6.1-8.4-2.4-8.9c3.7-0.5,5.3,2,6.5-0.4c1.2-2.4,1.8-5.4,2.5-3.1
				c0.5,2.2-2.6,6.5,0.8,3.4c3.4-3.1,2.1-5.4,4.9-6.4c2.8-1,4-1.7,5.7,0.1c1.7,2,4.8,2.7,5.7,2c1.1-0.9-3.3-1-0.8-5.5
				c2.5-4.4,2.4-8.1,4.1-10.8c1.7-2.7,5.1-2.7,5.3-6.5c0.1-3.7-2-7.3,3.3-7.2c5.3,0.1,4.1,3.7,7.7,1.4c3.4-2.4,0.8-5.5,0-6.7
				c-0.8-1.2-0.4-2.1-4.2-2.5c-4-0.3-5.7-0.9-6.9-3.4c-1.2-2.5-2.8-3.5-3.8-2.9c-1.1,0.7-2.8-0.4-4-0.9c-1.2-0.5-0.5-0.7-1.2-1.6
				c-0.7-0.9-0.8-1.8,0.3-1.6c1.1,0.3,3.6,0.8,3.8-2.2c0.4-3,0.3-4.6-0.9-5.2c-1.2-0.8,3.3-3.4-3.2-6.9c-6.5-3.4-4.6-7.8-2.4-5.5
				c2.2,2.3,2.8,3,4.4,3.5c1.6,0.5,3.2,0.5,4-1c0.8-1.6,3.8-7.7,6.3-3.8c2.5,4,3.2,6.1,4.8,5c1.6-1.2-1.2-3.7,3-2.9
				c4.4,0.7,7.5,0.7,7.7-0.7C770.7,103.6,771.9,101.5,768,101.4z M260.9,337.2c-9,0.5-4-0.5-9.4-0.1c-5.3,0.4-6.3-0.5-14.4-4.6
				c-8.2-4-5.1,2.5-7,4.6c-1.8,2.1-5.5,2.6-12.4,1.3c-6.9-1.2-3-3.1-4.8-11.5c-1.7-8.2,2-2.2,4.2-4.2c2.2-2.1,2.2-3.5,6.9-9.9
				c4.6-6.4,3.3-1,7.4,0.8c4,1.8-0.9,2.1,3,6.5c0,0,1.7,2.1,3.7,0.5c2-1.6,3.4-0.4,6.7-1.8c3.3-1.4-4.2-0.3-7.3-1.6
				c-3-1.3-0.5-2.1,3.6-3.9c4.1-2,5.8-4.2,12.1-6.3c6.3-2.1,0.3,3.1,0,5.1c-0.3,2-2.5,3.9-4.4,5.1c-2,1.2,2,5.5,9.8,7.3
				c7.9,1.8,9.1,4.2,12.8,6.9C275.3,334.4,269.9,336.7,260.9,337.2z M319,357.7c-7.3,1.3-8.1-2-13.7-5.2s-3-3.7-2.6-9.5
				c0.4-5.9,2.6-1.6,3.2-4.7c0.5-3-3.2-1.6-9-3.8c-5.8-2.2-2.9-2.6-4.2-8.6c-1.3-6-3.6-3.8-2.6-11.2c0.9-7.4,5.8-2.9,12.1-6.7
				c6.3-3.7,4.6-1.3,9.1-1.6c4.5-0.3,2.9,2.7,4.1,5.5c1.2,2.7-1.8,1.4-7.4,1.6c-5.5,0.1,1.1,3-1.1,4c-2.1,1-1.7,3.9,1.1,7.2
				c0,0,1.6,1.7,2.2,3.4c0.7,1.7,3.8,3.1,7.7,6.9c3.8,3.8-0.9,4.3-1.1,8.4s1.8,1.2,10.4,6.5C336.2,355.6,326.3,356.4,319,357.7z"/>
			<path class="st1" d="M65.7,274.1c-2,0.1-5.1,1.7-4.4,3.7c0.8,2,4,2.6,1.1,4.6c-2.9,2-4.9-2-3.8,3.3c1.2,5.2,6.7,7.3,10.2,5.5
				c3.6-1.8,9.2-4.8,7.8-8.2c-1.5-3.4-2.6-6.3-0.1-7.6c2.5-1.3,5.1-5.4-0.3-5.5c-5.4-0.1-7.8-0.5-8.7,1.7
				C66.5,273.8,65.7,274.1,65.7,274.1z"/>
			<path class="st1" d="M75.5,259.4c0.3-2.1-1.8-2.9,0.8-2.7c2.6,0.1,0.8-0.8,3.6-3.1c2.8-2.3,6.1-4.7,6.6-2.6
				c0.4,2.1-1.8,0.8-0.8,4.2c1.1,3.4,7.9,1.3,7.4,3.3c-0.5,2-2.2-2.1-3,3.8c-0.8,5.9,1.7,3.7,4.1,8.5c2.4,4.8,3.4,5.9,7.5,8.9
				c4.1,3,8.4,2.7,5,5.1c-3.4,2.3-2.5-0.7-7.1,3.9c-4.6,4.6-5.4,5.5-9.4,6.7c-4,1.2-6.3,4.2-9.1,2c-2.8-2.2-6.9-3.1-0.4-4.6
				c6.5-1.4,11.1-1.7,7.1-3.3c-4-1.6-7.8-1.6-5.1-4c2.6-2.5,5.4-2,4.1-4.4c-1.3-2.5-5.1-0.5-1.6-3.5c3.6-3,7.4-3.1,2.9-6.3
				c-4.4-3.1-2.5-2.1-7.8-5.4C74.8,262.7,74.5,266.4,75.5,259.4z"/>
			<path class="st1" d="M269.1,159.6c-2.5-6.1-1.1-7.3,0.8-8.6c1.8-1.3-7-0.1-1.1-7.3c5.9-7.2,9.2-1.2,6.6-7.8
				c-2.6-6.8-3.2-6.4-2.6-10.7c0.5-4.3,0.8-4.7,5.7-7.2c4.9-2.5,0.5-3.5,7.9-7.4c7.4-3.8,9.9,0.4,13.1-5.5c3.2-5.9,6.9-8.4,8.3-4.7
				c1.5,3.7,10.8,5.9,2,9.3c-8.8,3.3-11.5-3.4-14.8,6.7c-3.3,9.9-9.9,6.1-11.4,15.5c-1.5,9.4-0.9,9-2,12.4c-1.1,3.3-7.1-0.5-2.8,6.7
				c4.4,7.2,11.6,5.6,9.1,10c-2.5,4.4-5.5,5-8.1,3.4c-2.5-1.6-4.6-4.4-7.7-4.4C269.3,159.8,269.1,159.6,269.1,159.6z"/>
			<path class="st1" d="M383.3,50.8c-1.8,3.5-2.5,1.7,0,7.8c2.5,6.1,1.6,0.3,0.7,4.2c-0.9,3.9-4.4,4.2,0.9,7
				c5.4,2.9,9.1-0.3,10.6-2.2c1.5-2,8.2-2.9,2.8-7.2c-5.4-4.3-8.7-3.3-11.5-5.7C384.1,52,383.3,50.8,383.3,50.8z"/>
			<path class="st1" d="M635.9,362.1c0,0-0.7-1.3,1.1-1.3s2.9,0.1,1.8,0.8C637.6,362.4,636.7,363,635.9,362.1z"/>
			<path class="st1" d="M697.6,299.4c0.1-1.7-5.7-9,3.8-3.5c9.5,5.4,8.8,5.2,11.4,4.7c2.5-0.5,4.9,2.6,3.6,4.6c-1.3,2-2.4-1.3-5,3.4
				c-2.6,4.7-0.7,5.7-3.3,4.7c-2.6-1-8.1-3.4-8.3-1.6c-0.3,1.8,6.9,1.8,1.5,4.2c-5.4,2.3-6.5,4-6.5,0s-0.4-3.4,1.3-5.7
				c1.7-2.5,3.6-0.9,2.1-4C696.6,302.9,697.6,299.4,697.6,299.4z"/>
			<path class="st1" d="M713.2,320.6c-0.4,0.4-2.9,4.4-2.8,7.2c0.1,2.7,0.3,2.9,1.3,4.7c1.1,2,3.7,0.4,1.1,4.7
				c-2.6,4.3,1.2,2.7-3.4,6.5c-4.6,3.8-4.5,4.3-5.4,2.5c-0.9-1.8,0.8-5.9-1.8-1.3c-2.6,4.6,1.3,4.3-2.1,7.4
				c-3.4,3.1-1.5-0.5-7.5,3.7s-5.9,0.5-10,7.3c-4.1,6.8-1.5,8.2-1.6,8.6c-0.1,0.4,1.3-4.6,1.6,2.5c0.4,7.2,3.8,9.7,5.1,4.7
				c1.3-5,0-9.3-1.2-10.8c-1.2-1.6-5-2.7-2.1-3.5c2.9-0.9,4.6-1.8,6.6-2.7c2-0.9,7.9-1,2.9,1.6c-5,2.6-7.9,0.9-4.8,3.1
				c3.2,2.2,5.8,1.2,7.3,0c1.5-1.2,4.4-2.7,2.5-4.7c-1.8-2-0.1-5.9,0.4-3.1s1.8,6.4,2.8,6.5c0.9,0.1,2.4-1,3.8-3.4
				c1.6-2.2,4.8-4.3,7.7-3.9c2.9,0.4,2.4-4,3.6-2.9c1.2,1.2,3,2.6,4.1,0.5c1.1-2.1,3.2-1.8,1.1-5.9c-2.1-4-3.6-6.9-2.2-8
				c1.3-1,3.3,2,2.2-3.5c-1.1-5.5-1.7-7.7-4-10.2C716,325.6,715.7,317.3,713.2,320.6z"/>
			<path class="st1" d="M621.6,415.2c0,0-5.1-8.2-0.9-11.5c4.2-3.3,7.1-3.3,5.7,0c-1.6,3.3-4.5-0.7-3.4,6
				C624,416.4,625.1,418.8,621.6,415.2z"/>
			<path class="st1" d="M571.5,432.3c0.3-1.3,1.1-8,4.4-6.8c3.3,1.2,6.3,0.7,4.1,3.3c-2.2,2.6-4.8,3.7-5.7,3.5
				C573.3,432.2,571.5,432.3,571.5,432.3z"/>
			<path class="st1" d="M621.6,438.3c0.5-1.8-2-11.6,2.2-9.4c4.2,2.2,2.1-0.8,6.1,0.9c4,1.7,4.4-0.5,4,4.8c-0.4,5.4-2.4,5.2-2.6,8.5
				c-0.3,3.4,2.2,3.8,2,4.3s-4.9,1.8-1.1,2.6c3.8,0.8,5.8-2.5,7.3,0.5c1.5,3,1.8,0.3,2,4.2c0,3.9,1.2,5.6-3,2
				c-4.2-3.7-4.2-6.5-7.1-3.3c-3,3.3,2.2,7.7-2.6,4c-4.9-3.7-6.5-5.4-3.3-5.9c3-0.5,5.9-1,2-4.3c-4-3.1-4.4-5.4-4.5-5.9
				C622.8,441.1,621.6,438.3,621.6,438.3z"/>
			<path class="st1" d="M638.5,471.5c-3-0.7-1.3-4-4.6,1c-3.3,5.1-4.1,7.4-1.1,7.4c3,0,6.1-5.7,7.7-4c1.6,1.7-3.6,0.4,2.1,3.9
				c5.7,3.4,8.8-0.4,7.4-1.2c-1.5-0.8-1.3-3.1,1.5-1.7c2.9,1.6,6.2-3.8,3.3-5.4c-2.9-1.6-0.7-8.7-4.6-6c-4,2.7-3.8,5.4-6.2,6
				c-2.5,0.7-3.3-0.1-4.2-0.1C638.8,471.5,638.5,471.5,638.5,471.5z"/>
			<path class="st1" d="M636.1,462.6c0,0-4,3.3-4,0c0-3.3-1.3-4.4,0.7-4.2c2,0.3,4,0.4,4.4,2c0.4,1.6,1.2,0.9,1.6,2.1
				c0.4,1.3-0.8,1.4,0,2.6c0.8,1.2,1.8,0.9,0.4,2.6c-1.5,1.7-3,2.2-3.3,0.3C635.5,466,636.1,462.6,636.1,462.6z"/>
			<path class="st1" d="M643.9,459.9c0.1-1.4-0.5-0.8-0.7-2.6c-0.1-1.8,2.1-2.5,3-1.6c0.9,0.9,2.5,0.7,1.7,3.4
				c-0.9,2.7-3.2,1.6-2.2,3.8c0.9,2.2,2.1,4.7-0.1,3.1c-2.4-1.6-2.6-3.8-2.8-4.2C642.7,461.3,643.9,459.9,643.9,459.9z"/>
			<path class="st1" d="M530,488.5c-2.4-2.6-1.5-3.1-5-3.7c-3.6-0.5-9.8-5.2-8.4-1.3c1.3,3.9,7.7,8.1,9.4,10c1.7,2,0,4.3,4.1,7.6
				s7.4,2.7,8.3,6.3c0.8,3.5,0.3,6.1,4,9.3c3.7,3.1,4.4,4,9.8,8.4c5.4,4.3,8.4,4.8,11.4,4.3c2.9-0.4-5,1.4-0.9,3.7
				c4.1,2.2,2.4,3.1,7.1,3.4c4.9,0.1,2.8-2.6,7.4-0.7c4.6,2,0.5,1.2,7,2.9s6.2,0.1,11,0.7c4.8,0.5,5.9,1,6.9,0.4
				c0.9-0.7,7.9,0.7,4.6-1c-3.3-1.6-9-1.6-10.3-1.6c-1.3,0-2.5-2.3-1.3-2.5c1.2-0.1,5-0.3,2.4-0.9c-2.6-0.7-5.5,0.3-7.9-1.6
				c-2.4-1.8-3.8-3.7-6.1-2.1c-2.2,1.6-4.8,3.5-6.2,2.1c-1.5-1.6-1.7-3.1-5-2.6c-3.3,0.5-4.9,0.4-5.9-0.8c-1.1-1.2-3.4,0.4-3.2-2.5
				c0.3-2.9-1.6-5.2,0.7-6.8c2.2-1.6,4.9,0,2.8-3.4c-2.1-3.4-3.4-5.1-4.4-3.5c-0.9,1.6-0.8,5-2.1,2.5c-1.3-2.5,1.1-3-2.1-4.2
				c-3.2-1.2-5.1,0-4.4-1.6c0.8-1.4,4.2-1.3,1.8-3.4c-2.4-2.1-4.2-2.3-5.9-3.7c-1.7-1.3-2.9-3.9-6.1-4.3c-3-0.4-3.8,0.3-5.8-2.9
				c-2-3.1-2.8-4.2-4.1-4.7C532,489.8,530,488.5,530,488.5z"/>
			<path class="st1" d="M614.8,539.1c-1.7-0.3-1.7-2-3.7-1.2c-2,0.8-3.6,0.4-2.8,1.8c0.8,1.4,2,1.8,4.4,2c2.5,0.1,3.7,0.9,6.6-0.5
				c2.9-1.4,2.4-3.8,0-3.5C616.9,537.9,614.8,539.1,614.8,539.1z"/>
			<path class="st1" d="M627.3,537.7c-1.8-0.3-4.9,1.6-4.4,2.2c0.5,0.7,1.2,1.2,3.6,1.2c2.5,0,7-0.1,8.3-0.8
				c1.3-0.7,4.1-2.5,1.8-2.1c-2.4,0.4-3.4,0.8-5.7,0.5C628.7,538.3,627.3,537.7,627.3,537.7z"/>
			<path class="st1" d="M619.8,542.6c0,0-0.9,0.9,1.1,2c2,0.9,2,1.6,3.4,1.7c1.5,0.1,1.6-1.2,0.7-1.8
				C624,543.7,622.5,541.7,619.8,542.6z"/>
			<path class="st1" d="M643.4,541.6c-0.3,0-3.7,2-4.2,3.1c-0.5,1.2-2.9,2.7,0,2.9c2.9,0.1,4.2-2.5,7.3-3.8c3-1.3,5.1-1,6.5-2.4
				s2-3.4-2.9-2C645.1,540.9,643.4,541.6,643.4,541.6z"/>
			<path class="st1" d="M584.5,499.8c-1.1-3.3-7.4-3.3-7.7,0c-0.3,3.3-1.6,6,0.7,8.9c2.1,2.7,3.6,1.3,3.6,4.4
				c0.1,3.1-0.4,4.6,2.8,4.8c3.2,0.1,4.9-0.7,6.2,0.7c1.3,1.3,2.9-0.4,5.3,0.4c2.4,0.8,3.4,0.3,5.3,2.6c2,2.2,6.1,2.6,6.5,0.7
				c0.5-2-2-0.8,0-4.3c2-3.5,4.2-6.4,4.9-6.9c0.7-0.5,0.1-3.7,0.5-5.6c0.4-2,0.7-1.3,3.6-2.1c2.9-0.8,4.1-0.8,1.8-2.7
				c-2.2-2-1.7-2-2.2-4.6c-0.5-2.6-2.6-2.3-2-4.6c0.7-2.2,1.2-2.5,3.7-4.6c2.6-2.1,4-2.6,0.8-3.7c-3.2-1-2.6-1.2-4.4-2.9
				c-1.8-1.7-3.2-2.3-4.5,0c-1.3,2.4-2.9,3.9-4.9,4.7c-2,0.8-4.2,0.9-6.6,3.8c-2.4,2.9-0.3,3.5-3.4,5.4c-3,1.8-4.1,1-5.9,2.7
				C586.6,498.6,585.3,502.4,584.5,499.8z"/>
			<path class="st1" d="M623.9,504.2c1.3-1,4.6-0.4,5.3-1.8c0.7-1.4,1.6-2.1,4-1.3c2.4,0.8,2.1,0.5,6.7,0.1c4.6-0.3,8.6-4.8,6.6-1.6
				c-2,3.3-1.3,5.7-5.7,5.4c-4.2-0.4-4.8-1.6-9.8-0.4c-5,1.2-8.7,0.1-5.7,3.1c3,3,5.5,3.9,6.5,3.1c0.9-0.8,4.6-2,5.8-1.6
				c1.2,0.4,4-1.8,1.2,0.4c-2.8,2.2-6.6,1.3-5.8,3.9c0.8,2.6-0.1,0.5,2,4.2c2.2,3.7,2.1,2.1,3.4,5.1c1.3,3,0.8,5.1-2.4,4.3
				c-3.2-0.8,1.3-1.2-2.9-2.2c-4.2-1-5.8-2-4.4-4.2c1.5-2.2,0.8-3.7-0.8-3.5c-1.7,0.3-1.6,1.2-2.4,3.5c-0.7,2.4,3.4,5.4,0,6.8
				c-3.4,1.4-5-2.1-4.2-3.3c0.8-1.2,5.3-2.6,1.6-4.8c-3.8-2.2-7.8-1.4-3.4-6.1c4.4-4.7,3.3-8.6,3.4-9.1S623.9,504.2,623.9,504.2z"/>
			<path class="st1" d="M658.8,506.7c-1.7,2.1-1.3,3.5,1.1,3.4c2.4-0.1,0.7-5,0.7-5c2.2-2.7,5.1-6,1.8-6.5c-3.3-0.7,0.5-0.4,1.3-2.2
				s-2.4-3.3-3.8-1.6c-1.5,1.7-1.8,2.3-2.1,4.7c-0.4,2.5-0.7,4.4,0.3,5.7C658.8,506.7,658.8,506.7,658.8,506.7z"/>
			<path class="st1" d="M661.4,517.2c-1.5,2.7-1.7,3.1,0,2.7c1.7-0.3,1.1-1.2,3.7-0.7c2.6,0.5,1.3,0,4,0.7c2.6,0.7,4.9-1.2,3.2-1.6
				c-1.7-0.4-4.1-1.7-5.7-1.7C664.9,516.8,661.4,517.2,661.4,517.2z"/>
			<path class="st1" d="M652.8,517.7c-2,1.2-3.8,1.4-1.8,2.5c2,1,3.2,2,4.1,1.2s3.2-2.2,2-2.3C655.8,518.9,652.8,517.7,652.8,517.7z
				"/>
			<path class="st1" d="M687.2,514c0-3.7,2-4.7-2.9-5.7c-4.9-1-4-2.6-6.9-0.8c-2.9,1.8-5.7,2.4-5.3,3c0.4,0.7,0,0.5,3.2,2.3
				c3.2,1.8,3,1.4,5.3,2.2c2.2,0.8,6.6-1.4,3.8,0.4c-2.8,1.8-6.7-1.2-6.3,2c0.5,3.1-1.2,3.8,1.7,4c2.9,0.3,0.3-3.7,5.3-1.2
				c4.9,2.5,1.3,3,6.2,3.7c4.9,0.7,7.4,1,9.4,2.1c2,1.2,4.6,1.8,5.1,4.6c0.4,2.7,3.4,4.4,0.7,4.6c-2.6,0.1-6.9,1.6-5.7,2.9
				c1.2,1.3,7,0.4,9.4,0c2.5-0.4,3,1.3,6.1,3c3,1.7,4.9-1,7.9,0.1c3,1.3,1.7-2.1,3.3-3.1c1.5-1,3.2-3.9,5.8-1
				c2.8,2.7,1.8,2.2,6.3,5.7c4.5,3.5,6.2,4.7,11.4,3.7c5.3-1,11,2.2,6.9-2c-4-4.2-5.9-2.2-9.6-5.9c-3.6-3.5-5.8-4-4-6
				c1.8-1.8,4.5-6-0.1-5.6c-4.8,0.4-3-0.7-7.3-3.3c-4.2-2.6-2.5-3.7-8.6-3.7s-6.3-5.6-13.5-6.8c-7.1-1.2-7-8-12.5-3.3
				c-5.5,4.7-3.3,5-8.4,6.8c-5,1.8-6.2,0.5-6.5-1.2C687.2,514,687.2,514,687.2,514z"/>
			<path class="st1" d="M758.5,526.4c-3-0.9-1.7,0.1-4.9,0.3c-3.2,0.1-7.3-1.2-4.9,0.9c2.4,2.1,6.3,4.8,10,3.1
				c3.7-1.7,8.4-4.8,8.2-6.4c-0.3-1.6-3-2.5-5.3,0C759.4,526.7,758.5,526.4,758.5,526.4z"/>
			<path class="st1" d="M776.6,526.4c-3,2-0.5,4.4,2.1,5.6c2.6,1.3,5-0.8,3-2.1C779.9,528.8,778.7,525.1,776.6,526.4z"/>
			<path class="st1" d="M708.6,695.1c-2.2-1.4-6.1-6-6.2-1.2c-0.1,4.8,0.8,3.4-0.4,7.8c-1.2,4.4-1.8,6,0.9,7.4
				c2.8,1.4,1.2-0.9,5.7-1.4c4.5-0.5,11.8-3.5,9.4-6.1c-2.5-2.6,2.5-4.4,0-5.7c-2.5-1.3-8.2-0.4-8.2-0.4L708.6,695.1z"/>
			<path class="st1" d="M705.7,573.7c4.8,3.5,6.9,3,8.1,0c1.2-3-0.3-2.5,2-10.2c2.2-7.7,3-19.8,6.1-14.4c3,5.5,1.3,6.5,4.2,10
				c2.9,3.5,4.4,0.7,5.4,5.1c1.1,4.4-1.6,3.7,2.4,10.2c4,6.5,0.4,6.8,2.5,11.4s8.3,2.7,9.9,7.3c1.6,4.7,3.6,6.8,7,11.1
				c3.4,4.3,8.1-0.8,7.8,6.3c-0.3,7-2.4,3.3-0.7,10.7c1.7,7.4,1.7,10.2-3.2,14.7s-7.5,2.2-10.6,10.2c-3,8-10.4,6.1-13.1,15.3
				c-2.6,9.1-2.1,10.7-3.7,12.3c-1.6,1.6-7.7,0.1-10.8,4c-3.2,3.9-8.7,9.9-9.4,5.5c-0.7-4.4,4.8-7.3-1.3-6.1
				c-6.2,1.2-10.2,4.6-11.9,4c-1.7-0.5-3.4-3.1-5.1-5.4c-1.7-2.2-2.6-7.8-2.6-9.3c0.1-1.4,0.4-6.8-1.3-6.9c-1.7-0.1-3.4-1.4-2.1-3.4
				c1.3-2-2.6,3-4.1,3c-1.5,0-12.3,1.2-3.4-2c8.8-3,9.8-6.4,9.6-7.4c-0.1-1,0.3-6.1-2.4-2.6c-2.6,3.7-2.8,5-7.3,5.9
				c-4.5,0.9-1.5-3.8-4.5-6.1c-3-2.3-1.1-5.9-9.6-7.2s-2.9-3.3-10.8-1.6c-8.1,1.8-8.2,2.6-13.6,3.8c-5.4,1.2-3.4-4.2-13.6,1.6
				c-10.2,5.7-9.6,7.2-13.5,5.6c-4-1.6-3.2-6.4-8.8-1.8c-5.7,4.6-8.8,8.9-12.4,5.9c-3.6-3-8.3-2.4-6.2-5.9c2.1-3.5,5.1-1.3,6.1-5
				c0.9-3.5,5.3,0.3,0.3-7.2c-5-7.3-5.5-9.9-4-12.1c1.7-2.2,1.1-4,0.9-7.2c-0.1-3.3,1.3-3.5,0.9-7.7c-0.4-4.2-3.3-2.9-0.1-8.5
				c3.2-5.6,4.1-3.9,9.5-5.7c5.5-1.8,5-4,9-5.4c4-1.3-4.2-0.4,7.4-3.4c11.6-3,13.3-2.3,14.8-6.8c1.5-4.6-4.9-6,0.9-7.2
				c5.8-1.3,1.8,7.7,7.7,1c5.8-6.7,3.3-8.1,9.2-9.8c5.9-1.7,5.4-3.4,7.7-0.8c2.2,2.5-0.3,5.1,7.1,3.4c7.4-1.7,0.5-4,8.7-7
				c8.2-3,12.5-2.3,9.5-5.2c-3-2.9-7.9-5.5-2.4-4.6c5.4,0.9,12.3,3.5,16.1,3.4c3.8-0.3,7.7-4.3,5.7,1.2c-2.1,5.5-9.1,2.1-7.4,8.9
				c1.8,6.8,4.9,10.6,7,9.5c2.1-1,7.5-1.2,7.3,0C706.2,572.5,705.7,573.7,705.7,573.7z"/>
			<path class="st1" d="M648.8,338c-0.1,0-1.6,0.9-0.5,1.3c1.1,0.4,1.8,0.7,1.8,0c0-0.7-0.7-1.3-0.8-1.3
				C649.1,338,648.8,338,648.8,338z"/>
			<path class="st1" d="M651.1,337.7c-0.3,0.4-0.1,1,0.3,1s0.7-0.8,0.5-0.9c-0.1-0.1-0.5-0.1-0.5-0.1H651.1z"/>
			<path class="st1" d="M1197.2,156.8c1.7,0.9,4.9,4.2,5.5,6.9c0.7,2.7-7.9,3.8-9.1,7.4c-1.2,3.5,2.3,5.6,0,8.7
				c-2.2,3.3-4.3,4.3-7.4,3.7c-3-0.7-7.8-3.8-11.5-4.8c-3.7-1,3.7,1,5,2.7c1.3,1.7-2.6,4.4,0,5.4c2.6,0.9,1.4,5,5.2,12.3
				c3.7,7.3,3.8,4.3-0.4,7c-4.2,2.7-4.3,0.8-6.2-1c-1.9-1.8,2.1-5-5.8-5c-7.9,0.1-7,3.1-7.8-3.1c-0.9-6.3,3.6-4.3,6.9-8.7
				c3.3-4.4,2.9-2.2-1.6-1.7s-3.4,3-9.1,7.8c-5.7,4.8-5.5,3.7-11.1,4c-5.5,0.4-4.1,2.7-4.6,5.2c-0.5,2.5-5,2.7-12.5,4.4
				c-7.5,1.7-2.5,8.2-3.8,11.1c-1.3,2.9-4.6,1.6-8.7,6.3c-4,4.8,3,5.9,4,7.8c0.9,2,1,5.4,1.3,8.4c0.3,3,3.7,0.7,8.7-2.3
				c5-3,3.8,2.6,5.7,9.3c2,6.7,4.2,4.6,14.7,5.4c10.4,0.8,6.2,2.5,9.1,5.4c2.9,2.9-1.1,3.4-6.5,9.8c-5.4,6.4,2.9,7,9.9,9.1
				c7,2.1,1.7-3.4,2.1-11.5c0.4-8.1,4-4.4,9.2-7c5.3-2.6,5-0.9,8.8-5.7c3.8-4.8-5.2-6.5-7.3-11.9c-2.1-5.4,4.5-4.4,7.8-10.3
				c3.3-5.9,5.7-6.3,4.8-12.7c-0.9-6.4,0.5-3,6.2-5.7c5.7-2.7,5.9-1.6,8.6-1.3c2.8,0.4,5,8.7,9.8,9.8c4.8,1,3.6,1.4,6.9,2.7
				c3.3,1.3,0,3.5-3.3,9.8c-3.3,6.3,0.5,3.9,1.3,6.1c0.8,2.2,4.6-0.7,10-5.5c5.3-4.8,2.4-2.9,6.5-4.7c4.1-1.8,1.1,3.9,3.7,7.7
				c2.6,3.7,2.6,11.1,2.6,11.1s-2.6,5.4-1.4,7.8c1.2,2.6,7,3.9,8.8,5.5s0,5,5.7,8.2c5.7,3.3,4.9,3.3,6.6,5.2c1.7,2-3.2,6-7.7,5.2
				s-3.2,3.5-7,7.4c-3.8,3.9-7.9,0.1-10,0c-2.1-0.1-4.8,1.4-15.8,0c-11.1-1.4-4-1.7-7.9-1.2c-4,0.5-3.3,6-9.1,8.4
				c-5.8,2.3-2.2,1.6-8.1,3c-5.8,1.4,2.6,2.1,11.6-2.2s7.3-2.1,12.3-1c5,1,0.8,3.5-0.3,5.7c-1.1,2.2-1.6,3.1,4.4,9.4
				c5.9,6.3,9.2-4.3,11.1-4.3s2.4,6.8-3.6,11.2c-5.9,4.4-10.8,1.3-11.9,3c-1.1,1.7-7,2.9-10.4-0.5c-3.4-3.4,0.7-2.6,4.1-5
				c3.4-2.3-1.7-3.5-4.9-1.6c-3,2.1-7.5,2.7-14.8,3.9c-7.3,1.2-2.1,6.9-2.2,9.8c-0.1,2.9-2.9,2.2-9.5,2.9c-6.6,0.7-6.7,3-5.4,5.2
				c1.3,2.2-3.6,8.7-9.1,12.8c-5.5,4-4.8-2.1-5.8,3.5c-1.1,5.6,0.4,4.8,0.4,8.1c0,3.3-2.2,5-7,4.7c-4.8-0.4-4.5,2.9-7.9,5.4
				c-3.4,2.5-7,3.8-12.7,6.4c-5.7,2.6,0.9,13.4,3,20c2.3,6.5,0.8,4.3-0.9,7.7s-3.2,0.3-7.5-6.3c-4.4-6.5-1.6-3.5-1.6-11.1
				c0-7.6-3.6-4.8-4.5-5.2c-0.9-0.4-8.4,1.3-15.1,0c-6.7-1.3-8.3,2.2-8.4,2.7s-3.6,3.5-8.2,2.6c-4.6-0.9-3.7-2.2-8.6-1.7
				c-4.9,0.5-8.4,3.3-11,2.9c-2.6-0.4-5,1-9.8,6c-4.9,5,1.1,10.2-0.5,11.9c-1.6,1.7-3.4,5.1-2.1,11.9c1.3,6.8,3.3,3.5,4.4,7.4
				c1.2,3.9,4.3,5.6,8.2,7.4c3.8,2,4.6-0.3,8.8-0.7c4.2-0.3,4.9,1.8,7.5,0.8c2.6-1,2.3-3.5,3.6-8.1c1.3-4.6,3-3,5.8-5.9
				c2.8-2.9,6.1,0.8,10.2,1.2c4.1,0.5-0.9-0.1-2.8,1.8c-1.9,2,0.7,7.7-3.3,9.3s-1.8,6.1-4.1,9c-2.2,2.9,1.7,3.5,7.9,2.9
				c6.2-0.5,9.1,0.1,12.4,0.8c3.3,0.7,1.6,3.5,0,5.6c-1.6,2.1-0.1,3.8-1.7,8.9c-1.7,5.2,6.2,11.5,12.7,10.7c6.6-0.8,9.5-0.3,10.7,0
				c1.2,0.3,3.4,2,6.2,3.8c2.8,1.8-2.1-3.1,4.4-8.4c6.5-5.1,4.4-1.8,7.1-2.9c2.8-1,3.8-1,10.3-3.8c6.5-2.7,4.4-0.9,4.9,0.7
				c0.5,1.6-1.1,0.9-3.6,1.8c-2.5,0.9,2.6,1.8,6.7,0c4-1.8,2.4-2.7,4.6-2.5c2.4,0.3,3.4,2.9,3.2,5.4c-0.3,2.5,1.7,0.9,10.2,0
				c8.4-0.9,2.6,1.2,6.3,0c3.7-1.2,1.2-3,2.9-4c1.7-1,3,2.5,7.5,3s0.5,2-0.3,3.5c-0.8,1.6,2.9,2.6,7.1,3.4c4.1,0.8,6.5,4.2,10.3,8.4
				c3.8,4.2,10.2,1.8,15.6,2.1c5.3,0.4,9.2,1.6,12.5,5.6c3.3,4.2,2.8,8.1,5.4,10.7c2.6,2.6,3.3,4.2,2.4,7.6c-0.9,3.4-8.4,3.1-5,6.1
				c3.4,3,2.1-3,6.1-3c4-0.1,1.2,4,7.7,3.5c6.3-0.5,2.8-0.5,11.1,0c8.4,0.5,3.3,4.4,8.3,5.6c5,1.2,9.5,0.7,18.8,0.8
				c9.2,0.1,5.9,6.1,9.4,8.4c3.4,2.2,5.2,0.7,9.2,3.3c4.1,2.6,2.1,9.1,1.6,10.8c-0.5,1.7-6.3,5.5-9.5,8.1c-3.2,2.7-3.3,5.5-7.7,5.7
				c-4.3,0.4-0.8,9.8-0.1,14.7c0.7,5-0.7,5.6-4,8c-3.2,2.5-0.9,3.4-3.8,8.4c-2.9,4.8-1.8,7.7-8.3,10c-6.5,2.3-6.5,0.4-10.6,0.8
				c-4.1,0.3-4.1,2.2-9.1,4.3c-5,2.1-3.3,8.6-0.7,14.1c2.6,5.5-3.3,4.6-6.3,9.1c-3,4.6-3.7,2.1-9.1,3.4c-5.4,1.3-1.4,11-2,13.6
				c-0.5,2.6-2.9,5.1-13.3,3c-10.4-2.1-7.8,0.5-7.8,0.5s2.1,1.8,2.5,3.9c0.4,2.1,2.8,6,6.1,8.4c3.3,2.3-6.7,6.9-9.6,8.1
				c-3,1-5.5,1.4-12.4,1.2c-6.9-0.3,0.1,4.8-1.1,8.5c-1,3.7-6.2-0.9-12.3-1.7c-6.2-0.8-1.8,2.6,6.1,5.4c7.9,2.9,0.3,3-0.7,3.4
				c-0.9,0.4-2.8,10.4-8.1,11.2c-5.3,0.7-5.7,7.2,1.6,12.9c7.4,5.7,5,3.3,5,6.1c0,2.9-2.8,7.6-8.2,11.9c-5.4,4.3-0.4,4.7-5,9.7
				c-4.6,5,2.3,4.7,10.2,5.9c7.8,1.2,8.6,3.9,11.2,9.8s-2.4,6-12.9,2.5c-10.6-3.7-6.7-1.7-12.9-2.5c-6.2-0.8-5.3-8.5-7.8-15.7
				c-2.5-7.2-4-0.8-6.3-0.1c-2.4,0.7-1.1-2.1-0.3-11.7c0.8-9.7-1.7-7.7-8.8-14.2c-7.1-6.5,4.4-7,4.9-11.2c0.5-4.2,6.1-7.3,8.4-11.9
				c2.4-4.6-6.6-2.1-4.5-1c2.1,1.2-3.2,5.4-8.4,1.3c-5.3-4,0.8-5.4,1.6-9.8c0.8-4.4-4.4-8.5-4.4-16.1c0-7.7,6.7-7.7,8.2-11.9
				c1.4-4.2-4.5-8.1-5-12.8c-0.5-4.7,2-12.5,5.9-20.4c4-7.8,0.8-5.9-0.8-13.3c-1.7-7.4-3.7-4-3.7-9.7s1.6-4.6,2.8-8.7
				c1.2-4.2-3.6-6-13.9-8.9c-10.3-3-12.1-7.4-12.9-9.7c-0.8-2.2-3.4-4-5-10.6c-1.6-6.5-4.9-4.2-9-7.3c-4.1-3.1-2.1-6.5-4.3-10.6
				c-2.3-4-3.6-1.4-4.1-3.1c-0.4-1.8-2-1.4-3.7-4.3c-1.7-2.9,0.9-3.3,3.3-5.7c2.4-2.5,4-2.1,3.3-3.8c-0.8-1.7-3.7,1.4-4.6-0.8
				c-0.9-2.2,0.7-3.8,1.2-6.1c0.7-2.5,3.3-3.5,4.8-8.5c1.5-5,2.6-3.8,7.5-7c4.9-3.3,3.4-2.6,3-3.5c-0.5-0.9-1.1-2.2,0-5
				c1.1-2.7-6.1-13.7-8.9-14.5c-2.8-0.8-3,3-2.8,3.9c0.3,0.9-1.1,3-4.2,1.8c-3.2-1.2-3.2-2.6-6.1-3.4c-2.8-0.8-3.7,1.6-5.8,0.5
				c-2.1-1-0.4-2.5-1.8-4.3c-1.5-1.8-4.1-1-5-1.4c-0.9-0.4-1.7-0.7-2.1-2.3c-0.4-1.7-0.8-3.7-2.1-5.5c-1.3-1.8-4.2-5.4-4.2-5.4
				c-5.8-7.6-9.9-1.6-19.9-5.9c-10-4.2-4.5-3.9-10.8-6.1c-6.3-2.1-5,2.9-14.3,1.3c-9.2-1.6-4.1-2.5-6.3-3.5
				c-2.3-1-12.6-2.1-15.7-5.4c-3-3.4-6.5-5.1-9.9-9.7c-3.4-4.6,0.1-3,1.2-6.4c1.2-3.4-7.3-10.8-9.2-13.1c-2-2.2-4.2-3.7-5.8-8.9
				c-1.5-5.2-4.4-4.4-5.4-4.7c-1.1-0.3-5.1-8.6-6.5-12.9c-1.3-4.3-1.6-3.8-5.1-5.2c-3.6-1.6,2.5,12.1,4.6,15.3
				c2.1,3.1,2.4,4.8,4,6.7c1.6,1.8,1.7,5.2,3.3,8.7c1.6,3.5,3.7,5.2,5,8.1c1.2,2.9-2.4,0.4-5.5-2.5c-3.2-2.9-4.1-3.5-6.2-5.6
				c-2.1-2.1,0-2.1,0-6.1c0-4-6.7-0.5-10-3.3c-3.3-2.7,0.1-3.3,4.4-3.7c4.1-0.4-3.8-7.7-4.9-8.5c-1.1-0.8-1.6-2.3-4.8-11.4
				c-3.2-9-3.4-5.7-10.4-12.1c-7-6.3-2.8-0.8-5.5-6.1c-2.8-5.4-0.9-5.6-2.9-10.2c-2-4.6-3.2-5-3.7-11.7c-0.5-6.8,2.6-4.3,2.2-11.1
				c-0.4-6.8,4.4-16.6,7.1-20.6c2.9-4.2,0.3-6.9,2.6-14.4c2.4-7.4,3.2,1.4,10.4,0c7.3-1.4,2.4-3,1.3-5.7c-1.1-2.7-4,4.3-11.6-0.3
				c-7.7-4.6-4.5-2-8.6-7c-4.1-5.1,0.5-3.4,4.5-3.1c4,0.3,10.6,8.2,11.1,4.6c0.4-3.7-3.8-4.6-8.4-6.4s-2.6-4.4-2-8.4
				c0.7-3.9-0.9-1.7-2.8-6.7c-1.8-4.8,2.1-2.9,2.8-3.5c0.7-0.7-3.8,2.9-8.2,0.1c-4.2-2.7,1.2-1.7,3.2-1.4c2,0.4-1.1-0.4,0.1-4.2
				c1.2-3.8,2.9-3.9,0.9-5.1c-2-1.2-5.1,2.2-6.9-5.2c-1.7-7.4,2.2-1.4,4.9-2.6c2.6-1.2,0-2.3,1.5-6.4c1.5-4,1.1-4.6-0.5-6
				c-1.7-1.3-4.2,6.8-5.4,9.7c-1.2,2.9-3.8,2.6-4.5-3.8c-0.7-6.4-1.7-5.1,2-10c3.7-5,4-0.9,4.2-3.8c0.1-2.9-2.2-0.5-4,0.1
				c-1.7,0.7-4.2-0.5-5.3-5.4c-1.1-5-7.9-7.3-8.7-7.8c-0.8-0.5-6.5-4.6-10-6.7c-3.6-2.1-5.8-2.9-7.9-6.9c-2.1-3.9-3.6,1.2-2.4,1.3
				c1.2,0.1-1.6,6.3-6.3,4.3c-4.8-2-3.6-0.7-6.2,2.5c-2.6,3.1-10.2,6.1-11.6,3.9c-1.6-2.2,5.8-2,7.9-9c2.1-7,5.3-3,10.8-4.6
				c5.5-1.6,2.1-5.1-2.9-5.6c-5-0.5-7.7,8-15.7,8.2c-8.1,0.3-4.2,4.4-6.1,8.7c-2,4.2-5.9,6.9-7.8,7.2c-1.8,0.3-4.4,0.8-6.2,3.1
				c-1.8,2.3-4.9,3.5-8.1,3.7c-3.2,0.1-5,2-7.3,3.1c-2.2,1.2-4.9,3.7-11,4c-6.1,0.4-1.2,0.3-4.9-0.4c-3.7-0.7-5.1,3-13.6,5.7
				c-8.4,2.7-3.2-0.5-3.3-2.7c-0.1-2.2,2.6-0.7,5.1-1c2.5-0.4,3.6-0.5,7.9-4c4.4-3.5,2.8-0.5,7.4-1c4.6-0.5,1.8-0.4,6.6-3.5
				c4.8-3.1,8.1-3.9,12.4-6.8c4.4-2.9,1.8-2.1,3.4-6.5c1.6-4.4,3.4-1.7,3.6-2.3c0.1-0.7-2.2-1-4.8,0.3c0,0-2.8,0.3-3.6-1.3
				c-0.8-1.6-4.8,2.3-8.2,1.3c-3.4-1-0.8-2.2,5.7-9.3c6.5-7-0.8-3.4-2.9-2.6c-2.2,0.9-4.9-1.3-7.7-4.7c-2.8-3.4,1.1-5.1,0.1-8.2
				c-0.9-3.1,3.4-1.7,3.7-4.4c0.3-2.9,2.1-3.9,4.1-8.7c2.1-4.7,5.4-2,11.1-5.4c5.7-3.4,4.6-0.3,5.8,0.9c1.1,1.2,5.3,1.7,8.4-2.6
				c3-4.2,3.8-1.7,7.9-5.1c4.1-3.4-2-1.6-5.4-0.5c-3.4,1-5,2.2-11-1.4c-5.8-3.7-5.5,0.1-8.3-3.5c-2.9-3.5,0.9-3.1,4.5-6.1
				c3.6-3-2.6-2-3.7-4c-1.2-2.2,2-1.7,5.1-3.3c3.2-1.7,4.2,0.5,8.7-1.2c4.5-1.7,2.6-1,5.8-2.3c3.2-1.3,3.2,1.7,2.5,3.7
				c-0.7,2-2.5,3.9,2.2,5.7c4.8,1.8,12.4-1.4,11.9-3.1c-0.5-1.7-7-3.3-10.7-8c-3.7-4.7,3.2-3.4,1.5-8.4c-1.8-5-2-5.6,0-11.7
				c2-6.1,0,0,3.6,0.1c3.6,0.1,6.6-2.7,10.3-6c3.6-3.3,6.7-0.9,18.5-4.6c11.8-3.7,3.2-1,8.4-1.2c5.1-0.1,6.2-1.8,13.9-2.6
				c7.7-0.8,1.6,3.5,5.9,5.9c4.4,2.3,2.9,1.7,4.9,2.3c2,0.7,1.8,6.8,9.9,9.8c8.1,3,4.1,1.7,13.5,7.8c9.2,6.1,9,7.2,15,9.5
				c6.1,2.3,3.7,5.7,8.4,6.3c4.6,0.5,8.1-1.8,17.2,0c9.1,1.8-2.3,3,5.9-5c8.2-8,4.2-2.3,5.5-0.5c1.3,1.8,1.6,6.7,4.4,13.4
				c2.8,6.8,2.8-0.8,11.6-4.7c8.8-3.9,2.8,3.4,7.1,9.7c4.2,6.3,12.1,1.2,19.5,3.5c7.4,2.4-1.9,4.6-10.2,6.1
				c-8.3,1.6,1.8,6.7,6.9,5.7c5-0.9,9.2,0,11.3,2.7c2.1,2.7,3.4,7,8.2,6.9c4.6-0.1,6.7-2.9,4.9-6.9c-1.9-4-2.5-3.1,1.7-8.5
				c4.2-5.4,5.4,2.6,6.9,7.3c1.4,4.7,5.7-0.1,7.9,5.2c2.3,5.4,6.7,3.7,14.3,0.1c7.5-3.5,1.3-4.6,3.3-9.4c2-4.8,9,7.4,1.6,15.4
				c-7.5,8.1,3.6,3.7,9,1.2c5.4-2.5,4.2-5.5,1.6-10.8c-0.9-1.8-1.5-3.1-1.6-4.3c-0.3-2.3,1.1-3.9,4-7.4c4.4-5.2,4-6.9,1.6-12.1
				c-2.4-5.2,0.4-8.5,6.3-15.5c5.9-7,9.3-4.4,19.3-5.9c9.9-1.4,5.3,5.5,5,7.4c-0.3,2-6.5,3.9-18.9,5.2c-12.4,1.3-2.8,5.5-1.2,9.5
				c1.6,4,1.3,7.3-3.2,14.7c-4.5,7.4,1.8,3.9,3.4,6c1.6,2.1-1.9,2.3,0.9,6.9c2.8,4.6,1.8-3,4.5-3.5s2,5.9,0.5,8.7
				c-1.4,2.9-2.8,3.8-2.6,7c0,3.1,3,1.4,3.6-3c0.5-4.4-0.9-1.3,2.5-4c3.4-2.7,0.9,1,1.4,1.3s6.3-2.3,6.9-6c0.5-3.7,1.1-4.3,4.2-6.3
				C1190,156.3,1195,155.5,1197.2,156.8z"/>
			<path class="st1" d="M1197.2,130.3c0.7-0.4,17.3-7.7,11-8.9c-6.3-1.2-10.7-0.3-12.8,1.8c-2.1,2.1-5.3,5.5-7.3,8.1
				c-2.1,2.6-8.4,3.9-8.2,6.9c0.3,3,2.8,4,4.2,6c1.5,2-1.1-1.3-3.4,1.8c-2.4,3.1-5.7,2.3-1.6,5.1c4,2.7,10.7,4,11.8,3.9
				c1.1-0.1,4.1-3.3,6.5-1.6c2.4,1.6,4.4,5.5,5.9,5.5c1.4,0,5.6,5.2,7.8,2.2s1.2-6.9,2-7.6c0.7-0.7,2.4-4.7,3-0.1
				c0.7,4.6-0.7,5.2,1.6,8.7c2.1,3.4,1.6,4.6,0.7,6c-0.9,1.4,0.3,1.2,4.6,4c4.4,3,6.1,3.3,5.7,6.3c-0.4,2.9-0.8,3.8-4.1,6.5
				c-3.3,2.6-9.1,0.3-10.3,4.2c-1.2,3.9-4.9,4.6-7.7,4.2c-2.8-0.4-4.2-1.2-5.7,1.7c-1.5,2.9-2.7,8.7,2.5,8.4
				c5.2-0.5,8.1-4.6,11.5-1.7c3.4,3,2.9,4,5.8,8.9c2.8,4.8,0.7,2,7.8,7.2c7.1,5.2,11.5,1,8.2-1c-3.4-2.1-12.1-10.2-7.8-10.3
				c4.4-0.1,5.8,1.3,10.2,5.6c4.4,4.3,10.3,7.2,10,3.1c-0.3-4,3.7-2.5-3-9.8c-6.7-7.2-9.5-14.5-4.9-14.2c4.6,0.3,6.3-5.2,8.8,1.8
				c2.5,7,3,10.3,5.7,6.9c2.6-3.4-1.2-3.3,5.3-5.7c6.3-2.5,7.8-5.2,2.1-7.7c-5.7-2.5-9.4-2.2-11.4-5.5c-2-3.4-3-3.7-4.2-8.4
				c-1.2-4.7-2.9-6,1.7-6.1c4.6-0.1,5.8-4.6,2.8-6.1c-2.9-1.4-4.2-4-11.5-12.7c-7.3-8.6-0.7-12.8-8.6-11c-7.9,1.7-11.1,4.8-13.5,2.1
				c-2.4-2.7-1.6-6-0.3-9.7c1.3-3.7,5.5-7.2,0-5.7c-5.6,1.4-8.6-2.3-11.4,6.4c-2.8,8.9-4.8,15.1-7.4,13.8c-2.8-1.4-4-3-4-6.4
				C1195.5,134,1197.2,130.3,1197.2,130.3z"/>
			<path class="st1" d="M1151.8,120.3c-0.4-0.7-3-3.4-4.2-2.7c-1.2,0.7-2.9-0.3-1.6,4.7c1.5,5-0.3,5.6,1.9,8.1
				c2.1,2.5,5,2.3,5.9-2.1c0.9-4.4-3.7-5.5,1.2-8.1c4.9-2.6,3.7-4.2,8.6-6.4c4.9-2.2,8.1-5.7,4.1-6.4c-4-0.7-8.3-5.9-12,0
				c-3.7,5.9-3.7,8.9-4.1,10.2C1151,118.8,1151.8,120.3,1151.8,120.3z"/>
			<path class="st1" d="M1082.6,113.4c-6.7,2.6-7.8,5.5-10.3,4.2c-2.6-1.3-2.5-0.7-5.3-2.7c-2.9-2.2-6.6-6.5,0-7.4
				c6.6-0.9,8.6,1.3,8.8-4.4c0.3-5.7,0.1-9.8,3.7-10.2c3.6-0.4-1.2-4.2,8-4.6c9.2-0.4,15.8-2.7,17.8,3c2,5.7-0.1,7.4,2.6,9.9
				c2.8,2.5,5.1-2.5,2.9,4.7c-2.2,7.3-0.5,11.6,2.6,9.9c3-1.7,4.8,0.5,9.8-1.3c5-1.7,1.7,2.7-0.3,4.7c-2,2-5,6.1-1.7,6.5
				c3.3,0.4,6.6-3.8,8-7.4c1.6-3.7,1.3-9.8,3.6-8c2.2,1.8,5.5-0.4,5.4-1.8s5-6.5,5.1-1.3c0.1,5.2,0.8,6-3.7,9.4
				c-4.5,3.4-4.1,6.7-5.9,10c-1.8,3.4-5,1.3-4.4,6c0.7,4.7,4.6,4.3,4.8,9.1c0.1,4.8-6.1,1.6-7.9,5c-2,3.4-0.9,6.1-4.1,5.1
				c-3.2-1-2.9-6.1-5.5-7.6c-2.6-1.4-5.4-8.1-11.8-2.1c-6.3,6-12.9,7.8-14.5,2.7c-1.6-5.1-1.1-11.2-8.8-10.8
				c-7.8,0.4-12.1-11.7,1.3-7.4c13.5,4.3,15.3,11.6,20.6,8c5.3-3.7,14.8-8.2,2.1-9.9c-12.7-1.7-19.3,5.6-19.3-3s1.1-8.6,7.3-8.9
				c6.2-0.3,12.1-5.4,10.7-7c-1.4-1.7-0.3-5.6-8.6-0.7C1087.3,110.4,1082.6,113.4,1082.6,113.4z"/>
			<path class="st1" d="M1107.3,68.1c-2,1.8-2.6,7.7,0,6.7s5.3-8.1,5.8,1.3c0.5,9.4,0.4,9.4,2.9,10c2.5,0.7,1.6,0.5,5.1,2.7
				c3.6,2.2,9-0.3,6.9,1.7c-2.1,2-10.3-2.7-9.9,2.3c0.4,5.1,3.8,7.3,9.2,5.9c5.5-1.4,10.8-6.4,14.7-3.8c3.8,2.6,5.9,5.7,9.1,2.2
				c3.3-3.5,2.9-11.7,8.6-6c5.7,5.7,7.5,8.1,11.2,10c3.7,2,7.1-6.3,13.2,0.9c6.1,7.2,7.3,2.9,16.1,7.8c8.9,5,6.5,7,14.9,6.8
				c8.3-0.1,9.9-2.3,12.8-4.6c2.9-2.2,2.9-5.6,1.9-7.7c-1.1-2.1-8.3-6.5,5-6.4c13.3,0.1,17.7-1.8,16.6-5.6c-0.9-3.8-8.7-5.9,0.1-7.8
				c8.9-2,17.3-2.7,18.1-5.1c0.8-2.3-7-4.7-1.7-6.5c5.2-1.8,4.9,0.4,11-3.3c6.2-3.8-5-8.4,11.2-10.2c16.2-1.8,22.1-2.7,21-5.7
				c-1.1-3-17.9-2.7-3.4-3.9c14.5-1.2,21.4-3.4,20.9-4.3c-0.5-0.9,1.3-2.2-1.7-5.2c-3-3,0-5.6-4.5-6.9s-11.5,0.5-12.9,0
				c-1.3-0.5,4.5-5.7-8.1-7c-12.5-1.2-14.8-0.9-19.3-2.5c-4.5-1.6-15.4-4.8-21.6,1.2c-6.2,6-11.2,2.3-15.2,6.9c-4,4.6-8.3,7-3.6,12
				s15.7,5.7,21.9,6.7c6.2,0.9,17.7-0.5,11.1,4.2c-6.6,4.8-12.4,4.4-18.9,3.9c-6.6-0.5-9.1-5.5-14-4.8c-4.9,0.7-8.8-6-7.9-10.2
				s6.9-10,0.4-8.9c-6.6,1.2-9.3,2.2-12.9,8.9c-3.7,6.7-16.6,2.6-13.3,11.9c3.3,9.1,6.1,12.3,0.5,15.8c-5.5,3.5-7.4-1.6-11.8-7.8
				c-4.3-6.3-9.4-7-10-8.1c-0.7-1,6.2-12.8-5.6-4.7c-11.8,8.1-18.9,8.2-21.4,6.3c-2.5-2-4.4-5.9-11.8-0.7
				c-7.4,5.1-7.8,10.8-13.6,7.3c-5.8-3.5-5.5-10.2-10.7-4.7c-5.2,5.5-6.9,6-9.8,7C1111.1,67.2,1107.3,68.1,1107.3,68.1z"/>
			<path class="st1" d="M1300.1,70.4c0,0,3.8,3.1,0.5,4.3c-3.3,1.2-1.5-3.5-4.5,1.3c-3,4.8-3.2,4.2-8.1,3.8
				c-4.9-0.4-4.4-2.2-9.5,1.8s-9.1,0.8-10.7,3.5c-1.6,2.9-5.8,2.1,0,6c5.8,3.9,3,4,8,4s9.2-0.7,8.7,0.8c-0.5,1.4-7.8,1-11.3,1
				c-3.7,0-5-2.7-5.2,2.2s2.6-2,0.9,6.3c-1.7,8.2-6.6,7.3,1.2,8.4c7.8,1,1.2-6.7,10-4.4c8.8,2.2,9.8,4.8,11.5,5.5
				c1.7,0.7,3.4-3.3,5.7,1.7c2.2,5,1.8,5.4,2.2,10.8c0.3,5.4,5.2,7,3.3,10.6c-1.8,3.5-5,0.9-5.4,6.4c-0.4,5.5,1.6,4.4,0.5,8.5
				c-1.1,4-5.7,8.9,0,6.1c5.7-2.6,6.6-8.9,8-3.9c1.5,5,3.3,6.3,1.3,7.2c-2,0.9,2.4,2-1.3,1.2c-3.7-0.7-5.3-1.7-7.3-1.6
				c-2,0.1-3.7,2.5-3.2,3.7c0.5,1.2-1.7,0.1-2.4,2.9c-0.7,2.7-0.7,3,0.9,4.8c1.6,1.8,6.3,1.4,7.8,0.7s-4.8-5.6-0.9-6.3
				c3.8-0.7,5.8,2,7.3,2.6c1.5,0.7,0.7,0.4-0.9,4.4c-1.6,4-3.8,6.7-6.6,5.9c-2.8-0.8-5.5-4-5.5-0.3c0,3.8-1.3,5.6-2.1,8.6
				c-0.7,3,3,1.7,0.9,4.6s-5.8,2.5-3.3,7.6s2.6,4.6,3.3,7.2c0.7,2.6,3.8-0.8,4-0.8s1.4,1.2-0.7,2.9c-2.1,1.6-4.5,1.4-2.6,4.7
				c1.8,3.3,6.1,4.3,5,6.8c-1.1,2.5-4.1,0.1-2.1,5s-0.8,6.3,3.7,6.5s6.3-5.5,8.6-2.2c2.1,3.3,0.9,5.9,3.7,6.5
				c2.8,0.7,3.7,2.2,7.1-2.5c3.4-4.7,3.6-5.9,5-8.7c1.6-2.7-5.5-0.7,0-5.4c5.6-4.8,8.6-3.1,9.5-6.1c0.9-3-1.5-4,0.8-7.3
				c2.3-3.3,1.8-3.4,7.8-3.9c5.9-0.5,10-1,12.4-3c2.4-2,9.8-4.7,10.8-7.2c1.1-2.6-0.1-6.5,6.7-5.5c6.9,1,7.3,2.6,10.7,0.4
				c3.4-2.2,1.2-6.9,10-7.2c8.8-0.1,14.9-3.8,11.8-5.1c-3.2-1.3-8.6-0.5-11.8-2c-3.2-1.4-4.4-5.4-0.5-6.1c3.8-0.8,2.9-0.8,6.2,1.8
				c3.3,2.6,10.3,5.9,10.8,2.9c0.5-3,3.4-8.5-2.8-9.9c-6.2-1.4-7.3-5.9-7.9-8.1c-0.7-2.2-2-11.2-0.7-6.1c1.3,5.1,8.5,11.9,8.9,8.1
				c0.3-3.7-7-4.6,1.6-7.8c8.6-3.3,12.6-2.1,14.5-8c2-5.9,2.2-6.7-0.9-10.6c-3.2-3.9-10.6-9.9-6.6-13.3c4-3.4,10.2-5.2,9-10
				c-1.2-4.8-1.4-9.9,1.2-13.2s7.9-3.5,7.3-9.5c-0.7-6-2.3-9.5,4-10.4c6.2-0.9,10.4-0.8,9.6-4.4c-0.8-3.7-2.5-6.7-7.9-5.6
				c-5.5,1-4.9-0.5-12.3,4.2c-7.4,4.7-14.9,5.4-14.1,3.4c0.8-2,7-3.7,6.7-7.2c-0.3-3.5,4.5-6-8.7-5.2c-13.2,0.8-23,2-15.8-0.1
				c7-2.1,5-2.5,12.9-3c7.9-0.5,20.6,2.3,21.7,0c1.1-2.3,4.1-5.4-4.9-6.8c-9-1.4-12.1-1.8-12.7-3.8c-0.5-2-3.8-3.5-9.2-3.5
				c-5.6,0-0.9-2,0.1-3.3c1.1-1.3,1.6-4.8-6.3-4.6c-7.9,0.3-8.6-0.9-12.9,3c-4.3,3.9-9.6,2.3-14.5,4.2c-4.9,1.8-7.9-6.7-8.2,7.2
				c-0.3,13.8-1.7,18.1-3.4,14.7c-1.7-3.4,0.4-7-7.3-8.2c-7.8-1.2-9.8-6.5-12.9-7.7c-3.2-1.2,2,3.8-2.7,4.2
				c-4.6,0.4-9.2-4.4-13.2-0.1c-4,4.3-9.2,7.3-10.2,7.2c-0.8-0.1-2.8,5.5-6.2,5.6c-3.4,0.1-8.3,0.3-9.4,2.2
				C1295.7,68.1,1297,70,1300.1,70.4z"/>
		</g>
	</g>
</g>
<g id="c_x5F_ame">
	<ellipse id="point_8_" class="st2" cx="1005.1" cy="338.9" rx="10" ry="9.9"/>
	<ellipse id="gCircle_8_" class="st3" cx="1005.1" cy="338.9" rx="40" ry="40.6"/>
	<ellipse id="wCircle_8_" class="st4" cx="1005.1" cy="338.9" rx="30" ry="30.4"/>
	<path id="font_8_" d="M998.1,342.8h-8v-11.3h8V342.8z M991.5,341.6h5v-8.8h-5V341.6z M1003.3,347.2h-1.5v-17.4h1.5V347.2z
		 M1020.1,332c0,0.9,0,1.7-0.1,2.5c0,0.7-0.2,1.6-0.4,2.5h2.5v1.3h-7.2v3.2h5.3v5.9h-1.5v-4.6h-10.7v-1.3h5.5v-3.2h-7.1v-1.3h11.8
		c0.2-0.9,0.3-1.8,0.4-2.5c0.1-0.7,0.1-1.5,0.1-2.4h-10.3v-1.3h11.8V332z"/>
</g>
<g id="c_x5F_sin">
	<ellipse id="point_7_" class="st2" cx="554.5" cy="515.3" rx="10" ry="9.9"/>
	<ellipse id="gCircle_7_" class="st3" cx="554.5" cy="515.3" rx="40" ry="40.6"/>
	<ellipse id="wCircle_7_" class="st4" cx="554.5" cy="515.3" rx="30" ry="30.4"/>
	<path id="font_7_" d="M543.6,516.7h-1.5v-10.4h1.5V516.7z M537.8,517.1c1.2,0,2.2,0.1,3.1,0.4c0.9,0.3,1.6,0.6,2,1.1
		c0.5,0.5,0.7,1.1,0.7,1.8c0,0.7-0.2,1.3-0.7,1.7c-0.5,0.5-1.1,0.9-2,1.1c-0.9,0.3-1.9,0.4-3.1,0.4c-1.2,0-2.3-0.1-3.1-0.4
		c-0.9-0.3-1.6-0.6-2-1.1c-0.5-0.5-0.7-1.1-0.7-1.7c0-0.7,0.2-1.3,0.7-1.8c0.5-0.5,1.1-0.9,2-1.1
		C535.6,517.2,536.6,517.1,537.8,517.1z M537.8,518.3c-0.9,0-1.7,0.1-2.3,0.3c-0.7,0.2-1.2,0.4-1.5,0.7c-0.3,0.3-0.5,0.7-0.5,1.1
		c0,0.4,0.2,0.8,0.5,1.1c0.4,0.3,0.9,0.5,1.5,0.7c0.7,0.2,1.4,0.2,2.3,0.2c0.9,0,1.7-0.1,2.3-0.2c0.7-0.2,1.2-0.4,1.5-0.7
		c0.4-0.3,0.5-0.7,0.5-1.1c0-0.4-0.2-0.8-0.5-1.1c-0.3-0.3-0.8-0.5-1.5-0.7S538.7,518.3,537.8,518.3z M535.4,508.8
		c0,0.8,0.2,1.6,0.5,2.3c0.4,0.7,0.9,1.4,1.6,2c0.7,0.6,1.4,1,2.3,1.3l-0.8,1.2c-1-0.4-1.9-0.9-2.7-1.6c-0.8-0.7-1.3-1.5-1.7-2.5
		c-0.4,1-1,2-1.7,2.8c-0.8,0.8-1.7,1.4-2.7,1.8l-0.8-1.2c0.9-0.3,1.6-0.8,2.3-1.4c0.7-0.6,1.2-1.3,1.6-2.1c0.4-0.8,0.6-1.6,0.6-2.5
		v-1.7h1.6V508.8z M560,513.4h2.8v1.3H560v9h-1.5v-17.4h1.5V513.4z M555.5,508.2c0,2.6-0.6,4.9-1.9,7c-1.3,2.1-3.3,3.8-6,5.2
		l-0.9-1.2c2.2-1.1,4-2.5,5.2-4.1c1.2-1.6,1.9-3.5,2.1-5.6h-6.5v-1.3H555.5z M578.1,508h-2.7v3.4h2.6v1.2h-5.6v1.7h7.2v1.2h-15.8
		v-1.2h7.1v-1.7h-5.6v-1.2h2.6V508h-2.7v-1.2h12.8V508z M577.6,520.6h-10.3v1.7h10.8v1.2h-12.4v-4h10.3V518h-10.4v-1.1h11.9V520.6z
		 M573.9,511.4V508h-4.4v3.4H573.9z"/>
</g>
<g id="c_x5F_tai">
	<ellipse id="point_6_" class="st2" cx="643.4" cy="470.1" rx="10" ry="9.9"/>
	<ellipse id="gCircle_6_" class="st3" cx="643.4" cy="470.1" rx="40" ry="40.6"/>
	<ellipse id="wCircle_6_" class="st4" cx="643.4" cy="470.1" rx="30" ry="30.4"/>
	<path id="font_6_" d="M642.2,478.4h-1.5v-9.1h-2.6v8.2h-1.4v-16.1h1.4v6.6h2.6v-7h1.5V478.4z M634.5,464.5h-5v8.4
		c1.3,0,2.4,0,3.3-0.1c0.9-0.1,1.8-0.2,2.7-0.4l0.1,1.3c-1,0.2-2,0.3-2.9,0.4c-1,0.1-2.2,0.1-3.6,0.1H628v-10.9h6.5V464.5z
		 M653.4,470.6h-8v-8h8V470.6z M646.9,469.4h5v-5.5h-5V469.4z M658.2,466.3h2.6v1.3h-2.6v6.2h-1.5v-12.7h1.5V466.3z M659,478h-11.7
		v-5.5h1.5v4.2H659V478z"/>
</g>
<g id="c_x5F_jap">
	<ellipse id="point_5_" class="st2" cx="712.6" cy="349.4" rx="10" ry="9.9"/>
	<ellipse id="gCircle_5_" class="st3" cx="712.6" cy="349.4" rx="40" ry="40.6"/>
	<ellipse id="wCircle_5_" class="st4" cx="712.6" cy="349.4" rx="30" ry="30.4"/>
	<path id="font_5_" d="M701.4,341c0.9,0,1.6,0.2,2.3,0.5c0.7,0.3,1.2,0.8,1.6,1.4c0.4,0.6,0.6,1.2,0.6,2c0,0.7-0.2,1.4-0.6,2
		c-0.4,0.6-0.9,1-1.6,1.4c-0.7,0.3-1.4,0.5-2.3,0.5c-0.9,0-1.7-0.2-2.3-0.5c-0.7-0.3-1.2-0.8-1.6-1.4c-0.4-0.6-0.6-1.3-0.6-2
		c0-0.7,0.2-1.4,0.6-2c0.4-0.6,0.9-1,1.6-1.4C699.8,341.2,700.6,341.1,701.4,341z M701.4,342.3c-0.6,0-1.1,0.1-1.6,0.3
		c-0.5,0.2-0.8,0.5-1.1,0.9c-0.3,0.4-0.4,0.8-0.4,1.3c0,0.5,0.1,0.9,0.4,1.3c0.3,0.4,0.6,0.7,1.1,0.9c0.5,0.2,1,0.3,1.6,0.3
		c0.6,0,1.1-0.1,1.5-0.3c0.5-0.2,0.8-0.5,1.1-0.9c0.3-0.4,0.4-0.8,0.4-1.3c0-0.5-0.1-0.9-0.4-1.3c-0.3-0.4-0.6-0.7-1.1-0.9
		C702.5,342.4,702,342.3,701.4,342.3z M710.8,349.3h-1.5v-8.9h1.5V349.3z M710.8,354.3h-9.7v2h10.4v1.2h-11.9v-4.3h9.7v-1.8h-9.8
		v-1.2h11.3V354.3z M717.4,343.3h8.6v-2.2h1.5v6.9h-5.1v1.9h7.1v1.3h-15.8v-1.3h7.1V348h-5v-6.9h1.5V343.3z M726,346.8v-2.3h-8.6
		v2.3H726z M727.9,357.4h-12v-4.8h1.5v3.6h10.5V357.4z"/>
</g>
<g id="c_x5F_kor">
	<ellipse id="point_4_" class="st2" cx="632" cy="332.2" rx="10" ry="9.9"/>
	<ellipse id="gCircle_4_" class="st3" cx="632" cy="332.2" rx="40.6" ry="41.2"/>
	<ellipse id="wCircle_4_" class="st4" cx="632" cy="332.2" rx="30.4" ry="30.9"/>
	<path id="font_4_" d="M629.5,328.9h2.7v1.3h-2.7v6.1h-1.5v-13.2h1.5V328.9z M626.2,326.5h-10.5v-1.3h4.5v-2.2h1.5v2.2h4.5V326.5z
		 M621,327.5c0.8,0,1.6,0.1,2.2,0.4c0.6,0.3,1.1,0.7,1.5,1.1c0.4,0.5,0.5,1.1,0.5,1.7c0,0.7-0.2,1.2-0.5,1.7
		c-0.4,0.5-0.9,0.9-1.5,1.1c-0.6,0.3-1.4,0.4-2.2,0.4c-0.8,0-1.6-0.1-2.2-0.4c-0.6-0.3-1.1-0.7-1.5-1.1c-0.4-0.5-0.5-1.1-0.5-1.7
		c0-0.7,0.2-1.2,0.5-1.7c0.4-0.5,0.9-0.9,1.5-1.1C619.4,327.6,620.1,327.5,621,327.5z M621,328.7c-0.5,0-1,0.1-1.5,0.3
		c-0.4,0.2-0.7,0.4-1,0.7c-0.2,0.3-0.3,0.7-0.3,1.1c0,0.4,0.1,0.8,0.3,1.1c0.2,0.3,0.6,0.5,1,0.7c0.4,0.2,0.9,0.2,1.5,0.2
		c0.5,0,1-0.1,1.4-0.2c0.4-0.2,0.7-0.4,1-0.7c0.2-0.3,0.4-0.7,0.4-1.1c0-0.4-0.1-0.8-0.4-1.1c-0.2-0.3-0.6-0.6-1-0.7
		C622,328.8,621.5,328.7,621,328.7z M630.3,340.3h-11.8v-5.1h1.5v3.8h10.3V340.3z M647.2,325.2c0,0.9,0,1.8-0.1,2.5
		c0,0.7-0.2,1.6-0.4,2.5h2.6v1.3H642v3.3h5.3v5.9h-1.6V336h-10.9v-1.3h5.6v-3.3h-7.3v-1.3h12c0.2-1,0.3-1.8,0.4-2.5
		c0.1-0.7,0.1-1.6,0.1-2.5h-10.4v-1.3h12V325.2z"/>
</g>
<g id="c_x5F_vet">
	<ellipse id="point_3_" class="st2" cx="548.1" cy="399" rx="10" ry="9.9"/>
	<ellipse id="gCircle_3_" class="st3" cx="548.1" cy="399" rx="40" ry="40.6"/>
	<ellipse id="wCircle_3_" class="st4" cx="548.1" cy="399" rx="30" ry="30.4"/>
	<path id="font_3_" d="M525,396h3.8v-4.3h1.4v4.9h2.6v-6.2h1.5v16.1h-1.5v-8.6h-2.6v5.1h-6.7v-11.3h1.5V396z M528.8,401.7v-4.5H525
		v4.5H528.8z M537.8,407.4h-1.5V390h1.5V407.4z M554.2,400.7h-12v-9.1H554v1.3h-10.3v2.6h9.9v1.2h-9.9v2.8h10.4V400.7z M556.1,405.1
		h-15.9v-1.3h15.9V405.1z M571,394h2.6v1.3H571v4.5h-1.5V390h1.5V394z M571,407.1h-11v-6.3h11V407.1z M561.5,405.9h8V402h-8V405.9z
		 M559.8,397.2c1.3,0,2.6-0.1,3.9-0.2c1.3-0.1,2.6-0.3,3.9-0.6l0.2,1.3c-1.4,0.3-2.8,0.5-4.1,0.6c-1.3,0.1-2.7,0.2-4.1,0.2h-1.4
		v-7.6h1.5V397.2z"/>
</g>
<g id="c_x5F_cha">
	<ellipse id="point_2_" class="st2" cx="554.5" cy="323.6" rx="10" ry="9.9"/>
	<ellipse id="gCircle_2_" class="st3" cx="554.5" cy="323.6" rx="40" ry="40.6"/>
	<ellipse id="wCircle_2_" class="st4" cx="554.5" cy="323.6" rx="30" ry="30.4"/>
	<path id="font_2_" d="M554.2,324H547v1.9c1.7,0.1,2.9,0.4,3.8,0.9c0.9,0.5,1.4,1.2,1.4,2.1c0,0.6-0.2,1.2-0.7,1.6
		c-0.5,0.5-1.2,0.8-2.1,1c-0.9,0.2-2,0.4-3.2,0.4c-1.3,0-2.3-0.1-3.2-0.4c-0.9-0.2-1.6-0.6-2.1-1c-0.5-0.4-0.7-1-0.7-1.6
		c0-0.9,0.5-1.6,1.4-2.1c0.9-0.5,2.2-0.8,3.9-0.9V324h-7.1v-1.3h15.8V324z M546.3,327c-0.9,0-1.7,0.1-2.4,0.2
		c-0.7,0.1-1.2,0.4-1.5,0.6c-0.4,0.3-0.5,0.6-0.5,1c0,0.4,0.2,0.7,0.5,1c0.4,0.3,0.9,0.5,1.5,0.6c0.7,0.1,1.5,0.2,2.4,0.2
		c0.9,0,1.7-0.1,2.4-0.2c0.7-0.1,1.2-0.4,1.5-0.6c0.4-0.3,0.5-0.6,0.5-1s-0.2-0.7-0.5-1c-0.4-0.3-0.9-0.5-1.5-0.6
		C548,327.1,547.2,327,546.3,327z M552.8,316.7h-5.5c0,0.6,0.3,1.2,0.9,1.8c0.6,0.5,1.3,1,2.2,1.3c0.9,0.4,1.9,0.6,2.9,0.7l-0.6,1.2
		c-1-0.1-1.9-0.3-2.7-0.6c-0.9-0.3-1.6-0.7-2.3-1.2s-1.1-1.1-1.4-1.7c-0.3,0.6-0.8,1.2-1.4,1.7s-1.4,0.9-2.3,1.2
		c-0.9,0.3-1.8,0.5-2.8,0.6l-0.5-1.2c1-0.1,2-0.3,2.9-0.7c0.9-0.4,1.7-0.8,2.2-1.3c0.6-0.5,0.9-1.1,0.9-1.7h-5.5v-1.3h13V316.7z
		 M569.5,316.7c0,0.9,0,1.7-0.1,2.5c0,0.7-0.2,1.6-0.4,2.5h2.5v1.3h-7.2v3.2h5.3v5.9h-1.5v-4.6h-10.7v-1.3h5.5v-3.2h-7.1v-1.3h11.8
		c0.2-0.9,0.3-1.8,0.4-2.5c0.1-0.7,0.1-1.5,0.1-2.4h-10.3v-1.3h11.8V316.7z"/>
</g>
<g id="c_x5F_indo">
	<ellipse id="point_1_" class="st2" cx="467.1" cy="305.8" rx="10" ry="9.9"/>
	<ellipse id="gCircle_1_" class="st3" cx="467.1" cy="305.8" rx="40" ry="40.6"/>
	<ellipse id="wCircle_1_" class="st4" cx="467.1" cy="305.8" rx="30" ry="30.4"/>
	<path id="font_1_" d="M465.3,309.5h-1.5v-12.7h1.5V309.5z M465.9,313.8h-11.8v-5.6h1.5v4.3h10.2V313.8z M456,298
		c0.9,0,1.6,0.2,2.3,0.5c0.7,0.4,1.2,0.9,1.6,1.5c0.4,0.6,0.6,1.4,0.6,2.2c0,0.8-0.2,1.6-0.6,2.2c-0.4,0.6-0.9,1.1-1.6,1.5
		c-0.7,0.4-1.5,0.5-2.3,0.5s-1.6-0.2-2.3-0.5c-0.7-0.4-1.2-0.9-1.6-1.5c-0.4-0.7-0.6-1.4-0.6-2.2c0-0.8,0.2-1.6,0.6-2.2
		c0.4-0.7,0.9-1.2,1.6-1.5C454.3,298.2,455.1,298,456,298z M456,299.3c-0.6,0-1.1,0.1-1.6,0.4c-0.5,0.2-0.8,0.6-1.1,1
		c-0.3,0.4-0.4,0.9-0.4,1.5c0,0.6,0.1,1.1,0.4,1.5c0.3,0.4,0.6,0.8,1.1,1c0.5,0.2,1,0.4,1.6,0.4c0.6,0,1.1-0.1,1.5-0.4
		c0.5-0.2,0.8-0.6,1.1-1c0.3-0.4,0.4-1,0.4-1.5c0-0.6-0.1-1.1-0.4-1.5c-0.3-0.4-0.6-0.8-1.1-1C457.1,299.5,456.5,299.3,456,299.3z
		 M482.3,306.2H477v4.5h7.2v1.3h-15.9v-1.3h7.1v-4.5h-5.1v-8h11.8v1.3h-10.3v5.5h10.4V306.2z"/>
</g>
<g id="c_x5F_ger">
	<ellipse id="point" class="st2" cx="207.4" cy="313.9" rx="10" ry="9.9"/>
	<ellipse id="gCircle" class="st3" cx="207.4" cy="313.2" rx="40" ry="40.6"/>
	<ellipse id="wCircle" class="st4" cx="207.4" cy="313.2" rx="30" ry="30.4"/>
	<path id="font" d="M207.1,314.1h-15.8v-1.3h7.1v-2.1h-5.1v-5.9h11.9v1.3h-10.3v3.3h10.5v1.3H200v2.1h7.1V314.1z M205.2,321.6h-1.5
		V317h-10.6v-1.3h12.1V321.6z M213.5,304.8c0.9,0,1.6,0.2,2.3,0.5c0.7,0.3,1.2,0.8,1.6,1.4c0.4,0.6,0.6,1.2,0.6,2s-0.2,1.4-0.6,2
		c-0.4,0.6-0.9,1-1.6,1.4c-0.7,0.3-1.4,0.5-2.3,0.5c-0.9,0-1.7-0.2-2.3-0.5c-0.7-0.3-1.2-0.8-1.6-1.4c-0.4-0.6-0.6-1.3-0.6-2
		s0.2-1.4,0.6-2c0.4-0.6,0.9-1,1.6-1.4C211.9,304.9,212.6,304.8,213.5,304.8z M213.5,306.1c-0.6,0-1.1,0.1-1.6,0.3
		c-0.5,0.2-0.8,0.5-1.1,0.9c-0.3,0.4-0.4,0.8-0.4,1.3c0,0.5,0.1,0.9,0.4,1.3c0.3,0.4,0.6,0.7,1.1,0.9c0.5,0.2,1,0.3,1.6,0.3
		c0.6,0,1.1-0.1,1.5-0.3c0.5-0.2,0.8-0.5,1.1-0.9s0.4-0.8,0.4-1.3c0-0.5-0.1-0.9-0.4-1.3c-0.3-0.4-0.6-0.7-1.1-0.9
		C214.6,306.2,214.1,306.1,213.5,306.1z M222.9,313.1h-1.5v-8.9h1.5V313.1z M222.9,318.1h-9.7v2h10.4v1.2h-11.9v-4.3h9.7v-1.8h-9.8
		v-1.2h11.3V318.1z"/>
</g>
</svg>
