<svg width="1420" height="749" viewBox="0 0 1420 749" fill="none" xmlns="http://www.w3.org/2000/svg">
<g clip-path="url(#clip0_935_5121)">
<path d="M261.266 575.825C261.266 575.825 264.171 574.621 261.926 569.406C259.682 564.191 261.794 563.522 262.85 561.65C263.775 559.778 263.775 559.644 266.415 558.842C269.055 558.039 271.036 558.441 273.412 556.702C275.788 554.964 277.901 554.83 278.825 552.958C279.749 551.086 278.957 551.086 280.937 549.481C282.785 547.876 282.917 548.679 283.445 547.341C283.973 546.004 282.917 543.062 284.634 543.33C286.35 543.463 286.878 543.062 288.066 545.87C289.254 548.812 288.726 553.359 290.046 554.83C291.367 556.301 289.914 558.708 288.594 558.307C287.274 557.906 286.614 561.65 286.086 564.325C285.558 566.999 283.841 573.418 282.125 576.494C280.277 579.569 278.165 584.384 276.976 587.192C275.788 590.134 273.676 596.686 270.111 596.151C266.415 595.616 267.339 598.425 264.831 597.489C262.322 596.686 258.098 594.146 257.966 590.669C257.834 587.192 257.306 588.128 256.91 584.517C256.513 580.907 259.286 579.302 260.342 577.831C261.266 576.494 261.266 575.825 261.266 575.825Z" fill="#121212"/>
<path d="M108.389 258.494C107.861 258.226 107.597 257.959 107.465 257.424C107.861 257.691 108.257 258.092 108.389 258.494Z" fill="#121212"/>
<path d="M107.332 257.29C105.22 255.819 100.731 254.081 99.6747 251.406C97.9585 246.726 105.22 244.051 110.368 245.121C115.517 246.191 110.5 248.866 107.992 254.215C107.464 255.686 107.2 256.622 107.332 257.29Z" fill="#121212"/>
<path d="M113.669 196.713C113.537 196.846 113.537 196.846 113.405 196.846C110.368 198.718 114.065 195.91 113.669 196.713Z" fill="#121212"/>
<path d="M740.233 81.9743C736.404 81.8405 734.16 80.1021 734.952 79.0323C735.744 77.9625 737.856 77.695 735.084 76.0903C732.312 74.4856 730.199 73.2821 732.048 72.0785C733.896 70.875 735.348 71.6774 735.876 69.2703C736.404 66.8632 735.744 65.3922 733.632 62.9852C731.388 60.5781 732.18 58.5722 729.671 60.3106C727.031 62.0491 725.183 62.1828 724.126 60.9793C723.07 59.7757 724.39 56.9675 721.618 59.642C718.846 62.3165 715.677 60.9793 716.865 63.5201C717.922 66.0609 718.846 63.7875 719.506 67.2644C720.166 70.6076 721.75 72.6134 719.374 71.6774C716.997 70.7413 716.601 70.7413 716.073 68.8691C715.545 67.1307 716.601 69.5377 712.905 66.3283C709.208 63.2526 709.868 61.5142 707.888 61.6479C705.908 61.7816 705.38 62.4503 701.287 62.9852C697.195 63.5201 700.231 62.1828 692.31 61.5142C684.389 60.8455 686.369 61.3805 682.936 61.113C679.504 60.8456 684.917 57.6361 678.712 58.4385C672.507 59.2408 675.015 60.4444 671.451 58.8397C667.886 57.3687 671.451 54.8279 666.17 56.4326C660.757 58.171 661.549 58.3048 658.645 58.9734C655.872 59.642 659.173 56.4326 653.628 58.5722C647.951 60.5781 646.763 60.3106 647.027 61.3805C647.423 62.4503 650.988 61.7816 648.479 64.5899C645.971 67.3981 651.648 68.3342 652.704 68.8691C653.76 69.404 656.929 72.0785 656.929 73.2821C656.929 74.4856 656.929 75.9566 655.872 75.9566C654.816 75.9566 652.308 74.0844 650.46 73.6833C648.611 73.2821 651.912 70.0727 647.291 70.7413C642.67 71.5436 644.387 71.2762 644.255 69.8052C643.991 68.3342 645.443 68.7354 644.783 66.9969C644.255 65.3922 643.727 64.055 641.614 64.5899C639.634 65.1248 639.37 64.055 639.37 67.933C639.37 71.8111 640.294 72.8809 638.182 72.6134C636.07 72.346 637.258 71.1425 635.013 71.5436C632.901 71.9448 626.036 73.6833 621.679 75.288C617.323 76.8927 617.983 79.8347 614.682 78.2299C611.382 76.6252 611.778 79.2998 609.138 73.9507C606.497 68.6017 607.421 65.6597 602.537 66.462C597.652 67.2644 598.84 64.5899 592.899 68.0668C586.958 71.4099 587.618 71.8111 584.582 73.2821C581.677 74.7531 582.338 76.0903 580.093 74.3519C577.849 72.6134 579.829 72.0785 576.529 71.5436C573.228 71.0087 572.436 68.7354 571.38 70.4738C570.324 72.2123 570.192 72.8809 568.476 71.5436C566.759 70.2064 568.344 69.1366 565.175 69.8052C562.007 70.3401 561.215 70.6076 561.611 69.2703C562.007 67.933 563.855 67.933 563.723 66.8632C563.459 65.7934 562.271 62.1828 556.33 63.6538C550.389 65.1248 552.237 66.3283 549.993 66.3283C547.749 66.3283 547.485 65.9271 544.052 65.9271C540.752 65.9271 540.355 65.9271 536.923 66.1946C533.49 66.462 529.926 65.2585 528.342 65.3922C526.758 65.526 524.645 64.9911 525.437 66.462C526.229 67.933 527.682 67.1307 528.342 68.3342C529.002 69.5377 525.437 69.5377 525.833 73.0146C526.229 76.4915 528.738 75.9566 529.134 75.9566C529.53 75.9566 528.606 77.0264 530.982 78.3637C533.358 79.7009 536.263 80.7707 536.263 80.7707C536.263 80.7707 537.715 83.579 534.943 82.6429C532.17 81.7068 529.134 81.0382 529.134 81.0382C529.134 81.0382 528.342 80.2358 527.022 82.108C525.701 83.9802 527.55 84.2476 523.061 83.4453C518.44 82.6429 518.044 82.3755 517.516 84.3813C516.856 86.3872 517.648 86.7884 516.196 87.1896C514.612 87.7245 513.82 86.9221 511.047 86.521C508.275 86.1198 506.955 83.4453 507.087 85.1837C507.219 86.9221 506.427 89.3292 508.539 90.399C510.519 91.4688 512.235 92.2712 512.103 93.7422C511.971 95.3469 511.575 95.2132 511.311 96.4167C511.047 97.6202 509.331 96.9516 507.219 95.7481C505.106 94.5445 502.994 91.7363 500.222 91.3351C497.449 90.9339 499.562 90.2653 497.317 88.7943C495.073 87.3233 493.621 89.9978 493.621 88.7943C493.621 87.5908 494.677 87.3233 495.205 87.0559C495.865 86.7884 496.261 86.521 495.601 85.4512C494.941 84.3814 494.413 82.7766 492.961 82.7766C491.508 82.7766 490.716 83.7127 490.716 82.5092C490.716 81.3056 490.98 80.2358 490.452 79.8347C489.924 79.4335 481.211 74.3519 477.382 75.1542C473.554 75.9566 473.29 72.8809 469.989 74.7531C466.689 76.4915 465.368 75.9566 466.689 78.0962C468.141 80.2358 473.554 79.4335 469.461 81.8406C465.368 84.1139 465.501 84.3814 462.332 84.7825C459.032 85.3174 460.484 83.3115 457.579 84.1139C454.807 84.7825 455.467 86.7884 453.091 85.4512C450.714 84.1139 451.242 83.4453 450.846 82.5092C450.582 81.5731 452.563 78.8986 449.394 80.5033C446.226 82.108 441.077 81.0382 438.305 82.108C435.664 83.1778 435.4 84.2476 433.552 84.5151C431.704 84.7825 433.288 83.3115 431.043 83.9802C428.799 84.7825 428.139 86.7884 426.951 86.2535C425.763 85.8523 426.423 83.1778 425.367 83.0441C424.178 82.7766 421.01 82.6429 420.482 84.1139C419.954 85.5849 419.558 87.3233 421.142 87.7245C422.726 88.1257 422.066 86.521 423.782 86.9221C425.499 87.3233 427.215 87.8582 425.631 88.3931C424.046 88.928 422.99 88.6606 421.67 90.399C420.218 92.0037 420.878 91.2014 418.502 92.5386C416.125 93.8759 413.617 97.0853 414.277 94.0096C414.805 91.0677 412.825 91.2014 414.805 90.2653C416.785 89.1955 418.634 89.5967 417.974 88.1257C417.181 86.7884 415.069 87.7245 416.653 85.5849C418.238 83.4453 419.162 85.05 418.898 82.9104C418.634 80.7707 416.917 80.7707 418.766 78.4974C420.614 76.2241 420.878 75.1542 421.274 73.5495C421.67 71.9448 423.914 72.7472 422.33 69.0028C420.746 65.2585 421.274 64.4562 419.69 62.9852C418.106 61.5142 418.766 62.4503 416.785 60.3106C414.805 58.3048 413.617 56.5663 413.353 57.9036C413.089 59.3746 413.749 59.9095 412.957 59.642C412.165 59.5083 415.069 59.642 411.109 57.6361C407.148 55.6302 405.564 53.0894 403.055 54.0255C400.547 54.9616 400.151 53.8918 398.303 55.3628C396.586 56.9675 393.946 56.0314 393.682 57.2349C393.418 58.4385 393.154 58.171 394.342 59.1071C395.53 60.0432 393.946 63.3863 392.626 61.5142C391.306 59.642 392.23 61.9154 391.834 58.7059C391.306 55.6302 391.966 54.5604 390.249 54.6941C388.533 54.8279 387.741 56.1651 386.157 55.0953C384.441 54.0255 382.988 55.2291 383.12 52.6883C383.252 50.0137 379.82 50.0137 377.84 49.6126C375.859 49.3451 372.823 47.7404 372.427 52.822C372.031 57.9036 368.73 59.5083 373.615 63.7875C376.123 66.0609 377.444 66.462 377.84 66.462C377.708 66.462 377.444 66.5958 377.048 66.9969C375.463 68.4679 374.803 68.6017 373.483 68.6017C372.163 68.6017 369.654 66.5958 369.919 68.8691C370.183 71.1425 372.559 69.6715 370.579 71.2762C368.598 72.8809 368.334 72.7472 367.278 73.4158C366.222 74.0844 364.506 76.4915 364.638 74.8868C364.638 73.1484 365.166 73.0146 365.166 72.7472C365.166 72.4797 365.43 70.0727 363.186 71.6774C360.941 73.2821 362.921 73.817 360.281 74.2182C357.641 74.6193 356.717 73.0146 355.792 74.2182C354.868 75.4217 353.68 75.9566 355.792 77.4276C357.905 78.8986 359.885 80.1021 357.509 80.3696C355.132 80.5033 350.776 80.5033 348.135 83.8464C345.495 87.1896 345.231 88.3931 344.043 88.6606C342.855 89.0618 341.27 91.0677 340.874 91.6026C340.478 92.1375 337.178 97.6202 341.27 98.9575C345.231 100.295 351.832 101.632 350.116 102.969C348.399 104.307 348.135 104.173 348.135 102.969C348.135 101.899 348.003 100.83 346.287 101.899C344.571 102.969 344.703 102.969 343.119 103.638C341.534 104.307 338.894 105.376 335.197 106.179C331.369 106.981 326.22 107.65 329.653 110.458C333.085 113.4 333.877 115.005 334.009 116.074C334.141 117.144 332.689 116.877 335.065 118.214C337.574 119.551 340.478 117.947 341.666 119.418C342.855 120.889 342.723 121.958 341.666 123.028C340.61 124.098 340.082 125.034 337.838 123.563C335.593 122.226 333.613 121.156 331.237 120.487C328.861 119.685 325.824 117.947 324.504 119.685C323.052 121.423 321.071 122.36 323.58 123.028C326.088 123.831 329.389 122.761 329.257 124.633C329.125 126.639 328.2 128.377 326.748 127.174C325.296 125.97 324.108 123.296 322.92 124.767C321.599 126.238 318.695 126.371 322.656 128.11C326.616 129.848 326.748 129.715 330.445 130.383C334.141 131.052 332.689 132.389 331.369 131.988C330.049 131.587 330.577 131.319 328.068 131.453C325.692 131.453 324.504 132.523 322.392 131.052C320.279 129.581 320.015 130.383 319.091 127.976C318.167 125.435 318.827 123.964 318.035 122.627C317.375 121.29 316.451 119.15 316.055 119.284C315.659 119.418 315.13 118.08 315.13 120.22C315.13 122.36 316.451 122.761 316.319 124.767C316.187 126.773 315.395 126.773 314.734 127.709C314.074 128.645 314.602 127.307 314.47 130.116C314.338 132.924 312.754 132.924 314.734 134.127C316.715 135.331 315.263 137.471 313.414 135.598C311.566 133.726 310.378 133.726 310.114 130.517C309.85 127.441 310.246 125.302 308.398 123.296C306.549 121.29 304.173 119.685 301.268 120.086C298.364 120.487 297.836 119.016 297.044 120.086C296.252 121.156 294.007 123.831 295.064 126.639C296.252 129.581 299.288 132.924 296.912 133.726C294.403 134.662 292.819 134.796 293.479 136.668C294.139 138.674 296.648 140.279 298.1 141.349C299.552 142.285 298.628 145.227 297.968 146.163C297.308 147.099 297.308 147.233 298.364 149.105C299.42 151.111 298.628 151.512 301.665 151.646C304.701 151.646 305.229 151.913 306.681 153.518C308.133 155.122 312.754 156.861 308.133 157.396C303.513 157.931 298.892 153.25 294.932 153.25C290.971 153.25 287.406 150.308 282.126 149.506C276.845 148.704 273.016 146.698 271.036 146.297C269.056 145.762 266.679 139.744 267.736 145.494C268.792 151.244 272.884 151.779 276.713 154.454C280.409 156.995 284.766 157.128 280.409 159.134C276.185 161.14 275.525 159.001 272.884 158.198C270.112 157.262 272.356 157.663 266.679 159.669C261.135 161.675 260.739 161.809 258.23 162.21C255.722 162.611 257.438 160.204 254.006 160.07C250.705 159.937 249.781 160.873 244.764 165.687C239.747 170.501 243.18 171.705 238.823 173.844C234.467 175.984 234.071 180.53 231.958 175.85C229.846 171.17 232.222 170.902 231.562 168.495C230.902 166.222 235.523 164.216 229.582 165.018C223.641 165.821 221.265 160.605 221.661 165.954C222.057 171.303 224.565 168.629 225.489 173.978C226.414 179.327 224.037 182.269 224.037 182.269C224.037 182.269 220.473 180.53 216.776 183.205C213.08 185.879 214.928 188.821 212.287 187.752C209.647 186.682 218.228 190.694 215.192 192.566C212.155 194.304 216.248 196.845 208.987 193.636C201.858 190.426 197.765 188.955 198.557 191.897C199.35 194.839 197.501 187.35 192.881 184.542C188.128 181.734 183.903 178.525 188.392 178.525C192.881 178.391 196.445 181.734 202.254 182.67C208.063 183.606 215.456 182.67 215.852 180.129C216.248 177.588 221.397 175.984 215.588 172.774C209.779 169.565 210.307 169.832 201.198 167.158C192.22 164.35 191.956 162.344 186.28 161.809C180.603 161.14 180.867 159.937 179.415 158.198C177.962 156.593 177.434 157.262 174.662 158.064C171.89 158.867 167.269 161.006 169.645 156.995C172.022 152.983 175.19 148.704 170.041 150.442C164.76 152.18 163.44 153.25 163.044 155.256C162.648 157.262 163.968 150.576 155.651 151.244C147.334 151.913 145.618 151.779 145.354 154.454C145.09 157.128 140.865 155.657 138.885 158.064C137.036 160.605 139.149 161.14 134.924 161.408C130.699 161.809 128.323 157.797 125.683 163.012C123.042 168.094 123.834 167.158 122.646 170.635C121.458 174.112 122.646 173.577 120.402 177.99C118.158 182.403 116.177 180.397 114.461 185.077C112.745 189.624 117.894 193.502 114.329 195.909C114.197 196.176 113.405 196.979 111.425 198.583C104.296 204.735 102.183 208.88 99.4109 209.148C96.6385 209.282 93.602 203.665 91.7538 213.026C89.7735 222.387 91.2257 222.654 92.2818 226.399C93.338 230.277 89.5094 230.678 91.7538 233.887C93.9981 237.097 96.7705 239.637 98.2227 239.637C99.6749 239.637 102.051 228.271 110.236 230.811C118.422 233.352 121.722 237.899 120.798 244.986C119.874 252.074 118.818 254.481 123.306 253.277C127.795 251.94 130.171 257.156 133.736 249.266C137.3 241.376 129.907 242.713 135.848 237.23C141.921 231.748 144.297 233.219 142.845 229.207C141.261 225.061 131.756 221.718 134 213.427C136.244 205.002 135.188 205.671 141.261 202.729C147.202 199.787 146.542 194.438 149.182 191.763C151.691 189.089 160.668 181.065 158.556 189.624C156.443 198.182 155.651 193.769 151.691 202.462C147.862 211.154 142.449 210.619 150.37 217.439C158.292 224.259 151.823 224.393 161.724 222.52C171.625 220.648 179.811 221.986 179.283 224.794C178.623 227.602 177.83 227.335 173.078 228.806C168.193 230.277 161.856 223.991 158.424 230.678C154.991 237.364 154.463 233.486 158.82 238.033C163.176 242.446 167.401 243.917 160.404 244.05C153.407 244.184 149.314 238.434 149.974 246.056C150.634 253.679 153.011 254.615 148.39 256.353C143.769 258.092 148.39 253.545 137.432 257.69C126.475 261.836 125.287 261.568 123.57 261.167C121.854 260.766 124.627 258.092 117.366 258.092C113.537 258.092 110.633 258.359 109.18 257.69C109.312 258.359 108.784 258.894 106.936 259.696C99.8069 262.371 103.107 254.748 94.9222 263.842C86.737 272.935 87.9252 271.063 82.3804 274.54C76.8356 278.017 72.875 276.145 74.0632 279.22C75.3834 282.296 75.1193 284.569 70.3666 285.238C65.6139 285.773 69.3105 278.418 63.6336 284.569C57.9568 290.721 60.8612 290.453 55.3164 291.523C49.7716 292.459 34.1933 294.064 48.8475 297.006C63.5016 299.814 68.6504 295.134 69.5745 300.617C70.4986 306.233 65.6139 313.989 60.5972 313.454C55.5805 312.919 63.2376 316.53 51.7519 315.326C40.2662 314.257 35.2495 307.704 35.1175 316.129C34.9855 324.553 35.1175 319.472 36.0416 328.565C36.9657 337.525 24.2919 339.531 35.9096 343.409C47.3953 347.287 45.283 348.624 58.0888 344.479C70.8947 340.333 75.1193 341.136 73.139 334.449C71.1588 327.629 59.277 325.757 73.4031 324.152C87.3971 322.548 86.8691 319.071 87.5292 315.995C88.1892 312.919 86.0769 309.175 93.338 312.786C100.599 316.396 99.1468 315.995 105.088 312.518C111.161 309.175 109.048 299.68 115.913 312.384C122.646 325.088 125.419 321.612 131.096 326.693C136.772 331.775 151.03 331.507 137.168 335.92C123.306 340.333 119.082 339.798 124.627 341.938C130.171 344.078 128.455 348.892 135.452 346.083C142.449 343.141 140.733 343.944 144.429 337.391C148.126 330.972 157.499 332.978 144.429 327.897C131.36 322.815 127.927 323.083 126.607 317.065C125.419 311.047 118.818 306.902 125.551 306.902C132.416 306.902 127.795 300.75 136.64 308.64C145.486 316.53 147.466 311.716 151.294 317.199C155.123 322.815 152.483 319.606 156.443 328.565C160.404 337.525 158.292 335.653 163.308 341.269C168.325 346.886 172.418 348.089 172.814 343.008C173.21 337.926 175.454 336.455 170.041 332.443C164.628 328.432 156.311 323.617 167.269 325.222C178.226 326.827 180.471 319.338 182.055 324.553C183.507 329.903 178.094 327.763 181.659 334.984C185.355 342.205 188.128 342.74 190.372 345.147C192.617 347.554 185.884 347.822 194.729 347.287C203.574 346.618 199.878 342.74 208.327 344.345C216.776 345.95 223.905 341.136 223.641 348.49C223.377 355.845 224.169 357.316 220.209 363.2C216.248 369.084 207.667 369.084 199.614 367.881C191.56 366.677 192.749 364.003 188.128 366.811C183.507 369.619 182.451 364.671 171.625 363.334C160.8 361.997 156.179 357.183 155.915 362.799C155.651 368.416 164.892 370.422 156.311 371.224C147.73 372.026 160.404 371.893 142.713 368.416C125.023 365.073 130.567 363.2 124.363 362.264C118.158 361.328 110.501 363.602 113.537 357.851C116.573 352.101 118.818 352.502 119.61 350.496C120.402 348.49 124.363 345.682 117.63 344.345C110.765 343.008 101.919 345.014 95.8464 344.077C89.7735 343.275 89.3774 338.194 82.3804 343.409C75.3834 348.49 79.3439 350.363 70.8947 351.031C62.4455 351.7 59.145 349.293 56.1085 350.229C53.0721 351.299 55.0524 348.892 50.9598 349.159C46.8672 349.56 45.811 346.886 44.8869 351.834C43.9628 356.781 34.3254 352.77 33.7973 363.2C33.2692 373.631 40.9263 368.951 33.2692 374.166C25.6121 379.381 27.4603 376.038 22.7077 379.381C17.955 382.724 16.1067 378.713 15.1825 387.538C14.1264 396.364 11.75 394.626 8.84562 397.434C5.80917 400.109 1.98061 386.335 2.90475 402.783C3.82888 419.232 9.10966 413.214 3.30081 423.778C-2.50804 434.343 6.20523 433.139 2.77273 440.895C-0.659773 448.518 0.5284 446.645 6.20523 452.262C11.8821 457.878 6.60129 455.471 18.7471 464.698C31.0249 473.926 37.6258 473.524 44.0948 472.588C50.4317 471.518 43.5667 471.92 59.8051 473.524C76.0435 475.129 77.7597 472.722 83.9646 470.716C90.1695 468.71 88.4533 456.006 98.6188 469.513C108.784 483.019 119.082 473.792 115.781 483.688C112.481 493.583 104.824 498.264 116.573 506.421C128.323 514.578 129.775 516.985 130.831 527.55C132.02 538.114 135.452 543.864 129.643 546.806C123.966 549.748 115.649 553.626 120.798 564.458C125.947 575.29 129.247 575.424 132.812 583.581C136.376 591.738 128.323 594.68 134.66 602.704C140.997 610.727 147.598 609.39 147.73 614.873C147.862 620.489 144.826 619.821 147.334 625.437C149.842 630.92 144.694 634.531 151.823 635.467C159.084 636.403 161.988 633.862 163.44 633.461C164.892 633.06 170.965 632.525 170.965 632.525C170.965 632.525 175.322 635.066 177.698 632.525C180.075 629.984 178.623 633.862 184.563 630.519C190.504 627.176 199.746 617.28 204.366 613.134C208.987 608.989 213.344 606.983 212.023 602.303C210.571 597.622 210.043 596.419 215.06 594.814C220.077 593.343 223.509 592.407 224.169 588.663C224.829 584.918 225.885 586.255 224.169 580.773C222.453 575.29 219.02 573.819 225.093 570.476C231.166 567.133 230.11 564.057 236.183 562.586C242.256 561.115 243.18 561.115 246.216 556.301C249.253 551.62 250.573 552.824 249.121 546.004C247.669 539.184 250.705 537.312 248.329 534.771C245.82 532.23 243.444 524.875 245.028 521.8C246.612 518.724 243.048 515.648 243.048 515.648C243.048 515.648 242.388 512.305 246.612 510.433C250.837 508.561 250.705 505.351 255.59 500.403C260.474 495.456 261.399 491.444 266.019 489.304C270.64 487.164 282.786 478.339 288.067 469.513C293.347 460.687 291.499 462.291 293.743 460.152C296.12 458.012 297.044 452.262 296.12 450.925C295.196 449.587 297.176 446.645 293.215 448.116C289.255 449.587 286.35 450.791 283.842 450.523C281.202 450.256 276.713 451.861 274.997 451.861C273.28 451.861 273.016 451.727 270.508 452.663C268 453.599 266.811 454.134 265.491 453.064C264.171 451.861 260.871 450.39 260.871 447.715C260.871 445.041 262.323 446.913 258.362 442.901C254.402 438.889 252.289 437.151 245.82 433.407C239.351 429.662 244.368 426.319 240.54 423.377C236.711 420.435 235.523 424.447 233.675 416.958C231.826 409.47 229.318 406.661 226.942 403.452C224.565 400.242 224.961 400.644 224.565 398.638C224.301 396.632 223.113 394.893 220.209 390.882C217.304 387.004 213.74 380.718 216.248 381.788C218.888 382.858 218.756 382.992 220.209 381.922C221.661 380.852 223.773 381.387 224.433 383.259C225.093 385.131 231.298 392.486 232.75 396.766C234.203 401.045 235.655 396.498 237.503 399.708C239.351 403.051 238.691 407.062 240.804 409.871C242.916 412.679 247.537 412.545 249.385 417.761C251.101 422.842 258.758 428.994 258.362 433.54C257.966 437.953 257.966 437.552 260.474 441.029C262.983 444.506 265.227 446.111 268.792 443.971C272.224 441.831 276.581 444.64 278.957 442.233C281.334 439.825 278.297 440.494 283.578 438.622C288.859 436.616 291.235 436.616 294.932 435.814C298.628 434.878 301.665 433.139 301.533 431.133C301.4 428.994 301.4 429.529 306.153 428.459C311.038 427.389 315.13 424.982 315.395 423.778C315.659 422.575 320.279 420.703 321.731 419.365C323.052 418.028 320.939 416.29 324.372 413.348C327.804 410.272 332.953 406.26 328.993 403.586C325.032 400.911 327.276 399.841 323.052 399.173C318.827 398.504 315.527 396.364 314.866 392.62C314.074 388.876 314.998 387.137 311.434 390.614C308.001 394.091 306.813 398.504 300.476 397.568C294.139 396.632 296.384 401.045 294.668 397.301C292.951 393.422 294.007 387.672 291.763 391.283C289.651 394.76 290.839 393.957 289.783 392.085C288.595 390.213 287.67 391.55 285.69 385.934C283.842 380.317 279.485 384.73 278.825 379.515C278.165 374.433 276.977 372.829 279.485 372.829C282.126 372.695 285.822 373.497 290.575 379.515C295.328 385.533 294.403 382.323 297.572 384.195C300.74 386.201 300.476 387.405 304.701 387.271C308.926 387.137 310.51 381.387 314.47 384.864C318.431 388.341 313.546 390.079 320.675 391.149C327.672 392.219 333.217 390.882 339.158 394.76C345.099 398.638 360.809 403.452 364.242 402.248C367.674 401.045 371.767 403.184 374.539 403.452C377.312 403.719 374.671 407.464 372.163 406.394C369.522 405.324 366.09 403.853 369.258 406.929C372.427 409.871 375.859 411.475 379.292 410.941C382.856 410.406 384.705 408.533 385.101 406.929C385.365 405.458 386.817 407.196 387.873 417.761C388.797 428.325 393.814 428.459 395.002 433.005C396.19 437.552 393.682 435.412 396.982 439.29C400.283 443.169 396.85 444.238 402.659 447.983C408.468 451.727 402.527 455.873 407.148 459.751C411.769 463.629 414.937 462.291 414.937 460.286C414.937 458.28 420.086 455.338 421.01 454.268C421.934 453.198 422.066 451.593 421.538 448.518C420.878 445.308 423.782 445.041 423.254 443.302C422.726 441.43 422.33 444.372 422.33 439.157C422.33 434.075 421.274 433.407 423.782 432.203C426.291 430.866 427.611 432.203 429.459 429.395C431.307 426.587 428.403 426.185 431.44 425.116C434.476 424.179 438.833 420.435 440.021 419.098C441.209 417.761 439.229 414.551 443.321 414.016C447.414 413.615 447.81 408.801 451.638 407.464C455.467 406.126 453.751 409.068 459.824 406.661C465.897 404.254 468.273 401.981 468.141 402.917C468.141 403.853 467.217 406.126 470.121 408.667C473.026 411.208 478.306 412.144 478.306 415.354C478.306 418.563 478.57 416.557 480.419 419.499C482.267 422.441 482.399 421.772 482.663 426.319C483.059 430.732 481.079 432.203 485.171 431.267C489.264 430.331 491.112 424.313 494.545 427.656C497.977 430.999 500.354 439.023 501.41 442.099C502.598 445.174 503.654 444.506 503.126 448.384C502.598 452.128 501.41 452.396 502.07 454.803C502.598 457.21 500.882 455.471 502.07 459.216C503.126 462.826 501.674 460.687 504.71 463.361C507.747 466.036 507.087 464.832 509.331 468.978C511.575 473.123 511.311 471.385 512.235 475.664C513.159 479.943 516.064 482.217 516.856 482.885C517.648 483.554 516.328 483.42 519.76 485.827C523.193 488.234 522.797 486.362 526.229 488.769C529.662 491.176 531.246 493.316 529.662 489.705C528.078 486.095 528.342 485.025 526.493 484.089C524.645 483.153 527.286 478.205 525.173 475.798C523.061 473.391 516.724 469.379 514.612 467.64C512.499 465.902 512.631 462.826 510.783 460.954C508.935 459.082 509.595 459.082 507.219 457.878C504.842 456.675 506.294 457.344 506.559 454.402C506.823 451.46 507.483 442.5 509.199 442.366C510.915 442.232 509.859 441.43 511.971 443.436C514.084 445.308 515.14 442.366 517.516 445.041C519.892 447.849 519.76 446.512 523.589 450.657C527.418 454.803 526.361 455.07 527.418 454.803C528.474 454.535 530.322 453.198 530.454 456.942C530.586 460.687 531.51 460.553 532.434 460.419C533.226 460.152 536.263 454.936 539.167 454.535C542.072 454.134 546.824 452.797 548.145 449.454C549.333 446.111 551.709 439.692 548.937 436.482C546.164 433.139 545.504 430.732 541.676 428.325C537.847 425.918 536.263 426.319 534.943 422.842C533.622 419.232 532.566 419.9 531.246 418.296C530.058 416.691 530.454 414.417 531.774 413.08C533.226 411.743 532.962 410.673 534.943 409.47C536.923 408.266 539.695 404.522 541.544 405.057C543.392 405.592 545.636 405.324 546.956 408.667C548.277 411.877 548.277 413.481 550.785 411.074C553.293 408.667 546.032 408.533 550.785 407.731C555.538 406.929 557.254 406.394 558.31 405.993C559.498 405.592 561.743 403.853 562.535 402.65C563.327 401.446 563.063 400.777 565.571 401.446C568.08 402.115 569.136 401.312 571.248 400.644C573.36 399.975 577.057 396.632 579.169 396.498C581.414 396.498 582.206 393.556 582.998 392.62C583.79 391.684 582.734 388.608 585.638 388.608C588.411 388.742 588.279 385.8 588.411 382.858C588.543 379.916 589.863 380.317 591.051 378.445C592.239 376.573 592.899 376.038 592.371 373.364C591.843 370.689 593.955 368.549 594.219 368.014C594.483 367.48 592.899 364.671 590.523 364.939C588.146 365.206 586.958 364.27 589.335 363.2C591.711 362.131 593.163 359.59 591.183 359.189C589.071 358.787 587.75 356.915 589.203 357.45C590.655 357.985 592.503 354.776 590.523 355.444C588.675 356.247 586.034 353.572 584.846 350.898C583.658 348.223 583.79 346.618 581.678 345.548C579.565 344.479 576.001 342.874 577.189 341.537C578.245 340.066 579.961 334.85 582.206 333.781C584.45 332.711 588.411 332.711 587.618 330.437C586.826 328.164 585.11 325.356 582.734 326.158C580.357 326.961 580.489 323.885 577.849 326.158C575.077 328.432 573.756 329.769 573.36 330.437C573.096 331.106 571.776 329.1 570.72 327.629C569.664 326.292 567.023 331.507 566.231 326.693C565.439 321.879 564.515 319.338 566.363 320.141C568.212 321.077 570.324 322.949 571.512 319.204C572.7 315.46 571.644 315.594 573.624 314.925C575.605 314.257 576.265 316.396 576.661 312.518C577.189 308.774 577.189 309.041 579.037 310.111C580.885 311.315 580.753 311.181 580.357 314.257C580.093 317.332 581.545 316.664 580.621 318.67C579.697 320.675 577.453 321.21 578.641 321.344C579.961 321.478 578.641 321.077 584.978 318.402C591.315 315.728 588.939 315.46 593.559 316.129C596.464 316.53 595.143 319.338 596.332 323.617C597.52 327.897 600.688 325.891 602.141 326.024C602.141 326.024 606.101 326.693 605.177 329.234C604.385 331.775 604.649 332.176 605.969 333.914C607.289 335.653 604.253 336.188 606.365 339.665C608.345 343.141 606.761 343.141 610.59 341.938C614.418 340.868 614.946 342.473 617.323 341.136C619.699 339.798 620.755 339.13 619.435 335.118C618.115 331.106 619.171 330.705 616.927 328.03C614.682 325.49 613.362 324.553 612.306 322.815C612.306 322.815 611.514 321.077 610.458 319.739C609.402 318.402 606.365 317.466 606.365 317.466C605.045 313.454 605.969 312.117 607.685 311.315C609.402 310.512 612.966 307.303 611.514 304.361C610.062 301.419 608.213 298.477 612.042 297.942C615.739 297.407 617.191 294.331 618.643 293.529C620.227 292.727 618.907 292.459 622.075 293.529C625.112 294.599 628.016 293.93 628.676 291.389C629.337 288.982 633.693 280.959 635.277 277.482C636.862 274.005 638.578 271.732 637.786 268.255C636.994 264.778 635.145 261.97 637.918 260.365C640.822 258.76 640.822 258.894 639.766 254.882C638.71 250.87 635.277 250.469 636.466 246.457C637.654 242.446 638.05 242.847 636.994 240.172C635.938 237.632 635.013 236.027 635.409 235.358C635.805 234.69 634.485 232.684 638.446 237.364C642.406 242.044 642.274 241.242 643.595 246.591C644.915 251.94 642.802 252.341 645.707 256.353C648.611 260.365 648.875 258.359 649.535 261.97C650.196 265.58 650.592 262.371 651.12 266.918C651.648 271.464 651.516 271.999 652.176 272.668C652.836 273.336 653.628 271.464 654.024 270.394C654.42 269.325 654.024 267.185 655.872 268.656C657.721 270.127 659.437 270.261 659.305 269.726C659.173 269.191 663.001 269.057 658.645 266.516C654.42 263.976 654.42 262.103 653.232 261.568C652.044 260.9 650.064 260.097 649.799 256.621C649.535 253.144 648.479 249.667 650.064 250.737C651.648 251.806 653.364 253.411 654.156 251.673C654.948 249.801 653.496 249.266 652.044 246.992C650.592 244.719 649.667 243.114 648.215 240.975C646.763 238.969 645.311 237.498 643.727 235.091C642.01 232.684 641.614 229.875 641.614 229.474C641.482 229.073 638.314 222.119 636.202 221.317C633.957 220.515 635.409 216.77 633.825 218.241C632.241 219.712 633.297 221.183 633.033 222.387C632.769 223.59 630.393 221.317 631.713 225.329C633.033 229.207 634.353 229.875 634.089 232.149C633.825 234.422 633.693 236.027 632.901 233.753C632.109 231.346 633.429 231.614 631.317 229.875C629.205 228.003 630.525 226.532 629.865 225.462C629.337 224.393 628.148 223.858 625.904 222.654C623.66 221.317 619.831 219.445 618.907 220.782C617.983 222.119 619.831 222.119 616.531 223.724C613.23 225.329 614.154 222.922 612.57 221.852C610.986 220.782 610.854 222.788 610.722 223.858C610.59 224.928 610.062 225.596 608.874 222.922C607.685 220.247 609.138 219.578 605.573 219.177C602.009 218.776 599.896 218.107 601.48 216.904C602.933 215.7 603.461 215.834 605.573 208.212C607.817 200.456 611.778 195.641 611.514 193.502C611.382 191.229 608.874 189.49 611.25 189.356C613.758 189.089 613.89 186.949 612.57 184.81C611.25 182.536 610.722 182.938 615.607 181.199C620.491 179.327 621.415 178.658 624.584 179.059C627.62 179.461 628.412 179.193 629.072 178.257C629.865 177.321 625.772 176.92 632.637 178.123C639.502 179.193 636.466 179.059 636.994 176.786C637.654 174.513 633.957 173.577 638.446 173.577C642.935 173.577 642.142 175.583 644.519 174.78C646.895 173.978 652.44 172.373 650.724 174.78C649.007 177.187 646.235 178.123 648.611 177.99C651.12 177.856 651.78 177.722 652.968 176.92C654.156 176.251 652.044 171.705 655.344 173.443C658.645 175.181 661.285 173.71 660.757 171.972C660.229 170.234 660.229 172.774 658.117 170.635C656.004 168.495 653.232 168.094 655.344 166.489C657.457 164.751 658.381 165.821 657.325 161.942C656.268 158.064 653.364 151.244 657.061 150.308C660.757 149.372 662.605 150.977 665.114 149.372C667.49 147.768 668.81 144.826 669.47 146.698C670.13 148.57 667.226 148.57 669.734 150.442C672.111 152.314 672.243 153.651 674.091 154.588C675.939 155.657 677.392 152.582 677.524 149.372C677.656 146.163 679.768 146.965 680.428 146.029C680.956 145.093 681.484 145.36 679.504 143.622C677.524 141.884 674.355 141.215 676.731 138.808C679.108 136.401 680.956 136.133 681.088 136.936C681.088 137.872 678.448 135.866 680.956 138.942C683.332 142.151 684.257 139.744 684.917 144.424C685.577 149.105 684.521 148.436 684.785 150.175C684.917 151.913 688.217 151.913 685.709 153.785C683.201 155.657 680.56 155.925 681.22 159.803C681.88 163.681 684.653 163.012 682.276 166.489C679.768 169.966 678.448 172.373 679.372 175.583C680.164 178.792 683.2 179.059 679.9 181.734C676.599 184.408 675.675 184.408 676.467 186.949C677.26 189.49 676.864 189.089 676.467 192.833C675.939 196.578 674.883 198.45 678.052 201.927C681.22 205.537 690.33 218.776 692.97 222.253C695.61 225.73 695.874 226.933 697.327 229.608C698.911 232.282 702.871 237.498 702.739 233.62C702.607 229.742 704.984 222.922 702.739 220.916C700.495 218.91 701.023 213.293 703.663 214.363C706.304 215.433 708.152 212.758 706.7 210.886C705.248 208.88 703.003 204.735 704.984 204.2C707.096 203.665 711.717 205.671 709.736 202.462C707.756 199.386 705.908 199.921 705.38 196.578C704.852 193.234 703.663 189.891 705.644 190.292C707.624 190.694 709.472 190.426 706.964 188.153C704.456 185.879 704.059 188.019 702.475 184.676C700.891 181.333 704.323 181.6 701.815 179.327C699.307 177.054 701.023 176.92 697.458 177.321C693.894 177.722 693.762 179.996 693.366 175.449C692.97 170.902 694.026 171.705 692.31 167.559C690.594 163.547 686.237 159.001 689.933 158.466C693.63 157.931 695.214 160.472 696.402 158.064C697.591 155.657 698.251 152.582 698.911 154.855C699.439 157.128 696.27 161.541 699.703 158.332C703.135 155.122 701.815 152.849 704.588 151.779C707.36 150.71 708.548 150.041 710.264 151.913C711.981 153.919 715.017 154.721 715.941 153.919C716.997 152.983 712.641 152.849 715.149 148.302C717.658 143.756 717.525 140.011 719.242 137.203C720.958 134.395 724.39 134.395 724.522 130.517C724.654 126.773 722.542 123.028 727.823 123.162C733.104 123.296 731.916 126.906 735.48 124.633C738.913 122.226 736.272 119.016 735.48 117.813C734.688 116.609 735.084 115.673 731.255 115.272C727.295 115.005 725.579 114.336 724.391 111.795C723.202 109.254 721.618 108.185 720.562 108.853C719.506 109.522 717.789 108.452 716.601 107.917C715.413 107.382 716.073 107.249 715.413 106.312C714.753 105.376 714.621 104.44 715.677 104.708C716.733 104.975 719.242 105.51 719.506 102.434C719.902 99.3587 719.77 97.754 718.582 97.0853C717.393 96.283 721.882 93.6085 715.413 89.9978C708.944 86.521 710.792 81.9743 713.037 84.3813C715.281 86.7884 715.809 87.4571 717.393 87.992C718.978 88.5269 720.562 88.5269 721.354 86.9221C722.146 85.3174 725.183 79.0323 727.691 83.0441C730.199 87.1896 730.859 89.3292 732.444 88.1257C734.028 86.9221 731.255 84.3813 735.48 85.1837C739.837 85.8523 743.005 85.8523 743.137 84.5151C742.873 84.2476 744.061 82.108 740.233 81.9743ZM233.146 323.617C224.169 324.152 229.186 323.082 223.773 323.484C218.492 323.885 217.436 322.949 209.383 318.803C201.198 314.658 204.234 321.344 202.386 323.484C200.538 325.623 196.841 326.158 189.976 324.821C183.111 323.617 186.94 321.612 185.223 313.053C183.507 304.628 187.204 310.78 189.448 308.774C191.692 306.634 191.692 305.163 196.313 298.611C200.934 292.058 199.614 297.541 203.706 299.413C207.667 301.285 202.782 301.553 206.743 306.099C206.743 306.099 208.459 308.239 210.439 306.634C212.419 305.029 213.872 306.233 217.172 304.762C220.473 303.291 212.948 304.495 209.911 303.157C206.875 301.82 209.383 301.018 213.476 299.146C217.568 297.14 219.284 294.866 225.621 292.727C231.958 290.587 225.885 295.936 225.621 297.942C225.357 299.948 223.113 301.954 221.265 303.157C219.284 304.361 223.245 308.774 231.034 310.646C238.955 312.518 240.144 314.925 243.84 317.733C247.537 320.809 242.124 323.082 233.146 323.617ZM291.235 344.612C283.974 345.95 283.182 342.607 277.505 339.263C271.828 335.92 274.469 335.519 274.865 329.501C275.261 323.484 277.505 327.897 278.033 324.687C278.561 321.612 274.865 323.082 269.056 320.809C263.247 318.536 266.151 318.135 264.831 311.983C263.511 305.832 261.267 308.105 262.191 300.483C263.115 292.86 268 297.541 274.337 293.663C280.673 289.918 278.957 292.325 283.446 292.058C287.935 291.791 286.35 294.866 287.538 297.675C288.727 300.483 285.69 299.146 280.145 299.279C274.601 299.413 281.202 302.355 279.089 303.425C276.977 304.495 277.373 307.437 280.145 310.78C280.145 310.78 281.73 312.518 282.39 314.257C283.05 315.995 286.218 317.466 290.047 321.344C293.875 325.222 289.123 325.757 288.991 329.903C288.859 334.048 290.839 331.106 299.42 336.589C308.398 342.473 298.496 343.275 291.235 344.612Z" fill="#121212"/>
<path d="M37.8895 259.029C35.9092 259.163 32.7407 260.768 33.5328 262.773C34.325 264.779 37.4934 265.448 34.589 267.454C31.6846 269.46 29.7043 265.448 30.7604 270.797C31.9486 276.146 37.4934 278.286 40.9259 276.413C44.4904 274.541 50.1673 271.466 48.7151 267.989C47.2629 264.512 46.0747 261.57 48.583 260.233C51.0914 258.895 53.7318 254.75 48.319 254.616C42.9062 254.482 40.5299 254.081 39.6057 256.355C38.6816 258.628 37.8895 259.029 37.8895 259.029Z" fill="#121212"/>
<path d="M47.6589 243.917C47.9229 241.777 45.8106 240.975 48.451 241.109C51.0914 241.242 49.2431 240.306 52.0155 237.899C54.788 235.492 58.0884 233.085 58.6165 235.225C59.0126 237.364 56.7682 236.027 57.8244 239.504C58.8806 242.981 65.7456 240.841 65.2175 242.847C64.6894 244.853 62.9732 240.708 62.181 246.725C61.3889 252.743 63.8973 250.47 66.2736 255.417C68.65 260.365 69.7061 261.435 73.7987 264.511C77.8913 267.586 82.248 267.319 78.8155 269.726C75.383 272.133 76.3071 269.057 71.6864 273.738C67.0658 278.418 66.2736 279.354 62.3131 280.558C58.3525 281.761 55.9761 284.837 53.2037 282.564C50.4313 280.29 46.3387 279.354 52.8077 277.883C59.2766 276.412 63.8973 276.145 59.9367 274.54C55.9761 272.936 52.1476 272.936 54.788 270.395C57.4283 267.854 60.2007 268.389 58.8806 265.848C57.5604 263.307 53.7318 265.313 57.2963 262.237C60.8608 259.162 64.6894 259.028 60.2007 255.819C55.8441 252.609 57.6924 253.679 52.4116 250.336C46.9988 247.26 46.7348 251.138 47.6589 243.917Z" fill="#121212"/>
<path d="M241.332 141.616C238.823 135.331 240.275 134.127 242.124 132.79C243.972 131.453 235.127 132.656 241.068 125.301C247.008 117.946 250.309 124.098 247.668 117.278C245.028 110.324 244.5 110.725 245.028 106.312C245.556 101.899 245.82 101.498 250.705 98.9573C255.59 96.4165 251.233 95.3467 258.626 91.3349C266.019 87.4568 268.528 91.7361 271.696 85.7184C274.864 79.7007 278.561 77.1599 280.013 80.9042C281.465 84.6486 290.839 86.9219 281.994 90.3988C273.148 93.7419 270.508 86.9219 267.207 97.2188C263.907 107.382 257.306 103.504 255.854 113.132C254.401 122.761 254.93 122.359 253.873 125.836C252.817 129.179 246.744 125.301 251.101 132.656C255.458 140.011 262.719 138.406 260.21 142.953C257.702 147.5 254.665 148.035 252.157 146.43C249.649 144.825 247.536 141.883 244.5 141.883C241.464 141.883 241.332 141.616 241.332 141.616Z" fill="#121212"/>
<path d="M355.528 30.2227C353.68 33.8333 353.019 31.9611 355.528 38.2462C358.036 44.5314 357.112 38.5137 356.188 42.5255C355.264 46.5372 351.831 46.8047 357.112 49.7467C362.525 52.6886 366.221 49.4792 367.674 47.4733C369.126 45.4674 375.859 44.5314 370.446 40.1184C365.033 35.7054 361.733 36.7752 358.96 34.2344C356.32 31.4262 355.528 30.2227 355.528 30.2227Z" fill="#121212"/>
<path d="M608.082 349.16C608.082 349.16 607.422 347.822 609.138 347.822C610.854 347.822 612.042 347.956 610.986 348.625C609.798 349.427 608.874 350.096 608.082 349.16Z" fill="#121212"/>
<path d="M661.946 284.765C662.078 283.027 656.269 275.538 665.774 281.155C675.28 286.637 674.62 286.504 677.128 285.969C679.636 285.434 682.013 288.643 680.693 290.649C679.372 292.655 678.316 289.312 675.676 294.126C673.036 298.94 675.016 300.01 672.375 298.94C669.735 297.87 664.322 295.463 664.058 297.336C663.794 299.208 670.923 299.208 665.51 301.615C660.098 304.022 659.041 305.76 659.041 301.615C659.041 297.469 658.645 298.138 660.362 295.731C662.078 293.19 663.926 294.795 662.474 291.585C660.89 288.376 661.946 284.765 661.946 284.765Z" fill="#121212"/>
<path d="M677.523 306.501C677.127 306.902 674.618 311.048 674.75 313.856C674.883 316.664 675.015 316.798 676.071 318.67C677.127 320.676 679.767 319.072 677.127 323.484C674.486 327.897 678.315 326.293 673.694 330.171C669.074 334.049 669.206 334.584 668.282 332.712C667.357 330.839 669.074 326.694 666.433 331.374C663.793 336.055 667.753 335.787 664.321 338.997C660.888 342.206 662.869 338.462 656.796 342.741C650.723 347.02 650.855 343.276 646.762 350.23C642.67 357.183 645.31 358.654 645.178 359.056C645.046 359.457 646.498 354.375 646.762 361.596C647.158 368.951 650.591 371.492 651.911 366.411C653.231 361.329 651.911 356.916 650.723 355.311C649.535 353.707 645.706 352.503 648.611 351.701C651.515 350.765 653.231 349.829 655.212 348.892C657.192 347.956 663.133 347.823 658.116 350.497C653.099 353.172 650.195 351.433 653.363 353.707C656.532 355.98 659.172 354.91 660.624 353.707C662.077 352.503 664.981 350.898 663.133 348.892C661.285 346.887 663.001 342.875 663.529 345.683C664.057 348.491 665.377 352.236 666.301 352.369C667.225 352.503 668.678 351.3 670.13 348.892C671.714 346.619 674.883 344.479 677.787 344.881C680.691 345.282 680.163 340.735 681.351 341.939C682.54 343.142 684.388 344.613 685.444 342.474C686.5 340.334 688.613 340.601 686.5 336.456C684.388 332.31 682.936 329.368 684.256 328.299C685.576 327.229 687.556 330.305 686.5 324.688C685.444 319.072 684.784 316.798 682.54 314.257C680.295 311.583 680.031 303.158 677.523 306.501Z" fill="#121212"/>
<path d="M593.823 403.586C593.823 403.586 588.674 395.161 592.899 391.818C597.124 388.475 600.028 388.475 598.576 391.818C596.992 395.161 594.087 391.149 595.143 397.969C596.2 404.789 597.256 407.196 593.823 403.586Z" fill="#121212"/>
<path d="M543.656 421.105C543.92 419.768 544.712 412.948 548.013 414.151C551.313 415.355 554.35 414.82 552.106 417.495C549.861 420.169 547.353 421.239 546.429 421.105C545.505 420.971 543.656 421.105 543.656 421.105Z" fill="#121212"/>
<path d="M593.822 427.257C594.35 425.384 591.842 415.355 596.067 417.628C600.291 419.902 598.179 416.826 602.14 418.564C606.1 420.303 606.496 418.03 606.1 423.512C605.704 428.995 603.724 428.861 603.46 432.205C603.196 435.681 605.704 436.083 605.44 436.617C605.176 437.152 600.555 438.49 604.384 439.292C608.212 440.094 610.193 436.751 611.645 439.827C613.097 442.903 613.493 440.094 613.625 444.106C613.625 448.118 614.813 449.856 610.589 446.112C606.364 442.368 606.364 439.426 603.46 442.769C600.423 446.112 605.704 450.659 600.819 446.914C595.935 443.17 594.35 441.432 597.519 440.897C600.555 440.362 603.46 439.827 599.499 436.484C595.539 433.274 595.143 431.001 595.011 430.466C595.011 430.065 593.822 427.257 593.822 427.257Z" fill="#121212"/>
<path d="M610.722 461.223C607.685 460.554 609.401 457.077 606.101 462.293C602.8 467.508 602.008 469.915 605.045 469.915C608.081 469.915 611.118 464.031 612.702 465.769C614.286 467.508 609.137 466.171 614.814 469.781C620.491 473.258 623.66 469.38 622.207 468.578C620.755 467.775 620.887 465.368 623.66 466.839C626.564 468.444 629.864 462.961 626.96 461.356C624.056 459.752 626.3 452.397 622.339 455.205C618.379 458.013 618.511 460.688 616.134 461.356C613.626 462.025 612.834 461.223 611.91 461.223C610.986 461.223 610.722 461.223 610.722 461.223Z" fill="#121212"/>
<path d="M608.345 452.13C608.345 452.13 604.384 455.473 604.384 452.13C604.384 448.787 603.064 447.583 605.044 447.85C607.025 448.118 609.005 448.252 609.401 449.856C609.797 451.461 610.589 450.792 610.985 451.996C611.381 453.333 610.193 453.467 610.985 454.67C611.777 455.874 612.833 455.607 611.381 457.345C609.929 459.083 608.345 459.618 608.081 457.612C607.685 455.607 608.345 452.13 608.345 452.13Z" fill="#121212"/>
<path d="M616.135 449.32C616.267 447.849 615.607 448.518 615.475 446.646C615.343 444.774 617.587 444.105 618.511 445.041C619.435 445.977 621.019 445.71 620.227 448.518C619.303 451.326 617.059 450.123 617.983 452.396C618.907 454.669 620.095 457.21 617.851 455.606C615.475 454.001 615.211 451.727 615.079 451.326C614.947 450.791 616.135 449.32 616.135 449.32Z" fill="#121212"/>
<path d="M502.202 478.606C499.826 475.932 500.75 475.397 497.185 474.862C493.621 474.327 487.416 469.513 488.736 473.525C490.056 477.536 496.393 481.815 498.109 483.821C499.826 485.827 498.109 488.234 502.202 491.578C506.295 494.921 509.595 494.386 510.519 497.996C511.311 501.607 510.783 504.282 514.48 507.491C518.176 510.7 518.836 511.636 524.249 516.049C529.662 520.462 532.698 520.997 535.603 520.462C538.507 520.061 530.586 521.933 534.679 524.207C538.771 526.48 537.055 527.416 541.808 527.684C546.692 527.817 544.58 525.009 549.201 527.015C553.821 529.021 549.729 528.218 556.198 529.957C562.667 531.695 562.403 530.091 567.155 530.626C571.908 531.16 573.096 531.695 574.02 531.027C574.945 530.358 581.942 531.695 578.641 529.957C575.341 528.352 569.664 528.352 568.344 528.352C567.023 528.352 565.835 525.945 567.023 525.811C568.212 525.678 572.04 525.544 569.4 524.875C566.759 524.207 563.855 525.143 561.479 523.271C559.102 521.398 557.65 519.526 555.406 521.131C553.161 522.736 550.653 524.742 549.201 523.271C547.749 521.666 547.485 520.061 544.184 520.596C540.884 521.131 539.299 520.997 538.243 519.794C537.187 518.59 534.811 520.195 535.075 517.253C535.339 514.311 533.49 511.904 535.735 510.299C537.979 508.694 540.62 510.299 538.507 506.822C536.395 503.345 535.075 501.607 534.151 503.212C533.226 504.816 533.358 508.293 532.038 505.753C530.718 503.212 533.094 502.677 529.926 501.473C526.757 500.27 524.777 501.473 525.569 499.869C526.361 498.398 529.794 498.531 527.418 496.392C525.041 494.252 523.193 493.985 521.477 492.647C519.76 491.31 518.572 488.636 515.404 488.234C512.367 487.833 511.575 488.502 509.595 485.292C507.615 482.083 506.823 481.013 505.502 480.478C504.182 479.943 502.202 478.606 502.202 478.606Z" fill="#121212"/>
<path d="M586.959 530.492C585.242 530.224 585.242 528.486 583.262 529.288C581.282 530.09 579.697 529.689 580.49 531.16C581.282 532.631 582.47 533.032 584.846 533.166C587.355 533.3 588.543 534.102 591.447 532.631C594.352 531.16 593.824 528.753 591.447 529.021C589.071 529.288 586.959 530.492 586.959 530.492Z" fill="#121212"/>
<path d="M599.499 529.022C597.651 528.755 594.615 530.627 595.143 531.295C595.671 531.964 596.331 532.499 598.707 532.499C601.216 532.499 605.704 532.365 607.025 531.697C608.345 531.028 611.117 529.156 608.873 529.557C606.496 529.958 605.44 530.359 603.196 530.092C600.952 529.691 599.499 529.022 599.499 529.022Z" fill="#121212"/>
<path d="M591.975 534.103C591.975 534.103 591.051 535.039 593.031 536.109C595.012 537.045 595.012 537.714 596.464 537.847C597.916 537.981 598.048 536.644 597.124 535.975C596.2 535.173 594.748 533.167 591.975 534.103Z" fill="#121212"/>
<path d="M615.606 533.032C615.342 533.032 611.909 535.038 611.381 536.242C610.853 537.445 608.477 539.05 611.381 539.184C614.286 539.317 615.606 536.643 618.642 535.306C621.679 533.968 623.791 534.236 625.111 532.899C626.431 531.561 627.092 529.422 622.207 530.893C617.322 532.364 615.606 533.032 615.606 533.032Z" fill="#121212"/>
<path d="M556.726 490.242C555.67 486.899 549.333 486.899 549.069 490.242C548.805 493.585 547.485 496.393 549.729 499.335C551.842 502.143 553.294 500.672 553.294 503.882C553.426 507.091 552.898 508.562 556.066 508.83C559.235 508.963 560.951 508.161 562.271 509.498C563.591 510.836 565.175 509.097 567.552 509.899C569.928 510.702 570.984 510.167 572.833 512.574C574.813 514.847 578.905 515.248 579.302 513.243C579.83 511.237 577.321 512.44 579.302 508.83C581.282 505.219 583.526 502.277 584.186 501.742C584.846 501.207 584.318 497.998 584.714 495.992C585.11 493.986 585.374 494.655 588.279 493.852C591.183 493.05 592.371 493.05 590.127 491.044C587.883 489.038 588.411 489.038 587.883 486.364C587.355 483.689 585.242 483.957 585.903 481.683C586.563 479.41 587.091 479.142 589.599 477.003C592.239 474.863 593.56 474.328 590.391 473.258C587.223 472.189 587.751 472.055 586.035 470.317C584.186 468.578 582.866 467.909 581.546 470.317C580.226 472.724 578.641 474.328 576.661 475.131C574.681 475.933 572.437 476.067 570.06 479.009C567.684 481.951 569.796 482.619 566.628 484.491C563.591 486.364 562.535 485.561 560.687 487.3C558.839 489.038 557.518 492.916 556.726 490.242Z" fill="#121212"/>
<path d="M596.067 494.788C597.387 493.718 600.688 494.387 601.348 492.916C602.008 491.445 602.932 490.776 605.308 491.578C607.685 492.381 607.421 492.113 612.041 491.712C616.662 491.445 620.622 486.764 618.642 490.107C616.662 493.45 617.322 495.991 612.965 495.59C608.741 495.189 608.213 493.985 603.196 495.189C598.179 496.392 594.483 495.323 597.519 498.398C600.556 501.474 603.064 502.41 603.988 501.608C604.912 500.805 608.609 499.602 609.797 500.003C610.985 500.404 613.757 498.131 610.985 500.404C608.213 502.678 604.384 501.741 605.176 504.416C605.968 507.091 605.044 504.951 607.156 508.695C609.401 512.44 609.269 510.835 610.589 513.911C611.909 516.986 611.381 519.126 608.213 518.324C605.044 517.521 609.533 517.12 605.308 516.05C601.084 514.98 599.499 514.044 600.952 511.771C602.404 509.498 601.744 508.027 600.159 508.16C598.443 508.428 598.575 509.364 597.783 511.771C597.123 514.178 601.216 517.254 597.783 518.725C594.351 520.196 592.766 516.585 593.559 515.382C594.351 514.178 598.839 512.707 595.143 510.434C591.314 508.16 587.354 508.963 591.71 504.149C596.067 499.334 595.011 495.323 595.143 494.788C595.275 494.253 596.067 494.788 596.067 494.788Z" fill="#121212"/>
<path d="M631.052 497.329C629.336 499.469 629.732 500.94 632.108 500.806C634.485 500.672 632.768 495.724 632.768 495.724C635.013 492.916 637.917 489.573 634.617 489.038C631.316 488.369 635.145 488.637 635.937 486.765C636.729 484.893 633.56 483.422 632.108 485.16C630.656 486.898 630.26 487.567 629.996 489.974C629.6 492.515 629.336 494.521 630.26 495.858C631.052 497.329 631.052 497.329 631.052 497.329Z" fill="#121212"/>
<path d="M633.561 508.027C632.109 510.835 631.845 511.237 633.561 510.835C635.278 510.568 634.618 509.632 637.258 510.167C639.898 510.702 638.578 510.167 641.218 510.835C643.859 511.504 646.103 509.632 644.387 509.231C642.671 508.829 640.294 507.492 638.71 507.492C637.126 507.626 633.561 508.027 633.561 508.027Z" fill="#121212"/>
<path d="M624.98 508.561C623 509.764 621.151 510.032 623.132 511.101C625.112 512.171 626.3 513.107 627.224 512.305C628.148 511.503 630.393 510.032 629.205 509.898C628.016 509.764 624.98 508.561 624.98 508.561Z" fill="#121212"/>
<path d="M659.438 504.818C659.438 501.073 661.418 500.003 656.533 498.934C651.649 497.864 652.573 496.259 649.668 498.131C646.764 500.003 643.991 500.538 644.388 501.207C644.784 501.876 644.388 501.742 647.556 503.614C650.724 505.486 650.592 505.085 652.837 505.887C655.081 506.69 659.438 504.416 656.665 506.289C653.893 508.161 649.932 505.085 650.328 508.295C650.856 511.504 649.14 512.173 652.045 512.44C654.949 512.707 652.309 508.696 657.325 511.236C662.21 513.777 658.646 514.312 663.53 514.981C668.415 515.649 670.923 516.051 672.904 517.12C674.884 518.324 677.524 518.993 678.052 521.801C678.448 524.609 681.485 526.348 678.713 526.481C676.072 526.615 671.848 528.086 673.036 529.423C674.224 530.76 680.033 529.824 682.409 529.423C684.917 529.022 685.446 530.761 688.482 532.499C691.518 534.237 693.367 531.429 696.403 532.633C699.44 533.97 698.119 530.493 699.704 529.423C701.156 528.353 702.872 525.411 705.512 528.353C708.285 531.162 707.361 530.627 711.849 534.237C716.338 537.848 718.054 539.052 723.203 537.982C728.484 536.912 734.161 540.255 730.068 535.976C726.107 531.697 724.127 533.702 720.431 529.958C716.866 526.348 714.622 525.813 716.47 523.807C718.318 521.935 720.959 517.655 716.338 518.057C711.585 518.458 713.302 517.388 709.077 514.713C704.852 512.039 706.569 510.969 700.496 510.969C694.423 510.969 694.159 505.219 687.03 504.015C679.901 502.812 680.033 495.858 674.488 500.672C668.943 505.486 671.187 505.754 666.039 507.626C661.022 509.498 659.834 508.161 659.57 506.422C659.438 504.818 659.438 504.818 659.438 504.818Z" fill="#121212"/>
<path d="M730.727 517.52C727.691 516.584 729.011 517.654 725.843 517.788C722.674 517.921 718.581 516.584 720.958 518.724C723.334 520.863 727.295 523.672 730.991 521.933C734.688 520.195 739.441 516.985 739.177 515.381C738.912 513.776 736.14 512.84 733.896 515.381C731.651 517.788 730.727 517.52 730.727 517.52Z" fill="#121212"/>
<path d="M748.813 517.521C745.777 519.527 748.285 522.068 750.925 523.271C753.566 524.608 755.942 522.469 753.962 521.131C752.114 519.928 750.925 516.184 748.813 517.521Z" fill="#121212"/>
<path d="M680.825 690.295C678.581 688.824 674.752 684.143 674.62 689.091C674.488 694.039 675.412 692.568 674.224 697.115C673.036 701.661 672.376 703.266 675.148 704.737C677.921 706.208 676.336 703.801 680.825 703.266C685.314 702.731 692.575 699.656 690.198 696.981C687.69 694.306 692.707 692.434 690.198 691.097C687.69 689.76 682.013 690.696 682.013 690.696L680.825 690.295Z" fill="#121212"/>
<path d="M677.919 565.931C682.672 569.541 684.784 569.006 685.973 565.931C687.161 562.855 685.708 563.39 687.953 555.5C690.197 547.61 690.989 535.174 694.026 540.79C697.062 546.407 695.346 547.476 698.25 551.087C701.155 554.698 702.607 551.756 703.663 556.302C704.719 560.849 702.079 560.047 706.039 566.733C710 573.419 706.436 573.687 708.548 578.367C710.66 583.048 716.865 581.175 718.449 585.856C720.034 590.67 722.014 592.81 725.446 597.223C728.879 601.635 733.5 596.42 733.235 603.641C732.971 610.863 730.859 606.985 732.575 614.607C734.292 622.229 734.292 625.038 729.407 629.718C724.522 634.398 721.882 631.991 718.845 640.149C715.809 648.306 708.416 646.434 705.775 655.795C703.135 665.155 703.663 666.76 702.079 668.365C700.495 669.97 694.422 668.499 691.253 672.51C688.085 676.522 682.54 682.674 681.88 678.127C681.22 673.58 686.633 670.638 680.56 671.842C674.355 673.045 670.394 676.522 668.678 675.987C666.962 675.452 665.246 672.778 663.529 670.504C661.813 668.231 660.889 662.481 660.889 661.01C661.021 659.539 661.285 654.056 659.569 653.922C657.852 653.789 656.136 652.451 657.456 650.446C658.777 648.44 654.816 653.521 653.364 653.521C651.912 653.521 641.086 654.725 649.931 651.515C658.777 648.44 659.701 644.963 659.569 643.893C659.437 642.823 659.833 637.608 657.192 641.218C654.552 644.963 654.42 646.3 649.931 647.236C645.443 648.172 648.479 643.358 645.443 640.951C642.406 638.544 644.386 634.933 635.805 633.596C627.224 632.259 632.901 630.253 624.98 631.991C616.926 633.863 616.794 634.666 611.382 635.869C605.969 637.073 607.949 631.59 597.784 637.474C587.618 643.358 588.146 644.829 584.318 643.224C580.357 641.62 581.149 636.672 575.472 641.352C569.796 646.033 566.627 650.446 563.063 647.37C559.498 644.294 554.745 644.963 556.858 641.352C558.97 637.742 562.006 640.015 562.93 636.271C563.855 632.66 568.211 636.538 563.195 628.916C558.178 621.427 557.65 618.752 559.234 616.479C560.95 614.206 560.29 612.334 560.158 609.124C560.026 605.781 561.478 605.514 561.082 601.234C560.686 596.955 557.782 598.292 560.95 592.542C564.119 586.792 565.043 588.53 570.456 586.658C576 584.786 575.472 582.513 579.433 581.175C583.393 579.838 575.208 580.774 586.826 577.698C598.444 574.623 600.16 575.291 601.612 570.745C603.064 566.064 596.727 564.593 602.536 563.39C608.345 562.053 604.385 571.28 610.193 564.46C616.002 557.64 613.494 556.169 619.435 554.43C625.376 552.692 624.848 550.953 627.092 553.628C629.336 556.169 626.828 558.843 634.221 557.105C641.614 555.366 634.749 552.959 642.934 549.883C651.119 546.808 655.476 547.476 652.44 544.534C649.403 541.592 644.518 538.918 650.063 539.854C655.476 540.79 662.341 543.465 666.17 543.331C669.998 543.063 673.827 538.918 671.846 544.534C669.734 550.151 662.737 546.674 664.453 553.628C666.302 560.582 669.338 564.46 671.45 563.39C673.563 562.32 678.975 562.186 678.711 563.39C678.447 564.727 677.919 565.931 677.919 565.931Z" fill="#121212"/>
<path d="M621.02 324.42C620.888 324.42 619.436 325.356 620.492 325.757C621.548 326.158 622.34 326.426 622.34 325.757C622.34 325.089 621.68 324.42 621.548 324.42C621.284 324.42 621.02 324.42 621.02 324.42Z" fill="#121212"/>
<path d="M623.264 324.152C623 324.554 623.132 325.222 623.528 325.222C623.924 325.222 624.188 324.42 624.056 324.286C623.924 324.152 623.528 324.152 623.528 324.152H623.264Z" fill="#121212"/>
<path d="M1169.43 138.809C1171.14 139.745 1174.31 143.088 1174.97 145.896C1175.63 148.704 1167.05 149.774 1165.86 153.519C1164.67 157.129 1168.11 159.269 1165.86 162.478C1163.62 165.821 1161.51 166.891 1158.47 166.223C1155.43 165.554 1150.68 162.344 1146.98 161.275C1143.29 160.205 1150.68 162.344 1152 164.083C1153.32 165.821 1149.36 168.63 1152 169.566C1154.64 170.502 1153.45 174.647 1157.15 182.136C1160.85 189.625 1160.98 186.549 1156.75 189.357C1152.53 192.165 1152.4 190.16 1150.55 188.287C1148.7 186.415 1152.66 183.206 1144.74 183.206C1136.82 183.34 1137.74 186.415 1136.95 179.996C1136.03 173.577 1140.51 175.583 1143.82 171.037C1147.12 166.49 1146.72 168.763 1142.23 169.298C1137.74 169.833 1138.8 172.374 1133.12 177.322C1127.44 182.27 1127.58 181.066 1122.03 181.467C1116.49 181.869 1117.94 184.276 1117.41 186.816C1116.88 189.357 1112.39 189.625 1104.87 191.363C1097.34 193.102 1102.36 199.788 1101.04 202.73C1099.72 205.672 1096.42 204.334 1092.33 209.149C1088.37 214.096 1095.36 215.166 1096.29 217.172C1097.21 219.178 1097.34 222.655 1097.61 225.731C1097.87 228.806 1101.3 226.399 1106.32 223.324C1111.34 220.248 1110.15 225.998 1112 232.818C1113.98 239.638 1116.22 237.499 1126.65 238.301C1137.08 239.103 1132.86 240.842 1135.76 243.784C1138.67 246.726 1134.71 247.261 1129.29 253.813C1123.88 260.366 1132.2 261.034 1139.19 263.174C1146.19 265.314 1140.91 259.697 1141.31 251.406C1141.7 243.115 1145.27 246.859 1150.55 244.185C1155.83 241.51 1155.56 243.249 1159.39 238.301C1163.22 233.353 1154.24 231.615 1152.13 226.132C1150.02 220.649 1156.62 221.585 1159.92 215.567C1163.22 209.55 1165.6 209.149 1164.67 202.596C1163.75 196.043 1165.2 199.52 1170.88 196.712C1176.56 193.904 1176.82 195.107 1179.46 195.375C1182.23 195.776 1184.48 204.335 1189.23 205.404C1193.98 206.474 1192.79 206.875 1196.09 208.213C1199.4 209.55 1196.09 211.823 1192.79 218.242C1189.49 224.661 1193.32 222.254 1194.11 224.527C1194.91 226.8 1198.73 223.859 1204.15 218.911C1209.43 213.963 1206.52 215.969 1210.62 214.097C1214.71 212.224 1211.67 218.108 1214.31 221.986C1216.95 225.731 1216.95 233.353 1216.95 233.353C1216.95 233.353 1214.31 238.836 1215.5 241.377C1216.69 244.051 1222.5 245.388 1224.35 246.993C1226.2 248.598 1224.35 252.075 1230.02 255.418C1235.7 258.761 1234.91 258.761 1236.62 260.767C1238.34 262.773 1233.46 266.918 1228.97 266.116C1224.48 265.314 1225.8 269.727 1221.97 273.738C1218.14 277.75 1214.05 273.872 1211.94 273.738C1209.82 273.605 1207.18 275.209 1196.09 273.738C1185.01 272.267 1192.13 272 1188.17 272.535C1184.21 273.07 1184.87 278.686 1179.06 281.093C1173.26 283.5 1176.82 282.698 1171.01 284.169C1165.2 285.64 1173.65 286.309 1182.63 281.896C1191.61 277.483 1189.89 279.756 1194.91 280.826C1199.92 281.896 1195.7 284.436 1194.64 286.71C1193.59 288.983 1193.06 289.919 1199 296.338C1204.94 302.757 1208.24 291.925 1210.09 291.925C1211.94 291.925 1212.47 298.879 1206.52 303.426C1200.58 307.972 1195.7 304.763 1194.64 306.501C1193.59 308.24 1187.65 309.443 1184.21 305.966C1180.78 302.489 1184.87 303.292 1188.31 300.885C1191.74 298.478 1186.59 297.274 1183.42 299.28C1180.38 301.42 1175.9 302.088 1168.63 303.292C1161.37 304.495 1166.52 310.379 1166.39 313.321C1166.26 316.263 1163.49 315.595 1156.88 316.263C1150.28 316.932 1150.15 319.339 1151.47 321.612C1152.79 323.886 1147.91 330.572 1142.36 334.717C1136.82 338.863 1137.61 332.578 1136.55 338.328C1135.5 344.078 1136.95 343.276 1136.95 346.619C1136.95 349.962 1134.71 351.701 1129.95 351.433C1125.2 351.032 1125.46 354.375 1122.03 356.916C1118.6 359.457 1115.03 360.794 1109.36 363.469C1103.68 366.143 1110.28 377.242 1112.39 383.929C1114.64 390.615 1113.19 388.342 1111.47 391.819C1109.75 395.295 1108.3 392.086 1103.95 385.4C1099.59 378.713 1102.36 381.789 1102.36 374.033C1102.36 366.277 1098.8 369.085 1097.87 368.684C1096.95 368.283 1089.42 370.021 1082.82 368.684C1076.09 367.347 1074.5 370.957 1074.37 371.492C1074.24 372.027 1070.81 375.103 1066.19 374.167C1061.57 373.231 1062.49 371.893 1057.61 372.428C1052.72 372.963 1049.16 375.771 1046.65 375.37C1044.01 374.969 1041.63 376.44 1036.88 381.522C1031.99 386.603 1037.94 391.952 1036.35 393.691C1034.77 395.429 1032.92 398.906 1034.24 405.86C1035.56 412.814 1037.54 409.47 1038.6 413.482C1039.78 417.494 1042.95 419.232 1046.78 421.105C1050.61 423.11 1051.4 420.837 1055.63 420.436C1059.85 420.168 1060.51 422.308 1063.15 421.238C1065.79 420.168 1065.4 417.628 1066.72 412.947C1068.04 408.267 1069.75 409.872 1072.52 406.93C1075.3 403.988 1078.6 407.732 1082.69 408.133C1086.78 408.668 1081.77 407.999 1079.92 410.005C1078.07 412.011 1080.58 417.895 1076.62 419.5C1072.66 421.105 1074.77 425.785 1072.52 428.727C1070.28 431.669 1074.24 432.338 1080.45 431.669C1086.65 431.134 1089.55 431.803 1092.86 432.471C1096.16 433.14 1094.44 436.082 1092.86 438.221C1091.27 440.361 1092.72 442.1 1091.14 447.315C1089.42 452.664 1097.34 459.083 1103.81 458.28C1110.41 457.478 1113.32 458.013 1114.51 458.28C1115.69 458.548 1117.94 460.286 1120.71 462.158C1123.48 464.031 1118.6 458.949 1125.07 453.6C1131.54 448.385 1129.42 451.728 1132.2 450.658C1134.97 449.588 1136.03 449.588 1142.49 446.78C1148.96 443.972 1146.85 445.844 1147.38 447.449C1147.91 449.053 1146.32 448.385 1143.82 449.321C1141.31 450.257 1146.46 451.193 1150.55 449.321C1154.51 447.449 1152.92 446.513 1155.17 446.78C1157.54 447.047 1158.6 449.722 1158.34 452.263C1158.07 454.804 1160.05 453.199 1168.5 452.263C1176.95 451.327 1171.14 453.466 1174.84 452.263C1178.54 451.059 1176.03 449.187 1177.74 448.117C1179.46 447.047 1180.78 450.658 1185.27 451.193C1189.76 451.728 1185.8 453.199 1185 454.804C1184.21 456.408 1187.91 457.478 1192.13 458.28C1196.23 459.083 1198.6 462.56 1202.43 466.839C1206.26 471.118 1212.6 468.711 1218.01 468.979C1223.29 469.38 1227.25 470.583 1230.55 474.729C1233.85 479.008 1233.32 483.02 1235.96 485.694C1238.6 488.369 1239.26 489.973 1238.34 493.45C1237.42 496.927 1229.89 496.66 1233.32 499.736C1236.76 502.811 1235.44 496.66 1239.4 496.66C1243.36 496.526 1240.59 500.805 1247.05 500.27C1253.39 499.736 1249.83 499.736 1258.14 500.27C1266.59 500.805 1261.44 504.817 1266.46 506.021C1271.48 507.224 1275.97 506.689 1285.21 506.823C1294.45 506.957 1291.15 513.108 1294.58 515.381C1298.01 517.655 1299.73 516.05 1303.82 518.725C1307.91 521.399 1305.93 528.085 1305.41 529.824C1304.88 531.562 1299.07 535.44 1295.9 538.115C1292.73 540.923 1292.6 543.731 1288.24 543.999C1283.89 544.4 1287.45 554.028 1288.11 559.11C1288.77 564.191 1287.45 564.86 1284.15 567.267C1280.98 569.808 1283.23 570.744 1280.32 575.826C1277.42 580.774 1278.47 583.716 1272.01 586.123C1265.54 588.53 1265.54 586.524 1261.44 586.925C1257.35 587.192 1257.35 589.198 1252.33 591.338C1247.32 593.478 1249.03 600.164 1251.67 605.78C1254.32 611.397 1248.37 610.461 1245.34 615.141C1242.3 619.822 1241.64 617.281 1236.23 618.618C1230.82 619.955 1234.78 629.851 1234.25 632.526C1233.72 635.2 1231.34 637.741 1220.91 635.601C1210.48 633.462 1213.13 636.136 1213.13 636.136C1213.13 636.136 1215.24 638.008 1215.63 640.148C1216.03 642.288 1218.41 646.299 1221.71 648.706C1225.01 651.113 1214.97 655.794 1212.07 656.997C1209.03 658.067 1206.52 658.468 1199.66 658.201C1192.79 657.934 1199.79 663.149 1198.6 666.893C1197.55 670.638 1192.4 665.957 1186.33 665.155C1180.12 664.352 1184.48 667.829 1192.4 670.638C1200.32 673.579 1192.66 673.713 1191.74 674.114C1190.81 674.516 1188.97 684.812 1183.68 685.615C1178.4 686.283 1178.01 692.97 1185.27 698.854C1192.66 704.738 1190.29 702.197 1190.29 705.139C1190.29 708.081 1187.51 712.895 1182.1 717.308C1176.69 721.721 1181.7 722.122 1177.08 727.204C1172.46 732.285 1179.33 732.018 1187.25 733.221C1195.04 734.425 1195.83 737.233 1198.47 743.251C1201.11 749.268 1196.09 749.402 1185.53 745.792C1174.97 742.047 1178.8 744.053 1172.6 743.251C1166.39 742.448 1167.31 734.559 1164.81 727.204C1162.3 719.849 1160.85 726.401 1158.47 727.07C1156.09 727.739 1157.41 724.93 1158.21 715.035C1159 705.139 1156.49 707.145 1149.36 700.458C1142.23 693.772 1153.72 693.237 1154.24 688.958C1154.77 684.679 1160.32 681.469 1162.69 676.789C1165.07 672.108 1156.09 674.649 1158.21 675.719C1160.32 676.923 1155.04 681.202 1149.76 677.056C1144.48 672.911 1150.55 671.574 1151.34 667.027C1152.13 662.48 1146.98 658.335 1146.98 650.579C1146.98 642.689 1153.72 642.689 1155.17 638.409C1156.62 634.13 1150.68 630.118 1150.15 625.304C1149.62 620.49 1152.13 612.467 1156.09 604.443C1160.05 596.419 1156.88 598.425 1155.3 590.803C1153.58 583.181 1151.6 586.657 1151.6 580.907C1151.6 575.157 1153.19 576.227 1154.38 571.948C1155.56 567.668 1150.81 565.796 1140.51 562.854C1130.22 559.779 1128.37 555.232 1127.58 552.958C1126.78 550.685 1124.14 548.813 1122.56 542.127C1120.98 535.44 1117.68 537.847 1113.58 534.638C1109.49 531.429 1111.47 527.952 1109.23 523.806C1106.98 519.661 1105.66 522.335 1105.13 520.597C1104.74 518.725 1103.15 519.126 1101.44 516.184C1099.72 513.242 1102.36 512.841 1104.74 510.3C1107.11 507.759 1108.7 508.16 1108.04 506.422C1107.25 504.683 1104.34 507.893 1103.42 505.619C1102.49 503.346 1104.08 501.741 1104.61 499.334C1105.27 496.794 1107.91 495.724 1109.36 490.642C1110.81 485.561 1112 486.764 1116.88 483.421C1121.77 480.078 1120.32 480.746 1119.92 479.81C1119.39 478.874 1118.86 477.537 1119.92 474.729C1120.98 471.92 1113.85 460.687 1111.07 459.885C1108.3 459.083 1108.04 462.961 1108.3 463.897C1108.57 464.833 1107.25 466.973 1104.08 465.769C1100.91 464.566 1100.91 463.095 1098 462.292C1095.23 461.49 1094.31 463.897 1092.2 462.827C1090.08 461.757 1091.8 460.286 1090.35 458.414C1088.89 456.542 1086.25 457.344 1085.33 456.943C1084.41 456.542 1083.61 456.275 1083.22 454.536C1082.82 452.798 1082.43 450.792 1081.11 448.92C1079.79 447.047 1076.88 443.437 1076.88 443.437C1071.07 435.681 1066.98 441.832 1056.95 437.419C1046.91 433.14 1052.46 433.407 1046.12 431.134C1039.78 428.994 1041.1 434.076 1031.86 432.471C1022.62 430.867 1027.77 429.93 1025.53 428.861C1023.28 427.791 1012.98 426.721 1009.82 423.378C1006.78 419.901 1003.35 418.163 999.914 413.482C996.481 408.802 1000.05 410.406 1001.1 406.93C1002.29 403.453 993.841 395.83 991.861 393.557C989.88 391.284 987.636 389.813 986.052 384.464C984.6 379.115 981.695 379.917 980.639 379.649C979.583 379.382 975.49 370.824 974.17 366.411C972.85 361.998 972.586 362.533 969.021 361.062C965.457 359.457 971.53 373.498 973.642 376.707C975.754 379.917 976.018 381.655 977.603 383.527C979.187 385.4 979.319 388.877 980.903 392.487C982.487 396.098 984.6 397.836 985.92 400.778C987.108 403.72 983.543 401.179 980.375 398.237C977.207 395.295 976.282 394.627 974.17 392.487C972.058 390.348 974.17 390.348 974.17 386.202C974.17 382.056 967.437 385.667 964.137 382.859C960.836 380.051 964.269 379.516 968.493 379.115C972.586 378.713 964.665 371.225 963.609 370.422C962.552 369.62 962.024 368.015 958.856 358.788C955.687 349.561 955.423 352.904 948.426 346.352C941.429 339.933 945.654 345.549 942.882 340.067C940.109 334.584 941.957 334.316 939.977 329.636C937.997 324.955 936.809 324.554 936.281 317.601C935.753 310.647 938.921 313.188 938.525 306.234C938.129 299.28 942.882 289.251 945.654 285.105C948.558 280.826 945.918 278.018 948.294 270.395C950.671 262.773 951.463 271.866 958.724 270.395C965.985 268.924 961.1 267.32 960.044 264.511C958.988 261.703 956.083 268.924 948.426 264.244C940.769 259.563 943.938 262.238 939.845 257.023C935.753 251.807 940.373 253.546 944.334 253.813C948.294 254.081 954.895 262.238 955.423 258.494C955.819 254.749 951.595 253.813 946.974 251.941C942.353 250.069 944.334 247.394 944.994 243.383C945.654 239.371 944.07 241.644 942.221 236.562C940.373 231.615 944.334 233.621 944.994 232.952C945.654 232.283 941.165 235.894 936.809 233.086C932.584 230.277 937.997 231.347 939.977 231.615C941.957 232.016 938.921 231.213 940.109 227.335C941.297 223.457 943.014 223.324 941.033 222.12C939.053 220.917 935.884 224.393 934.168 216.771C932.452 209.149 936.413 215.3 939.053 214.097C941.693 212.893 939.053 211.689 940.505 207.544C941.957 203.398 941.561 202.864 939.977 201.393C938.261 200.055 935.753 208.346 934.564 211.288C933.376 214.23 930.736 213.963 930.076 207.41C929.416 200.858 928.359 202.195 932.056 197.113C935.752 192.032 936.017 196.177 936.281 193.235C936.413 190.293 934.036 192.7 932.32 193.369C930.604 194.038 928.095 192.834 927.039 187.886C925.983 182.805 919.118 180.398 918.326 179.863C917.534 179.328 911.857 175.182 908.292 173.043C904.728 170.903 902.484 170.101 900.371 165.955C898.259 161.943 896.807 167.159 897.995 167.292C899.183 167.426 896.411 173.711 891.658 171.705C886.905 169.699 888.094 171.037 885.453 174.246C882.813 177.456 875.288 180.531 873.835 178.258C872.251 175.985 879.644 176.252 881.757 169.031C883.869 161.81 887.037 165.955 892.582 164.35C898.127 162.746 894.694 159.135 889.678 158.6C884.661 158.065 882.021 166.757 873.967 167.025C865.914 167.292 869.743 171.572 867.895 175.985C865.914 180.264 861.954 183.072 860.105 183.34C858.257 183.607 855.749 184.142 853.9 186.549C852.052 188.956 849.016 190.16 845.847 190.293C842.679 190.427 840.831 192.299 838.586 193.503C836.342 194.706 833.702 197.247 827.629 197.648C821.556 198.049 826.44 197.916 822.744 197.247C819.047 196.578 817.595 200.323 809.146 203.131C800.697 205.939 805.977 202.596 805.845 200.323C805.713 198.049 808.486 199.654 810.994 199.253C813.503 198.852 814.559 198.718 818.915 195.107C823.272 191.497 821.688 194.573 826.308 194.038C830.929 193.503 828.157 193.636 832.909 190.427C837.662 187.218 840.963 186.415 845.319 183.473C849.676 180.531 847.168 181.334 848.752 176.787C850.336 172.24 852.184 175.048 852.316 174.38C852.448 173.711 850.072 173.31 847.564 174.647C847.564 174.647 844.791 174.915 843.999 173.31C843.207 171.705 839.246 175.717 835.814 174.647C832.381 173.577 835.022 172.374 841.491 165.153C847.96 157.932 840.699 161.676 838.586 162.478C836.342 163.414 833.702 161.141 830.929 157.664C828.157 154.187 831.985 152.449 831.061 149.239C830.137 146.03 834.494 147.501 834.758 144.693C835.022 141.751 836.87 140.681 838.85 135.733C840.963 130.919 844.263 133.727 849.94 130.25C855.617 126.773 854.561 129.983 855.749 131.186C856.805 132.39 861.029 132.925 864.198 128.512C867.234 124.233 868.027 126.773 872.119 123.296C876.212 119.82 870.139 121.692 866.706 122.762C863.274 123.831 861.69 125.035 855.749 121.291C849.94 117.546 850.204 121.424 847.432 117.68C844.527 114.069 848.356 114.471 851.92 111.395C855.485 108.319 849.28 109.389 848.224 107.249C847.035 104.976 850.204 105.511 853.372 103.906C856.541 102.168 857.597 104.441 862.086 102.703C866.574 100.964 864.726 101.633 867.895 100.296C871.063 98.9583 871.063 102.034 870.403 104.04C869.743 106.046 867.895 108.052 872.647 109.924C877.4 111.796 885.057 108.453 884.529 106.714C884.001 104.976 877.532 103.371 873.835 98.5571C870.139 93.743 877.004 95.0803 875.288 89.9987C873.439 84.9171 873.307 84.2484 875.288 77.9633C877.268 71.6782 875.288 77.9633 878.852 78.097C882.417 78.2308 885.453 75.2888 889.15 71.9456C892.714 68.6025 895.883 71.0096 907.632 67.2652C919.382 63.5209 910.801 66.1954 916.082 66.0617C921.23 65.928 922.287 64.1895 929.944 63.3872C937.601 62.5848 931.528 66.9978 935.885 69.4049C940.241 71.8119 938.789 71.1433 940.769 71.8119C942.749 72.4806 942.617 78.7657 950.671 81.8414C958.724 84.9171 954.763 83.5798 964.137 89.8649C973.378 96.1501 973.114 97.2199 979.187 99.627C985.26 102.034 982.883 105.511 987.636 106.046C992.257 106.581 995.689 104.174 1004.8 106.046C1013.91 107.918 1002.55 109.122 1010.74 100.964C1018.92 92.8069 1014.96 98.5571 1016.28 100.429C1017.6 102.301 1017.87 107.249 1020.64 114.203C1023.41 121.157 1023.41 113.401 1032.26 109.389C1041.1 105.377 1035.03 112.866 1039.39 119.285C1043.61 125.704 1051.53 120.488 1058.93 122.895C1066.32 125.302 1057.08 127.576 1048.76 129.18C1040.44 130.785 1050.61 136 1055.63 135.064C1060.64 134.128 1064.87 135.064 1066.98 137.873C1069.09 140.681 1070.41 145.094 1075.16 144.96C1079.79 144.826 1081.9 142.018 1080.05 137.873C1078.2 133.727 1077.54 134.663 1081.77 129.18C1085.99 123.698 1087.18 131.855 1088.63 136.669C1090.08 141.483 1094.31 136.535 1096.55 142.018C1098.8 147.501 1103.29 145.762 1110.81 142.152C1118.34 138.541 1112.13 137.471 1114.11 132.524C1116.09 127.576 1123.09 140.146 1115.69 148.303C1108.17 156.594 1119.26 152.048 1124.67 149.507C1130.08 146.966 1128.9 143.89 1126.26 138.408C1125.33 136.535 1124.8 135.198 1124.67 133.995C1124.41 131.587 1125.73 129.983 1128.63 126.372C1132.99 121.023 1132.59 119.285 1130.22 113.936C1127.84 108.587 1130.61 105.243 1136.55 98.0222C1142.49 90.801 1145.8 93.4756 1155.83 92.0046C1165.73 90.5336 1161.11 97.6211 1160.85 99.627C1160.58 101.633 1154.38 103.639 1141.97 104.976C1129.56 106.313 1139.19 110.592 1140.78 114.738C1142.36 118.884 1142.1 122.227 1137.61 129.849C1133.12 137.471 1139.46 133.861 1141.04 136C1142.63 138.14 1139.19 138.408 1141.97 143.088C1144.74 147.768 1143.82 140.012 1146.46 139.477C1149.1 138.942 1148.44 145.495 1146.98 148.437C1145.53 151.379 1144.21 152.315 1144.34 155.658C1144.34 158.868 1147.38 157.129 1147.91 152.582C1148.44 148.036 1146.98 151.245 1150.42 148.437C1153.85 145.629 1151.34 149.507 1151.87 149.774C1152.4 150.042 1158.21 147.367 1158.73 143.623C1159.26 139.879 1159.79 139.21 1162.96 137.204C1162.17 138.274 1167.18 137.471 1169.43 138.809Z" fill="#121212"/>
<path d="M1169.43 111.661C1170.09 111.26 1186.72 103.771 1180.39 102.568C1174.05 101.364 1169.69 102.3 1167.58 104.44C1165.47 106.58 1162.3 110.057 1160.32 112.731C1158.21 115.406 1151.87 116.743 1152.13 119.819C1152.4 122.894 1154.91 123.964 1156.36 125.97C1157.81 127.976 1155.3 124.633 1152.93 127.842C1150.55 131.052 1147.25 130.249 1151.34 133.057C1155.3 135.866 1162.04 137.203 1163.09 137.069C1164.15 136.935 1167.18 133.726 1169.56 135.465C1171.94 137.069 1173.92 141.081 1175.5 141.081C1176.95 141.081 1181.05 146.43 1183.29 143.354C1185.53 140.279 1184.48 136.267 1185.27 135.598C1185.93 134.93 1187.65 130.784 1188.31 135.465C1188.97 140.145 1187.65 140.814 1189.89 144.424C1192 147.901 1191.48 149.105 1190.55 150.576C1189.63 152.047 1190.82 151.779 1195.17 154.721C1199.53 157.797 1201.25 158.064 1200.85 161.14C1200.45 164.082 1200.06 165.018 1196.76 167.826C1193.46 170.501 1187.65 168.094 1186.46 172.105C1185.27 176.117 1181.57 176.786 1178.8 176.385C1176.03 175.984 1174.58 175.181 1173.13 178.123C1171.67 181.065 1170.48 187.083 1175.63 186.682C1180.78 186.147 1183.69 182.001 1187.12 184.943C1190.55 188.019 1190.02 189.089 1192.93 194.037C1195.7 198.984 1193.59 196.042 1200.72 201.391C1207.85 206.741 1212.2 202.461 1208.9 200.322C1205.47 198.182 1196.76 189.891 1201.11 189.757C1205.47 189.624 1206.92 191.095 1211.28 195.508C1215.64 199.92 1221.58 202.862 1221.31 198.717C1221.05 194.571 1225.01 196.176 1218.28 188.688C1211.54 181.333 1208.77 173.844 1213.39 174.111C1218.01 174.379 1219.73 168.762 1222.24 175.984C1224.74 183.205 1225.27 186.548 1227.91 183.071C1230.55 179.594 1226.72 179.728 1233.19 177.187C1239.53 174.646 1240.98 171.838 1235.31 169.297C1229.63 166.756 1225.93 167.024 1223.95 163.681C1221.97 160.204 1220.92 159.936 1219.73 155.122C1218.54 150.308 1216.82 148.971 1221.44 148.837C1226.06 148.703 1227.25 144.157 1224.22 142.552C1221.31 141.081 1219.99 138.406 1212.73 129.581C1205.47 120.755 1212.07 116.475 1204.15 118.348C1196.23 120.086 1193.06 123.295 1190.68 120.487C1188.31 117.679 1189.1 114.336 1190.42 110.591C1191.74 106.847 1195.96 103.237 1190.42 104.708C1184.87 106.178 1181.84 102.3 1179.07 111.26C1176.29 120.353 1174.31 126.772 1171.67 125.435C1168.9 123.964 1167.71 122.359 1167.71 118.882C1167.71 115.406 1169.43 111.661 1169.43 111.661Z" fill="#121212"/>
<path d="M1124.01 101.365C1123.62 100.697 1120.98 97.8883 1119.79 98.5569C1118.6 99.2255 1116.88 98.2895 1118.2 103.371C1119.66 108.453 1117.94 109.121 1120.05 111.662C1122.16 114.203 1125.07 114.069 1125.99 109.522C1126.92 104.976 1122.3 103.906 1127.18 101.231C1132.07 98.5569 1130.88 96.9522 1135.76 94.6789C1140.65 92.4055 1143.82 88.7949 1139.85 88.1263C1135.89 87.4576 1131.54 82.1086 1127.84 88.1263C1124.14 94.144 1124.14 97.2197 1123.75 98.5569C1123.22 99.8942 1124.01 101.365 1124.01 101.365Z" fill="#121212"/>
<path d="M1054.84 94.2777C1048.1 96.9522 1047.05 99.8942 1044.54 98.5569C1041.9 97.2196 1042.03 97.8883 1039.26 95.7487C1036.35 93.4753 1032.66 89.0624 1039.26 88.1263C1045.86 87.1902 1047.84 89.4635 1048.1 83.5796C1048.37 77.6956 1048.23 73.5501 1051.8 73.1489C1055.36 72.7478 1050.61 68.8697 1059.85 68.4685C1069.09 68.0673 1075.69 65.6603 1077.67 71.5442C1079.65 77.4282 1077.54 79.1666 1080.31 81.7074C1083.09 84.2482 1085.46 79.1666 1083.22 86.5215C1080.98 94.0102 1082.69 98.4232 1085.86 96.6847C1088.9 94.9463 1090.61 97.2196 1095.63 95.3475C1100.65 93.609 1097.35 98.1557 1095.37 100.162C1093.38 102.168 1090.35 106.447 1093.65 106.848C1096.95 107.249 1100.25 102.97 1101.7 99.2255C1103.29 95.4812 1103.02 89.1961 1105.27 91.0682C1107.51 92.9404 1110.81 90.6671 1110.68 89.1961C1110.55 87.7251 1115.7 82.5098 1115.83 87.8588C1115.96 93.2079 1116.62 94.0102 1112.13 97.4871C1107.64 100.964 1108.04 104.307 1106.19 107.784C1104.34 111.261 1101.17 109.121 1101.83 113.935C1102.49 118.75 1106.45 118.348 1106.59 123.296C1106.72 128.244 1100.51 124.901 1098.67 128.378C1096.69 131.855 1097.74 134.663 1094.57 133.593C1091.4 132.523 1091.67 127.308 1089.03 125.837C1086.39 124.366 1083.62 117.546 1077.28 123.697C1070.94 129.849 1064.34 131.721 1062.76 126.506C1061.17 121.29 1061.7 115.005 1053.91 115.406C1046.12 115.808 1041.77 103.371 1055.23 107.784C1068.7 112.197 1070.55 119.686 1075.83 115.941C1081.11 112.197 1090.61 107.517 1077.94 105.778C1065.26 104.04 1058.66 111.528 1058.66 102.702C1058.66 93.8765 1059.72 93.8765 1065.92 93.609C1072.13 93.3416 1078.07 88.1263 1076.62 86.3878C1075.17 84.6494 1076.35 80.6376 1068.04 85.7192C1059.46 91.202 1054.84 94.2777 1054.84 94.2777Z" fill="#121212"/>
<path d="M1079.52 47.8747C1077.54 49.7469 1076.88 55.7646 1079.52 54.6948C1082.16 53.6249 1084.8 46.4037 1085.33 56.032C1085.86 65.6603 1085.73 65.6603 1088.24 66.3289C1090.74 66.9976 1089.82 66.8638 1093.38 69.1372C1096.95 71.4105 1102.36 68.8697 1100.25 70.8756C1098.14 72.8815 1089.95 68.0674 1090.35 73.2827C1090.74 78.498 1094.18 80.7713 1099.59 79.3004C1105.13 77.8294 1110.42 72.7478 1114.24 75.4223C1118.07 78.0968 1120.18 81.3063 1123.35 77.6956C1126.65 74.085 1126.26 65.6603 1131.93 71.5442C1137.61 77.4282 1139.46 79.8353 1143.16 81.8412C1146.85 83.8471 1150.29 75.4223 1156.36 82.7772C1162.43 90.1322 1163.62 85.7192 1172.46 90.8008C1181.31 95.8824 1178.93 98.022 1187.38 97.7546C1195.7 97.6208 1197.28 95.3475 1200.19 93.0742C1203.09 90.8008 1203.09 87.3239 1202.04 85.1843C1200.98 83.0447 1193.72 78.498 1207.05 78.6317C1220.39 78.7655 1224.74 76.7596 1223.69 72.8815C1222.76 69.0034 1214.97 66.8638 1223.82 64.8579C1232.67 62.852 1241.11 62.0497 1241.91 59.6426C1242.7 57.2355 1234.91 54.8285 1240.19 52.9563C1245.34 51.0841 1245.07 53.3575 1251.15 49.6132C1257.35 45.7351 1246.13 41.0547 1262.37 39.1825C1278.61 37.3104 1284.42 36.3743 1283.36 33.2986C1282.3 30.2229 1265.41 30.4903 1279.93 29.2868C1294.45 28.0833 1301.32 25.8099 1300.79 24.8738C1300.26 23.9377 1302.11 22.6005 1299.07 19.5248C1296.03 16.4491 1299.07 13.7746 1294.58 12.4373C1290.09 11.1 1283.1 12.9722 1281.64 12.4373C1280.32 11.9024 1286.13 6.55335 1273.59 5.21609C1261.05 4.01256 1258.8 4.28001 1254.32 2.67529C1249.83 1.07058 1238.87 -2.27257 1232.67 3.87883C1226.46 10.0302 1221.44 6.2859 1217.48 10.9663C1213.52 15.6467 1209.17 18.1875 1213.92 23.2691C1218.67 28.3507 1229.63 29.1531 1235.83 30.0891C1242.04 31.0252 1253.52 29.5542 1246.92 34.3684C1240.32 39.3163 1234.51 38.9151 1228.04 38.3802C1221.44 37.8453 1218.94 32.7637 1214.05 33.4323C1209.17 34.1009 1205.21 27.2809 1206.13 23.0017C1207.05 18.7224 1212.99 12.7048 1206.53 13.9083C1199.92 15.1118 1197.28 16.1816 1193.59 23.0017C1189.89 29.8217 1176.95 25.6762 1180.25 35.1707C1183.55 44.5316 1186.33 47.741 1180.78 51.3516C1175.24 54.9622 1173.39 49.7469 1169.03 43.328C1164.68 36.9092 1159.66 36.1068 1159 35.037C1158.34 33.9672 1165.2 21.9319 1153.45 30.2229C1141.7 38.5139 1134.57 38.6476 1132.07 36.6417C1129.56 34.6358 1127.71 30.6241 1120.32 35.9731C1112.92 41.1884 1112.53 47.0724 1106.72 43.4618C1100.91 39.8512 1101.17 33.0311 1096.03 38.6476C1090.88 44.2641 1089.16 44.799 1086.26 45.8688C1083.35 46.9386 1079.52 47.8747 1079.52 47.8747Z" fill="#121212"/>
<path d="M1272.27 50.2816C1272.27 50.2816 1276.1 53.4911 1272.8 54.6946C1269.5 55.8981 1271.35 51.084 1268.31 56.0319C1265.27 60.9797 1265.14 60.3111 1260.26 59.9099C1255.37 59.5087 1255.9 57.6366 1250.75 61.7821C1245.6 65.9276 1241.64 62.5844 1240.06 65.3927C1238.47 68.3347 1234.25 67.5323 1240.06 71.5441C1245.87 75.5559 1243.09 75.6896 1248.11 75.6896C1253.13 75.6896 1257.35 75.021 1256.82 76.492C1256.3 77.9629 1249.03 77.5618 1245.47 77.5618C1241.77 77.5618 1240.45 74.7535 1240.32 79.8351C1240.19 84.9167 1242.96 77.8292 1241.25 86.254C1239.53 94.6787 1234.64 93.7426 1242.43 94.8124C1250.22 95.8822 1243.62 87.9924 1252.47 90.2657C1261.31 92.5391 1262.24 95.2136 1263.95 95.8822C1265.67 96.5509 1267.39 92.5391 1269.63 97.6207C1271.87 102.702 1271.48 103.103 1271.87 108.72C1272.14 114.203 1277.02 115.941 1275.17 119.552C1273.33 123.162 1270.16 120.488 1269.76 126.104C1269.37 131.721 1271.35 130.651 1270.29 134.797C1269.23 138.942 1264.61 143.89 1270.29 141.082C1275.97 138.407 1276.89 131.988 1278.34 137.07C1279.79 142.151 1281.64 143.489 1279.66 144.425C1277.68 145.361 1282.04 146.431 1278.34 145.628C1274.65 144.96 1273.06 143.89 1271.08 144.024C1269.1 144.157 1267.39 146.564 1267.91 147.768C1268.44 148.972 1266.2 147.902 1265.54 150.71C1264.88 153.518 1264.88 153.786 1266.46 155.658C1268.05 157.53 1272.8 157.129 1274.25 156.326C1275.7 155.524 1269.5 150.576 1273.33 149.908C1277.15 149.239 1279.13 151.913 1280.59 152.582C1282.04 153.251 1281.25 152.983 1279.66 157.129C1278.08 161.274 1275.83 163.949 1273.06 163.146C1270.29 162.344 1267.52 159.001 1267.52 162.879C1267.52 166.757 1266.2 168.629 1265.4 171.705C1264.74 174.781 1268.44 173.443 1266.33 176.385C1264.22 179.327 1260.52 178.926 1263.03 184.141C1265.54 189.357 1265.67 188.822 1266.33 191.496C1266.99 194.171 1270.16 190.694 1270.29 190.694C1270.42 190.694 1271.74 191.898 1269.63 193.636C1267.52 195.241 1265.14 195.107 1266.99 198.45C1268.84 201.793 1273.06 202.863 1272.01 205.404C1270.95 207.945 1267.91 205.538 1269.89 210.486C1271.87 215.433 1269.1 216.904 1273.59 217.172C1278.08 217.439 1279.93 211.555 1282.17 214.898C1284.28 218.242 1283.1 220.916 1285.87 221.585C1288.64 222.253 1289.56 223.858 1293 219.044C1296.43 214.23 1296.56 213.026 1298.01 210.084C1299.6 207.276 1292.47 209.416 1298.01 204.602C1303.56 199.654 1306.59 201.392 1307.52 198.316C1308.44 195.241 1306.07 194.171 1308.31 190.828C1310.56 187.485 1310.16 187.351 1316.1 186.816C1322.04 186.281 1326.13 185.746 1328.51 183.74C1330.89 181.734 1338.28 178.926 1339.34 176.385C1340.39 173.711 1339.2 169.699 1346.07 170.769C1352.93 171.839 1353.33 173.443 1356.76 171.17C1360.19 168.897 1357.95 164.083 1366.8 163.815C1375.64 163.681 1381.71 159.937 1378.55 158.6C1375.38 157.263 1369.96 158.065 1366.8 156.594C1363.63 155.123 1362.44 151.111 1366.27 150.309C1370.1 149.506 1369.17 149.506 1372.47 152.181C1375.77 154.855 1382.77 158.199 1383.3 155.123C1383.83 152.047 1386.73 146.431 1380.53 144.96C1374.32 143.489 1373.26 138.942 1372.6 136.669C1371.94 134.395 1370.62 125.168 1371.94 130.384C1373.26 135.599 1380.39 142.553 1380.79 138.675C1381.05 134.93 1373.79 133.994 1382.37 130.651C1390.96 127.308 1394.92 128.511 1396.9 122.494C1398.88 116.476 1399.14 115.674 1395.97 111.662C1392.8 107.65 1385.41 101.499 1389.37 98.0219C1393.33 94.545 1399.54 92.6728 1398.35 87.7249C1397.16 82.7771 1396.9 77.5618 1399.54 74.2186C1402.18 70.8755 1407.46 70.608 1406.8 64.4566C1406.14 58.3052 1404.55 54.6946 1410.76 53.7585C1416.96 52.8224 1421.19 52.9562 1420.4 49.2118C1419.6 45.4675 1417.89 42.3918 1412.47 43.4616C1406.93 44.5314 1407.59 42.9267 1400.2 47.7408C1392.8 52.555 1385.28 53.2236 1386.07 51.2177C1386.86 49.2118 1393.07 47.4734 1392.8 43.8628C1392.54 40.2522 1397.29 37.7114 1384.09 38.5137C1370.89 39.3161 1361.12 40.5196 1368.25 38.38C1375.24 36.2404 1373.26 35.8392 1381.19 35.3043C1389.11 34.7694 1401.78 37.7114 1402.84 35.3043C1403.89 32.8972 1406.93 29.8215 1397.95 28.3505C1388.97 26.8796 1385.81 26.4784 1385.28 24.4725C1384.75 22.4666 1381.45 20.8619 1376.04 20.8619C1370.49 20.8619 1375.11 18.856 1376.17 17.5187C1377.23 16.1815 1377.75 12.5709 1369.83 12.8383C1361.91 13.1058 1361.25 11.9022 1356.89 15.914C1352.54 19.9258 1347.26 18.3211 1342.37 20.1933C1337.49 22.0654 1334.45 13.3732 1334.19 27.5482C1333.92 41.7232 1332.47 46.1361 1330.75 42.6592C1329.04 39.1824 1331.15 35.438 1323.49 34.2345C1315.7 33.031 1313.72 27.5482 1310.56 26.3447C1307.39 25.1411 1312.54 30.2227 1307.91 30.6239C1303.29 31.0251 1298.67 26.0772 1294.71 30.4902C1290.75 34.9031 1285.47 37.9788 1284.55 37.8451C1283.76 37.7114 1281.78 43.4616 1278.34 43.5953C1274.91 43.729 1270.03 43.8628 1268.97 45.8687C1267.91 47.8746 1269.23 49.8805 1272.27 50.2816Z" fill="#121212"/>
</g>
<defs>
<clipPath id="clip0_935_5121">
<rect width="1420" height="749" fill="white"/>
</clipPath>
</defs>
</svg>
